%FSLAX45Y45*%
G04 Gerber Fmt 4.5, Leading zero omitted, Abs format (unit mm)*
G04 Created by KiCad (PCBNEW 6.0.1-79c1e3a40b~116~ubuntu21.04.1) date 2022-02-15 19:11:46*
%MOMM*%
%LPD*%
G01*
G04 APERTURE LIST*
%TA.AperFunction,Profile*%
%ADD10C,0.050000*%
%TD*%
%ADD11C,0.200000*%
G04 APERTURE END LIST*
D10*
X14414500Y-13123700D02*
X10414500Y-13123700D01*
X10414500Y-13123700D02*
X9964500Y-12673700D01*
X14414500Y-15623700D02*
X14414500Y-13123700D01*
X9964500Y-16073700D02*
X10414500Y-15623700D01*
X9514500Y-16073700D02*
X9914500Y-16073700D01*
X9964500Y-12673700D02*
X9514500Y-12673700D01*
X10414500Y-15623700D02*
X14414500Y-15623700D01*
X9914500Y-16073700D02*
X9964500Y-16073700D01*
X9514500Y-12673700D02*
X9514500Y-16073700D01*
D11*
X9769619Y-16386676D02*
X9769619Y-16186676D01*
X9817238Y-16186676D01*
X9845810Y-16196200D01*
X9864857Y-16215248D01*
X9874381Y-16234295D01*
X9883905Y-16272390D01*
X9883905Y-16300962D01*
X9874381Y-16339057D01*
X9864857Y-16358105D01*
X9845810Y-16377152D01*
X9817238Y-16386676D01*
X9769619Y-16386676D01*
X9969619Y-16386676D02*
X9969619Y-16253343D01*
X9969619Y-16291438D02*
X9979143Y-16272390D01*
X9988667Y-16262867D01*
X10007714Y-16253343D01*
X10026762Y-16253343D01*
X10093429Y-16386676D02*
X10093429Y-16253343D01*
X10093429Y-16186676D02*
X10083905Y-16196200D01*
X10093429Y-16205724D01*
X10102952Y-16196200D01*
X10093429Y-16186676D01*
X10093429Y-16205724D01*
X10217238Y-16386676D02*
X10198190Y-16377152D01*
X10188667Y-16358105D01*
X10188667Y-16186676D01*
X10322000Y-16386676D02*
X10302952Y-16377152D01*
X10293429Y-16358105D01*
X10293429Y-16186676D01*
X10550571Y-16386676D02*
X10550571Y-16186676D01*
X10617238Y-16329533D01*
X10683905Y-16186676D01*
X10683905Y-16386676D01*
X10864857Y-16386676D02*
X10864857Y-16281914D01*
X10855333Y-16262867D01*
X10836286Y-16253343D01*
X10798190Y-16253343D01*
X10779143Y-16262867D01*
X10864857Y-16377152D02*
X10845810Y-16386676D01*
X10798190Y-16386676D01*
X10779143Y-16377152D01*
X10769619Y-16358105D01*
X10769619Y-16339057D01*
X10779143Y-16320009D01*
X10798190Y-16310486D01*
X10845810Y-16310486D01*
X10864857Y-16300962D01*
X10960095Y-16253343D02*
X10960095Y-16453343D01*
X10960095Y-16262867D02*
X10979143Y-16253343D01*
X11017238Y-16253343D01*
X11036286Y-16262867D01*
X11045810Y-16272390D01*
X11055333Y-16291438D01*
X11055333Y-16348581D01*
X11045810Y-16367628D01*
X11036286Y-16377152D01*
X11017238Y-16386676D01*
X10979143Y-16386676D01*
X10960095Y-16377152D01*
X11141048Y-16367628D02*
X11150571Y-16377152D01*
X11141048Y-16386676D01*
X11131524Y-16377152D01*
X11141048Y-16367628D01*
X11141048Y-16386676D01*
X11141048Y-16262867D02*
X11150571Y-16272390D01*
X11141048Y-16281914D01*
X11131524Y-16272390D01*
X11141048Y-16262867D01*
X11141048Y-16281914D01*
M02*
