%FSLAX45Y45*%
G04 Gerber Fmt 4.5, Leading zero omitted, Abs format (unit mm)*
G04 Created by KiCad (PCBNEW 6.0.1-79c1e3a40b~116~ubuntu21.04.1) date 2022-02-15 19:11:46*
%MOMM*%
%LPD*%
G01*
G04 APERTURE LIST*
%TA.AperFunction,Profile*%
%ADD10C,0.050000*%
%TD*%
%ADD11C,0.200000*%
%ADD12C,0.040000*%
%ADD13C,0.100000*%
G04 APERTURE END LIST*
D10*
X14414500Y-13123700D02*
X10414500Y-13123700D01*
X10414500Y-13123700D02*
X9964500Y-12673700D01*
X14414500Y-15623700D02*
X14414500Y-13123700D01*
X9964500Y-16073700D02*
X10414500Y-15623700D01*
X9514500Y-16073700D02*
X9914500Y-16073700D01*
X9964500Y-12673700D02*
X9514500Y-12673700D01*
X10414500Y-15623700D02*
X14414500Y-15623700D01*
X9914500Y-16073700D02*
X9964500Y-16073700D01*
X9514500Y-12673700D02*
X9514500Y-16073700D01*
D11*
D12*
X10553300Y-14559600D02*
X10593300Y-14599600D01*
X10593300Y-14559600D02*
X10553300Y-14599600D01*
X10561100Y-15283500D02*
X10601100Y-15323500D01*
X10601100Y-15283500D02*
X10561100Y-15323500D01*
X10804500Y-15283700D02*
X10844500Y-15323700D01*
X10844500Y-15283700D02*
X10804500Y-15323700D01*
X10819500Y-15453700D02*
X10859500Y-15493700D01*
X10859500Y-15453700D02*
X10819500Y-15493700D01*
X11029500Y-14644200D02*
X11069500Y-14684200D01*
X11069500Y-14644200D02*
X11029500Y-14684200D01*
X11029500Y-14898200D02*
X11069500Y-14938200D01*
X11069500Y-14898200D02*
X11029500Y-14938200D01*
X11029500Y-15025200D02*
X11069500Y-15065200D01*
X11069500Y-15025200D02*
X11029500Y-15065200D01*
X11084500Y-15283700D02*
X11124500Y-15323700D01*
X11124500Y-15283700D02*
X11084500Y-15323700D01*
X11272300Y-13810300D02*
X11312300Y-13850300D01*
X11312300Y-13810300D02*
X11272300Y-13850300D01*
X11272300Y-14064300D02*
X11312300Y-14104300D01*
X11312300Y-14064300D02*
X11272300Y-14104300D01*
X11272300Y-14419900D02*
X11312300Y-14459900D01*
X11312300Y-14419900D02*
X11272300Y-14459900D01*
X11297000Y-14725000D02*
X11337000Y-14765000D01*
X11337000Y-14725000D02*
X11297000Y-14765000D01*
X11297700Y-13535698D02*
X11337700Y-13575698D01*
X11337700Y-13535698D02*
X11297700Y-13575698D01*
X11394500Y-15213700D02*
X11434500Y-15253700D01*
X11434500Y-15213700D02*
X11394500Y-15253700D01*
X11644500Y-15493700D02*
X11684500Y-15533700D01*
X11684500Y-15493700D02*
X11644500Y-15533700D01*
X11653300Y-13911900D02*
X11693300Y-13951900D01*
X11693300Y-13911900D02*
X11653300Y-13951900D01*
X11653300Y-14165900D02*
X11693300Y-14205900D01*
X11693300Y-14165900D02*
X11653300Y-14205900D01*
X11653300Y-14318300D02*
X11693300Y-14358300D01*
X11693300Y-14318300D02*
X11653300Y-14358300D01*
X11678700Y-13708700D02*
X11718700Y-13748700D01*
X11718700Y-13708700D02*
X11678700Y-13748700D01*
X11780300Y-14445300D02*
X11820300Y-14485300D01*
X11820300Y-14445300D02*
X11780300Y-14485300D01*
X11780300Y-14614150D02*
X11820300Y-14654150D01*
X11820300Y-14614150D02*
X11780300Y-14654150D01*
X11831100Y-13988100D02*
X11871100Y-14028100D01*
X11871100Y-13988100D02*
X11831100Y-14028100D01*
X11959500Y-13882200D02*
X11999500Y-13922200D01*
X11999500Y-13882200D02*
X11959500Y-13922200D01*
X11959500Y-14136200D02*
X11999500Y-14176200D01*
X11999500Y-14136200D02*
X11959500Y-14176200D01*
X11959500Y-14390200D02*
X11999500Y-14430200D01*
X11999500Y-14390200D02*
X11959500Y-14430200D01*
X11959500Y-14517200D02*
X11999500Y-14557200D01*
X11999500Y-14517200D02*
X11959500Y-14557200D01*
X11959500Y-14644200D02*
X11999500Y-14684200D01*
X11999500Y-14644200D02*
X11959500Y-14684200D01*
X12044500Y-15403700D02*
X12084500Y-15443700D01*
X12084500Y-15403700D02*
X12044500Y-15443700D01*
X12119500Y-15203700D02*
X12159500Y-15243700D01*
X12159500Y-15203700D02*
X12119500Y-15243700D01*
X12147000Y-15106200D02*
X12187000Y-15146200D01*
X12187000Y-15106200D02*
X12147000Y-15146200D01*
X12169500Y-15403700D02*
X12209500Y-15443700D01*
X12209500Y-15403700D02*
X12169500Y-15443700D01*
X12194500Y-14082450D02*
X12234500Y-14122450D01*
X12234500Y-14082450D02*
X12194500Y-14122450D01*
X12194500Y-14582450D02*
X12234500Y-14622450D01*
X12234500Y-14582450D02*
X12194500Y-14622450D01*
X12444500Y-15178700D02*
X12484500Y-15218700D01*
X12484500Y-15178700D02*
X12444500Y-15218700D01*
X12494500Y-15343700D02*
X12534500Y-15383700D01*
X12534500Y-15343700D02*
X12494500Y-15383700D01*
X12532000Y-14533700D02*
X12572000Y-14573700D01*
X12572000Y-14533700D02*
X12532000Y-14573700D01*
X12532000Y-14633700D02*
X12572000Y-14673700D01*
X12572000Y-14633700D02*
X12532000Y-14673700D01*
X12600765Y-15347435D02*
X12640765Y-15387435D01*
X12640765Y-15347435D02*
X12600765Y-15387435D01*
X12819500Y-13878700D02*
X12859500Y-13918700D01*
X12859500Y-13878700D02*
X12819500Y-13918700D01*
X12824500Y-14533700D02*
X12864500Y-14573700D01*
X12864500Y-14533700D02*
X12824500Y-14573700D01*
X13044500Y-14678700D02*
X13084500Y-14718700D01*
X13084500Y-14678700D02*
X13044500Y-14718700D01*
X13144500Y-14673700D02*
X13184500Y-14713700D01*
X13184500Y-14673700D02*
X13144500Y-14713700D01*
X13469500Y-13877200D02*
X13509500Y-13917200D01*
X13509500Y-13877200D02*
X13469500Y-13917200D01*
X13474500Y-14533700D02*
X13514500Y-14573700D01*
X13514500Y-14533700D02*
X13474500Y-14573700D01*
X13694500Y-14678700D02*
X13734500Y-14718700D01*
X13734500Y-14678700D02*
X13694500Y-14718700D01*
X13794500Y-14673700D02*
X13834500Y-14713700D01*
X13834500Y-14673700D02*
X13794500Y-14713700D01*
X14119500Y-13877200D02*
X14159500Y-13917200D01*
X14159500Y-13877200D02*
X14119500Y-13917200D01*
X14124500Y-14523700D02*
X14164500Y-14563700D01*
X14164500Y-14523700D02*
X14124500Y-14563700D01*
X14324500Y-13773700D02*
X14364500Y-13813700D01*
X14364500Y-13773700D02*
X14324500Y-13813700D01*
X14332000Y-14653700D02*
X14372000Y-14693700D01*
X14372000Y-14653700D02*
X14332000Y-14693700D01*
D13*
X9767500Y-12851900D02*
G75*
G03*
X9767500Y-12851900I-50000J0D01*
G01*
X9767500Y-13105900D02*
G75*
G03*
X9767500Y-13105900I-50000J0D01*
G01*
X9767500Y-13359900D02*
G75*
G03*
X9767500Y-13359900I-50000J0D01*
G01*
X9767500Y-13613900D02*
G75*
G03*
X9767500Y-13613900I-50000J0D01*
G01*
X9767500Y-13867900D02*
G75*
G03*
X9767500Y-13867900I-50000J0D01*
G01*
X9767500Y-14375900D02*
G75*
G03*
X9767500Y-14375900I-50000J0D01*
G01*
X9767500Y-14629900D02*
G75*
G03*
X9767500Y-14629900I-50000J0D01*
G01*
X9767500Y-14883900D02*
G75*
G03*
X9767500Y-14883900I-50000J0D01*
G01*
X9767500Y-15137900D02*
G75*
G03*
X9767500Y-15137900I-50000J0D01*
G01*
X9767500Y-15391900D02*
G75*
G03*
X9767500Y-15391900I-50000J0D01*
G01*
X9767500Y-15645900D02*
G75*
G03*
X9767500Y-15645900I-50000J0D01*
G01*
X9767500Y-15899900D02*
G75*
G03*
X9767500Y-15899900I-50000J0D01*
G01*
D11*
X9769619Y-16386676D02*
X9769619Y-16186676D01*
X9817238Y-16186676D01*
X9845810Y-16196200D01*
X9864857Y-16215248D01*
X9874381Y-16234295D01*
X9883905Y-16272390D01*
X9883905Y-16300962D01*
X9874381Y-16339057D01*
X9864857Y-16358105D01*
X9845810Y-16377152D01*
X9817238Y-16386676D01*
X9769619Y-16386676D01*
X9969619Y-16386676D02*
X9969619Y-16253343D01*
X9969619Y-16291438D02*
X9979143Y-16272390D01*
X9988667Y-16262867D01*
X10007714Y-16253343D01*
X10026762Y-16253343D01*
X10093429Y-16386676D02*
X10093429Y-16253343D01*
X10093429Y-16186676D02*
X10083905Y-16196200D01*
X10093429Y-16205724D01*
X10102952Y-16196200D01*
X10093429Y-16186676D01*
X10093429Y-16205724D01*
X10217238Y-16386676D02*
X10198190Y-16377152D01*
X10188667Y-16358105D01*
X10188667Y-16186676D01*
X10322000Y-16386676D02*
X10302952Y-16377152D01*
X10293429Y-16358105D01*
X10293429Y-16186676D01*
X10550571Y-16386676D02*
X10550571Y-16186676D01*
X10617238Y-16329533D01*
X10683905Y-16186676D01*
X10683905Y-16386676D01*
X10864857Y-16386676D02*
X10864857Y-16281914D01*
X10855333Y-16262867D01*
X10836286Y-16253343D01*
X10798190Y-16253343D01*
X10779143Y-16262867D01*
X10864857Y-16377152D02*
X10845810Y-16386676D01*
X10798190Y-16386676D01*
X10779143Y-16377152D01*
X10769619Y-16358105D01*
X10769619Y-16339057D01*
X10779143Y-16320009D01*
X10798190Y-16310486D01*
X10845810Y-16310486D01*
X10864857Y-16300962D01*
X10960095Y-16253343D02*
X10960095Y-16453343D01*
X10960095Y-16262867D02*
X10979143Y-16253343D01*
X11017238Y-16253343D01*
X11036286Y-16262867D01*
X11045810Y-16272390D01*
X11055333Y-16291438D01*
X11055333Y-16348581D01*
X11045810Y-16367628D01*
X11036286Y-16377152D01*
X11017238Y-16386676D01*
X10979143Y-16386676D01*
X10960095Y-16377152D01*
X11141048Y-16367628D02*
X11150571Y-16377152D01*
X11141048Y-16386676D01*
X11131524Y-16377152D01*
X11141048Y-16367628D01*
X11141048Y-16386676D01*
X11141048Y-16262867D02*
X11150571Y-16272390D01*
X11141048Y-16281914D01*
X11131524Y-16272390D01*
X11141048Y-16262867D01*
X11141048Y-16281914D01*
D12*
X9472000Y-16696200D02*
X9512000Y-16736200D01*
X9512000Y-16696200D02*
X9472000Y-16736200D01*
D11*
X9807714Y-16606676D02*
X9826762Y-16606676D01*
X9845810Y-16616200D01*
X9855333Y-16625724D01*
X9864857Y-16644771D01*
X9874381Y-16682867D01*
X9874381Y-16730486D01*
X9864857Y-16768581D01*
X9855333Y-16787629D01*
X9845810Y-16797152D01*
X9826762Y-16806676D01*
X9807714Y-16806676D01*
X9788667Y-16797152D01*
X9779143Y-16787629D01*
X9769619Y-16768581D01*
X9760095Y-16730486D01*
X9760095Y-16682867D01*
X9769619Y-16644771D01*
X9779143Y-16625724D01*
X9788667Y-16616200D01*
X9807714Y-16606676D01*
X9960095Y-16787629D02*
X9969619Y-16797152D01*
X9960095Y-16806676D01*
X9950571Y-16797152D01*
X9960095Y-16787629D01*
X9960095Y-16806676D01*
X10141048Y-16673343D02*
X10141048Y-16806676D01*
X10093429Y-16597152D02*
X10045810Y-16740009D01*
X10169619Y-16740009D01*
X10283905Y-16606676D02*
X10302952Y-16606676D01*
X10322000Y-16616200D01*
X10331524Y-16625724D01*
X10341048Y-16644771D01*
X10350571Y-16682867D01*
X10350571Y-16730486D01*
X10341048Y-16768581D01*
X10331524Y-16787629D01*
X10322000Y-16797152D01*
X10302952Y-16806676D01*
X10283905Y-16806676D01*
X10264857Y-16797152D01*
X10255333Y-16787629D01*
X10245810Y-16768581D01*
X10236286Y-16730486D01*
X10236286Y-16682867D01*
X10245810Y-16644771D01*
X10255333Y-16625724D01*
X10264857Y-16616200D01*
X10283905Y-16606676D01*
X10474381Y-16606676D02*
X10493429Y-16606676D01*
X10512476Y-16616200D01*
X10522000Y-16625724D01*
X10531524Y-16644771D01*
X10541048Y-16682867D01*
X10541048Y-16730486D01*
X10531524Y-16768581D01*
X10522000Y-16787629D01*
X10512476Y-16797152D01*
X10493429Y-16806676D01*
X10474381Y-16806676D01*
X10455333Y-16797152D01*
X10445810Y-16787629D01*
X10436286Y-16768581D01*
X10426762Y-16730486D01*
X10426762Y-16682867D01*
X10436286Y-16644771D01*
X10445810Y-16625724D01*
X10455333Y-16616200D01*
X10474381Y-16606676D01*
X10626762Y-16806676D02*
X10626762Y-16673343D01*
X10626762Y-16692390D02*
X10636286Y-16682867D01*
X10655333Y-16673343D01*
X10683905Y-16673343D01*
X10702952Y-16682867D01*
X10712476Y-16701914D01*
X10712476Y-16806676D01*
X10712476Y-16701914D02*
X10722000Y-16682867D01*
X10741048Y-16673343D01*
X10769619Y-16673343D01*
X10788667Y-16682867D01*
X10798190Y-16701914D01*
X10798190Y-16806676D01*
X10893429Y-16806676D02*
X10893429Y-16673343D01*
X10893429Y-16692390D02*
X10902952Y-16682867D01*
X10922000Y-16673343D01*
X10950571Y-16673343D01*
X10969619Y-16682867D01*
X10979143Y-16701914D01*
X10979143Y-16806676D01*
X10979143Y-16701914D02*
X10988667Y-16682867D01*
X11007714Y-16673343D01*
X11036286Y-16673343D01*
X11055333Y-16682867D01*
X11064857Y-16701914D01*
X11064857Y-16806676D01*
X11455333Y-16597152D02*
X11283905Y-16854295D01*
X11712476Y-16606676D02*
X11731524Y-16606676D01*
X11750571Y-16616200D01*
X11760095Y-16625724D01*
X11769619Y-16644771D01*
X11779143Y-16682867D01*
X11779143Y-16730486D01*
X11769619Y-16768581D01*
X11760095Y-16787629D01*
X11750571Y-16797152D01*
X11731524Y-16806676D01*
X11712476Y-16806676D01*
X11693428Y-16797152D01*
X11683905Y-16787629D01*
X11674381Y-16768581D01*
X11664857Y-16730486D01*
X11664857Y-16682867D01*
X11674381Y-16644771D01*
X11683905Y-16625724D01*
X11693428Y-16616200D01*
X11712476Y-16606676D01*
X11864857Y-16787629D02*
X11874381Y-16797152D01*
X11864857Y-16806676D01*
X11855333Y-16797152D01*
X11864857Y-16787629D01*
X11864857Y-16806676D01*
X11998190Y-16606676D02*
X12017238Y-16606676D01*
X12036286Y-16616200D01*
X12045809Y-16625724D01*
X12055333Y-16644771D01*
X12064857Y-16682867D01*
X12064857Y-16730486D01*
X12055333Y-16768581D01*
X12045809Y-16787629D01*
X12036286Y-16797152D01*
X12017238Y-16806676D01*
X11998190Y-16806676D01*
X11979143Y-16797152D01*
X11969619Y-16787629D01*
X11960095Y-16768581D01*
X11950571Y-16730486D01*
X11950571Y-16682867D01*
X11960095Y-16644771D01*
X11969619Y-16625724D01*
X11979143Y-16616200D01*
X11998190Y-16606676D01*
X12255333Y-16806676D02*
X12141048Y-16806676D01*
X12198190Y-16806676D02*
X12198190Y-16606676D01*
X12179143Y-16635248D01*
X12160095Y-16654295D01*
X12141048Y-16663819D01*
X12436286Y-16606676D02*
X12341048Y-16606676D01*
X12331524Y-16701914D01*
X12341048Y-16692390D01*
X12360095Y-16682867D01*
X12407714Y-16682867D01*
X12426762Y-16692390D01*
X12436286Y-16701914D01*
X12445809Y-16720962D01*
X12445809Y-16768581D01*
X12436286Y-16787629D01*
X12426762Y-16797152D01*
X12407714Y-16806676D01*
X12360095Y-16806676D01*
X12341048Y-16797152D01*
X12331524Y-16787629D01*
X12512476Y-16606676D02*
X12645809Y-16606676D01*
X12560095Y-16806676D01*
X12712476Y-16606676D02*
X12712476Y-16644771D01*
X12788667Y-16606676D02*
X12788667Y-16644771D01*
X13083905Y-16882867D02*
X13074381Y-16873343D01*
X13055333Y-16844771D01*
X13045809Y-16825724D01*
X13036286Y-16797152D01*
X13026762Y-16749533D01*
X13026762Y-16711438D01*
X13036286Y-16663819D01*
X13045809Y-16635248D01*
X13055333Y-16616200D01*
X13074381Y-16587628D01*
X13083905Y-16578105D01*
X13255333Y-16606676D02*
X13160095Y-16606676D01*
X13150571Y-16701914D01*
X13160095Y-16692390D01*
X13179143Y-16682867D01*
X13226762Y-16682867D01*
X13245809Y-16692390D01*
X13255333Y-16701914D01*
X13264857Y-16720962D01*
X13264857Y-16768581D01*
X13255333Y-16787629D01*
X13245809Y-16797152D01*
X13226762Y-16806676D01*
X13179143Y-16806676D01*
X13160095Y-16797152D01*
X13150571Y-16787629D01*
X13388667Y-16606676D02*
X13407714Y-16606676D01*
X13426762Y-16616200D01*
X13436286Y-16625724D01*
X13445809Y-16644771D01*
X13455333Y-16682867D01*
X13455333Y-16730486D01*
X13445809Y-16768581D01*
X13436286Y-16787629D01*
X13426762Y-16797152D01*
X13407714Y-16806676D01*
X13388667Y-16806676D01*
X13369619Y-16797152D01*
X13360095Y-16787629D01*
X13350571Y-16768581D01*
X13341048Y-16730486D01*
X13341048Y-16682867D01*
X13350571Y-16644771D01*
X13360095Y-16625724D01*
X13369619Y-16616200D01*
X13388667Y-16606676D01*
X13693428Y-16806676D02*
X13693428Y-16606676D01*
X13779143Y-16806676D02*
X13779143Y-16701914D01*
X13769619Y-16682867D01*
X13750571Y-16673343D01*
X13722000Y-16673343D01*
X13702952Y-16682867D01*
X13693428Y-16692390D01*
X13902952Y-16806676D02*
X13883905Y-16797152D01*
X13874381Y-16787629D01*
X13864857Y-16768581D01*
X13864857Y-16711438D01*
X13874381Y-16692390D01*
X13883905Y-16682867D01*
X13902952Y-16673343D01*
X13931524Y-16673343D01*
X13950571Y-16682867D01*
X13960095Y-16692390D01*
X13969619Y-16711438D01*
X13969619Y-16768581D01*
X13960095Y-16787629D01*
X13950571Y-16797152D01*
X13931524Y-16806676D01*
X13902952Y-16806676D01*
X14083905Y-16806676D02*
X14064857Y-16797152D01*
X14055333Y-16778105D01*
X14055333Y-16606676D01*
X14236286Y-16797152D02*
X14217238Y-16806676D01*
X14179143Y-16806676D01*
X14160095Y-16797152D01*
X14150571Y-16778105D01*
X14150571Y-16701914D01*
X14160095Y-16682867D01*
X14179143Y-16673343D01*
X14217238Y-16673343D01*
X14236286Y-16682867D01*
X14245809Y-16701914D01*
X14245809Y-16720962D01*
X14150571Y-16740009D01*
X14322000Y-16797152D02*
X14341048Y-16806676D01*
X14379143Y-16806676D01*
X14398190Y-16797152D01*
X14407714Y-16778105D01*
X14407714Y-16768581D01*
X14398190Y-16749533D01*
X14379143Y-16740009D01*
X14350571Y-16740009D01*
X14331524Y-16730486D01*
X14322000Y-16711438D01*
X14322000Y-16701914D01*
X14331524Y-16682867D01*
X14350571Y-16673343D01*
X14379143Y-16673343D01*
X14398190Y-16682867D01*
X14474381Y-16882867D02*
X14483905Y-16873343D01*
X14502952Y-16844771D01*
X14512476Y-16825724D01*
X14522000Y-16797152D01*
X14531524Y-16749533D01*
X14531524Y-16711438D01*
X14522000Y-16663819D01*
X14512476Y-16635248D01*
X14502952Y-16616200D01*
X14483905Y-16587628D01*
X14474381Y-16578105D01*
D13*
X9512000Y-16980200D02*
G75*
G03*
X9512000Y-16980200I-50000J0D01*
G01*
D11*
X9874381Y-17070676D02*
X9760095Y-17070676D01*
X9817238Y-17070676D02*
X9817238Y-16870676D01*
X9798190Y-16899248D01*
X9779143Y-16918295D01*
X9760095Y-16927819D01*
X9960095Y-17051629D02*
X9969619Y-17061152D01*
X9960095Y-17070676D01*
X9950571Y-17061152D01*
X9960095Y-17051629D01*
X9960095Y-17070676D01*
X10093429Y-16870676D02*
X10112476Y-16870676D01*
X10131524Y-16880200D01*
X10141048Y-16889724D01*
X10150571Y-16908771D01*
X10160095Y-16946867D01*
X10160095Y-16994486D01*
X10150571Y-17032581D01*
X10141048Y-17051629D01*
X10131524Y-17061152D01*
X10112476Y-17070676D01*
X10093429Y-17070676D01*
X10074381Y-17061152D01*
X10064857Y-17051629D01*
X10055333Y-17032581D01*
X10045810Y-16994486D01*
X10045810Y-16946867D01*
X10055333Y-16908771D01*
X10064857Y-16889724D01*
X10074381Y-16880200D01*
X10093429Y-16870676D01*
X10283905Y-16870676D02*
X10302952Y-16870676D01*
X10322000Y-16880200D01*
X10331524Y-16889724D01*
X10341048Y-16908771D01*
X10350571Y-16946867D01*
X10350571Y-16994486D01*
X10341048Y-17032581D01*
X10331524Y-17051629D01*
X10322000Y-17061152D01*
X10302952Y-17070676D01*
X10283905Y-17070676D01*
X10264857Y-17061152D01*
X10255333Y-17051629D01*
X10245810Y-17032581D01*
X10236286Y-16994486D01*
X10236286Y-16946867D01*
X10245810Y-16908771D01*
X10255333Y-16889724D01*
X10264857Y-16880200D01*
X10283905Y-16870676D01*
X10474381Y-16870676D02*
X10493429Y-16870676D01*
X10512476Y-16880200D01*
X10522000Y-16889724D01*
X10531524Y-16908771D01*
X10541048Y-16946867D01*
X10541048Y-16994486D01*
X10531524Y-17032581D01*
X10522000Y-17051629D01*
X10512476Y-17061152D01*
X10493429Y-17070676D01*
X10474381Y-17070676D01*
X10455333Y-17061152D01*
X10445810Y-17051629D01*
X10436286Y-17032581D01*
X10426762Y-16994486D01*
X10426762Y-16946867D01*
X10436286Y-16908771D01*
X10445810Y-16889724D01*
X10455333Y-16880200D01*
X10474381Y-16870676D01*
X10626762Y-17070676D02*
X10626762Y-16937343D01*
X10626762Y-16956390D02*
X10636286Y-16946867D01*
X10655333Y-16937343D01*
X10683905Y-16937343D01*
X10702952Y-16946867D01*
X10712476Y-16965914D01*
X10712476Y-17070676D01*
X10712476Y-16965914D02*
X10722000Y-16946867D01*
X10741048Y-16937343D01*
X10769619Y-16937343D01*
X10788667Y-16946867D01*
X10798190Y-16965914D01*
X10798190Y-17070676D01*
X10893429Y-17070676D02*
X10893429Y-16937343D01*
X10893429Y-16956390D02*
X10902952Y-16946867D01*
X10922000Y-16937343D01*
X10950571Y-16937343D01*
X10969619Y-16946867D01*
X10979143Y-16965914D01*
X10979143Y-17070676D01*
X10979143Y-16965914D02*
X10988667Y-16946867D01*
X11007714Y-16937343D01*
X11036286Y-16937343D01*
X11055333Y-16946867D01*
X11064857Y-16965914D01*
X11064857Y-17070676D01*
X11455333Y-16861152D02*
X11283905Y-17118295D01*
X11712476Y-16870676D02*
X11731524Y-16870676D01*
X11750571Y-16880200D01*
X11760095Y-16889724D01*
X11769619Y-16908771D01*
X11779143Y-16946867D01*
X11779143Y-16994486D01*
X11769619Y-17032581D01*
X11760095Y-17051629D01*
X11750571Y-17061152D01*
X11731524Y-17070676D01*
X11712476Y-17070676D01*
X11693428Y-17061152D01*
X11683905Y-17051629D01*
X11674381Y-17032581D01*
X11664857Y-16994486D01*
X11664857Y-16946867D01*
X11674381Y-16908771D01*
X11683905Y-16889724D01*
X11693428Y-16880200D01*
X11712476Y-16870676D01*
X11864857Y-17051629D02*
X11874381Y-17061152D01*
X11864857Y-17070676D01*
X11855333Y-17061152D01*
X11864857Y-17051629D01*
X11864857Y-17070676D01*
X11998190Y-16870676D02*
X12017238Y-16870676D01*
X12036286Y-16880200D01*
X12045809Y-16889724D01*
X12055333Y-16908771D01*
X12064857Y-16946867D01*
X12064857Y-16994486D01*
X12055333Y-17032581D01*
X12045809Y-17051629D01*
X12036286Y-17061152D01*
X12017238Y-17070676D01*
X11998190Y-17070676D01*
X11979143Y-17061152D01*
X11969619Y-17051629D01*
X11960095Y-17032581D01*
X11950571Y-16994486D01*
X11950571Y-16946867D01*
X11960095Y-16908771D01*
X11969619Y-16889724D01*
X11979143Y-16880200D01*
X11998190Y-16870676D01*
X12131524Y-16870676D02*
X12255333Y-16870676D01*
X12188667Y-16946867D01*
X12217238Y-16946867D01*
X12236286Y-16956390D01*
X12245809Y-16965914D01*
X12255333Y-16984962D01*
X12255333Y-17032581D01*
X12245809Y-17051629D01*
X12236286Y-17061152D01*
X12217238Y-17070676D01*
X12160095Y-17070676D01*
X12141048Y-17061152D01*
X12131524Y-17051629D01*
X12350571Y-17070676D02*
X12388667Y-17070676D01*
X12407714Y-17061152D01*
X12417238Y-17051629D01*
X12436286Y-17023057D01*
X12445809Y-16984962D01*
X12445809Y-16908771D01*
X12436286Y-16889724D01*
X12426762Y-16880200D01*
X12407714Y-16870676D01*
X12369619Y-16870676D01*
X12350571Y-16880200D01*
X12341048Y-16889724D01*
X12331524Y-16908771D01*
X12331524Y-16956390D01*
X12341048Y-16975438D01*
X12350571Y-16984962D01*
X12369619Y-16994486D01*
X12407714Y-16994486D01*
X12426762Y-16984962D01*
X12436286Y-16975438D01*
X12445809Y-16956390D01*
X12617238Y-16937343D02*
X12617238Y-17070676D01*
X12569619Y-16861152D02*
X12522000Y-17004010D01*
X12645809Y-17004010D01*
X12712476Y-16870676D02*
X12712476Y-16908771D01*
X12788667Y-16870676D02*
X12788667Y-16908771D01*
X13083905Y-17146867D02*
X13074381Y-17137343D01*
X13055333Y-17108771D01*
X13045809Y-17089724D01*
X13036286Y-17061152D01*
X13026762Y-17013533D01*
X13026762Y-16975438D01*
X13036286Y-16927819D01*
X13045809Y-16899248D01*
X13055333Y-16880200D01*
X13074381Y-16851629D01*
X13083905Y-16842105D01*
X13264857Y-17070676D02*
X13150571Y-17070676D01*
X13207714Y-17070676D02*
X13207714Y-16870676D01*
X13188667Y-16899248D01*
X13169619Y-16918295D01*
X13150571Y-16927819D01*
X13341048Y-16889724D02*
X13350571Y-16880200D01*
X13369619Y-16870676D01*
X13417238Y-16870676D01*
X13436286Y-16880200D01*
X13445809Y-16889724D01*
X13455333Y-16908771D01*
X13455333Y-16927819D01*
X13445809Y-16956390D01*
X13331524Y-17070676D01*
X13455333Y-17070676D01*
X13693428Y-17070676D02*
X13693428Y-16870676D01*
X13779143Y-17070676D02*
X13779143Y-16965914D01*
X13769619Y-16946867D01*
X13750571Y-16937343D01*
X13722000Y-16937343D01*
X13702952Y-16946867D01*
X13693428Y-16956390D01*
X13902952Y-17070676D02*
X13883905Y-17061152D01*
X13874381Y-17051629D01*
X13864857Y-17032581D01*
X13864857Y-16975438D01*
X13874381Y-16956390D01*
X13883905Y-16946867D01*
X13902952Y-16937343D01*
X13931524Y-16937343D01*
X13950571Y-16946867D01*
X13960095Y-16956390D01*
X13969619Y-16975438D01*
X13969619Y-17032581D01*
X13960095Y-17051629D01*
X13950571Y-17061152D01*
X13931524Y-17070676D01*
X13902952Y-17070676D01*
X14083905Y-17070676D02*
X14064857Y-17061152D01*
X14055333Y-17042105D01*
X14055333Y-16870676D01*
X14236286Y-17061152D02*
X14217238Y-17070676D01*
X14179143Y-17070676D01*
X14160095Y-17061152D01*
X14150571Y-17042105D01*
X14150571Y-16965914D01*
X14160095Y-16946867D01*
X14179143Y-16937343D01*
X14217238Y-16937343D01*
X14236286Y-16946867D01*
X14245809Y-16965914D01*
X14245809Y-16984962D01*
X14150571Y-17004010D01*
X14322000Y-17061152D02*
X14341048Y-17070676D01*
X14379143Y-17070676D01*
X14398190Y-17061152D01*
X14407714Y-17042105D01*
X14407714Y-17032581D01*
X14398190Y-17013533D01*
X14379143Y-17004010D01*
X14350571Y-17004010D01*
X14331524Y-16994486D01*
X14322000Y-16975438D01*
X14322000Y-16965914D01*
X14331524Y-16946867D01*
X14350571Y-16937343D01*
X14379143Y-16937343D01*
X14398190Y-16946867D01*
X14474381Y-17146867D02*
X14483905Y-17137343D01*
X14502952Y-17108771D01*
X14512476Y-17089724D01*
X14522000Y-17061152D01*
X14531524Y-17013533D01*
X14531524Y-16975438D01*
X14522000Y-16927819D01*
X14512476Y-16899248D01*
X14502952Y-16880200D01*
X14483905Y-16851629D01*
X14474381Y-16842105D01*
M02*
