G04 #@! TF.GenerationSoftware,KiCad,Pcbnew,6.0.1-79c1e3a40b~116~ubuntu21.04.1*
G04 #@! TF.CreationDate,2022-02-15T19:11:40-05:00*
G04 #@! TF.ProjectId,ESC_driver,4553435f-6472-4697-9665-722e6b696361,rev?*
G04 #@! TF.SameCoordinates,Original*
G04 #@! TF.FileFunction,Legend,Top*
G04 #@! TF.FilePolarity,Positive*
%FSLAX46Y46*%
G04 Gerber Fmt 4.6, Leading zero omitted, Abs format (unit mm)*
G04 Created by KiCad (PCBNEW 6.0.1-79c1e3a40b~116~ubuntu21.04.1) date 2022-02-15 19:11:40*
%MOMM*%
%LPD*%
G01*
G04 APERTURE LIST*
G04 Aperture macros list*
%AMRoundRect*
0 Rectangle with rounded corners*
0 $1 Rounding radius*
0 $2 $3 $4 $5 $6 $7 $8 $9 X,Y pos of 4 corners*
0 Add a 4 corners polygon primitive as box body*
4,1,4,$2,$3,$4,$5,$6,$7,$8,$9,$2,$3,0*
0 Add four circle primitives for the rounded corners*
1,1,$1+$1,$2,$3*
1,1,$1+$1,$4,$5*
1,1,$1+$1,$6,$7*
1,1,$1+$1,$8,$9*
0 Add four rect primitives between the rounded corners*
20,1,$1+$1,$2,$3,$4,$5,0*
20,1,$1+$1,$4,$5,$6,$7,0*
20,1,$1+$1,$6,$7,$8,$9,0*
20,1,$1+$1,$8,$9,$2,$3,0*%
G04 Aperture macros list end*
%ADD10C,0.120000*%
%ADD11C,0.150000*%
%ADD12C,0.300000*%
%ADD13RoundRect,0.268750X-0.256250X0.218750X-0.256250X-0.218750X0.256250X-0.218750X0.256250X0.218750X0*%
%ADD14RoundRect,0.268750X0.256250X-0.218750X0.256250X0.218750X-0.256250X0.218750X-0.256250X-0.218750X0*%
%ADD15RoundRect,0.050000X-0.550000X0.550000X-0.550000X-0.550000X0.550000X-0.550000X0.550000X0.550000X0*%
%ADD16RoundRect,0.050000X0.550000X0.550000X-0.550000X0.550000X-0.550000X-0.550000X0.550000X-0.550000X0*%
%ADD17RoundRect,0.050000X-0.400000X-0.250000X0.400000X-0.250000X0.400000X0.250000X-0.400000X0.250000X0*%
%ADD18RoundRect,0.050000X-0.400000X-0.200000X0.400000X-0.200000X0.400000X0.200000X-0.400000X0.200000X0*%
%ADD19RoundRect,0.050000X0.400000X0.250000X-0.400000X0.250000X-0.400000X-0.250000X0.400000X-0.250000X0*%
%ADD20RoundRect,0.050000X0.400000X0.200000X-0.400000X0.200000X-0.400000X-0.200000X0.400000X-0.200000X0*%
%ADD21RoundRect,0.200000X-0.875000X-0.150000X0.875000X-0.150000X0.875000X0.150000X-0.875000X0.150000X0*%
%ADD22RoundRect,0.050000X0.850000X0.850000X-0.850000X0.850000X-0.850000X-0.850000X0.850000X-0.850000X0*%
%ADD23O,1.800000X1.800000*%
G04 APERTURE END LIST*
D10*
X98933000Y-135255000D02*
X99695000Y-134493000D01*
X101981000Y-138303000D02*
X103759000Y-136525000D01*
X99187000Y-134493000D02*
X98933000Y-134747000D01*
X101600000Y-135636000D02*
X103124000Y-134112000D01*
X96520000Y-141224000D02*
X97536000Y-140208000D01*
X102108000Y-133096000D02*
X103759000Y-131445000D01*
X105815000Y-131953000D02*
X106323000Y-131445000D01*
X100584000Y-130556000D02*
X101346000Y-129794000D01*
X100838000Y-136906000D02*
X99949000Y-137795000D01*
X109347000Y-133477000D02*
X109728000Y-133096000D01*
X104807000Y-131953000D02*
X105315000Y-131445000D01*
X102235000Y-131445000D02*
X102997000Y-130683000D01*
X95504000Y-140208000D02*
X95504000Y-140716000D01*
X107831000Y-131953000D02*
X108339000Y-131445000D01*
X102108000Y-136144000D02*
X104140000Y-134112000D01*
X103759000Y-137033000D02*
X101981000Y-138811000D01*
X104303000Y-131953000D02*
X104811000Y-131445000D01*
X103124000Y-141224000D02*
X103759000Y-140589000D01*
X100330000Y-136906000D02*
X99441000Y-137795000D01*
X102108000Y-130556000D02*
X102489000Y-130175000D01*
X100076000Y-130556000D02*
X100330000Y-130302000D01*
X102235000Y-129921000D02*
X101600000Y-130556000D01*
X103759000Y-140081000D02*
X102616000Y-141224000D01*
X105283000Y-134493000D02*
X105664000Y-134112000D01*
X101346000Y-139446000D02*
X99568000Y-141224000D01*
X100076000Y-141224000D02*
X103759000Y-137541000D01*
X104775000Y-134493000D02*
X105156000Y-134112000D01*
X99822000Y-130302000D02*
X100076000Y-130048000D01*
X105311000Y-131953000D02*
X105819000Y-131445000D01*
X99314000Y-136906000D02*
X98933000Y-137287000D01*
X108839000Y-134493000D02*
X109728000Y-133604000D01*
X109347000Y-132461000D02*
X109728000Y-132080000D01*
X101981000Y-137795000D02*
X103759000Y-136017000D01*
X101219000Y-131953000D02*
X100076000Y-133096000D01*
X106807000Y-134493000D02*
X107188000Y-134112000D01*
X109347000Y-131953000D02*
X109728000Y-131572000D01*
X106299000Y-134493000D02*
X106680000Y-134112000D01*
X107823000Y-134493000D02*
X108204000Y-134112000D01*
X99695000Y-132969000D02*
X100711000Y-131953000D01*
X103759000Y-139573000D02*
X102108000Y-141224000D01*
X102108000Y-133604000D02*
X102870000Y-132842000D01*
X99187000Y-131953000D02*
X98933000Y-132207000D01*
X99822000Y-139446000D02*
X98044000Y-141224000D01*
X99568000Y-135636000D02*
X100711000Y-134493000D01*
X100457000Y-137795000D02*
X101346000Y-136906000D01*
X103759000Y-134493000D02*
X109728000Y-134493000D01*
X100330000Y-139446000D02*
X98552000Y-141224000D01*
X100965000Y-137795000D02*
X103759000Y-135001000D01*
X102743000Y-130429000D02*
X102235000Y-130937000D01*
X103251000Y-130937000D02*
X101092000Y-133096000D01*
X109728000Y-134493000D02*
X109728000Y-131445000D01*
X99441000Y-130175000D02*
X99822000Y-129794000D01*
X103759000Y-139065000D02*
X101600000Y-141224000D01*
X108331000Y-134493000D02*
X108712000Y-134112000D01*
X109347000Y-132969000D02*
X109728000Y-132588000D01*
X103799000Y-131953000D02*
X104307000Y-131445000D01*
X98044000Y-140208000D02*
X97028000Y-141224000D01*
X99314000Y-139446000D02*
X97536000Y-141224000D01*
X100203000Y-134493000D02*
X99441000Y-135255000D01*
X101219000Y-134493000D02*
X100076000Y-135636000D01*
X103759000Y-138049000D02*
X100584000Y-141224000D01*
X98933000Y-132715000D02*
X99695000Y-131953000D01*
X96012000Y-140208000D02*
X95504000Y-140716000D01*
X98933000Y-127508000D02*
X99314000Y-127127000D01*
X101600000Y-133096000D02*
X103505000Y-131191000D01*
X108335000Y-131953000D02*
X108843000Y-131445000D01*
X105791000Y-134493000D02*
X106172000Y-134112000D01*
X103759000Y-140589000D02*
X103759000Y-140081000D01*
X95504000Y-140716000D02*
X95504000Y-141224000D01*
X100584000Y-135636000D02*
X101727000Y-134493000D01*
X100838000Y-139446000D02*
X99060000Y-141224000D01*
X101092000Y-135636000D02*
X102743000Y-133985000D01*
X98933000Y-130175000D02*
X99568000Y-129540000D01*
X102108000Y-135636000D02*
X103632000Y-134112000D01*
X109347000Y-134493000D02*
X109728000Y-134112000D01*
X106319000Y-131953000D02*
X106827000Y-131445000D01*
X103759000Y-141224000D02*
X103759000Y-134493000D01*
X102616000Y-141224000D02*
X102235000Y-141224000D01*
X100203000Y-131953000D02*
X99441000Y-132715000D01*
X95504000Y-141224000D02*
X103759000Y-141224000D01*
X98933000Y-129159000D02*
X99060000Y-129032000D01*
X99822000Y-136906000D02*
X98933000Y-137795000D01*
X98933000Y-129667000D02*
X99314000Y-129286000D01*
X101092000Y-130556000D02*
X101981000Y-129667000D01*
X104267000Y-134493000D02*
X104648000Y-134112000D01*
X106823000Y-131953000D02*
X107331000Y-131445000D01*
X107315000Y-134493000D02*
X107696000Y-134112000D01*
X100584000Y-133096000D02*
X101727000Y-131953000D01*
X96520000Y-140208000D02*
X95504000Y-141224000D01*
X108839000Y-131953000D02*
X109347000Y-131445000D01*
X97028000Y-140208000D02*
X96012000Y-141224000D01*
X98933000Y-128016000D02*
X99568000Y-127381000D01*
X101092000Y-141224000D02*
X103759000Y-138557000D01*
X101473000Y-137795000D02*
X103759000Y-135509000D01*
X102108000Y-134112000D02*
X102743000Y-133477000D01*
X107327000Y-131953000D02*
X107835000Y-131445000D01*
D11*
X99278571Y-133532571D02*
X99421428Y-133580190D01*
X99469047Y-133627809D01*
X99516666Y-133723047D01*
X99516666Y-133865904D01*
X99469047Y-133961142D01*
X99421428Y-134008761D01*
X99326190Y-134056380D01*
X98945238Y-134056380D01*
X98945238Y-133056380D01*
X99278571Y-133056380D01*
X99373809Y-133104000D01*
X99421428Y-133151619D01*
X99469047Y-133246857D01*
X99469047Y-133342095D01*
X99421428Y-133437333D01*
X99373809Y-133484952D01*
X99278571Y-133532571D01*
X98945238Y-133532571D01*
X100050000Y-133365904D02*
X100202380Y-133365904D01*
X100278571Y-133404000D01*
X100354761Y-133480190D01*
X100392857Y-133632571D01*
X100392857Y-133899238D01*
X100354761Y-134051619D01*
X100278571Y-134127809D01*
X100202380Y-134165904D01*
X100050000Y-134165904D01*
X99973809Y-134127809D01*
X99897619Y-134051619D01*
X99859523Y-133899238D01*
X99859523Y-133632571D01*
X99897619Y-133480190D01*
X99973809Y-133404000D01*
X100050000Y-133365904D01*
X100735714Y-133365904D02*
X100735714Y-134013523D01*
X100773809Y-134089714D01*
X100811904Y-134127809D01*
X100888095Y-134165904D01*
X101040476Y-134165904D01*
X101116666Y-134127809D01*
X101154761Y-134089714D01*
X101192857Y-134013523D01*
X101192857Y-133365904D01*
X101459523Y-133365904D02*
X101916666Y-133365904D01*
X101688095Y-134165904D02*
X101688095Y-133365904D01*
X99891238Y-156866142D02*
X99843619Y-156913761D01*
X99700761Y-156961380D01*
X99605523Y-156961380D01*
X99462666Y-156913761D01*
X99367428Y-156818523D01*
X99319809Y-156723285D01*
X99272190Y-156532809D01*
X99272190Y-156389952D01*
X99319809Y-156199476D01*
X99367428Y-156104238D01*
X99462666Y-156009000D01*
X99605523Y-155961380D01*
X99700761Y-155961380D01*
X99843619Y-156009000D01*
X99891238Y-156056619D01*
X100272190Y-157070904D02*
X100272190Y-156270904D01*
X101034095Y-157070904D02*
X100653142Y-157070904D01*
X100653142Y-156270904D01*
X99588095Y-138184000D02*
X99492857Y-138136380D01*
X99350000Y-138136380D01*
X99207142Y-138184000D01*
X99111904Y-138279238D01*
X99064285Y-138374476D01*
X99016666Y-138564952D01*
X99016666Y-138707809D01*
X99064285Y-138898285D01*
X99111904Y-138993523D01*
X99207142Y-139088761D01*
X99350000Y-139136380D01*
X99445238Y-139136380D01*
X99588095Y-139088761D01*
X99635714Y-139041142D01*
X99635714Y-138707809D01*
X99445238Y-138707809D01*
X100064285Y-139136380D02*
X100064285Y-138136380D01*
X100635714Y-139136380D01*
X100635714Y-138136380D01*
X101111904Y-139136380D02*
X101111904Y-138136380D01*
X101350000Y-138136380D01*
X101492857Y-138184000D01*
X101588095Y-138279238D01*
X101635714Y-138374476D01*
X101683333Y-138564952D01*
X101683333Y-138707809D01*
X101635714Y-138898285D01*
X101588095Y-138993523D01*
X101492857Y-139088761D01*
X101350000Y-139136380D01*
X101111904Y-139136380D01*
X99029055Y-136310666D02*
X99505246Y-136310666D01*
X98933817Y-136596380D02*
X99267150Y-135596380D01*
X99600484Y-136596380D01*
X100038579Y-135905904D02*
X100190960Y-135905904D01*
X100267150Y-135944000D01*
X100343341Y-136020190D01*
X100381436Y-136172571D01*
X100381436Y-136439238D01*
X100343341Y-136591619D01*
X100267150Y-136667809D01*
X100190960Y-136705904D01*
X100038579Y-136705904D01*
X99962388Y-136667809D01*
X99886198Y-136591619D01*
X99848103Y-136439238D01*
X99848103Y-136172571D01*
X99886198Y-136020190D01*
X99962388Y-135944000D01*
X100038579Y-135905904D01*
X100724293Y-135905904D02*
X100724293Y-136553523D01*
X100762388Y-136629714D01*
X100800484Y-136667809D01*
X100876674Y-136705904D01*
X101029055Y-136705904D01*
X101105246Y-136667809D01*
X101143341Y-136629714D01*
X101181436Y-136553523D01*
X101181436Y-135905904D01*
X101448103Y-135905904D02*
X101905246Y-135905904D01*
X101676674Y-136705904D02*
X101676674Y-135905904D01*
X110317595Y-132616380D02*
X110317595Y-131616380D01*
X110555690Y-131616380D01*
X110698547Y-131664000D01*
X110793785Y-131759238D01*
X110841404Y-131854476D01*
X110889023Y-132044952D01*
X110889023Y-132187809D01*
X110841404Y-132378285D01*
X110793785Y-132473523D01*
X110698547Y-132568761D01*
X110555690Y-132616380D01*
X110317595Y-132616380D01*
X111317595Y-132616380D02*
X111317595Y-131616380D01*
X112365214Y-132616380D02*
X112031880Y-132140190D01*
X111793785Y-132616380D02*
X111793785Y-131616380D01*
X112174738Y-131616380D01*
X112269976Y-131664000D01*
X112317595Y-131711619D01*
X112365214Y-131806857D01*
X112365214Y-131949714D01*
X112317595Y-132044952D01*
X112269976Y-132092571D01*
X112174738Y-132140190D01*
X111793785Y-132140190D01*
X112793785Y-132092571D02*
X113127119Y-132092571D01*
X113269976Y-132616380D02*
X112793785Y-132616380D01*
X112793785Y-131616380D01*
X113269976Y-131616380D01*
X114269976Y-132521142D02*
X114222357Y-132568761D01*
X114079500Y-132616380D01*
X113984261Y-132616380D01*
X113841404Y-132568761D01*
X113746166Y-132473523D01*
X113698547Y-132378285D01*
X113650928Y-132187809D01*
X113650928Y-132044952D01*
X113698547Y-131854476D01*
X113746166Y-131759238D01*
X113841404Y-131664000D01*
X113984261Y-131616380D01*
X114079500Y-131616380D01*
X114222357Y-131664000D01*
X114269976Y-131711619D01*
X114555690Y-131616380D02*
X115127119Y-131616380D01*
X114841404Y-132616380D02*
X114841404Y-131616380D01*
X115508071Y-132568761D02*
X115508071Y-132616380D01*
X115460452Y-132711619D01*
X115412833Y-132759238D01*
X116698547Y-132616380D02*
X116698547Y-131616380D01*
X117269976Y-132616380D01*
X117269976Y-131616380D01*
X117746166Y-132092571D02*
X118079500Y-132092571D01*
X118222357Y-132616380D02*
X117746166Y-132616380D01*
X117746166Y-131616380D01*
X118222357Y-131616380D01*
X118650928Y-132092571D02*
X118984261Y-132092571D01*
X119127119Y-132616380D02*
X118650928Y-132616380D01*
X118650928Y-131616380D01*
X119127119Y-131616380D01*
X119555690Y-132616380D02*
X119555690Y-131616380D01*
X119793785Y-131616380D01*
X119936642Y-131664000D01*
X120031880Y-131759238D01*
X120079500Y-131854476D01*
X120127119Y-132044952D01*
X120127119Y-132187809D01*
X120079500Y-132378285D01*
X120031880Y-132473523D01*
X119936642Y-132568761D01*
X119793785Y-132616380D01*
X119555690Y-132616380D01*
X110317595Y-133702571D02*
X110650928Y-133702571D01*
X110793785Y-134226380D02*
X110317595Y-134226380D01*
X110317595Y-133226380D01*
X110793785Y-133226380D01*
X111127119Y-133226380D02*
X111793785Y-134226380D01*
X111793785Y-133226380D02*
X111127119Y-134226380D01*
X112031880Y-133226380D02*
X112603309Y-133226380D01*
X112317595Y-134226380D02*
X112317595Y-133226380D01*
X112936642Y-133702571D02*
X113269976Y-133702571D01*
X113412833Y-134226380D02*
X112936642Y-134226380D01*
X112936642Y-133226380D01*
X113412833Y-133226380D01*
X114412833Y-134226380D02*
X114079500Y-133750190D01*
X113841404Y-134226380D02*
X113841404Y-133226380D01*
X114222357Y-133226380D01*
X114317595Y-133274000D01*
X114365214Y-133321619D01*
X114412833Y-133416857D01*
X114412833Y-133559714D01*
X114365214Y-133654952D01*
X114317595Y-133702571D01*
X114222357Y-133750190D01*
X113841404Y-133750190D01*
X114841404Y-134226380D02*
X114841404Y-133226380D01*
X115412833Y-134226380D01*
X115412833Y-133226380D01*
X115841404Y-133940666D02*
X116317595Y-133940666D01*
X115746166Y-134226380D02*
X116079500Y-133226380D01*
X116412833Y-134226380D01*
X117222357Y-134226380D02*
X116746166Y-134226380D01*
X116746166Y-133226380D01*
X118317595Y-134226380D02*
X118317595Y-133226380D01*
X118555690Y-133226380D01*
X118698547Y-133274000D01*
X118793785Y-133369238D01*
X118841404Y-133464476D01*
X118889023Y-133654952D01*
X118889023Y-133797809D01*
X118841404Y-133988285D01*
X118793785Y-134083523D01*
X118698547Y-134178761D01*
X118555690Y-134226380D01*
X118317595Y-134226380D01*
X119317595Y-134226380D02*
X119317595Y-133226380D01*
X119650928Y-133226380D02*
X119984261Y-134226380D01*
X120317595Y-133226380D01*
X120650928Y-134226380D02*
X120650928Y-133226380D01*
X121127119Y-134226380D02*
X121127119Y-133226380D01*
X121365214Y-133226380D01*
X121508071Y-133274000D01*
X121603309Y-133369238D01*
X121650928Y-133464476D01*
X121698547Y-133654952D01*
X121698547Y-133797809D01*
X121650928Y-133988285D01*
X121603309Y-134083523D01*
X121508071Y-134178761D01*
X121365214Y-134226380D01*
X121127119Y-134226380D01*
X122127119Y-133702571D02*
X122460452Y-133702571D01*
X122603309Y-134226380D02*
X122127119Y-134226380D01*
X122127119Y-133226380D01*
X122603309Y-133226380D01*
X123603309Y-134226380D02*
X123269976Y-133750190D01*
X123031880Y-134226380D02*
X123031880Y-133226380D01*
X123412833Y-133226380D01*
X123508071Y-133274000D01*
X123555690Y-133321619D01*
X123603309Y-133416857D01*
X123603309Y-133559714D01*
X123555690Y-133654952D01*
X123508071Y-133702571D01*
X123412833Y-133750190D01*
X123031880Y-133750190D01*
X123984261Y-134178761D02*
X124127119Y-134226380D01*
X124365214Y-134226380D01*
X124460452Y-134178761D01*
X124508071Y-134131142D01*
X124555690Y-134035904D01*
X124555690Y-133940666D01*
X124508071Y-133845428D01*
X124460452Y-133797809D01*
X124365214Y-133750190D01*
X124174738Y-133702571D01*
X124079500Y-133654952D01*
X124031880Y-133607333D01*
X123984261Y-133512095D01*
X123984261Y-133416857D01*
X124031880Y-133321619D01*
X124079500Y-133274000D01*
X124174738Y-133226380D01*
X124412833Y-133226380D01*
X124555690Y-133274000D01*
X99780142Y-153897571D02*
X99923000Y-153945190D01*
X99970619Y-153992809D01*
X100018238Y-154088047D01*
X100018238Y-154230904D01*
X99970619Y-154326142D01*
X99923000Y-154373761D01*
X99827761Y-154421380D01*
X99446809Y-154421380D01*
X99446809Y-153421380D01*
X99780142Y-153421380D01*
X99875380Y-153469000D01*
X99923000Y-153516619D01*
X99970619Y-153611857D01*
X99970619Y-153707095D01*
X99923000Y-153802333D01*
X99875380Y-153849952D01*
X99780142Y-153897571D01*
X99446809Y-153897571D01*
X100399190Y-154530904D02*
X100399190Y-153730904D01*
X101161095Y-154530904D02*
X100780142Y-154530904D01*
X100780142Y-153730904D01*
D12*
X140765125Y-133099071D02*
X141077625Y-134599071D01*
X141765125Y-133099071D01*
X142863339Y-134599071D02*
X142006196Y-134599071D01*
X142434767Y-134599071D02*
X142622267Y-133099071D01*
X142452625Y-133313357D01*
X142291910Y-133456214D01*
X142140125Y-133527642D01*
X120684767Y-135585500D02*
X120550839Y-135514071D01*
X120336553Y-135514071D01*
X120113339Y-135585500D01*
X119952625Y-135728357D01*
X119863339Y-135871214D01*
X119756196Y-136156928D01*
X119729410Y-136371214D01*
X119765125Y-136656928D01*
X119818696Y-136799785D01*
X119943696Y-136942642D01*
X120149053Y-137014071D01*
X120291910Y-137014071D01*
X120515125Y-136942642D01*
X120595482Y-136871214D01*
X120657982Y-136371214D01*
X120372267Y-136371214D01*
X121800839Y-136942642D02*
X121649053Y-137014071D01*
X121363339Y-137014071D01*
X121229410Y-136942642D01*
X121175839Y-136799785D01*
X121247267Y-136228357D01*
X121336553Y-136085500D01*
X121488339Y-136014071D01*
X121774053Y-136014071D01*
X121907982Y-136085500D01*
X121961553Y-136228357D01*
X121943696Y-136371214D01*
X121211553Y-136514071D01*
X122631196Y-136014071D02*
X122506196Y-137014071D01*
X122613339Y-136156928D02*
X122693696Y-136085500D01*
X122845482Y-136014071D01*
X123059767Y-136014071D01*
X123193696Y-136085500D01*
X123247267Y-136228357D01*
X123149053Y-137014071D01*
X124443696Y-136942642D02*
X124291910Y-137014071D01*
X124006196Y-137014071D01*
X123872267Y-136942642D01*
X123818696Y-136799785D01*
X123890125Y-136228357D01*
X123979410Y-136085500D01*
X124131196Y-136014071D01*
X124416910Y-136014071D01*
X124550839Y-136085500D01*
X124604410Y-136228357D01*
X124586553Y-136371214D01*
X123854410Y-136514071D01*
X125149053Y-137014071D02*
X125274053Y-136014071D01*
X125238339Y-136299785D02*
X125327625Y-136156928D01*
X125407982Y-136085500D01*
X125559767Y-136014071D01*
X125702625Y-136014071D01*
X126720482Y-137014071D02*
X126818696Y-136228357D01*
X126765125Y-136085500D01*
X126631196Y-136014071D01*
X126345482Y-136014071D01*
X126193696Y-136085500D01*
X126729410Y-136942642D02*
X126577625Y-137014071D01*
X126220482Y-137014071D01*
X126086553Y-136942642D01*
X126032982Y-136799785D01*
X126050839Y-136656928D01*
X126140125Y-136514071D01*
X126291910Y-136442642D01*
X126649053Y-136442642D01*
X126800839Y-136371214D01*
X127649053Y-137014071D02*
X127515125Y-136942642D01*
X127461553Y-136799785D01*
X127622267Y-135514071D01*
X129363339Y-137014071D02*
X129550839Y-135514071D01*
X129907982Y-135514071D01*
X130113339Y-135585500D01*
X130238339Y-135728357D01*
X130291910Y-135871214D01*
X130327625Y-136156928D01*
X130300839Y-136371214D01*
X130193696Y-136656928D01*
X130104410Y-136799785D01*
X129943696Y-136942642D01*
X129720482Y-137014071D01*
X129363339Y-137014071D01*
X130863339Y-137014071D02*
X130988339Y-136014071D01*
X130952625Y-136299785D02*
X131041910Y-136156928D01*
X131122267Y-136085500D01*
X131274053Y-136014071D01*
X131416910Y-136014071D01*
X131791910Y-137014071D02*
X131916910Y-136014071D01*
X131979410Y-135514071D02*
X131899053Y-135585500D01*
X131961553Y-135656928D01*
X132041910Y-135585500D01*
X131979410Y-135514071D01*
X131961553Y-135656928D01*
X132488339Y-136014071D02*
X132720482Y-137014071D01*
X133202625Y-136014071D01*
X134229410Y-136942642D02*
X134077625Y-137014071D01*
X133791910Y-137014071D01*
X133657982Y-136942642D01*
X133604410Y-136799785D01*
X133675839Y-136228357D01*
X133765125Y-136085500D01*
X133916910Y-136014071D01*
X134202625Y-136014071D01*
X134336553Y-136085500D01*
X134390125Y-136228357D01*
X134372267Y-136371214D01*
X133640125Y-136514071D01*
X134934767Y-137014071D02*
X135059767Y-136014071D01*
X135024053Y-136299785D02*
X135113339Y-136156928D01*
X135193696Y-136085500D01*
X135345482Y-136014071D01*
X135488339Y-136014071D01*
X137604410Y-136228357D02*
X137809767Y-136299785D01*
X137872267Y-136371214D01*
X137925839Y-136514071D01*
X137899053Y-136728357D01*
X137809767Y-136871214D01*
X137729410Y-136942642D01*
X137577625Y-137014071D01*
X137006196Y-137014071D01*
X137193696Y-135514071D01*
X137693696Y-135514071D01*
X137827625Y-135585500D01*
X137890125Y-135656928D01*
X137943696Y-135799785D01*
X137925839Y-135942642D01*
X137836553Y-136085500D01*
X137756196Y-136156928D01*
X137604410Y-136228357D01*
X137104410Y-136228357D01*
X138720482Y-137014071D02*
X138586553Y-136942642D01*
X138524053Y-136871214D01*
X138470482Y-136728357D01*
X138524053Y-136299785D01*
X138613339Y-136156928D01*
X138693696Y-136085500D01*
X138845482Y-136014071D01*
X139059767Y-136014071D01*
X139193696Y-136085500D01*
X139256196Y-136156928D01*
X139309767Y-136299785D01*
X139256196Y-136728357D01*
X139166910Y-136871214D01*
X139086553Y-136942642D01*
X138934767Y-137014071D01*
X138720482Y-137014071D01*
X140506196Y-137014071D02*
X140604410Y-136228357D01*
X140550839Y-136085500D01*
X140416910Y-136014071D01*
X140131196Y-136014071D01*
X139979410Y-136085500D01*
X140515125Y-136942642D02*
X140363339Y-137014071D01*
X140006196Y-137014071D01*
X139872267Y-136942642D01*
X139818696Y-136799785D01*
X139836553Y-136656928D01*
X139925839Y-136514071D01*
X140077625Y-136442642D01*
X140434767Y-136442642D01*
X140586553Y-136371214D01*
X141220482Y-137014071D02*
X141345482Y-136014071D01*
X141309767Y-136299785D02*
X141399053Y-136156928D01*
X141479410Y-136085500D01*
X141631196Y-136014071D01*
X141774053Y-136014071D01*
X142791910Y-137014071D02*
X142979410Y-135514071D01*
X142800839Y-136942642D02*
X142649053Y-137014071D01*
X142363339Y-137014071D01*
X142229410Y-136942642D01*
X142166910Y-136871214D01*
X142113339Y-136728357D01*
X142166910Y-136299785D01*
X142256196Y-136156928D01*
X142336553Y-136085500D01*
X142488339Y-136014071D01*
X142774053Y-136014071D01*
X142907982Y-136085500D01*
D11*
X99470619Y-151595666D02*
X99946809Y-151595666D01*
X99375380Y-151881380D02*
X99708714Y-150881380D01*
X100042047Y-151881380D01*
X100327761Y-151990904D02*
X100327761Y-151190904D01*
X101089666Y-151990904D02*
X100708714Y-151990904D01*
X100708714Y-151190904D01*
X115153428Y-141938714D02*
X115153428Y-141605380D01*
X114629619Y-141605380D02*
X115629619Y-141605380D01*
X115629619Y-142081571D01*
X114915333Y-142414904D02*
X114915333Y-142891095D01*
X114629619Y-142319666D02*
X115629619Y-142653000D01*
X114629619Y-142986333D01*
X114629619Y-143319666D02*
X115629619Y-143319666D01*
X114629619Y-143891095D01*
X115629619Y-143891095D01*
X115629619Y-144272047D02*
X115629619Y-144938714D01*
X114629619Y-144510142D01*
X115629619Y-145224428D02*
X114629619Y-145891095D01*
X115629619Y-145891095D02*
X114629619Y-145224428D01*
X115201047Y-146414904D02*
X115248666Y-146319666D01*
X115296285Y-146272047D01*
X115391523Y-146224428D01*
X115439142Y-146224428D01*
X115534380Y-146272047D01*
X115582000Y-146319666D01*
X115629619Y-146414904D01*
X115629619Y-146605380D01*
X115582000Y-146700619D01*
X115534380Y-146748238D01*
X115439142Y-146795857D01*
X115391523Y-146795857D01*
X115296285Y-146748238D01*
X115248666Y-146700619D01*
X115201047Y-146605380D01*
X115201047Y-146414904D01*
X115153428Y-146319666D01*
X115105809Y-146272047D01*
X115010571Y-146224428D01*
X114820095Y-146224428D01*
X114724857Y-146272047D01*
X114677238Y-146319666D01*
X114629619Y-146414904D01*
X114629619Y-146605380D01*
X114677238Y-146700619D01*
X114724857Y-146748238D01*
X114820095Y-146795857D01*
X115010571Y-146795857D01*
X115105809Y-146748238D01*
X115153428Y-146700619D01*
X115201047Y-146605380D01*
X115201047Y-147367285D02*
X115248666Y-147272047D01*
X115296285Y-147224428D01*
X115391523Y-147176809D01*
X115439142Y-147176809D01*
X115534380Y-147224428D01*
X115582000Y-147272047D01*
X115629619Y-147367285D01*
X115629619Y-147557761D01*
X115582000Y-147653000D01*
X115534380Y-147700619D01*
X115439142Y-147748238D01*
X115391523Y-147748238D01*
X115296285Y-147700619D01*
X115248666Y-147653000D01*
X115201047Y-147557761D01*
X115201047Y-147367285D01*
X115153428Y-147272047D01*
X115105809Y-147224428D01*
X115010571Y-147176809D01*
X114820095Y-147176809D01*
X114724857Y-147224428D01*
X114677238Y-147272047D01*
X114629619Y-147367285D01*
X114629619Y-147557761D01*
X114677238Y-147653000D01*
X114724857Y-147700619D01*
X114820095Y-147748238D01*
X115010571Y-147748238D01*
X115105809Y-147700619D01*
X115153428Y-147653000D01*
X115201047Y-147557761D01*
X99624595Y-128459580D02*
X99691938Y-128594267D01*
X99691938Y-128661610D01*
X99658267Y-128762625D01*
X99557251Y-128863641D01*
X99456236Y-128897312D01*
X99388893Y-128897312D01*
X99287877Y-128863641D01*
X99018503Y-128594267D01*
X99725610Y-127887160D01*
X99961312Y-128122862D01*
X99994984Y-128223877D01*
X99994984Y-128291221D01*
X99961312Y-128392236D01*
X99893969Y-128459580D01*
X99792954Y-128493251D01*
X99725610Y-128493251D01*
X99624595Y-128459580D01*
X99388893Y-128223877D01*
X99893969Y-129065671D02*
X100230687Y-129402389D01*
X99624595Y-129200358D02*
X100567404Y-128728954D01*
X100096000Y-129671763D01*
X100937793Y-129099343D02*
X101341854Y-129503404D01*
X100432717Y-130008480D02*
X101139824Y-129301374D01*
X99330698Y-159062194D02*
X99229683Y-159095866D01*
X99128668Y-159196881D01*
X99061324Y-159331568D01*
X99061324Y-159466255D01*
X99094996Y-159567270D01*
X99196011Y-159735629D01*
X99297026Y-159836644D01*
X99465385Y-159937660D01*
X99566400Y-159971331D01*
X99701087Y-159971331D01*
X99835774Y-159903988D01*
X99903118Y-159836644D01*
X99970461Y-159701957D01*
X99970461Y-159634614D01*
X99734759Y-159398912D01*
X99600072Y-159533599D01*
X100340851Y-159398912D02*
X99633744Y-158691805D01*
X100744912Y-158994851D01*
X100037805Y-158287744D01*
X101081629Y-158658133D02*
X100374522Y-157951026D01*
X100542881Y-157782668D01*
X100677568Y-157715324D01*
X100812255Y-157715324D01*
X100913270Y-157748996D01*
X101081629Y-157850011D01*
X101182644Y-157951026D01*
X101283660Y-158119385D01*
X101317331Y-158220400D01*
X101317331Y-158355087D01*
X101249988Y-158489774D01*
X101081629Y-158658133D01*
D12*
X101937428Y-147499482D02*
X101937428Y-146785196D01*
X103437428Y-146972696D01*
X103437428Y-148472696D02*
X103437428Y-148758410D01*
X103366000Y-148892339D01*
X103223142Y-149017339D01*
X102937428Y-149053053D01*
X102437428Y-148990553D01*
X102151714Y-148883410D01*
X102008857Y-148722696D01*
X101937428Y-148570910D01*
X101937428Y-148285196D01*
X102008857Y-148151267D01*
X102151714Y-148026267D01*
X102437428Y-147990553D01*
X102937428Y-148053053D01*
X103223142Y-148160196D01*
X103366000Y-148320910D01*
X103437428Y-148472696D01*
X103366000Y-150535196D02*
X103437428Y-150401267D01*
X103437428Y-150186982D01*
X103366000Y-149963767D01*
X103223142Y-149803053D01*
X103080285Y-149713767D01*
X102794571Y-149606625D01*
X102580285Y-149579839D01*
X102294571Y-149615553D01*
X102151714Y-149669125D01*
X102008857Y-149794125D01*
X101937428Y-149999482D01*
X101937428Y-150142339D01*
X102008857Y-150365553D01*
X102080285Y-150445910D01*
X102580285Y-150508410D01*
X102580285Y-150222696D01*
X101937428Y-151070910D02*
X103437428Y-151258410D01*
X102080285Y-152660196D02*
X102008857Y-152579839D01*
X101937428Y-152356625D01*
X101937428Y-152213767D01*
X102008857Y-152008410D01*
X102151714Y-151883410D01*
X102294571Y-151829839D01*
X102580285Y-151794125D01*
X102794571Y-151820910D01*
X103080285Y-151928053D01*
X103223142Y-152017339D01*
X103366000Y-152178053D01*
X103437428Y-152401267D01*
X103437428Y-152544125D01*
X103366000Y-152749482D01*
X103294571Y-152811982D01*
D11*
X99375380Y-143975666D02*
X99851571Y-143975666D01*
X99280142Y-144261380D02*
X99613476Y-143261380D01*
X99946809Y-144261380D01*
X100232523Y-144370904D02*
X100232523Y-143570904D01*
X100613476Y-144370904D02*
X100613476Y-143570904D01*
X100613476Y-143951857D02*
X101070619Y-143951857D01*
X101070619Y-144370904D02*
X101070619Y-143570904D01*
X99923000Y-149246142D02*
X99875380Y-149293761D01*
X99732523Y-149341380D01*
X99637285Y-149341380D01*
X99494428Y-149293761D01*
X99399190Y-149198523D01*
X99351571Y-149103285D01*
X99303952Y-148912809D01*
X99303952Y-148769952D01*
X99351571Y-148579476D01*
X99399190Y-148484238D01*
X99494428Y-148389000D01*
X99637285Y-148341380D01*
X99732523Y-148341380D01*
X99875380Y-148389000D01*
X99923000Y-148436619D01*
X100303952Y-149450904D02*
X100303952Y-148650904D01*
X100684904Y-149450904D02*
X100684904Y-148650904D01*
X100684904Y-149031857D02*
X101142047Y-149031857D01*
X101142047Y-149450904D02*
X101142047Y-148650904D01*
X99576674Y-131421142D02*
X99529055Y-131468761D01*
X99386198Y-131516380D01*
X99290960Y-131516380D01*
X99148103Y-131468761D01*
X99052865Y-131373523D01*
X99005246Y-131278285D01*
X98957627Y-131087809D01*
X98957627Y-130944952D01*
X99005246Y-130754476D01*
X99052865Y-130659238D01*
X99148103Y-130564000D01*
X99290960Y-130516380D01*
X99386198Y-130516380D01*
X99529055Y-130564000D01*
X99576674Y-130611619D01*
X100110008Y-130825904D02*
X100262388Y-130825904D01*
X100338579Y-130864000D01*
X100414769Y-130940190D01*
X100452865Y-131092571D01*
X100452865Y-131359238D01*
X100414769Y-131511619D01*
X100338579Y-131587809D01*
X100262388Y-131625904D01*
X100110008Y-131625904D01*
X100033817Y-131587809D01*
X99957627Y-131511619D01*
X99919531Y-131359238D01*
X99919531Y-131092571D01*
X99957627Y-130940190D01*
X100033817Y-130864000D01*
X100110008Y-130825904D01*
X100795722Y-130825904D02*
X100795722Y-131473523D01*
X100833817Y-131549714D01*
X100871912Y-131587809D01*
X100948103Y-131625904D01*
X101100484Y-131625904D01*
X101176674Y-131587809D01*
X101214769Y-131549714D01*
X101252865Y-131473523D01*
X101252865Y-130825904D01*
X101519531Y-130825904D02*
X101976674Y-130825904D01*
X101748103Y-131625904D02*
X101748103Y-130825904D01*
X108132571Y-143612857D02*
X108132571Y-143946190D01*
X108656380Y-143946190D02*
X107656380Y-143946190D01*
X107656380Y-143470000D01*
X108370666Y-143136666D02*
X108370666Y-142660476D01*
X108656380Y-143231904D02*
X107656380Y-142898571D01*
X108656380Y-142565238D01*
X108656380Y-142231904D02*
X107656380Y-142231904D01*
X108656380Y-141660476D01*
X107656380Y-141660476D01*
X107656380Y-141279523D02*
X107656380Y-140612857D01*
X108656380Y-141041428D01*
X108656380Y-140327142D02*
X107989714Y-139803333D01*
X107989714Y-140327142D02*
X108656380Y-139803333D01*
X108084952Y-139279523D02*
X108037333Y-139374761D01*
X107989714Y-139422380D01*
X107894476Y-139470000D01*
X107846857Y-139470000D01*
X107751619Y-139422380D01*
X107704000Y-139374761D01*
X107656380Y-139279523D01*
X107656380Y-139089047D01*
X107704000Y-138993809D01*
X107751619Y-138946190D01*
X107846857Y-138898571D01*
X107894476Y-138898571D01*
X107989714Y-138946190D01*
X108037333Y-138993809D01*
X108084952Y-139089047D01*
X108084952Y-139279523D01*
X108132571Y-139374761D01*
X108180190Y-139422380D01*
X108275428Y-139470000D01*
X108465904Y-139470000D01*
X108561142Y-139422380D01*
X108608761Y-139374761D01*
X108656380Y-139279523D01*
X108656380Y-139089047D01*
X108608761Y-138993809D01*
X108561142Y-138946190D01*
X108465904Y-138898571D01*
X108275428Y-138898571D01*
X108180190Y-138946190D01*
X108132571Y-138993809D01*
X108084952Y-139089047D01*
X108084952Y-138327142D02*
X108037333Y-138422380D01*
X107989714Y-138470000D01*
X107894476Y-138517619D01*
X107846857Y-138517619D01*
X107751619Y-138470000D01*
X107704000Y-138422380D01*
X107656380Y-138327142D01*
X107656380Y-138136666D01*
X107704000Y-138041428D01*
X107751619Y-137993809D01*
X107846857Y-137946190D01*
X107894476Y-137946190D01*
X107989714Y-137993809D01*
X108037333Y-138041428D01*
X108084952Y-138136666D01*
X108084952Y-138327142D01*
X108132571Y-138422380D01*
X108180190Y-138470000D01*
X108275428Y-138517619D01*
X108465904Y-138517619D01*
X108561142Y-138470000D01*
X108608761Y-138422380D01*
X108656380Y-138327142D01*
X108656380Y-138136666D01*
X108608761Y-138041428D01*
X108561142Y-137993809D01*
X108465904Y-137946190D01*
X108275428Y-137946190D01*
X108180190Y-137993809D01*
X108132571Y-138041428D01*
X108084952Y-138136666D01*
D12*
X103218196Y-133631714D02*
X103280696Y-133703142D01*
X103200339Y-133774571D01*
X103137839Y-133703142D01*
X103218196Y-133631714D01*
X103200339Y-133774571D01*
X103271767Y-133203142D02*
X103307482Y-132346000D01*
X103387839Y-132274571D01*
X103450339Y-132346000D01*
X103271767Y-133203142D01*
X103387839Y-132274571D01*
X103914625Y-133774571D02*
X104102125Y-132274571D01*
X104673553Y-132274571D01*
X104807482Y-132346000D01*
X104869982Y-132417428D01*
X104923553Y-132560285D01*
X104896767Y-132774571D01*
X104807482Y-132917428D01*
X104727125Y-132988857D01*
X104575339Y-133060285D01*
X104003910Y-133060285D01*
X105459267Y-132274571D02*
X105628910Y-133774571D01*
X106048553Y-132703142D01*
X106200339Y-133774571D01*
X106744982Y-132274571D01*
X107986053Y-133774571D02*
X107575339Y-133060285D01*
X107128910Y-133774571D02*
X107316410Y-132274571D01*
X107887839Y-132274571D01*
X108021767Y-132346000D01*
X108084267Y-132417428D01*
X108137839Y-132560285D01*
X108111053Y-132774571D01*
X108021767Y-132917428D01*
X107941410Y-132988857D01*
X107789625Y-133060285D01*
X107218196Y-133060285D01*
X108646767Y-133631714D02*
X108709267Y-133703142D01*
X108628910Y-133774571D01*
X108566410Y-133703142D01*
X108646767Y-133631714D01*
X108628910Y-133774571D01*
X108700339Y-133203142D02*
X108736053Y-132346000D01*
X108816410Y-132274571D01*
X108878910Y-132346000D01*
X108700339Y-133203142D01*
X108816410Y-132274571D01*
D11*
X99684904Y-146277571D02*
X99827761Y-146325190D01*
X99875380Y-146372809D01*
X99923000Y-146468047D01*
X99923000Y-146610904D01*
X99875380Y-146706142D01*
X99827761Y-146753761D01*
X99732523Y-146801380D01*
X99351571Y-146801380D01*
X99351571Y-145801380D01*
X99684904Y-145801380D01*
X99780142Y-145849000D01*
X99827761Y-145896619D01*
X99875380Y-145991857D01*
X99875380Y-146087095D01*
X99827761Y-146182333D01*
X99780142Y-146229952D01*
X99684904Y-146277571D01*
X99351571Y-146277571D01*
X100303952Y-146910904D02*
X100303952Y-146110904D01*
X100684904Y-146910904D02*
X100684904Y-146110904D01*
X100684904Y-146491857D02*
X101142047Y-146491857D01*
X101142047Y-146910904D02*
X101142047Y-146110904D01*
D12*
X129106062Y-144625142D02*
X129311419Y-144696571D01*
X129668562Y-144696571D01*
X129820348Y-144625142D01*
X129900705Y-144553714D01*
X129989991Y-144410857D01*
X130007848Y-144268000D01*
X129954276Y-144125142D01*
X129891776Y-144053714D01*
X129757848Y-143982285D01*
X129481062Y-143910857D01*
X129347133Y-143839428D01*
X129284633Y-143768000D01*
X129231062Y-143625142D01*
X129248919Y-143482285D01*
X129338205Y-143339428D01*
X129418562Y-143268000D01*
X129570348Y-143196571D01*
X129927491Y-143196571D01*
X130132848Y-143268000D01*
X130579276Y-144268000D02*
X131293562Y-144268000D01*
X130382848Y-144696571D02*
X131070348Y-143196571D01*
X131382848Y-144696571D01*
X131856062Y-143196571D02*
X132168562Y-144696571D01*
X132856062Y-143196571D01*
X133641776Y-143196571D02*
X133927491Y-143196571D01*
X134061419Y-143268000D01*
X134186419Y-143410857D01*
X134222133Y-143696571D01*
X134159633Y-144196571D01*
X134052491Y-144482285D01*
X133891776Y-144625142D01*
X133739991Y-144696571D01*
X133454276Y-144696571D01*
X133320348Y-144625142D01*
X133195348Y-144482285D01*
X133159633Y-144196571D01*
X133222133Y-143696571D01*
X133329276Y-143410857D01*
X133489991Y-143268000D01*
X133641776Y-143196571D01*
X136481062Y-143910857D02*
X136686419Y-143982285D01*
X136748919Y-144053714D01*
X136802491Y-144196571D01*
X136775705Y-144410857D01*
X136686419Y-144553714D01*
X136606062Y-144625142D01*
X136454276Y-144696571D01*
X135882848Y-144696571D01*
X136070348Y-143196571D01*
X136570348Y-143196571D01*
X136704276Y-143268000D01*
X136766776Y-143339428D01*
X136820348Y-143482285D01*
X136802491Y-143625142D01*
X136713205Y-143768000D01*
X136632848Y-143839428D01*
X136481062Y-143910857D01*
X135981062Y-143910857D01*
X137364991Y-144268000D02*
X138079276Y-144268000D01*
X137168562Y-144696571D02*
X137856062Y-143196571D01*
X138168562Y-144696571D01*
X139284633Y-143196571D02*
X139150705Y-144268000D01*
X139052491Y-144482285D01*
X138891776Y-144625142D01*
X138668562Y-144696571D01*
X138525705Y-144696571D01*
X139811419Y-144696571D02*
X139998919Y-143196571D01*
X141400705Y-144553714D02*
X141320348Y-144625142D01*
X141097133Y-144696571D01*
X140954276Y-144696571D01*
X140748919Y-144625142D01*
X140623919Y-144482285D01*
X140570348Y-144339428D01*
X140534633Y-144053714D01*
X140561419Y-143839428D01*
X140668562Y-143553714D01*
X140757848Y-143410857D01*
X140918562Y-143268000D01*
X141141776Y-143196571D01*
X141284633Y-143196571D01*
X141489991Y-143268000D01*
X141552491Y-143339428D01*
D11*
X129991660Y-139871380D02*
X129890470Y-140680904D01*
X129926184Y-140776142D01*
X129967851Y-140823761D01*
X130057136Y-140871380D01*
X130247613Y-140871380D01*
X130348803Y-140823761D01*
X130402375Y-140776142D01*
X130461898Y-140680904D01*
X130563089Y-139871380D01*
X130872613Y-140823761D02*
X130961898Y-140871380D01*
X131152375Y-140871380D01*
X131253565Y-140823761D01*
X131313089Y-140728523D01*
X131319041Y-140680904D01*
X131283327Y-140585666D01*
X131194041Y-140538047D01*
X131051184Y-140538047D01*
X130961898Y-140490428D01*
X130926184Y-140395190D01*
X130932136Y-140347571D01*
X130991660Y-140252333D01*
X131092851Y-140204714D01*
X131235708Y-140204714D01*
X131324994Y-140252333D01*
X132110708Y-140823761D02*
X132009517Y-140871380D01*
X131819041Y-140871380D01*
X131729755Y-140823761D01*
X131694041Y-140728523D01*
X131741660Y-140347571D01*
X131801184Y-140252333D01*
X131902375Y-140204714D01*
X132092851Y-140204714D01*
X132182136Y-140252333D01*
X132217851Y-140347571D01*
X132205946Y-140442809D01*
X131717851Y-140538047D01*
X132539279Y-140823761D02*
X132628565Y-140871380D01*
X132819041Y-140871380D01*
X132920232Y-140823761D01*
X132979755Y-140728523D01*
X132985708Y-140680904D01*
X132949994Y-140585666D01*
X132860708Y-140538047D01*
X132717851Y-140538047D01*
X132628565Y-140490428D01*
X132592851Y-140395190D01*
X132598803Y-140347571D01*
X132658327Y-140252333D01*
X132759517Y-140204714D01*
X132902375Y-140204714D01*
X132991660Y-140252333D01*
X134539279Y-140823761D02*
X134438089Y-140871380D01*
X134247613Y-140871380D01*
X134158327Y-140823761D01*
X134122613Y-140728523D01*
X134170232Y-140347571D01*
X134229755Y-140252333D01*
X134330946Y-140204714D01*
X134521422Y-140204714D01*
X134610708Y-140252333D01*
X134646422Y-140347571D01*
X134634517Y-140442809D01*
X134146422Y-140538047D01*
X135009517Y-140871380D02*
X135092851Y-140204714D01*
X135134517Y-139871380D02*
X135080946Y-139919000D01*
X135122613Y-139966619D01*
X135176184Y-139919000D01*
X135134517Y-139871380D01*
X135122613Y-139966619D01*
X135426184Y-140204714D02*
X135807136Y-140204714D01*
X135610708Y-139871380D02*
X135503565Y-140728523D01*
X135539279Y-140823761D01*
X135628565Y-140871380D01*
X135723803Y-140871380D01*
X136057136Y-140871380D02*
X136182136Y-139871380D01*
X136485708Y-140871380D02*
X136551184Y-140347571D01*
X136515470Y-140252333D01*
X136426184Y-140204714D01*
X136283327Y-140204714D01*
X136182136Y-140252333D01*
X136128565Y-140299952D01*
X137348803Y-140823761D02*
X137247613Y-140871380D01*
X137057136Y-140871380D01*
X136967851Y-140823761D01*
X136932136Y-140728523D01*
X136979755Y-140347571D01*
X137039279Y-140252333D01*
X137140470Y-140204714D01*
X137330946Y-140204714D01*
X137420232Y-140252333D01*
X137455946Y-140347571D01*
X137444041Y-140442809D01*
X136955946Y-140538047D01*
X137819041Y-140871380D02*
X137902375Y-140204714D01*
X137878565Y-140395190D02*
X137938089Y-140299952D01*
X137991660Y-140252333D01*
X138092851Y-140204714D01*
X138188089Y-140204714D01*
X139342851Y-140871380D02*
X139253565Y-140823761D01*
X139211898Y-140776142D01*
X139176184Y-140680904D01*
X139211898Y-140395190D01*
X139271422Y-140299952D01*
X139324994Y-140252333D01*
X139426184Y-140204714D01*
X139569041Y-140204714D01*
X139658327Y-140252333D01*
X139699994Y-140299952D01*
X139735708Y-140395190D01*
X139699994Y-140680904D01*
X139640470Y-140776142D01*
X139586898Y-140823761D01*
X139485708Y-140871380D01*
X139342851Y-140871380D01*
X140045232Y-140204714D02*
X140426184Y-140204714D01*
X140104755Y-140871380D02*
X140211898Y-140014238D01*
X140271422Y-139919000D01*
X140372613Y-139871380D01*
X140467851Y-139871380D01*
X127336898Y-141957571D02*
X127003565Y-141957571D01*
X126938089Y-142481380D02*
X127063089Y-141481380D01*
X127539279Y-141481380D01*
X127783327Y-142195666D02*
X128259517Y-142195666D01*
X127652375Y-142481380D02*
X128110708Y-141481380D01*
X128319041Y-142481380D01*
X128652375Y-142481380D02*
X128777375Y-141481380D01*
X129223803Y-142481380D01*
X129348803Y-141481380D01*
X129729755Y-141481380D02*
X130396422Y-141481380D01*
X129842851Y-142481380D01*
X130557136Y-142481380D02*
X131164279Y-141814714D01*
X130640470Y-141814714D02*
X131080946Y-142481380D01*
X131676184Y-141909952D02*
X131586898Y-141862333D01*
X131545232Y-141814714D01*
X131509517Y-141719476D01*
X131515470Y-141671857D01*
X131574994Y-141576619D01*
X131628565Y-141529000D01*
X131729755Y-141481380D01*
X131920232Y-141481380D01*
X132009517Y-141529000D01*
X132051184Y-141576619D01*
X132086898Y-141671857D01*
X132080946Y-141719476D01*
X132021422Y-141814714D01*
X131967851Y-141862333D01*
X131866660Y-141909952D01*
X131676184Y-141909952D01*
X131574994Y-141957571D01*
X131521422Y-142005190D01*
X131461898Y-142100428D01*
X131438089Y-142290904D01*
X131473803Y-142386142D01*
X131515470Y-142433761D01*
X131604755Y-142481380D01*
X131795232Y-142481380D01*
X131896422Y-142433761D01*
X131949994Y-142386142D01*
X132009517Y-142290904D01*
X132033327Y-142100428D01*
X131997613Y-142005190D01*
X131955946Y-141957571D01*
X131866660Y-141909952D01*
X132628565Y-141909952D02*
X132539279Y-141862333D01*
X132497613Y-141814714D01*
X132461898Y-141719476D01*
X132467851Y-141671857D01*
X132527375Y-141576619D01*
X132580946Y-141529000D01*
X132682136Y-141481380D01*
X132872613Y-141481380D01*
X132961898Y-141529000D01*
X133003565Y-141576619D01*
X133039279Y-141671857D01*
X133033327Y-141719476D01*
X132973803Y-141814714D01*
X132920232Y-141862333D01*
X132819041Y-141909952D01*
X132628565Y-141909952D01*
X132527375Y-141957571D01*
X132473803Y-142005190D01*
X132414279Y-142100428D01*
X132390470Y-142290904D01*
X132426184Y-142386142D01*
X132467851Y-142433761D01*
X132557136Y-142481380D01*
X132747613Y-142481380D01*
X132848803Y-142433761D01*
X132902375Y-142386142D01*
X132961898Y-142290904D01*
X132985708Y-142100428D01*
X132949994Y-142005190D01*
X132908327Y-141957571D01*
X132819041Y-141909952D01*
X134271422Y-142481380D02*
X134182136Y-142433761D01*
X134140470Y-142386142D01*
X134104755Y-142290904D01*
X134140470Y-142005190D01*
X134199994Y-141909952D01*
X134253565Y-141862333D01*
X134354755Y-141814714D01*
X134497613Y-141814714D01*
X134586898Y-141862333D01*
X134628565Y-141909952D01*
X134664279Y-142005190D01*
X134628565Y-142290904D01*
X134569041Y-142386142D01*
X134515470Y-142433761D01*
X134414279Y-142481380D01*
X134271422Y-142481380D01*
X135033327Y-142481380D02*
X135116660Y-141814714D01*
X135092851Y-142005190D02*
X135152375Y-141909952D01*
X135205946Y-141862333D01*
X135307136Y-141814714D01*
X135402375Y-141814714D01*
X136414279Y-142481380D02*
X136539279Y-141481380D01*
X137461898Y-142481380D02*
X137188089Y-142005190D01*
X136890470Y-142481380D02*
X137015470Y-141481380D01*
X137396422Y-141481380D01*
X137485708Y-141529000D01*
X137527375Y-141576619D01*
X137563089Y-141671857D01*
X137545232Y-141814714D01*
X137485708Y-141909952D01*
X137432136Y-141957571D01*
X137330946Y-142005190D01*
X136949994Y-142005190D01*
X137848803Y-142433761D02*
X137985708Y-142481380D01*
X138223803Y-142481380D01*
X138324994Y-142433761D01*
X138378565Y-142386142D01*
X138438089Y-142290904D01*
X138449994Y-142195666D01*
X138414279Y-142100428D01*
X138372613Y-142052809D01*
X138283327Y-142005190D01*
X138098803Y-141957571D01*
X138009517Y-141909952D01*
X137967851Y-141862333D01*
X137932136Y-141767095D01*
X137944041Y-141671857D01*
X138003565Y-141576619D01*
X138057136Y-141529000D01*
X138158327Y-141481380D01*
X138396422Y-141481380D01*
X138533327Y-141529000D01*
X138908327Y-141576619D02*
X138961898Y-141529000D01*
X139063089Y-141481380D01*
X139301184Y-141481380D01*
X139390470Y-141529000D01*
X139432136Y-141576619D01*
X139467851Y-141671857D01*
X139455946Y-141767095D01*
X139390470Y-141909952D01*
X138747613Y-142481380D01*
X139366660Y-142481380D01*
X139824994Y-141481380D02*
X140444041Y-141481380D01*
X140063089Y-141862333D01*
X140205946Y-141862333D01*
X140295232Y-141909952D01*
X140336898Y-141957571D01*
X140372613Y-142052809D01*
X140342851Y-142290904D01*
X140283327Y-142386142D01*
X140229755Y-142433761D01*
X140128565Y-142481380D01*
X139842851Y-142481380D01*
X139753565Y-142433761D01*
X139711898Y-142386142D01*
X140777375Y-141481380D02*
X141396422Y-141481380D01*
X141015470Y-141862333D01*
X141158327Y-141862333D01*
X141247613Y-141909952D01*
X141289279Y-141957571D01*
X141324994Y-142052809D01*
X141295232Y-142290904D01*
X141235708Y-142386142D01*
X141182136Y-142433761D01*
X141080946Y-142481380D01*
X140795232Y-142481380D01*
X140705946Y-142433761D01*
X140664279Y-142386142D01*
X142211898Y-141814714D02*
X142128565Y-142481380D01*
X142021422Y-141433761D02*
X141694041Y-142148047D01*
X142313089Y-142148047D01*
X142610708Y-142433761D02*
X142747613Y-142481380D01*
X142985708Y-142481380D01*
X143086898Y-142433761D01*
X143140470Y-142386142D01*
X143199994Y-142290904D01*
X143211898Y-142195666D01*
X143176184Y-142100428D01*
X143134517Y-142052809D01*
X143045232Y-142005190D01*
X142860708Y-141957571D01*
X142771422Y-141909952D01*
X142729755Y-141862333D01*
X142694041Y-141767095D01*
X142705946Y-141671857D01*
X142765470Y-141576619D01*
X142819041Y-141529000D01*
X142920232Y-141481380D01*
X143158327Y-141481380D01*
X143295232Y-141529000D01*
X123932142Y-140403666D02*
X123979761Y-140451285D01*
X124027380Y-140594142D01*
X124027380Y-140689380D01*
X123979761Y-140832238D01*
X123884523Y-140927476D01*
X123789285Y-140975095D01*
X123598809Y-141022714D01*
X123455952Y-141022714D01*
X123265476Y-140975095D01*
X123170238Y-140927476D01*
X123075000Y-140832238D01*
X123027380Y-140689380D01*
X123027380Y-140594142D01*
X123075000Y-140451285D01*
X123122619Y-140403666D01*
X123027380Y-140070333D02*
X123027380Y-139451285D01*
X123408333Y-139784619D01*
X123408333Y-139641761D01*
X123455952Y-139546523D01*
X123503571Y-139498904D01*
X123598809Y-139451285D01*
X123836904Y-139451285D01*
X123932142Y-139498904D01*
X123979761Y-139546523D01*
X124027380Y-139641761D01*
X124027380Y-139927476D01*
X123979761Y-140022714D01*
X123932142Y-140070333D01*
X123932142Y-145403666D02*
X123979761Y-145451285D01*
X124027380Y-145594142D01*
X124027380Y-145689380D01*
X123979761Y-145832238D01*
X123884523Y-145927476D01*
X123789285Y-145975095D01*
X123598809Y-146022714D01*
X123455952Y-146022714D01*
X123265476Y-145975095D01*
X123170238Y-145927476D01*
X123075000Y-145832238D01*
X123027380Y-145689380D01*
X123027380Y-145594142D01*
X123075000Y-145451285D01*
X123122619Y-145403666D01*
X123360714Y-144546523D02*
X124027380Y-144546523D01*
X122979761Y-144784619D02*
X123694047Y-145022714D01*
X123694047Y-144403666D01*
X108502142Y-146703666D02*
X108549761Y-146751285D01*
X108597380Y-146894142D01*
X108597380Y-146989380D01*
X108549761Y-147132238D01*
X108454523Y-147227476D01*
X108359285Y-147275095D01*
X108168809Y-147322714D01*
X108025952Y-147322714D01*
X107835476Y-147275095D01*
X107740238Y-147227476D01*
X107645000Y-147132238D01*
X107597380Y-146989380D01*
X107597380Y-146894142D01*
X107645000Y-146751285D01*
X107692619Y-146703666D01*
X107597380Y-145798904D02*
X107597380Y-146275095D01*
X108073571Y-146322714D01*
X108025952Y-146275095D01*
X107978333Y-146179857D01*
X107978333Y-145941761D01*
X108025952Y-145846523D01*
X108073571Y-145798904D01*
X108168809Y-145751285D01*
X108406904Y-145751285D01*
X108502142Y-145798904D01*
X108549761Y-145846523D01*
X108597380Y-145941761D01*
X108597380Y-146179857D01*
X108549761Y-146275095D01*
X108502142Y-146322714D01*
X112597380Y-155975095D02*
X111597380Y-155975095D01*
X111597380Y-155737000D01*
X111645000Y-155594142D01*
X111740238Y-155498904D01*
X111835476Y-155451285D01*
X112025952Y-155403666D01*
X112168809Y-155403666D01*
X112359285Y-155451285D01*
X112454523Y-155498904D01*
X112549761Y-155594142D01*
X112597380Y-155737000D01*
X112597380Y-155975095D01*
X112597380Y-154451285D02*
X112597380Y-155022714D01*
X112597380Y-154737000D02*
X111597380Y-154737000D01*
X111740238Y-154832238D01*
X111835476Y-154927476D01*
X111883095Y-155022714D01*
X119097380Y-155975095D02*
X118097380Y-155975095D01*
X118097380Y-155737000D01*
X118145000Y-155594142D01*
X118240238Y-155498904D01*
X118335476Y-155451285D01*
X118525952Y-155403666D01*
X118668809Y-155403666D01*
X118859285Y-155451285D01*
X118954523Y-155498904D01*
X119049761Y-155594142D01*
X119097380Y-155737000D01*
X119097380Y-155975095D01*
X118192619Y-155022714D02*
X118145000Y-154975095D01*
X118097380Y-154879857D01*
X118097380Y-154641761D01*
X118145000Y-154546523D01*
X118192619Y-154498904D01*
X118287857Y-154451285D01*
X118383095Y-154451285D01*
X118525952Y-154498904D01*
X119097380Y-155070333D01*
X119097380Y-154451285D01*
X109006904Y-155389380D02*
X109006904Y-154389380D01*
X109245000Y-154389380D01*
X109387857Y-154437000D01*
X109483095Y-154532238D01*
X109530714Y-154627476D01*
X109578333Y-154817952D01*
X109578333Y-154960809D01*
X109530714Y-155151285D01*
X109483095Y-155246523D01*
X109387857Y-155341761D01*
X109245000Y-155389380D01*
X109006904Y-155389380D01*
X109911666Y-154389380D02*
X110530714Y-154389380D01*
X110197380Y-154770333D01*
X110340238Y-154770333D01*
X110435476Y-154817952D01*
X110483095Y-154865571D01*
X110530714Y-154960809D01*
X110530714Y-155198904D01*
X110483095Y-155294142D01*
X110435476Y-155341761D01*
X110340238Y-155389380D01*
X110054523Y-155389380D01*
X109959285Y-155341761D01*
X109911666Y-155294142D01*
X129154523Y-149989380D02*
X128821190Y-149513190D01*
X128583095Y-149989380D02*
X128583095Y-148989380D01*
X128964047Y-148989380D01*
X129059285Y-149037000D01*
X129106904Y-149084619D01*
X129154523Y-149179857D01*
X129154523Y-149322714D01*
X129106904Y-149417952D01*
X129059285Y-149465571D01*
X128964047Y-149513190D01*
X128583095Y-149513190D01*
X129583095Y-149989380D02*
X129583095Y-148989380D01*
X130154523Y-149989380D01*
X130154523Y-148989380D01*
X131154523Y-149989380D02*
X130583095Y-149989380D01*
X130868809Y-149989380D02*
X130868809Y-148989380D01*
X130773571Y-149132238D01*
X130678333Y-149227476D01*
X130583095Y-149275095D01*
X137254523Y-149889380D02*
X136921190Y-149413190D01*
X136683095Y-149889380D02*
X136683095Y-148889380D01*
X137064047Y-148889380D01*
X137159285Y-148937000D01*
X137206904Y-148984619D01*
X137254523Y-149079857D01*
X137254523Y-149222714D01*
X137206904Y-149317952D01*
X137159285Y-149365571D01*
X137064047Y-149413190D01*
X136683095Y-149413190D01*
X137683095Y-149889380D02*
X137683095Y-148889380D01*
X138254523Y-149889380D01*
X138254523Y-148889380D01*
X138683095Y-148984619D02*
X138730714Y-148937000D01*
X138825952Y-148889380D01*
X139064047Y-148889380D01*
X139159285Y-148937000D01*
X139206904Y-148984619D01*
X139254523Y-149079857D01*
X139254523Y-149175095D01*
X139206904Y-149317952D01*
X138635476Y-149889380D01*
X139254523Y-149889380D01*
X114383095Y-136839380D02*
X114383095Y-137648904D01*
X114430714Y-137744142D01*
X114478333Y-137791761D01*
X114573571Y-137839380D01*
X114764047Y-137839380D01*
X114859285Y-137791761D01*
X114906904Y-137744142D01*
X114954523Y-137648904D01*
X114954523Y-136839380D01*
X115954523Y-137839380D02*
X115383095Y-137839380D01*
X115668809Y-137839380D02*
X115668809Y-136839380D01*
X115573571Y-136982238D01*
X115478333Y-137077476D01*
X115383095Y-137125095D01*
D10*
X121635000Y-140074221D02*
X121635000Y-140399779D01*
X122655000Y-140074221D02*
X122655000Y-140399779D01*
X122655000Y-145074221D02*
X122655000Y-145399779D01*
X121635000Y-145074221D02*
X121635000Y-145399779D01*
X108655000Y-149187279D02*
X108655000Y-148861721D01*
X107635000Y-149187279D02*
X107635000Y-148861721D01*
X115145000Y-151537000D02*
X113145000Y-151537000D01*
X115145000Y-151537000D02*
X115145000Y-155387000D01*
X113145000Y-151537000D02*
X113145000Y-155387000D01*
X117645000Y-151537000D02*
X117645000Y-155387000D01*
X115645000Y-151537000D02*
X115645000Y-155387000D01*
X117645000Y-151537000D02*
X115645000Y-151537000D01*
X111845000Y-154037000D02*
X107995000Y-154037000D01*
X111845000Y-152037000D02*
X107995000Y-152037000D01*
X111845000Y-154037000D02*
X111845000Y-152037000D01*
X130345000Y-150657000D02*
X129345000Y-150657000D01*
X130345000Y-154017000D02*
X129345000Y-154017000D01*
X137445000Y-150657000D02*
X138445000Y-150657000D01*
X137445000Y-154017000D02*
X138445000Y-154017000D01*
X119005000Y-151247000D02*
X119005000Y-151012000D01*
X111285000Y-138227000D02*
X111285000Y-138462000D01*
X111285000Y-151247000D02*
X111285000Y-151012000D01*
X115145000Y-151247000D02*
X111285000Y-151247000D01*
X115145000Y-151247000D02*
X119005000Y-151247000D01*
X115145000Y-138227000D02*
X119005000Y-138227000D01*
X119005000Y-138227000D02*
X119005000Y-138462000D01*
X111285000Y-138462000D02*
X109470000Y-138462000D01*
X115145000Y-138227000D02*
X111285000Y-138227000D01*
X98505000Y-160329000D02*
X97175000Y-160329000D01*
X98505000Y-158999000D02*
X98505000Y-160329000D01*
X98505000Y-157729000D02*
X98505000Y-142429000D01*
X95845000Y-157729000D02*
X95845000Y-142429000D01*
X98505000Y-142429000D02*
X95845000Y-142429000D01*
X98505000Y-157729000D02*
X95845000Y-157729000D01*
X98505000Y-127189000D02*
X95845000Y-127189000D01*
X95845000Y-137409000D02*
X95845000Y-127189000D01*
X98505000Y-137409000D02*
X98505000Y-127189000D01*
X98505000Y-140009000D02*
X97175000Y-140009000D01*
X98505000Y-138679000D02*
X98505000Y-140009000D01*
X98505000Y-137409000D02*
X95845000Y-137409000D01*
%LPC*%
D13*
X122145000Y-139449500D03*
X122145000Y-141024500D03*
X122145000Y-144449500D03*
X122145000Y-146024500D03*
D14*
X108145000Y-149812000D03*
X108145000Y-148237000D03*
D15*
X114145000Y-152337000D03*
X114145000Y-155137000D03*
X116645000Y-152337000D03*
X116645000Y-155137000D03*
D16*
X111045000Y-153037000D03*
X108245000Y-153037000D03*
D17*
X128945000Y-151137000D03*
D18*
X128945000Y-151937000D03*
X128945000Y-152737000D03*
D17*
X128945000Y-153537000D03*
X130745000Y-153537000D03*
D18*
X130745000Y-152737000D03*
X130745000Y-151937000D03*
D17*
X130745000Y-151137000D03*
D19*
X138845000Y-153537000D03*
D20*
X138845000Y-152737000D03*
X138845000Y-151937000D03*
D19*
X138845000Y-151137000D03*
X137045000Y-151137000D03*
D20*
X137045000Y-151937000D03*
X137045000Y-152737000D03*
D19*
X137045000Y-153537000D03*
D21*
X110495000Y-139022000D03*
X110495000Y-140292000D03*
X110495000Y-141562000D03*
X110495000Y-142832000D03*
X110495000Y-144102000D03*
X110495000Y-145372000D03*
X110495000Y-146642000D03*
X110495000Y-147912000D03*
X110495000Y-149182000D03*
X110495000Y-150452000D03*
X119795000Y-150452000D03*
X119795000Y-149182000D03*
X119795000Y-147912000D03*
X119795000Y-146642000D03*
X119795000Y-145372000D03*
X119795000Y-144102000D03*
X119795000Y-142832000D03*
X119795000Y-141562000D03*
X119795000Y-140292000D03*
X119795000Y-139022000D03*
D22*
X97175000Y-158999000D03*
D23*
X97175000Y-156459000D03*
X97175000Y-153919000D03*
X97175000Y-151379000D03*
X97175000Y-148839000D03*
X97175000Y-146299000D03*
X97175000Y-143759000D03*
D22*
X97175000Y-138679000D03*
D23*
X97175000Y-136139000D03*
X97175000Y-133599000D03*
X97175000Y-131059000D03*
X97175000Y-128519000D03*
M02*
