G04 #@! TF.GenerationSoftware,KiCad,Pcbnew,6.0.1-79c1e3a40b~116~ubuntu21.04.1*
G04 #@! TF.CreationDate,2022-02-15T19:11:39-05:00*
G04 #@! TF.ProjectId,ESC_driver,4553435f-6472-4697-9665-722e6b696361,rev?*
G04 #@! TF.SameCoordinates,Original*
G04 #@! TF.FileFunction,Copper,L1,Top*
G04 #@! TF.FilePolarity,Positive*
%FSLAX46Y46*%
G04 Gerber Fmt 4.6, Leading zero omitted, Abs format (unit mm)*
G04 Created by KiCad (PCBNEW 6.0.1-79c1e3a40b~116~ubuntu21.04.1) date 2022-02-15 19:11:39*
%MOMM*%
%LPD*%
G01*
G04 APERTURE LIST*
G04 Aperture macros list*
%AMRoundRect*
0 Rectangle with rounded corners*
0 $1 Rounding radius*
0 $2 $3 $4 $5 $6 $7 $8 $9 X,Y pos of 4 corners*
0 Add a 4 corners polygon primitive as box body*
4,1,4,$2,$3,$4,$5,$6,$7,$8,$9,$2,$3,0*
0 Add four circle primitives for the rounded corners*
1,1,$1+$1,$2,$3*
1,1,$1+$1,$4,$5*
1,1,$1+$1,$6,$7*
1,1,$1+$1,$8,$9*
0 Add four rect primitives between the rounded corners*
20,1,$1+$1,$2,$3,$4,$5,0*
20,1,$1+$1,$4,$5,$6,$7,0*
20,1,$1+$1,$6,$7,$8,$9,0*
20,1,$1+$1,$8,$9,$2,$3,0*%
G04 Aperture macros list end*
G04 #@! TA.AperFunction,SMDPad,CuDef*
%ADD10RoundRect,0.218750X-0.256250X0.218750X-0.256250X-0.218750X0.256250X-0.218750X0.256250X0.218750X0*%
G04 #@! TD*
G04 #@! TA.AperFunction,SMDPad,CuDef*
%ADD11RoundRect,0.218750X0.256250X-0.218750X0.256250X0.218750X-0.256250X0.218750X-0.256250X-0.218750X0*%
G04 #@! TD*
G04 #@! TA.AperFunction,SMDPad,CuDef*
%ADD12R,1.100000X1.100000*%
G04 #@! TD*
G04 #@! TA.AperFunction,SMDPad,CuDef*
%ADD13R,0.800000X0.500000*%
G04 #@! TD*
G04 #@! TA.AperFunction,SMDPad,CuDef*
%ADD14R,0.800000X0.400000*%
G04 #@! TD*
G04 #@! TA.AperFunction,SMDPad,CuDef*
%ADD15RoundRect,0.150000X-0.875000X-0.150000X0.875000X-0.150000X0.875000X0.150000X-0.875000X0.150000X0*%
G04 #@! TD*
G04 #@! TA.AperFunction,ComponentPad*
%ADD16R,1.700000X1.700000*%
G04 #@! TD*
G04 #@! TA.AperFunction,ComponentPad*
%ADD17O,1.700000X1.700000*%
G04 #@! TD*
G04 #@! TA.AperFunction,ViaPad*
%ADD18C,0.800000*%
G04 #@! TD*
G04 #@! TA.AperFunction,Conductor*
%ADD19C,0.250000*%
G04 #@! TD*
G04 APERTURE END LIST*
D10*
X122145000Y-139449500D03*
X122145000Y-141024500D03*
X122145000Y-144449500D03*
X122145000Y-146024500D03*
D11*
X108145000Y-149812000D03*
X108145000Y-148237000D03*
D12*
X114145000Y-152337000D03*
X114145000Y-155137000D03*
X116645000Y-152337000D03*
X116645000Y-155137000D03*
X111045000Y-153037000D03*
X108245000Y-153037000D03*
D13*
X128945000Y-151137000D03*
D14*
X128945000Y-151937000D03*
X128945000Y-152737000D03*
D13*
X128945000Y-153537000D03*
X130745000Y-153537000D03*
D14*
X130745000Y-152737000D03*
X130745000Y-151937000D03*
D13*
X130745000Y-151137000D03*
X138845000Y-153537000D03*
D14*
X138845000Y-152737000D03*
X138845000Y-151937000D03*
D13*
X138845000Y-151137000D03*
X137045000Y-151137000D03*
D14*
X137045000Y-151937000D03*
X137045000Y-152737000D03*
D13*
X137045000Y-153537000D03*
D15*
X110495000Y-139022000D03*
X110495000Y-140292000D03*
X110495000Y-141562000D03*
X110495000Y-142832000D03*
X110495000Y-144102000D03*
X110495000Y-145372000D03*
X110495000Y-146642000D03*
X110495000Y-147912000D03*
X110495000Y-149182000D03*
X110495000Y-150452000D03*
X119795000Y-150452000D03*
X119795000Y-149182000D03*
X119795000Y-147912000D03*
X119795000Y-146642000D03*
X119795000Y-145372000D03*
X119795000Y-144102000D03*
X119795000Y-142832000D03*
X119795000Y-141562000D03*
X119795000Y-140292000D03*
X119795000Y-139022000D03*
D16*
X97175000Y-158999000D03*
D17*
X97175000Y-156459000D03*
X97175000Y-153919000D03*
X97175000Y-151379000D03*
X97175000Y-148839000D03*
X97175000Y-146299000D03*
X97175000Y-143759000D03*
D16*
X97175000Y-138679000D03*
D17*
X97175000Y-136139000D03*
X97175000Y-133599000D03*
X97175000Y-131059000D03*
X97175000Y-128519000D03*
D18*
X110495000Y-146642000D03*
X113170000Y-147450000D03*
X114145000Y-152337000D03*
X119795000Y-139022000D03*
X128445000Y-145537000D03*
X128395000Y-138987000D03*
X119795000Y-141562000D03*
X125520000Y-145537000D03*
X122145000Y-141024500D03*
X112923000Y-144399000D03*
X125520000Y-146537000D03*
X134895000Y-138972000D03*
X119795000Y-145372000D03*
X134945000Y-145537000D03*
X122145000Y-146024500D03*
X111045000Y-153037000D03*
X119795000Y-146642000D03*
X141395000Y-138972000D03*
X121669999Y-151261999D03*
X118003000Y-144653000D03*
X108395000Y-154737000D03*
X125145000Y-153637000D03*
X141445000Y-145437000D03*
X130645000Y-146987000D03*
X137145000Y-146987000D03*
X143520000Y-146737000D03*
X105811000Y-153035000D03*
X116645000Y-155137000D03*
X105733000Y-145796000D03*
X121395000Y-152237000D03*
X108245000Y-153037000D03*
X131645000Y-146937000D03*
X138145000Y-146937000D03*
X143445000Y-137937000D03*
X118511000Y-140081000D03*
X110495000Y-150452000D03*
X120645000Y-154237000D03*
X124645000Y-151987000D03*
X119795000Y-144102000D03*
X126207653Y-153674347D03*
X121895000Y-154237000D03*
X110495000Y-149182000D03*
X118003000Y-146341500D03*
X116733000Y-143383000D03*
X113177000Y-135556980D03*
X112923000Y-138303000D03*
X112923000Y-140843000D03*
X116987000Y-137287000D03*
X116733000Y-139319000D03*
X116733000Y-141859000D03*
D19*
X110495000Y-146642000D02*
X112362000Y-146642000D01*
X112362000Y-146642000D02*
X113170000Y-147450000D01*
X119795000Y-139022000D02*
X121717500Y-139022000D01*
X121717500Y-139022000D02*
X122145000Y-139449500D01*
X119795000Y-141562000D02*
X121607500Y-141562000D01*
X102260000Y-136139000D02*
X97175000Y-136139000D01*
X119752000Y-141605000D02*
X119795000Y-141562000D01*
X128395000Y-138987000D02*
X123647000Y-134239000D01*
X125520000Y-145537000D02*
X128445000Y-145537000D01*
X104160000Y-134239000D02*
X102260000Y-136139000D01*
X121607500Y-141562000D02*
X122145000Y-141024500D01*
X123647000Y-134239000D02*
X104160000Y-134239000D01*
X119795000Y-142832000D02*
X118130408Y-142832000D01*
X116995614Y-141097000D02*
X116225000Y-141097000D01*
X118130408Y-142832000D02*
X117457511Y-142159103D01*
X117457511Y-142159103D02*
X117457511Y-141558897D01*
X118770000Y-142832000D02*
X116820921Y-144781079D01*
X116225000Y-141097000D02*
X112923000Y-144399000D01*
X116820921Y-144781079D02*
X116820921Y-152161079D01*
X119795000Y-142832000D02*
X121936450Y-142832000D01*
X117457511Y-141558897D02*
X116995614Y-141097000D01*
X122145000Y-143040550D02*
X122145000Y-144449500D01*
X121936450Y-142832000D02*
X122145000Y-143040550D01*
X119795000Y-142832000D02*
X118770000Y-142832000D01*
X116820921Y-152161079D02*
X116645000Y-152337000D01*
X129522000Y-133599000D02*
X97175000Y-133599000D01*
X130021995Y-146537003D02*
X131021998Y-145537000D01*
X130021995Y-146537003D02*
X125520003Y-146537003D01*
X125520003Y-146537003D02*
X125520000Y-146537000D01*
X119795000Y-145372000D02*
X120134999Y-145711999D01*
X134895000Y-138972000D02*
X129522000Y-133599000D01*
X120134999Y-145711999D02*
X121832499Y-145711999D01*
X131021998Y-145537000D02*
X134945000Y-145537000D01*
X121832499Y-145711999D02*
X122145000Y-146024500D01*
X108145000Y-149812000D02*
X108145000Y-150137000D01*
X119075236Y-146642000D02*
X119795000Y-146642000D01*
X108145000Y-150137000D02*
X111045000Y-153037000D01*
X117278489Y-145377511D02*
X117278489Y-147992489D01*
X125145000Y-153637000D02*
X126045000Y-154537000D01*
X126045000Y-154537000D02*
X132272180Y-154537000D01*
X108259998Y-154737000D02*
X108395000Y-154737000D01*
X108145000Y-148237000D02*
X107344990Y-149037010D01*
X107344990Y-149037010D02*
X107344990Y-153821992D01*
X135275000Y-132842000D02*
X104160000Y-132842000D01*
X121669999Y-150031999D02*
X121669999Y-151261999D01*
X141372180Y-145437000D02*
X141445000Y-145437000D01*
X104160000Y-132842000D02*
X102377000Y-131059000D01*
X120820000Y-149182000D02*
X121669999Y-150031999D01*
X132272180Y-154537000D02*
X141372180Y-145437000D01*
X117278489Y-147992489D02*
X118468000Y-149182000D01*
X119795000Y-149182000D02*
X120820000Y-149182000D01*
X141395000Y-138962000D02*
X135275000Y-132842000D01*
X107344990Y-153821992D02*
X108259998Y-154737000D01*
X141395000Y-138972000D02*
X141395000Y-138962000D01*
X118003000Y-144653000D02*
X117278489Y-145377511D01*
X118468000Y-149182000D02*
X119795000Y-149182000D01*
X102377000Y-131059000D02*
X97175000Y-131059000D01*
X130745000Y-147087000D02*
X130645000Y-146987000D01*
X130745000Y-151137000D02*
X130745000Y-147087000D01*
X131395000Y-152737000D02*
X130745000Y-152737000D01*
X137145000Y-146987000D02*
X131395000Y-152737000D01*
X143520000Y-149262000D02*
X143520000Y-146737000D01*
X138845000Y-151137000D02*
X141645000Y-151137000D01*
X141645000Y-151137000D02*
X143520000Y-149262000D01*
X105811000Y-145874000D02*
X105811000Y-153035000D01*
X96791990Y-157737000D02*
X101109000Y-157737000D01*
X105733000Y-145796000D02*
X105811000Y-145874000D01*
X108245000Y-153037000D02*
X110345000Y-155137000D01*
X110345000Y-155137000D02*
X114145000Y-155137000D01*
X95645000Y-156590010D02*
X96791990Y-157737000D01*
X119795000Y-150452000D02*
X119795000Y-150637000D01*
X95645000Y-130049000D02*
X95645000Y-156590010D01*
X101109000Y-157737000D02*
X105811000Y-153035000D01*
X116645000Y-155137000D02*
X114145000Y-155137000D01*
X119795000Y-150637000D02*
X121395000Y-152237000D01*
X97175000Y-128519000D02*
X95645000Y-130049000D01*
X130745000Y-151937000D02*
X131395000Y-151937000D01*
X131395000Y-151937000D02*
X131645000Y-151687000D01*
X131645000Y-151687000D02*
X131645000Y-146937000D01*
X138145000Y-147060002D02*
X138145000Y-146937000D01*
X130745000Y-153537000D02*
X131668002Y-153537000D01*
X131668002Y-153537000D02*
X138145000Y-147060002D01*
X138845000Y-151937000D02*
X138195000Y-151937000D01*
X138195000Y-151937000D02*
X138119999Y-151861999D01*
X138119999Y-150262001D02*
X143445000Y-144937000D01*
X138119999Y-151861999D02*
X138119999Y-150262001D01*
X143445000Y-144937000D02*
X143445000Y-137937000D01*
X122895000Y-140237000D02*
X123845030Y-141187030D01*
X119795000Y-140292000D02*
X119850000Y-140237000D01*
X123845030Y-141187030D02*
X123845030Y-148937030D01*
X119584000Y-140081000D02*
X119795000Y-140292000D01*
X118511000Y-140081000D02*
X119584000Y-140081000D01*
X126045000Y-151137000D02*
X128945000Y-151137000D01*
X119850000Y-140237000D02*
X122895000Y-140237000D01*
X123845030Y-148937030D02*
X126045000Y-151137000D01*
X124645000Y-151987000D02*
X128895000Y-151987000D01*
X112645000Y-154237000D02*
X120645000Y-154237000D01*
X110495000Y-150452000D02*
X111920001Y-151877001D01*
X111920001Y-153512001D02*
X112645000Y-154237000D01*
X111920001Y-151877001D02*
X111920001Y-153512001D01*
X128895000Y-151987000D02*
X128945000Y-151937000D01*
X124145000Y-152737000D02*
X123395021Y-151987021D01*
X123395020Y-146030526D02*
X122626484Y-145261990D01*
X120553506Y-144102000D02*
X119795000Y-144102000D01*
X123395021Y-151987021D02*
X123395020Y-146030526D01*
X121713496Y-145261990D02*
X120553506Y-144102000D01*
X122626484Y-145261990D02*
X121713496Y-145261990D01*
X128945000Y-152737000D02*
X124145000Y-152737000D01*
X120071998Y-153737000D02*
X120296999Y-153511999D01*
X111520000Y-149182000D02*
X112395000Y-150057000D01*
X128945000Y-153537000D02*
X126345000Y-153537000D01*
X120296999Y-153511999D02*
X121169999Y-153511999D01*
X112781410Y-153737000D02*
X120071998Y-153737000D01*
X121169999Y-153511999D02*
X121895000Y-154237000D01*
X110495000Y-149182000D02*
X111520000Y-149182000D01*
X112395000Y-153350590D02*
X112781410Y-153737000D01*
X112395000Y-150057000D02*
X112395000Y-153350590D01*
X126345000Y-153537000D02*
X126207653Y-153674347D01*
X122645000Y-150335232D02*
X120221768Y-147912000D01*
X118003000Y-146341500D02*
X118003000Y-146546072D01*
X136395000Y-151137000D02*
X132544990Y-154987010D01*
X125422008Y-154987010D02*
X122645000Y-152210002D01*
X122645000Y-152210002D02*
X122645000Y-150335232D01*
X118003000Y-146546072D02*
X119368928Y-147912000D01*
X132544990Y-154987010D02*
X125422008Y-154987010D01*
X137045000Y-151137000D02*
X136395000Y-151137000D01*
X120221768Y-147912000D02*
X119795000Y-147912000D01*
X119368928Y-147912000D02*
X119795000Y-147912000D01*
X124168022Y-155437020D02*
X121792991Y-153061989D01*
X137045000Y-151937000D02*
X136395000Y-151937000D01*
X132894980Y-155437020D02*
X124168022Y-155437020D01*
X116733000Y-143383000D02*
X113894511Y-146221489D01*
X113269999Y-153111999D02*
X113269999Y-149661999D01*
X119935588Y-153237000D02*
X113395000Y-153237000D01*
X120110599Y-153061989D02*
X119935588Y-153237000D01*
X136395000Y-151937000D02*
X132894980Y-155437020D01*
X121792991Y-153061989D02*
X120110599Y-153061989D01*
X113269999Y-149661999D02*
X111520000Y-147912000D01*
X113395000Y-153237000D02*
X113269999Y-153111999D01*
X113894511Y-146221489D02*
X113894511Y-149037487D01*
X113894511Y-149037487D02*
X113269999Y-149661999D01*
X111520000Y-147912000D02*
X110495000Y-147912000D01*
X113177000Y-136340000D02*
X110495000Y-139022000D01*
X110495000Y-139022000D02*
X101912000Y-139022000D01*
X101912000Y-139022000D02*
X97175000Y-143759000D01*
X113177000Y-135556980D02*
X113177000Y-136340000D01*
X110934000Y-140292000D02*
X112923000Y-138303000D01*
X103182000Y-140292000D02*
X97175000Y-146299000D01*
X110495000Y-140292000D02*
X110934000Y-140292000D01*
X110495000Y-140292000D02*
X103182000Y-140292000D01*
X112923000Y-140843000D02*
X112204000Y-141562000D01*
X112204000Y-141562000D02*
X110495000Y-141562000D01*
X104452000Y-141562000D02*
X110495000Y-141562000D01*
X97175000Y-148839000D02*
X104452000Y-141562000D01*
X116987000Y-137287000D02*
X116987000Y-137803614D01*
X104550000Y-142832000D02*
X102145000Y-145237000D01*
X102145000Y-145237000D02*
X102145000Y-146409000D01*
X110495000Y-142832000D02*
X104550000Y-142832000D01*
X102145000Y-146409000D02*
X97175000Y-151379000D01*
X111958614Y-142832000D02*
X110495000Y-142832000D01*
X116987000Y-137803614D02*
X111958614Y-142832000D01*
X97175000Y-153919000D02*
X102645000Y-148449000D01*
X102645000Y-146237000D02*
X104780000Y-144102000D01*
X116733000Y-139319000D02*
X111950000Y-144102000D01*
X111950000Y-144102000D02*
X110495000Y-144102000D01*
X104780000Y-144102000D02*
X110495000Y-144102000D01*
X102645000Y-148449000D02*
X102645000Y-146237000D01*
X113220000Y-145372000D02*
X116733000Y-141859000D01*
X107645000Y-144737000D02*
X108280000Y-145372000D01*
X103645000Y-149989000D02*
X103645000Y-146237000D01*
X108280000Y-145372000D02*
X110495000Y-145372000D01*
X103645000Y-146237000D02*
X105145000Y-144737000D01*
X105145000Y-144737000D02*
X107645000Y-144737000D01*
X110495000Y-145372000D02*
X113220000Y-145372000D01*
X97175000Y-156459000D02*
X103645000Y-149989000D01*
M02*
