M48
; DRILL file {KiCad 6.0.1-79c1e3a40b~116~ubuntu21.04.1} date Tue 15 Feb 2022 07:11:47 PM
; FORMAT={-:-/ absolute / metric / decimal}
; #@! TF.CreationDate,2022-02-15T19:11:47-05:00
; #@! TF.GenerationSoftware,Kicad,Pcbnew,6.0.1-79c1e3a40b~116~ubuntu21.04.1
; #@! TF.FileFunction,Plated,1,2,PTH
FMAT,2
METRIC
; #@! TA.AperFunction,Plated,PTH,ViaDrill
T1C0.400
; #@! TA.AperFunction,Plated,PTH,ComponentDrill
T2C1.000
%
G90
G05
T1
X105.733Y-145.796
X105.811Y-153.035
X108.245Y-153.037
X108.395Y-154.737
X110.495Y-146.642
X110.495Y-149.182
X110.495Y-150.452
X111.045Y-153.037
X112.923Y-138.303
X112.923Y-140.843
X112.923Y-144.399
X113.17Y-147.45
X113.177Y-135.557
X114.145Y-152.337
X116.645Y-155.137
X116.733Y-139.319
X116.733Y-141.859
X116.733Y-143.383
X116.987Y-137.287
X118.003Y-144.653
X118.003Y-146.341
X118.511Y-140.081
X119.795Y-139.022
X119.795Y-141.562
X119.795Y-144.102
X119.795Y-145.372
X119.795Y-146.642
X120.645Y-154.237
X121.395Y-152.237
X121.67Y-151.262
X121.895Y-154.237
X122.145Y-141.024
X122.145Y-146.024
X124.645Y-151.987
X125.145Y-153.637
X125.52Y-145.537
X125.52Y-146.537
X126.208Y-153.674
X128.395Y-138.987
X128.445Y-145.537
X130.645Y-146.987
X131.645Y-146.937
X134.895Y-138.972
X134.945Y-145.537
X137.145Y-146.987
X138.145Y-146.937
X141.395Y-138.972
X141.445Y-145.437
X143.445Y-137.937
X143.52Y-146.737
T2
X97.175Y-128.519
X97.175Y-131.059
X97.175Y-133.599
X97.175Y-136.139
X97.175Y-138.679
X97.175Y-143.759
X97.175Y-146.299
X97.175Y-148.839
X97.175Y-151.379
X97.175Y-153.919
X97.175Y-156.459
X97.175Y-158.999
T0
M30
