G04 #@! TF.GenerationSoftware,KiCad,Pcbnew,6.0.1-79c1e3a40b~116~ubuntu21.04.1*
G04 #@! TF.CreationDate,2022-02-15T19:11:41-05:00*
G04 #@! TF.ProjectId,ESC_driver,4553435f-6472-4697-9665-722e6b696361,rev?*
G04 #@! TF.SameCoordinates,Original*
G04 #@! TF.FileFunction,Soldermask,Bot*
G04 #@! TF.FilePolarity,Negative*
%FSLAX46Y46*%
G04 Gerber Fmt 4.6, Leading zero omitted, Abs format (unit mm)*
G04 Created by KiCad (PCBNEW 6.0.1-79c1e3a40b~116~ubuntu21.04.1) date 2022-02-15 19:11:41*
%MOMM*%
%LPD*%
G01*
G04 APERTURE LIST*
G04 Aperture macros list*
%AMRoundRect*
0 Rectangle with rounded corners*
0 $1 Rounding radius*
0 $2 $3 $4 $5 $6 $7 $8 $9 X,Y pos of 4 corners*
0 Add a 4 corners polygon primitive as box body*
4,1,4,$2,$3,$4,$5,$6,$7,$8,$9,$2,$3,0*
0 Add four circle primitives for the rounded corners*
1,1,$1+$1,$2,$3*
1,1,$1+$1,$4,$5*
1,1,$1+$1,$6,$7*
1,1,$1+$1,$8,$9*
0 Add four rect primitives between the rounded corners*
20,1,$1+$1,$2,$3,$4,$5,0*
20,1,$1+$1,$4,$5,$6,$7,0*
20,1,$1+$1,$6,$7,$8,$9,0*
20,1,$1+$1,$8,$9,$2,$3,0*%
G04 Aperture macros list end*
%ADD10RoundRect,0.050000X0.850000X0.850000X-0.850000X0.850000X-0.850000X-0.850000X0.850000X-0.850000X0*%
%ADD11O,1.800000X1.800000*%
%ADD12RoundRect,0.050000X-0.200000X-0.200000X0.200000X-0.200000X0.200000X0.200000X-0.200000X0.200000X0*%
%ADD13RoundRect,0.050000X-1.325000X1.100000X-1.325000X-1.100000X1.325000X-1.100000X1.325000X1.100000X0*%
%ADD14RoundRect,0.200000X0.875000X0.150000X-0.875000X0.150000X-0.875000X-0.150000X0.875000X-0.150000X0*%
G04 APERTURE END LIST*
D10*
X97175000Y-158999000D03*
D11*
X97175000Y-156459000D03*
X97175000Y-153919000D03*
X97175000Y-151379000D03*
X97175000Y-148839000D03*
X97175000Y-146299000D03*
X97175000Y-143759000D03*
D10*
X97175000Y-138679000D03*
D11*
X97175000Y-136139000D03*
X97175000Y-133599000D03*
X97175000Y-131059000D03*
X97175000Y-128519000D03*
D12*
X128720000Y-147412000D03*
X127420000Y-147412000D03*
X128070000Y-147412000D03*
X129370000Y-147412000D03*
D13*
X128395000Y-149312000D03*
D12*
X129370000Y-150562000D03*
X128720000Y-150562000D03*
X128070000Y-150562000D03*
X127420000Y-150562000D03*
X135220000Y-147412000D03*
X134570000Y-147412000D03*
X133920000Y-147412000D03*
X135870000Y-147412000D03*
D13*
X134895000Y-149312000D03*
D12*
X135220000Y-150562000D03*
X134570000Y-150562000D03*
X133920000Y-150562000D03*
X135870000Y-150562000D03*
X141720000Y-147412000D03*
X141070000Y-147412000D03*
X140420000Y-147412000D03*
X142370000Y-147412000D03*
X142370000Y-150562000D03*
X141070000Y-150562000D03*
D13*
X141395000Y-149312000D03*
D12*
X141720000Y-150562000D03*
X140420000Y-150562000D03*
X128720000Y-137087000D03*
X127420000Y-137087000D03*
X128070000Y-137087000D03*
X129370000Y-137087000D03*
D13*
X128395000Y-138987000D03*
D12*
X127420000Y-140237000D03*
X128720000Y-140237000D03*
X129370000Y-140237000D03*
X128070000Y-140237000D03*
X135220000Y-137072000D03*
X134570000Y-137072000D03*
X133920000Y-137072000D03*
X135870000Y-137072000D03*
X135870000Y-140222000D03*
X135220000Y-140222000D03*
X133920000Y-140222000D03*
X134570000Y-140222000D03*
D13*
X134895000Y-138972000D03*
D12*
X140420000Y-137072000D03*
X141720000Y-137072000D03*
X141070000Y-137072000D03*
X142370000Y-137072000D03*
D13*
X141395000Y-138972000D03*
D12*
X140420000Y-140222000D03*
X141720000Y-140222000D03*
X141070000Y-140222000D03*
X142370000Y-140222000D03*
D14*
X115033000Y-135636000D03*
X115033000Y-136906000D03*
X115033000Y-138176000D03*
X115033000Y-139446000D03*
X115033000Y-140716000D03*
X115033000Y-141986000D03*
X115033000Y-143256000D03*
X115033000Y-144526000D03*
X115033000Y-145796000D03*
X115033000Y-147066000D03*
X105733000Y-147066000D03*
X105733000Y-145796000D03*
X105733000Y-144526000D03*
X105733000Y-143256000D03*
X105733000Y-141986000D03*
X105733000Y-140716000D03*
X105733000Y-139446000D03*
X105733000Y-138176000D03*
X105733000Y-136906000D03*
X105733000Y-135636000D03*
G36*
X143880648Y-131501352D02*
G01*
X143895000Y-131536000D01*
X143895000Y-137188000D01*
X143880648Y-137222648D01*
X143846000Y-137237000D01*
X143365296Y-137237000D01*
X143330648Y-137222648D01*
X142751893Y-136643893D01*
X142735253Y-136637000D01*
X142054747Y-136637000D01*
X142047855Y-136639855D01*
X142045000Y-136646747D01*
X142045000Y-137188000D01*
X142030648Y-137222648D01*
X141996000Y-137237000D01*
X136965296Y-137237000D01*
X136930648Y-137222648D01*
X136351893Y-136643893D01*
X136335253Y-136637000D01*
X135554747Y-136637000D01*
X135547855Y-136639855D01*
X135545000Y-136646747D01*
X135545000Y-137188000D01*
X135530648Y-137222648D01*
X135496000Y-137237000D01*
X130465296Y-137237000D01*
X130430648Y-137222648D01*
X129951893Y-136743893D01*
X129935253Y-136737000D01*
X129054747Y-136737000D01*
X129047855Y-136739855D01*
X129045000Y-136746747D01*
X129045000Y-137188000D01*
X129030648Y-137222648D01*
X128996000Y-137237000D01*
X126944000Y-137237000D01*
X126909352Y-137222648D01*
X126895000Y-137188000D01*
X126895000Y-131536000D01*
X126909352Y-131501352D01*
X126944000Y-131487000D01*
X143846000Y-131487000D01*
X143880648Y-131501352D01*
G37*
G36*
X143880648Y-150251352D02*
G01*
X143895000Y-150286000D01*
X143895000Y-155938000D01*
X143880648Y-155972648D01*
X143846000Y-155987000D01*
X126944000Y-155987000D01*
X126909352Y-155972648D01*
X126895000Y-155938000D01*
X126895000Y-150286000D01*
X126909352Y-150251352D01*
X126944000Y-150237000D01*
X143846000Y-150237000D01*
X143880648Y-150251352D01*
G37*
G36*
X142880648Y-140001352D02*
G01*
X142895000Y-140036000D01*
X142895000Y-146938000D01*
X142880648Y-146972648D01*
X142846000Y-146987000D01*
X141904747Y-146987000D01*
X141897855Y-146989855D01*
X141895000Y-146996747D01*
X141895000Y-147688000D01*
X141880648Y-147722648D01*
X141846000Y-147737000D01*
X139944000Y-147737000D01*
X139909352Y-147722648D01*
X139895000Y-147688000D01*
X139895000Y-140036000D01*
X139909352Y-140001352D01*
X139944000Y-139987000D01*
X142846000Y-139987000D01*
X142880648Y-140001352D01*
G37*
G36*
X136380648Y-140001352D02*
G01*
X136395000Y-140036000D01*
X136395000Y-146938000D01*
X136380648Y-146972648D01*
X136346000Y-146987000D01*
X135404747Y-146987000D01*
X135397855Y-146989855D01*
X135395000Y-146996747D01*
X135395000Y-147688000D01*
X135380648Y-147722648D01*
X135346000Y-147737000D01*
X133444000Y-147737000D01*
X133409352Y-147722648D01*
X133395000Y-147688000D01*
X133395000Y-140036000D01*
X133409352Y-140001352D01*
X133444000Y-139987000D01*
X136346000Y-139987000D01*
X136380648Y-140001352D01*
G37*
G36*
X129880648Y-140001352D02*
G01*
X129895000Y-140036000D01*
X129895000Y-146938000D01*
X129880648Y-146972648D01*
X129846000Y-146987000D01*
X128904747Y-146987000D01*
X128897855Y-146989855D01*
X128895000Y-146996747D01*
X128895000Y-147688000D01*
X128880648Y-147722648D01*
X128846000Y-147737000D01*
X126944000Y-147737000D01*
X126909352Y-147722648D01*
X126895000Y-147688000D01*
X126895000Y-140036000D01*
X126909352Y-140001352D01*
X126944000Y-139987000D01*
X129846000Y-139987000D01*
X129880648Y-140001352D01*
G37*
M02*
