G04 #@! TF.GenerationSoftware,KiCad,Pcbnew,6.0.1-79c1e3a40b~116~ubuntu21.04.1*
G04 #@! TF.CreationDate,2022-02-15T19:11:40-05:00*
G04 #@! TF.ProjectId,ESC_driver,4553435f-6472-4697-9665-722e6b696361,rev?*
G04 #@! TF.SameCoordinates,Original*
G04 #@! TF.FileFunction,Legend,Bot*
G04 #@! TF.FilePolarity,Positive*
%FSLAX46Y46*%
G04 Gerber Fmt 4.6, Leading zero omitted, Abs format (unit mm)*
G04 Created by KiCad (PCBNEW 6.0.1-79c1e3a40b~116~ubuntu21.04.1) date 2022-02-15 19:11:40*
%MOMM*%
%LPD*%
G01*
G04 APERTURE LIST*
G04 Aperture macros list*
%AMRoundRect*
0 Rectangle with rounded corners*
0 $1 Rounding radius*
0 $2 $3 $4 $5 $6 $7 $8 $9 X,Y pos of 4 corners*
0 Add a 4 corners polygon primitive as box body*
4,1,4,$2,$3,$4,$5,$6,$7,$8,$9,$2,$3,0*
0 Add four circle primitives for the rounded corners*
1,1,$1+$1,$2,$3*
1,1,$1+$1,$4,$5*
1,1,$1+$1,$6,$7*
1,1,$1+$1,$8,$9*
0 Add four rect primitives between the rounded corners*
20,1,$1+$1,$2,$3,$4,$5,0*
20,1,$1+$1,$4,$5,$6,$7,0*
20,1,$1+$1,$6,$7,$8,$9,0*
20,1,$1+$1,$8,$9,$2,$3,0*%
G04 Aperture macros list end*
%ADD10C,0.120000*%
%ADD11C,0.300000*%
%ADD12C,0.150000*%
%ADD13C,0.100000*%
%ADD14RoundRect,0.050000X0.850000X0.850000X-0.850000X0.850000X-0.850000X-0.850000X0.850000X-0.850000X0*%
%ADD15O,1.800000X1.800000*%
%ADD16RoundRect,0.050000X-0.200000X-0.200000X0.200000X-0.200000X0.200000X0.200000X-0.200000X0.200000X0*%
%ADD17RoundRect,0.050000X-1.325000X1.100000X-1.325000X-1.100000X1.325000X-1.100000X1.325000X1.100000X0*%
%ADD18RoundRect,0.200000X0.875000X0.150000X-0.875000X0.150000X-0.875000X-0.150000X0.875000X-0.150000X0*%
G04 APERTURE END LIST*
D10*
X99949000Y-137795000D02*
X100076000Y-137668000D01*
X104648000Y-134620000D02*
X105156000Y-134112000D01*
X109728000Y-131572000D02*
X109728000Y-131445000D01*
X100838000Y-134366000D02*
X100584000Y-134620000D01*
X102108000Y-132588000D02*
X101854000Y-132842000D01*
X97536000Y-140208000D02*
X96520000Y-141224000D01*
X98044000Y-140208000D02*
X97028000Y-141224000D01*
X102108000Y-131572000D02*
X102616000Y-131064000D01*
X101473000Y-137795000D02*
X101600000Y-137668000D01*
X109728000Y-133604000D02*
X108712000Y-134620000D01*
X100203000Y-131953000D02*
X100076000Y-132080000D01*
X102108000Y-133604000D02*
X102616000Y-133096000D01*
X100584000Y-141224000D02*
X103632000Y-138176000D01*
X102616000Y-133604000D02*
X102870000Y-133350000D01*
X100076000Y-134620000D02*
X99060000Y-135636000D01*
X103632000Y-141224000D02*
X103632000Y-134620000D01*
X100457000Y-137795000D02*
X100584000Y-137668000D01*
X105664000Y-134112000D02*
X105156000Y-134620000D01*
X100965000Y-137795000D02*
X101092000Y-137668000D01*
X103632000Y-134620000D02*
X109728000Y-134620000D01*
X100838000Y-136906000D02*
X100584000Y-137160000D01*
X102616000Y-133096000D02*
X102870000Y-132842000D01*
X102108000Y-133096000D02*
X103632000Y-131572000D01*
X109220000Y-132588000D02*
X109728000Y-132080000D01*
X105664000Y-132080000D02*
X106172000Y-131572000D01*
X104140000Y-132080000D02*
X104648000Y-131572000D01*
X109347000Y-131445000D02*
X109220000Y-131572000D01*
X103632000Y-137668000D02*
X100076000Y-141224000D01*
X99187000Y-131953000D02*
X98933000Y-132207000D01*
X101092000Y-137668000D02*
X103632000Y-135128000D01*
X99568000Y-133096000D02*
X100584000Y-132080000D01*
X99822000Y-139446000D02*
X99568000Y-139700000D01*
X104775000Y-131445000D02*
X104648000Y-131572000D01*
X101981000Y-137795000D02*
X102108000Y-137668000D01*
X100076000Y-133096000D02*
X101092000Y-132080000D01*
X101092000Y-141224000D02*
X103632000Y-138684000D01*
X99568000Y-127508000D02*
X99695000Y-127381000D01*
X103124000Y-134112000D02*
X102108000Y-135128000D01*
X104267000Y-131445000D02*
X104140000Y-131572000D01*
X109728000Y-133096000D02*
X109220000Y-133604000D01*
X99822000Y-136906000D02*
X99568000Y-137160000D01*
X107188000Y-132080000D02*
X107696000Y-131572000D01*
X99695000Y-131953000D02*
X99568000Y-132080000D01*
X108712000Y-134112000D02*
X108204000Y-134620000D01*
X103759000Y-131445000D02*
X103632000Y-131572000D01*
X99568000Y-137668000D02*
X100076000Y-137160000D01*
X101346000Y-139446000D02*
X101092000Y-139700000D01*
X105664000Y-134620000D02*
X106172000Y-134112000D01*
X101219000Y-131953000D02*
X101092000Y-132080000D01*
X102108000Y-138176000D02*
X103632000Y-136652000D01*
X104140000Y-134112000D02*
X102108000Y-136144000D01*
X100330000Y-136906000D02*
X100076000Y-137160000D01*
X98933000Y-129159000D02*
X99060000Y-129032000D01*
X107315000Y-131445000D02*
X107188000Y-131572000D01*
X108712000Y-132080000D02*
X109220000Y-131572000D01*
X105156000Y-132080000D02*
X105664000Y-131572000D01*
X101092000Y-133096000D02*
X103124000Y-131064000D01*
X108204000Y-132080000D02*
X108712000Y-131572000D01*
X101092000Y-134620000D02*
X100076000Y-135636000D01*
X100330000Y-139446000D02*
X100076000Y-139700000D01*
X100584000Y-130556000D02*
X100711000Y-130429000D01*
X104648000Y-134112000D02*
X104140000Y-134620000D01*
X103124000Y-141224000D02*
X103632000Y-140716000D01*
X99568000Y-132588000D02*
X100076000Y-132080000D01*
X103632000Y-132080000D02*
X104140000Y-131572000D01*
X99060000Y-130048000D02*
X99568000Y-129540000D01*
X99568000Y-139700000D02*
X98044000Y-141224000D01*
X98933000Y-132715000D02*
X99060000Y-132588000D01*
X98933000Y-137795000D02*
X99060000Y-137668000D01*
X108331000Y-131445000D02*
X108204000Y-131572000D01*
X101981000Y-138811000D02*
X102108000Y-138684000D01*
X99060000Y-132588000D02*
X99568000Y-132080000D01*
X99060000Y-139700000D02*
X97536000Y-141224000D01*
X97028000Y-140208000D02*
X96012000Y-141224000D01*
X100330000Y-134366000D02*
X100076000Y-134620000D01*
X105791000Y-131445000D02*
X105664000Y-131572000D01*
X106680000Y-134620000D02*
X107188000Y-134112000D01*
X102616000Y-134112000D02*
X101092000Y-135636000D01*
X109220000Y-133096000D02*
X109728000Y-132588000D01*
X101854000Y-134366000D02*
X101600000Y-134620000D01*
X106172000Y-132080000D02*
X106680000Y-131572000D01*
X98933000Y-137287000D02*
X99314000Y-136906000D01*
X98933000Y-135255000D02*
X99060000Y-135128000D01*
X101981000Y-138303000D02*
X102108000Y-138176000D01*
X102108000Y-134112000D02*
X102616000Y-133604000D01*
X102108000Y-135636000D02*
X103632000Y-134112000D01*
X101600000Y-134620000D02*
X100584000Y-135636000D01*
X107823000Y-131445000D02*
X107696000Y-131572000D01*
X101981000Y-129667000D02*
X101600000Y-130048000D01*
X99060000Y-127508000D02*
X99441000Y-127127000D01*
X103251000Y-130937000D02*
X103124000Y-131064000D01*
X99822000Y-129794000D02*
X99568000Y-130048000D01*
X100838000Y-139446000D02*
X100584000Y-139700000D01*
X95504000Y-141224000D02*
X103632000Y-141224000D01*
X102108000Y-132588000D02*
X103124000Y-131572000D01*
X99314000Y-134366000D02*
X98933000Y-134747000D01*
X98933000Y-130175000D02*
X99060000Y-130048000D01*
X107696000Y-132080000D02*
X108204000Y-131572000D01*
X100711000Y-131953000D02*
X100584000Y-132080000D01*
X106807000Y-131445000D02*
X106680000Y-131572000D01*
X99060000Y-133096000D02*
X99568000Y-132588000D01*
X103124000Y-131572000D02*
X103505000Y-131191000D01*
X102108000Y-141224000D02*
X103632000Y-139700000D01*
X99441000Y-137795000D02*
X99568000Y-137668000D01*
X109220000Y-134620000D02*
X109728000Y-134112000D01*
X100584000Y-133096000D02*
X101600000Y-132080000D01*
X106680000Y-134112000D02*
X106172000Y-134620000D01*
X102997000Y-130683000D02*
X102616000Y-131064000D01*
X102108000Y-131064000D02*
X102616000Y-130556000D01*
X100584000Y-134620000D02*
X99568000Y-135636000D01*
X108204000Y-134112000D02*
X107696000Y-134620000D01*
X102616000Y-134112000D02*
X102870000Y-133858000D01*
X101600000Y-137668000D02*
X103632000Y-135636000D01*
X105283000Y-131445000D02*
X105156000Y-131572000D01*
X102235000Y-129921000D02*
X101854000Y-130302000D01*
X99314000Y-139446000D02*
X99060000Y-139700000D01*
X100330000Y-130302000D02*
X100076000Y-130556000D01*
X99568000Y-137160000D02*
X99060000Y-137668000D01*
X109728000Y-134620000D02*
X109728000Y-131572000D01*
X99060000Y-128016000D02*
X99568000Y-127508000D01*
X107696000Y-134112000D02*
X107188000Y-134620000D01*
X102108000Y-131572000D02*
X101600000Y-132080000D01*
X96012000Y-140208000D02*
X95504000Y-140716000D01*
X108712000Y-131572000D02*
X108839000Y-131445000D01*
X100584000Y-137668000D02*
X101092000Y-137160000D01*
X95504000Y-141224000D02*
X95504000Y-140208000D01*
X101092000Y-130556000D02*
X101600000Y-130048000D01*
X106680000Y-132080000D02*
X107188000Y-131572000D01*
X102108000Y-138684000D02*
X103632000Y-137160000D01*
X103632000Y-139192000D02*
X101600000Y-141224000D01*
X100584000Y-139700000D02*
X99060000Y-141224000D01*
X106299000Y-131445000D02*
X106172000Y-131572000D01*
X99314000Y-129286000D02*
X98933000Y-129667000D01*
X99822000Y-134366000D02*
X99568000Y-134620000D01*
X109220000Y-132080000D02*
X109728000Y-131572000D01*
X101346000Y-134366000D02*
X101092000Y-134620000D01*
X102743000Y-130429000D02*
X102616000Y-130556000D01*
X99568000Y-134620000D02*
X99060000Y-135128000D01*
X102489000Y-130175000D02*
X102108000Y-130556000D01*
X104648000Y-132080000D02*
X105156000Y-131572000D01*
X99060000Y-130556000D02*
X99568000Y-130048000D01*
X100076000Y-139700000D02*
X98552000Y-141224000D01*
X100584000Y-137160000D02*
X100076000Y-137668000D01*
X102108000Y-137668000D02*
X103632000Y-136144000D01*
X103632000Y-140208000D02*
X102616000Y-141224000D01*
X101092000Y-139700000D02*
X99568000Y-141224000D01*
X99568000Y-130556000D02*
X100076000Y-130048000D01*
X101346000Y-136906000D02*
X101092000Y-137160000D01*
X96520000Y-140208000D02*
X95504000Y-141224000D01*
D11*
X126202142Y-143587000D02*
X125487857Y-143587000D01*
X126345000Y-144015571D02*
X125845000Y-142515571D01*
X125345000Y-144015571D01*
D12*
X111097380Y-137879857D02*
X110097380Y-137879857D01*
X111097380Y-138927476D02*
X110621190Y-138594142D01*
X111097380Y-138356047D02*
X110097380Y-138356047D01*
X110097380Y-138737000D01*
X110145000Y-138832238D01*
X110192619Y-138879857D01*
X110287857Y-138927476D01*
X110430714Y-138927476D01*
X110525952Y-138879857D01*
X110573571Y-138832238D01*
X110621190Y-138737000D01*
X110621190Y-138356047D01*
X111049761Y-139308428D02*
X111097380Y-139451285D01*
X111097380Y-139689380D01*
X111049761Y-139784619D01*
X111002142Y-139832238D01*
X110906904Y-139879857D01*
X110811666Y-139879857D01*
X110716428Y-139832238D01*
X110668809Y-139784619D01*
X110621190Y-139689380D01*
X110573571Y-139498904D01*
X110525952Y-139403666D01*
X110478333Y-139356047D01*
X110383095Y-139308428D01*
X110287857Y-139308428D01*
X110192619Y-139356047D01*
X110145000Y-139403666D01*
X110097380Y-139498904D01*
X110097380Y-139737000D01*
X110145000Y-139879857D01*
X110192619Y-140260809D02*
X110145000Y-140308428D01*
X110097380Y-140403666D01*
X110097380Y-140641761D01*
X110145000Y-140737000D01*
X110192619Y-140784619D01*
X110287857Y-140832238D01*
X110383095Y-140832238D01*
X110525952Y-140784619D01*
X111097380Y-140213190D01*
X111097380Y-140832238D01*
X110097380Y-141165571D02*
X110097380Y-141784619D01*
X110478333Y-141451285D01*
X110478333Y-141594142D01*
X110525952Y-141689380D01*
X110573571Y-141737000D01*
X110668809Y-141784619D01*
X110906904Y-141784619D01*
X111002142Y-141737000D01*
X111049761Y-141689380D01*
X111097380Y-141594142D01*
X111097380Y-141308428D01*
X111049761Y-141213190D01*
X111002142Y-141165571D01*
X110097380Y-142117952D02*
X110097380Y-142737000D01*
X110478333Y-142403666D01*
X110478333Y-142546523D01*
X110525952Y-142641761D01*
X110573571Y-142689380D01*
X110668809Y-142737000D01*
X110906904Y-142737000D01*
X111002142Y-142689380D01*
X111049761Y-142641761D01*
X111097380Y-142546523D01*
X111097380Y-142260809D01*
X111049761Y-142165571D01*
X111002142Y-142117952D01*
X110430714Y-143594142D02*
X111097380Y-143594142D01*
X110049761Y-143356047D02*
X110764047Y-143117952D01*
X110764047Y-143737000D01*
X111049761Y-144070333D02*
X111097380Y-144213190D01*
X111097380Y-144451285D01*
X111049761Y-144546523D01*
X111002142Y-144594142D01*
X110906904Y-144641761D01*
X110811666Y-144641761D01*
X110716428Y-144594142D01*
X110668809Y-144546523D01*
X110621190Y-144451285D01*
X110573571Y-144260809D01*
X110525952Y-144165571D01*
X110478333Y-144117952D01*
X110383095Y-144070333D01*
X110287857Y-144070333D01*
X110192619Y-144117952D01*
X110145000Y-144165571D01*
X110097380Y-144260809D01*
X110097380Y-144498904D01*
X110145000Y-144641761D01*
X100396000Y-149201142D02*
X100443619Y-149248761D01*
X100586476Y-149296380D01*
X100681714Y-149296380D01*
X100824571Y-149248761D01*
X100919809Y-149153523D01*
X100967428Y-149058285D01*
X101015047Y-148867809D01*
X101015047Y-148724952D01*
X100967428Y-148534476D01*
X100919809Y-148439238D01*
X100824571Y-148344000D01*
X100681714Y-148296380D01*
X100586476Y-148296380D01*
X100443619Y-148344000D01*
X100396000Y-148391619D01*
X100015047Y-149405904D02*
X100015047Y-148605904D01*
X99634095Y-149405904D02*
X99634095Y-148605904D01*
X99634095Y-148986857D02*
X99176952Y-148986857D01*
X99176952Y-149405904D02*
X99176952Y-148605904D01*
X100538857Y-153852571D02*
X100396000Y-153900190D01*
X100348380Y-153947809D01*
X100300761Y-154043047D01*
X100300761Y-154185904D01*
X100348380Y-154281142D01*
X100396000Y-154328761D01*
X100491238Y-154376380D01*
X100872190Y-154376380D01*
X100872190Y-153376380D01*
X100538857Y-153376380D01*
X100443619Y-153424000D01*
X100396000Y-153471619D01*
X100348380Y-153566857D01*
X100348380Y-153662095D01*
X100396000Y-153757333D01*
X100443619Y-153804952D01*
X100538857Y-153852571D01*
X100872190Y-153852571D01*
X99919809Y-154485904D02*
X99919809Y-153685904D01*
X99157904Y-154485904D02*
X99538857Y-154485904D01*
X99538857Y-153685904D01*
X120079500Y-132743380D02*
X120079500Y-131743380D01*
X119841404Y-131743380D01*
X119698547Y-131791000D01*
X119603309Y-131886238D01*
X119555690Y-131981476D01*
X119508071Y-132171952D01*
X119508071Y-132314809D01*
X119555690Y-132505285D01*
X119603309Y-132600523D01*
X119698547Y-132695761D01*
X119841404Y-132743380D01*
X120079500Y-132743380D01*
X119079500Y-132743380D02*
X119079500Y-131743380D01*
X118031880Y-132743380D02*
X118365214Y-132267190D01*
X118603309Y-132743380D02*
X118603309Y-131743380D01*
X118222357Y-131743380D01*
X118127119Y-131791000D01*
X118079500Y-131838619D01*
X118031880Y-131933857D01*
X118031880Y-132076714D01*
X118079500Y-132171952D01*
X118127119Y-132219571D01*
X118222357Y-132267190D01*
X118603309Y-132267190D01*
X117603309Y-132219571D02*
X117269976Y-132219571D01*
X117127119Y-132743380D02*
X117603309Y-132743380D01*
X117603309Y-131743380D01*
X117127119Y-131743380D01*
X116127119Y-132648142D02*
X116174738Y-132695761D01*
X116317595Y-132743380D01*
X116412833Y-132743380D01*
X116555690Y-132695761D01*
X116650928Y-132600523D01*
X116698547Y-132505285D01*
X116746166Y-132314809D01*
X116746166Y-132171952D01*
X116698547Y-131981476D01*
X116650928Y-131886238D01*
X116555690Y-131791000D01*
X116412833Y-131743380D01*
X116317595Y-131743380D01*
X116174738Y-131791000D01*
X116127119Y-131838619D01*
X115841404Y-131743380D02*
X115269976Y-131743380D01*
X115555690Y-132743380D02*
X115555690Y-131743380D01*
X114889023Y-132695761D02*
X114889023Y-132743380D01*
X114936642Y-132838619D01*
X114984261Y-132886238D01*
X113698547Y-132743380D02*
X113698547Y-131743380D01*
X113127119Y-132743380D01*
X113127119Y-131743380D01*
X112650928Y-132219571D02*
X112317595Y-132219571D01*
X112174738Y-132743380D02*
X112650928Y-132743380D01*
X112650928Y-131743380D01*
X112174738Y-131743380D01*
X111746166Y-132219571D02*
X111412833Y-132219571D01*
X111269976Y-132743380D02*
X111746166Y-132743380D01*
X111746166Y-131743380D01*
X111269976Y-131743380D01*
X110841404Y-132743380D02*
X110841404Y-131743380D01*
X110603309Y-131743380D01*
X110460452Y-131791000D01*
X110365214Y-131886238D01*
X110317595Y-131981476D01*
X110269976Y-132171952D01*
X110269976Y-132314809D01*
X110317595Y-132505285D01*
X110365214Y-132600523D01*
X110460452Y-132695761D01*
X110603309Y-132743380D01*
X110841404Y-132743380D01*
X124508071Y-133829571D02*
X124174738Y-133829571D01*
X124031880Y-134353380D02*
X124508071Y-134353380D01*
X124508071Y-133353380D01*
X124031880Y-133353380D01*
X123698547Y-133353380D02*
X123031880Y-134353380D01*
X123031880Y-133353380D02*
X123698547Y-134353380D01*
X122793785Y-133353380D02*
X122222357Y-133353380D01*
X122508071Y-134353380D02*
X122508071Y-133353380D01*
X121889023Y-133829571D02*
X121555690Y-133829571D01*
X121412833Y-134353380D02*
X121889023Y-134353380D01*
X121889023Y-133353380D01*
X121412833Y-133353380D01*
X120412833Y-134353380D02*
X120746166Y-133877190D01*
X120984261Y-134353380D02*
X120984261Y-133353380D01*
X120603309Y-133353380D01*
X120508071Y-133401000D01*
X120460452Y-133448619D01*
X120412833Y-133543857D01*
X120412833Y-133686714D01*
X120460452Y-133781952D01*
X120508071Y-133829571D01*
X120603309Y-133877190D01*
X120984261Y-133877190D01*
X119984261Y-134353380D02*
X119984261Y-133353380D01*
X119412833Y-134353380D01*
X119412833Y-133353380D01*
X118984261Y-134067666D02*
X118508071Y-134067666D01*
X119079500Y-134353380D02*
X118746166Y-133353380D01*
X118412833Y-134353380D01*
X117603309Y-134353380D02*
X118079500Y-134353380D01*
X118079500Y-133353380D01*
X116508071Y-134353380D02*
X116508071Y-133353380D01*
X116269976Y-133353380D01*
X116127119Y-133401000D01*
X116031880Y-133496238D01*
X115984261Y-133591476D01*
X115936642Y-133781952D01*
X115936642Y-133924809D01*
X115984261Y-134115285D01*
X116031880Y-134210523D01*
X116127119Y-134305761D01*
X116269976Y-134353380D01*
X116508071Y-134353380D01*
X115508071Y-134353380D02*
X115508071Y-133353380D01*
X115174738Y-133353380D02*
X114841404Y-134353380D01*
X114508071Y-133353380D01*
X114174738Y-134353380D02*
X114174738Y-133353380D01*
X113698547Y-134353380D02*
X113698547Y-133353380D01*
X113460452Y-133353380D01*
X113317595Y-133401000D01*
X113222357Y-133496238D01*
X113174738Y-133591476D01*
X113127119Y-133781952D01*
X113127119Y-133924809D01*
X113174738Y-134115285D01*
X113222357Y-134210523D01*
X113317595Y-134305761D01*
X113460452Y-134353380D01*
X113698547Y-134353380D01*
X112698547Y-133829571D02*
X112365214Y-133829571D01*
X112222357Y-134353380D02*
X112698547Y-134353380D01*
X112698547Y-133353380D01*
X112222357Y-133353380D01*
X111222357Y-134353380D02*
X111555690Y-133877190D01*
X111793785Y-134353380D02*
X111793785Y-133353380D01*
X111412833Y-133353380D01*
X111317595Y-133401000D01*
X111269976Y-133448619D01*
X111222357Y-133543857D01*
X111222357Y-133686714D01*
X111269976Y-133781952D01*
X111317595Y-133829571D01*
X111412833Y-133877190D01*
X111793785Y-133877190D01*
X110841404Y-134305761D02*
X110698547Y-134353380D01*
X110460452Y-134353380D01*
X110365214Y-134305761D01*
X110317595Y-134258142D01*
X110269976Y-134162904D01*
X110269976Y-134067666D01*
X110317595Y-133972428D01*
X110365214Y-133924809D01*
X110460452Y-133877190D01*
X110650928Y-133829571D01*
X110746166Y-133781952D01*
X110793785Y-133734333D01*
X110841404Y-133639095D01*
X110841404Y-133543857D01*
X110793785Y-133448619D01*
X110746166Y-133401000D01*
X110650928Y-133353380D01*
X110412833Y-133353380D01*
X110269976Y-133401000D01*
D11*
X132237857Y-143229857D02*
X132023571Y-143301285D01*
X131952142Y-143372714D01*
X131880714Y-143515571D01*
X131880714Y-143729857D01*
X131952142Y-143872714D01*
X132023571Y-143944142D01*
X132166428Y-144015571D01*
X132737857Y-144015571D01*
X132737857Y-142515571D01*
X132237857Y-142515571D01*
X132095000Y-142587000D01*
X132023571Y-142658428D01*
X131952142Y-142801285D01*
X131952142Y-142944142D01*
X132023571Y-143087000D01*
X132095000Y-143158428D01*
X132237857Y-143229857D01*
X132737857Y-143229857D01*
D12*
X101548428Y-133532571D02*
X101405571Y-133580190D01*
X101357952Y-133627809D01*
X101310333Y-133723047D01*
X101310333Y-133865904D01*
X101357952Y-133961142D01*
X101405571Y-134008761D01*
X101500809Y-134056380D01*
X101881761Y-134056380D01*
X101881761Y-133056380D01*
X101548428Y-133056380D01*
X101453190Y-133104000D01*
X101405571Y-133151619D01*
X101357952Y-133246857D01*
X101357952Y-133342095D01*
X101405571Y-133437333D01*
X101453190Y-133484952D01*
X101548428Y-133532571D01*
X101881761Y-133532571D01*
X100777000Y-133365904D02*
X100624619Y-133365904D01*
X100548428Y-133404000D01*
X100472238Y-133480190D01*
X100434142Y-133632571D01*
X100434142Y-133899238D01*
X100472238Y-134051619D01*
X100548428Y-134127809D01*
X100624619Y-134165904D01*
X100777000Y-134165904D01*
X100853190Y-134127809D01*
X100929380Y-134051619D01*
X100967476Y-133899238D01*
X100967476Y-133632571D01*
X100929380Y-133480190D01*
X100853190Y-133404000D01*
X100777000Y-133365904D01*
X100091285Y-133365904D02*
X100091285Y-134013523D01*
X100053190Y-134089714D01*
X100015095Y-134127809D01*
X99938904Y-134165904D01*
X99786523Y-134165904D01*
X99710333Y-134127809D01*
X99672238Y-134089714D01*
X99634142Y-134013523D01*
X99634142Y-133365904D01*
X99367476Y-133365904D02*
X98910333Y-133365904D01*
X99138904Y-134165904D02*
X99138904Y-133365904D01*
X100408194Y-157984698D02*
X100441866Y-157883683D01*
X100542881Y-157782668D01*
X100677568Y-157715324D01*
X100812255Y-157715324D01*
X100913270Y-157748996D01*
X101081629Y-157850011D01*
X101182644Y-157951026D01*
X101283660Y-158119385D01*
X101317331Y-158220400D01*
X101317331Y-158355087D01*
X101249988Y-158489774D01*
X101182644Y-158557118D01*
X101047957Y-158624461D01*
X100980614Y-158624461D01*
X100744912Y-158388759D01*
X100879599Y-158254072D01*
X100744912Y-158994851D02*
X100037805Y-158287744D01*
X100340851Y-159398912D01*
X99633744Y-158691805D01*
X100004133Y-159735629D02*
X99297026Y-159028522D01*
X99128668Y-159196881D01*
X99061324Y-159331568D01*
X99061324Y-159466255D01*
X99094996Y-159567270D01*
X99196011Y-159735629D01*
X99297026Y-159836644D01*
X99465385Y-159937660D01*
X99566400Y-159971331D01*
X99701087Y-159971331D01*
X99835774Y-159903988D01*
X100004133Y-159735629D01*
X100795419Y-129630404D02*
X100660732Y-129563061D01*
X100593389Y-129563061D01*
X100492374Y-129596732D01*
X100391358Y-129697748D01*
X100357687Y-129798763D01*
X100357687Y-129866106D01*
X100391358Y-129967122D01*
X100660732Y-130236496D01*
X101367839Y-129529389D01*
X101132137Y-129293687D01*
X101031122Y-129260015D01*
X100963778Y-129260015D01*
X100862763Y-129293687D01*
X100795419Y-129361030D01*
X100761748Y-129462045D01*
X100761748Y-129529389D01*
X100795419Y-129630404D01*
X101031122Y-129866106D01*
X100189328Y-129361030D02*
X99852610Y-129024312D01*
X100054641Y-129630404D02*
X100526045Y-128687595D01*
X99583236Y-129159000D01*
X100155656Y-128317206D02*
X99751595Y-127913145D01*
X99246519Y-128822282D02*
X99953625Y-128115175D01*
D11*
X103421571Y-147626482D02*
X103421571Y-146912196D01*
X101921571Y-147099696D01*
X101921571Y-148599696D02*
X101921571Y-148885410D01*
X101993000Y-149019339D01*
X102135857Y-149144339D01*
X102421571Y-149180053D01*
X102921571Y-149117553D01*
X103207285Y-149010410D01*
X103350142Y-148849696D01*
X103421571Y-148697910D01*
X103421571Y-148412196D01*
X103350142Y-148278267D01*
X103207285Y-148153267D01*
X102921571Y-148117553D01*
X102421571Y-148180053D01*
X102135857Y-148287196D01*
X101993000Y-148447910D01*
X101921571Y-148599696D01*
X101993000Y-150662196D02*
X101921571Y-150528267D01*
X101921571Y-150313982D01*
X101993000Y-150090767D01*
X102135857Y-149930053D01*
X102278714Y-149840767D01*
X102564428Y-149733625D01*
X102778714Y-149706839D01*
X103064428Y-149742553D01*
X103207285Y-149796125D01*
X103350142Y-149921125D01*
X103421571Y-150126482D01*
X103421571Y-150269339D01*
X103350142Y-150492553D01*
X103278714Y-150572910D01*
X102778714Y-150635410D01*
X102778714Y-150349696D01*
X103421571Y-151197910D02*
X101921571Y-151385410D01*
X103278714Y-152787196D02*
X103350142Y-152706839D01*
X103421571Y-152483625D01*
X103421571Y-152340767D01*
X103350142Y-152135410D01*
X103207285Y-152010410D01*
X103064428Y-151956839D01*
X102778714Y-151921125D01*
X102564428Y-151947910D01*
X102278714Y-152055053D01*
X102135857Y-152144339D01*
X101993000Y-152305053D01*
X101921571Y-152528267D01*
X101921571Y-152671125D01*
X101993000Y-152876482D01*
X102064428Y-152938982D01*
D12*
X100634095Y-146232571D02*
X100491238Y-146280190D01*
X100443619Y-146327809D01*
X100396000Y-146423047D01*
X100396000Y-146565904D01*
X100443619Y-146661142D01*
X100491238Y-146708761D01*
X100586476Y-146756380D01*
X100967428Y-146756380D01*
X100967428Y-145756380D01*
X100634095Y-145756380D01*
X100538857Y-145804000D01*
X100491238Y-145851619D01*
X100443619Y-145946857D01*
X100443619Y-146042095D01*
X100491238Y-146137333D01*
X100538857Y-146184952D01*
X100634095Y-146232571D01*
X100967428Y-146232571D01*
X100015047Y-146865904D02*
X100015047Y-146065904D01*
X99634095Y-146865904D02*
X99634095Y-146065904D01*
X99634095Y-146446857D02*
X99176952Y-146446857D01*
X99176952Y-146865904D02*
X99176952Y-146065904D01*
X101857952Y-136310666D02*
X101381761Y-136310666D01*
X101953190Y-136596380D02*
X101619857Y-135596380D01*
X101286523Y-136596380D01*
X100848428Y-135905904D02*
X100696047Y-135905904D01*
X100619857Y-135944000D01*
X100543666Y-136020190D01*
X100505571Y-136172571D01*
X100505571Y-136439238D01*
X100543666Y-136591619D01*
X100619857Y-136667809D01*
X100696047Y-136705904D01*
X100848428Y-136705904D01*
X100924619Y-136667809D01*
X101000809Y-136591619D01*
X101038904Y-136439238D01*
X101038904Y-136172571D01*
X101000809Y-136020190D01*
X100924619Y-135944000D01*
X100848428Y-135905904D01*
X100162714Y-135905904D02*
X100162714Y-136553523D01*
X100124619Y-136629714D01*
X100086523Y-136667809D01*
X100010333Y-136705904D01*
X99857952Y-136705904D01*
X99781761Y-136667809D01*
X99743666Y-136629714D01*
X99705571Y-136553523D01*
X99705571Y-135905904D01*
X99438904Y-135905904D02*
X98981761Y-135905904D01*
X99210333Y-136705904D02*
X99210333Y-135905904D01*
X100427761Y-156821142D02*
X100475380Y-156868761D01*
X100618238Y-156916380D01*
X100713476Y-156916380D01*
X100856333Y-156868761D01*
X100951571Y-156773523D01*
X100999190Y-156678285D01*
X101046809Y-156487809D01*
X101046809Y-156344952D01*
X100999190Y-156154476D01*
X100951571Y-156059238D01*
X100856333Y-155964000D01*
X100713476Y-155916380D01*
X100618238Y-155916380D01*
X100475380Y-155964000D01*
X100427761Y-156011619D01*
X100046809Y-157025904D02*
X100046809Y-156225904D01*
X99284904Y-157025904D02*
X99665857Y-157025904D01*
X99665857Y-156225904D01*
X101111904Y-138184000D02*
X101207142Y-138136380D01*
X101350000Y-138136380D01*
X101492857Y-138184000D01*
X101588095Y-138279238D01*
X101635714Y-138374476D01*
X101683333Y-138564952D01*
X101683333Y-138707809D01*
X101635714Y-138898285D01*
X101588095Y-138993523D01*
X101492857Y-139088761D01*
X101350000Y-139136380D01*
X101254761Y-139136380D01*
X101111904Y-139088761D01*
X101064285Y-139041142D01*
X101064285Y-138707809D01*
X101254761Y-138707809D01*
X100635714Y-139136380D02*
X100635714Y-138136380D01*
X100064285Y-139136380D01*
X100064285Y-138136380D01*
X99588095Y-139136380D02*
X99588095Y-138136380D01*
X99350000Y-138136380D01*
X99207142Y-138184000D01*
X99111904Y-138279238D01*
X99064285Y-138374476D01*
X99016666Y-138564952D01*
X99016666Y-138707809D01*
X99064285Y-138898285D01*
X99111904Y-138993523D01*
X99207142Y-139088761D01*
X99350000Y-139136380D01*
X99588095Y-139136380D01*
D11*
X108922603Y-133682514D02*
X108860103Y-133753942D01*
X108940460Y-133825371D01*
X109002960Y-133753942D01*
X108922603Y-133682514D01*
X108940460Y-133825371D01*
X108869032Y-133253942D02*
X108833317Y-132396800D01*
X108752960Y-132325371D01*
X108690460Y-132396800D01*
X108869032Y-133253942D01*
X108752960Y-132325371D01*
X108226175Y-133825371D02*
X108038675Y-132325371D01*
X107467246Y-132325371D01*
X107333317Y-132396800D01*
X107270817Y-132468228D01*
X107217246Y-132611085D01*
X107244032Y-132825371D01*
X107333317Y-132968228D01*
X107413675Y-133039657D01*
X107565460Y-133111085D01*
X108136889Y-133111085D01*
X106681532Y-132325371D02*
X106511889Y-133825371D01*
X106092246Y-132753942D01*
X105940460Y-133825371D01*
X105395817Y-132325371D01*
X104154746Y-133825371D02*
X104565460Y-133111085D01*
X105011889Y-133825371D02*
X104824389Y-132325371D01*
X104252960Y-132325371D01*
X104119032Y-132396800D01*
X104056532Y-132468228D01*
X104002960Y-132611085D01*
X104029746Y-132825371D01*
X104119032Y-132968228D01*
X104199389Y-133039657D01*
X104351175Y-133111085D01*
X104922603Y-133111085D01*
X103494032Y-133682514D02*
X103431532Y-133753942D01*
X103511889Y-133825371D01*
X103574389Y-133753942D01*
X103494032Y-133682514D01*
X103511889Y-133825371D01*
X103440460Y-133253942D02*
X103404746Y-132396800D01*
X103324389Y-132325371D01*
X103261889Y-132396800D01*
X103440460Y-133253942D01*
X103324389Y-132325371D01*
D12*
X113720142Y-150820380D02*
X113720142Y-149820380D01*
X112672523Y-150820380D02*
X113005857Y-150344190D01*
X113243952Y-150820380D02*
X113243952Y-149820380D01*
X112863000Y-149820380D01*
X112767761Y-149868000D01*
X112720142Y-149915619D01*
X112672523Y-150010857D01*
X112672523Y-150153714D01*
X112720142Y-150248952D01*
X112767761Y-150296571D01*
X112863000Y-150344190D01*
X113243952Y-150344190D01*
X112291571Y-150772761D02*
X112148714Y-150820380D01*
X111910619Y-150820380D01*
X111815380Y-150772761D01*
X111767761Y-150725142D01*
X111720142Y-150629904D01*
X111720142Y-150534666D01*
X111767761Y-150439428D01*
X111815380Y-150391809D01*
X111910619Y-150344190D01*
X112101095Y-150296571D01*
X112196333Y-150248952D01*
X112243952Y-150201333D01*
X112291571Y-150106095D01*
X112291571Y-150010857D01*
X112243952Y-149915619D01*
X112196333Y-149868000D01*
X112101095Y-149820380D01*
X111863000Y-149820380D01*
X111720142Y-149868000D01*
X111339190Y-149915619D02*
X111291571Y-149868000D01*
X111196333Y-149820380D01*
X110958238Y-149820380D01*
X110863000Y-149868000D01*
X110815380Y-149915619D01*
X110767761Y-150010857D01*
X110767761Y-150106095D01*
X110815380Y-150248952D01*
X111386809Y-150820380D01*
X110767761Y-150820380D01*
X110434428Y-149820380D02*
X109815380Y-149820380D01*
X110148714Y-150201333D01*
X110005857Y-150201333D01*
X109910619Y-150248952D01*
X109863000Y-150296571D01*
X109815380Y-150391809D01*
X109815380Y-150629904D01*
X109863000Y-150725142D01*
X109910619Y-150772761D01*
X110005857Y-150820380D01*
X110291571Y-150820380D01*
X110386809Y-150772761D01*
X110434428Y-150725142D01*
X109482047Y-149820380D02*
X108863000Y-149820380D01*
X109196333Y-150201333D01*
X109053476Y-150201333D01*
X108958238Y-150248952D01*
X108910619Y-150296571D01*
X108863000Y-150391809D01*
X108863000Y-150629904D01*
X108910619Y-150725142D01*
X108958238Y-150772761D01*
X109053476Y-150820380D01*
X109339190Y-150820380D01*
X109434428Y-150772761D01*
X109482047Y-150725142D01*
X108005857Y-150153714D02*
X108005857Y-150820380D01*
X108243952Y-149772761D02*
X108482047Y-150487047D01*
X107863000Y-150487047D01*
X107529666Y-150772761D02*
X107386809Y-150820380D01*
X107148714Y-150820380D01*
X107053476Y-150772761D01*
X107005857Y-150725142D01*
X106958238Y-150629904D01*
X106958238Y-150534666D01*
X107005857Y-150439428D01*
X107053476Y-150391809D01*
X107148714Y-150344190D01*
X107339190Y-150296571D01*
X107434428Y-150248952D01*
X107482047Y-150201333D01*
X107529666Y-150106095D01*
X107529666Y-150010857D01*
X107482047Y-149915619D01*
X107434428Y-149868000D01*
X107339190Y-149820380D01*
X107101095Y-149820380D01*
X106958238Y-149868000D01*
D11*
X123376142Y-137393071D02*
X124233285Y-137393071D01*
X123804714Y-137393071D02*
X123804714Y-135893071D01*
X123947571Y-136107357D01*
X124090428Y-136250214D01*
X124233285Y-136321642D01*
X122447571Y-135893071D02*
X122304714Y-135893071D01*
X122161857Y-135964500D01*
X122090428Y-136035928D01*
X122019000Y-136178785D01*
X121947571Y-136464500D01*
X121947571Y-136821642D01*
X122019000Y-137107357D01*
X122090428Y-137250214D01*
X122161857Y-137321642D01*
X122304714Y-137393071D01*
X122447571Y-137393071D01*
X122590428Y-137321642D01*
X122661857Y-137250214D01*
X122733285Y-137107357D01*
X122804714Y-136821642D01*
X122804714Y-136464500D01*
X122733285Y-136178785D01*
X122661857Y-136035928D01*
X122590428Y-135964500D01*
X122447571Y-135893071D01*
X121019000Y-135893071D02*
X120876142Y-135893071D01*
X120733285Y-135964500D01*
X120661857Y-136035928D01*
X120590428Y-136178785D01*
X120519000Y-136464500D01*
X120519000Y-136821642D01*
X120590428Y-137107357D01*
X120661857Y-137250214D01*
X120733285Y-137321642D01*
X120876142Y-137393071D01*
X121019000Y-137393071D01*
X121161857Y-137321642D01*
X121233285Y-137250214D01*
X121304714Y-137107357D01*
X121376142Y-136821642D01*
X121376142Y-136464500D01*
X121304714Y-136178785D01*
X121233285Y-136035928D01*
X121161857Y-135964500D01*
X121019000Y-135893071D01*
X119947571Y-136964500D02*
X119233285Y-136964500D01*
X120090428Y-137393071D02*
X119590428Y-135893071D01*
X119090428Y-137393071D01*
X124233285Y-138450928D02*
X124161857Y-138379500D01*
X124019000Y-138308071D01*
X123661857Y-138308071D01*
X123519000Y-138379500D01*
X123447571Y-138450928D01*
X123376142Y-138593785D01*
X123376142Y-138736642D01*
X123447571Y-138950928D01*
X124304714Y-139808071D01*
X123376142Y-139808071D01*
X122447571Y-138308071D02*
X122304714Y-138308071D01*
X122161857Y-138379500D01*
X122090428Y-138450928D01*
X122019000Y-138593785D01*
X121947571Y-138879500D01*
X121947571Y-139236642D01*
X122019000Y-139522357D01*
X122090428Y-139665214D01*
X122161857Y-139736642D01*
X122304714Y-139808071D01*
X122447571Y-139808071D01*
X122590428Y-139736642D01*
X122661857Y-139665214D01*
X122733285Y-139522357D01*
X122804714Y-139236642D01*
X122804714Y-138879500D01*
X122733285Y-138593785D01*
X122661857Y-138450928D01*
X122590428Y-138379500D01*
X122447571Y-138308071D01*
X121519000Y-138308071D02*
X121019000Y-139808071D01*
X120519000Y-138308071D01*
D12*
X100943619Y-143930666D02*
X100467428Y-143930666D01*
X101038857Y-144216380D02*
X100705523Y-143216380D01*
X100372190Y-144216380D01*
X100086476Y-144325904D02*
X100086476Y-143525904D01*
X99705523Y-144325904D02*
X99705523Y-143525904D01*
X99705523Y-143906857D02*
X99248380Y-143906857D01*
X99248380Y-144325904D02*
X99248380Y-143525904D01*
X100848380Y-151550666D02*
X100372190Y-151550666D01*
X100943619Y-151836380D02*
X100610285Y-150836380D01*
X100276952Y-151836380D01*
X99991238Y-151945904D02*
X99991238Y-151145904D01*
X99229333Y-151945904D02*
X99610285Y-151945904D01*
X99610285Y-151145904D01*
X101310333Y-131421142D02*
X101357952Y-131468761D01*
X101500809Y-131516380D01*
X101596047Y-131516380D01*
X101738904Y-131468761D01*
X101834142Y-131373523D01*
X101881761Y-131278285D01*
X101929380Y-131087809D01*
X101929380Y-130944952D01*
X101881761Y-130754476D01*
X101834142Y-130659238D01*
X101738904Y-130564000D01*
X101596047Y-130516380D01*
X101500809Y-130516380D01*
X101357952Y-130564000D01*
X101310333Y-130611619D01*
X100777000Y-130825904D02*
X100624619Y-130825904D01*
X100548428Y-130864000D01*
X100472238Y-130940190D01*
X100434142Y-131092571D01*
X100434142Y-131359238D01*
X100472238Y-131511619D01*
X100548428Y-131587809D01*
X100624619Y-131625904D01*
X100777000Y-131625904D01*
X100853190Y-131587809D01*
X100929380Y-131511619D01*
X100967476Y-131359238D01*
X100967476Y-131092571D01*
X100929380Y-130940190D01*
X100853190Y-130864000D01*
X100777000Y-130825904D01*
X100091285Y-130825904D02*
X100091285Y-131473523D01*
X100053190Y-131549714D01*
X100015095Y-131587809D01*
X99938904Y-131625904D01*
X99786523Y-131625904D01*
X99710333Y-131587809D01*
X99672238Y-131549714D01*
X99634142Y-131473523D01*
X99634142Y-130825904D01*
X99367476Y-130825904D02*
X98910333Y-130825904D01*
X99138904Y-131625904D02*
X99138904Y-130825904D01*
D11*
X138380714Y-143772714D02*
X138452142Y-143844142D01*
X138666428Y-143915571D01*
X138809285Y-143915571D01*
X139023571Y-143844142D01*
X139166428Y-143701285D01*
X139237857Y-143558428D01*
X139309285Y-143272714D01*
X139309285Y-143058428D01*
X139237857Y-142772714D01*
X139166428Y-142629857D01*
X139023571Y-142487000D01*
X138809285Y-142415571D01*
X138666428Y-142415571D01*
X138452142Y-142487000D01*
X138380714Y-142558428D01*
D12*
X126692619Y-149141761D02*
X126645000Y-149046523D01*
X126549761Y-148951285D01*
X126406904Y-148808428D01*
X126359285Y-148713190D01*
X126359285Y-148617952D01*
X126597380Y-148665571D02*
X126549761Y-148570333D01*
X126454523Y-148475095D01*
X126264047Y-148427476D01*
X125930714Y-148427476D01*
X125740238Y-148475095D01*
X125645000Y-148570333D01*
X125597380Y-148665571D01*
X125597380Y-148856047D01*
X125645000Y-148951285D01*
X125740238Y-149046523D01*
X125930714Y-149094142D01*
X126264047Y-149094142D01*
X126454523Y-149046523D01*
X126549761Y-148951285D01*
X126597380Y-148856047D01*
X126597380Y-148665571D01*
X126597380Y-150046523D02*
X126597380Y-149475095D01*
X126597380Y-149760809D02*
X125597380Y-149760809D01*
X125740238Y-149665571D01*
X125835476Y-149570333D01*
X125883095Y-149475095D01*
X133192619Y-149141761D02*
X133145000Y-149046523D01*
X133049761Y-148951285D01*
X132906904Y-148808428D01*
X132859285Y-148713190D01*
X132859285Y-148617952D01*
X133097380Y-148665571D02*
X133049761Y-148570333D01*
X132954523Y-148475095D01*
X132764047Y-148427476D01*
X132430714Y-148427476D01*
X132240238Y-148475095D01*
X132145000Y-148570333D01*
X132097380Y-148665571D01*
X132097380Y-148856047D01*
X132145000Y-148951285D01*
X132240238Y-149046523D01*
X132430714Y-149094142D01*
X132764047Y-149094142D01*
X132954523Y-149046523D01*
X133049761Y-148951285D01*
X133097380Y-148856047D01*
X133097380Y-148665571D01*
X132192619Y-149475095D02*
X132145000Y-149522714D01*
X132097380Y-149617952D01*
X132097380Y-149856047D01*
X132145000Y-149951285D01*
X132192619Y-149998904D01*
X132287857Y-150046523D01*
X132383095Y-150046523D01*
X132525952Y-149998904D01*
X133097380Y-149427476D01*
X133097380Y-150046523D01*
X139692619Y-149141761D02*
X139645000Y-149046523D01*
X139549761Y-148951285D01*
X139406904Y-148808428D01*
X139359285Y-148713190D01*
X139359285Y-148617952D01*
X139597380Y-148665571D02*
X139549761Y-148570333D01*
X139454523Y-148475095D01*
X139264047Y-148427476D01*
X138930714Y-148427476D01*
X138740238Y-148475095D01*
X138645000Y-148570333D01*
X138597380Y-148665571D01*
X138597380Y-148856047D01*
X138645000Y-148951285D01*
X138740238Y-149046523D01*
X138930714Y-149094142D01*
X139264047Y-149094142D01*
X139454523Y-149046523D01*
X139549761Y-148951285D01*
X139597380Y-148856047D01*
X139597380Y-148665571D01*
X138597380Y-149427476D02*
X138597380Y-150046523D01*
X138978333Y-149713190D01*
X138978333Y-149856047D01*
X139025952Y-149951285D01*
X139073571Y-149998904D01*
X139168809Y-150046523D01*
X139406904Y-150046523D01*
X139502142Y-149998904D01*
X139549761Y-149951285D01*
X139597380Y-149856047D01*
X139597380Y-149570333D01*
X139549761Y-149475095D01*
X139502142Y-149427476D01*
X126692619Y-138641761D02*
X126645000Y-138546523D01*
X126549761Y-138451285D01*
X126406904Y-138308428D01*
X126359285Y-138213190D01*
X126359285Y-138117952D01*
X126597380Y-138165571D02*
X126549761Y-138070333D01*
X126454523Y-137975095D01*
X126264047Y-137927476D01*
X125930714Y-137927476D01*
X125740238Y-137975095D01*
X125645000Y-138070333D01*
X125597380Y-138165571D01*
X125597380Y-138356047D01*
X125645000Y-138451285D01*
X125740238Y-138546523D01*
X125930714Y-138594142D01*
X126264047Y-138594142D01*
X126454523Y-138546523D01*
X126549761Y-138451285D01*
X126597380Y-138356047D01*
X126597380Y-138165571D01*
X125930714Y-139451285D02*
X126597380Y-139451285D01*
X125549761Y-139213190D02*
X126264047Y-138975095D01*
X126264047Y-139594142D01*
X133192619Y-138641761D02*
X133145000Y-138546523D01*
X133049761Y-138451285D01*
X132906904Y-138308428D01*
X132859285Y-138213190D01*
X132859285Y-138117952D01*
X133097380Y-138165571D02*
X133049761Y-138070333D01*
X132954523Y-137975095D01*
X132764047Y-137927476D01*
X132430714Y-137927476D01*
X132240238Y-137975095D01*
X132145000Y-138070333D01*
X132097380Y-138165571D01*
X132097380Y-138356047D01*
X132145000Y-138451285D01*
X132240238Y-138546523D01*
X132430714Y-138594142D01*
X132764047Y-138594142D01*
X132954523Y-138546523D01*
X133049761Y-138451285D01*
X133097380Y-138356047D01*
X133097380Y-138165571D01*
X132097380Y-139498904D02*
X132097380Y-139022714D01*
X132573571Y-138975095D01*
X132525952Y-139022714D01*
X132478333Y-139117952D01*
X132478333Y-139356047D01*
X132525952Y-139451285D01*
X132573571Y-139498904D01*
X132668809Y-139546523D01*
X132906904Y-139546523D01*
X133002142Y-139498904D01*
X133049761Y-139451285D01*
X133097380Y-139356047D01*
X133097380Y-139117952D01*
X133049761Y-139022714D01*
X133002142Y-138975095D01*
X139692619Y-138641761D02*
X139645000Y-138546523D01*
X139549761Y-138451285D01*
X139406904Y-138308428D01*
X139359285Y-138213190D01*
X139359285Y-138117952D01*
X139597380Y-138165571D02*
X139549761Y-138070333D01*
X139454523Y-137975095D01*
X139264047Y-137927476D01*
X138930714Y-137927476D01*
X138740238Y-137975095D01*
X138645000Y-138070333D01*
X138597380Y-138165571D01*
X138597380Y-138356047D01*
X138645000Y-138451285D01*
X138740238Y-138546523D01*
X138930714Y-138594142D01*
X139264047Y-138594142D01*
X139454523Y-138546523D01*
X139549761Y-138451285D01*
X139597380Y-138356047D01*
X139597380Y-138165571D01*
X138597380Y-139451285D02*
X138597380Y-139260809D01*
X138645000Y-139165571D01*
X138692619Y-139117952D01*
X138835476Y-139022714D01*
X139025952Y-138975095D01*
X139406904Y-138975095D01*
X139502142Y-139022714D01*
X139549761Y-139070333D01*
X139597380Y-139165571D01*
X139597380Y-139356047D01*
X139549761Y-139451285D01*
X139502142Y-139498904D01*
X139406904Y-139546523D01*
X139168809Y-139546523D01*
X139073571Y-139498904D01*
X139025952Y-139451285D01*
X138978333Y-139356047D01*
X138978333Y-139165571D01*
X139025952Y-139070333D01*
X139073571Y-139022714D01*
X139168809Y-138975095D01*
X113029904Y-148296380D02*
X113029904Y-149105904D01*
X112982285Y-149201142D01*
X112934666Y-149248761D01*
X112839428Y-149296380D01*
X112648952Y-149296380D01*
X112553714Y-149248761D01*
X112506095Y-149201142D01*
X112458476Y-149105904D01*
X112458476Y-148296380D01*
X112029904Y-148391619D02*
X111982285Y-148344000D01*
X111887047Y-148296380D01*
X111648952Y-148296380D01*
X111553714Y-148344000D01*
X111506095Y-148391619D01*
X111458476Y-148486857D01*
X111458476Y-148582095D01*
X111506095Y-148724952D01*
X112077523Y-149296380D01*
X111458476Y-149296380D01*
D13*
X129945000Y-150537000D02*
X129945000Y-147387000D01*
X126845000Y-150537000D02*
X126845000Y-147437000D01*
X127295000Y-146987000D02*
X127295000Y-146987000D01*
X127195000Y-146987000D02*
X127195000Y-146987000D01*
X127295000Y-146987000D02*
G75*
G03*
X127195000Y-146987000I-50000J0D01*
G01*
X127195000Y-146987000D02*
G75*
G03*
X127295000Y-146987000I50000J0D01*
G01*
X136445000Y-150537000D02*
X136445000Y-147387000D01*
X133345000Y-150537000D02*
X133345000Y-147437000D01*
X133695000Y-146987000D02*
X133695000Y-146987000D01*
X133795000Y-146987000D02*
X133795000Y-146987000D01*
X133795000Y-146987000D02*
G75*
G03*
X133695000Y-146987000I-50000J0D01*
G01*
X133695000Y-146987000D02*
G75*
G03*
X133795000Y-146987000I50000J0D01*
G01*
X140195000Y-146987000D02*
X140195000Y-146987000D01*
X139845000Y-150537000D02*
X139845000Y-147437000D01*
X140295000Y-146987000D02*
X140295000Y-146987000D01*
X142945000Y-150537000D02*
X142945000Y-147387000D01*
X140195000Y-146987000D02*
G75*
G03*
X140295000Y-146987000I50000J0D01*
G01*
X140295000Y-146987000D02*
G75*
G03*
X140195000Y-146987000I-50000J0D01*
G01*
X126845000Y-140212000D02*
X126845000Y-137112000D01*
X127195000Y-136662000D02*
X127195000Y-136662000D01*
X127295000Y-136662000D02*
X127295000Y-136662000D01*
X129945000Y-140212000D02*
X129945000Y-137062000D01*
X127295000Y-136662000D02*
G75*
G03*
X127195000Y-136662000I-50000J0D01*
G01*
X127195000Y-136662000D02*
G75*
G03*
X127295000Y-136662000I50000J0D01*
G01*
X133795000Y-136647000D02*
X133795000Y-136647000D01*
X136445000Y-140197000D02*
X136445000Y-137047000D01*
X133345000Y-140197000D02*
X133345000Y-137097000D01*
X133695000Y-136647000D02*
X133695000Y-136647000D01*
X133795000Y-136647000D02*
G75*
G03*
X133695000Y-136647000I-50000J0D01*
G01*
X133695000Y-136647000D02*
G75*
G03*
X133795000Y-136647000I50000J0D01*
G01*
X139845000Y-140197000D02*
X139845000Y-137097000D01*
X140295000Y-136647000D02*
X140295000Y-136647000D01*
X140195000Y-136647000D02*
X140195000Y-136647000D01*
X142945000Y-140197000D02*
X142945000Y-137047000D01*
X140195000Y-136647000D02*
G75*
G03*
X140295000Y-136647000I50000J0D01*
G01*
X140295000Y-136647000D02*
G75*
G03*
X140195000Y-136647000I-50000J0D01*
G01*
D10*
X114243000Y-135076000D02*
X116058000Y-135076000D01*
X114243000Y-134841000D02*
X114243000Y-135076000D01*
X110383000Y-147861000D02*
X114243000Y-147861000D01*
X110383000Y-147861000D02*
X106523000Y-147861000D01*
X106523000Y-147861000D02*
X106523000Y-147626000D01*
X110383000Y-134841000D02*
X114243000Y-134841000D01*
X106523000Y-134841000D02*
X106523000Y-135076000D01*
X114243000Y-147861000D02*
X114243000Y-147626000D01*
X110383000Y-134841000D02*
X106523000Y-134841000D01*
%LPC*%
D14*
X97175000Y-158999000D03*
D15*
X97175000Y-156459000D03*
X97175000Y-153919000D03*
X97175000Y-151379000D03*
X97175000Y-148839000D03*
X97175000Y-146299000D03*
X97175000Y-143759000D03*
D14*
X97175000Y-138679000D03*
D15*
X97175000Y-136139000D03*
X97175000Y-133599000D03*
X97175000Y-131059000D03*
X97175000Y-128519000D03*
D16*
X128720000Y-147412000D03*
X127420000Y-147412000D03*
X128070000Y-147412000D03*
X129370000Y-147412000D03*
D17*
X128395000Y-149312000D03*
D16*
X129370000Y-150562000D03*
X128720000Y-150562000D03*
X128070000Y-150562000D03*
X127420000Y-150562000D03*
X135220000Y-147412000D03*
X134570000Y-147412000D03*
X133920000Y-147412000D03*
X135870000Y-147412000D03*
D17*
X134895000Y-149312000D03*
D16*
X135220000Y-150562000D03*
X134570000Y-150562000D03*
X133920000Y-150562000D03*
X135870000Y-150562000D03*
X141720000Y-147412000D03*
X141070000Y-147412000D03*
X140420000Y-147412000D03*
X142370000Y-147412000D03*
X142370000Y-150562000D03*
X141070000Y-150562000D03*
D17*
X141395000Y-149312000D03*
D16*
X141720000Y-150562000D03*
X140420000Y-150562000D03*
X128720000Y-137087000D03*
X127420000Y-137087000D03*
X128070000Y-137087000D03*
X129370000Y-137087000D03*
D17*
X128395000Y-138987000D03*
D16*
X127420000Y-140237000D03*
X128720000Y-140237000D03*
X129370000Y-140237000D03*
X128070000Y-140237000D03*
X135220000Y-137072000D03*
X134570000Y-137072000D03*
X133920000Y-137072000D03*
X135870000Y-137072000D03*
X135870000Y-140222000D03*
X135220000Y-140222000D03*
X133920000Y-140222000D03*
X134570000Y-140222000D03*
D17*
X134895000Y-138972000D03*
D16*
X140420000Y-137072000D03*
X141720000Y-137072000D03*
X141070000Y-137072000D03*
X142370000Y-137072000D03*
D17*
X141395000Y-138972000D03*
D16*
X140420000Y-140222000D03*
X141720000Y-140222000D03*
X141070000Y-140222000D03*
X142370000Y-140222000D03*
D18*
X115033000Y-135636000D03*
X115033000Y-136906000D03*
X115033000Y-138176000D03*
X115033000Y-139446000D03*
X115033000Y-140716000D03*
X115033000Y-141986000D03*
X115033000Y-143256000D03*
X115033000Y-144526000D03*
X115033000Y-145796000D03*
X115033000Y-147066000D03*
X105733000Y-147066000D03*
X105733000Y-145796000D03*
X105733000Y-144526000D03*
X105733000Y-143256000D03*
X105733000Y-141986000D03*
X105733000Y-140716000D03*
X105733000Y-139446000D03*
X105733000Y-138176000D03*
X105733000Y-136906000D03*
X105733000Y-135636000D03*
G36*
X143880648Y-131501352D02*
G01*
X143895000Y-131536000D01*
X143895000Y-137188000D01*
X143880648Y-137222648D01*
X143846000Y-137237000D01*
X143365296Y-137237000D01*
X143330648Y-137222648D01*
X142751893Y-136643893D01*
X142735253Y-136637000D01*
X142054747Y-136637000D01*
X142047855Y-136639855D01*
X142045000Y-136646747D01*
X142045000Y-137188000D01*
X142030648Y-137222648D01*
X141996000Y-137237000D01*
X136965296Y-137237000D01*
X136930648Y-137222648D01*
X136351893Y-136643893D01*
X136335253Y-136637000D01*
X135554747Y-136637000D01*
X135547855Y-136639855D01*
X135545000Y-136646747D01*
X135545000Y-137188000D01*
X135530648Y-137222648D01*
X135496000Y-137237000D01*
X130465296Y-137237000D01*
X130430648Y-137222648D01*
X129951893Y-136743893D01*
X129935253Y-136737000D01*
X129054747Y-136737000D01*
X129047855Y-136739855D01*
X129045000Y-136746747D01*
X129045000Y-137188000D01*
X129030648Y-137222648D01*
X128996000Y-137237000D01*
X126944000Y-137237000D01*
X126909352Y-137222648D01*
X126895000Y-137188000D01*
X126895000Y-131536000D01*
X126909352Y-131501352D01*
X126944000Y-131487000D01*
X143846000Y-131487000D01*
X143880648Y-131501352D01*
G37*
G36*
X143880648Y-150251352D02*
G01*
X143895000Y-150286000D01*
X143895000Y-155938000D01*
X143880648Y-155972648D01*
X143846000Y-155987000D01*
X126944000Y-155987000D01*
X126909352Y-155972648D01*
X126895000Y-155938000D01*
X126895000Y-150286000D01*
X126909352Y-150251352D01*
X126944000Y-150237000D01*
X143846000Y-150237000D01*
X143880648Y-150251352D01*
G37*
G36*
X142880648Y-140001352D02*
G01*
X142895000Y-140036000D01*
X142895000Y-146938000D01*
X142880648Y-146972648D01*
X142846000Y-146987000D01*
X141904747Y-146987000D01*
X141897855Y-146989855D01*
X141895000Y-146996747D01*
X141895000Y-147688000D01*
X141880648Y-147722648D01*
X141846000Y-147737000D01*
X139944000Y-147737000D01*
X139909352Y-147722648D01*
X139895000Y-147688000D01*
X139895000Y-140036000D01*
X139909352Y-140001352D01*
X139944000Y-139987000D01*
X142846000Y-139987000D01*
X142880648Y-140001352D01*
G37*
G36*
X136380648Y-140001352D02*
G01*
X136395000Y-140036000D01*
X136395000Y-146938000D01*
X136380648Y-146972648D01*
X136346000Y-146987000D01*
X135404747Y-146987000D01*
X135397855Y-146989855D01*
X135395000Y-146996747D01*
X135395000Y-147688000D01*
X135380648Y-147722648D01*
X135346000Y-147737000D01*
X133444000Y-147737000D01*
X133409352Y-147722648D01*
X133395000Y-147688000D01*
X133395000Y-140036000D01*
X133409352Y-140001352D01*
X133444000Y-139987000D01*
X136346000Y-139987000D01*
X136380648Y-140001352D01*
G37*
G36*
X129880648Y-140001352D02*
G01*
X129895000Y-140036000D01*
X129895000Y-146938000D01*
X129880648Y-146972648D01*
X129846000Y-146987000D01*
X128904747Y-146987000D01*
X128897855Y-146989855D01*
X128895000Y-146996747D01*
X128895000Y-147688000D01*
X128880648Y-147722648D01*
X128846000Y-147737000D01*
X126944000Y-147737000D01*
X126909352Y-147722648D01*
X126895000Y-147688000D01*
X126895000Y-140036000D01*
X126909352Y-140001352D01*
X126944000Y-139987000D01*
X129846000Y-139987000D01*
X129880648Y-140001352D01*
G37*
M02*
