G04 #@! TF.GenerationSoftware,KiCad,Pcbnew,6.0.1-79c1e3a40b~116~ubuntu21.04.1*
G04 #@! TF.CreationDate,2022-02-15T19:11:40-05:00*
G04 #@! TF.ProjectId,ESC_driver,4553435f-6472-4697-9665-722e6b696361,rev?*
G04 #@! TF.SameCoordinates,Original*
G04 #@! TF.FileFunction,Paste,Top*
G04 #@! TF.FilePolarity,Positive*
%FSLAX46Y46*%
G04 Gerber Fmt 4.6, Leading zero omitted, Abs format (unit mm)*
G04 Created by KiCad (PCBNEW 6.0.1-79c1e3a40b~116~ubuntu21.04.1) date 2022-02-15 19:11:40*
%MOMM*%
%LPD*%
G01*
G04 APERTURE LIST*
G04 Aperture macros list*
%AMRoundRect*
0 Rectangle with rounded corners*
0 $1 Rounding radius*
0 $2 $3 $4 $5 $6 $7 $8 $9 X,Y pos of 4 corners*
0 Add a 4 corners polygon primitive as box body*
4,1,4,$2,$3,$4,$5,$6,$7,$8,$9,$2,$3,0*
0 Add four circle primitives for the rounded corners*
1,1,$1+$1,$2,$3*
1,1,$1+$1,$4,$5*
1,1,$1+$1,$6,$7*
1,1,$1+$1,$8,$9*
0 Add four rect primitives between the rounded corners*
20,1,$1+$1,$2,$3,$4,$5,0*
20,1,$1+$1,$4,$5,$6,$7,0*
20,1,$1+$1,$6,$7,$8,$9,0*
20,1,$1+$1,$8,$9,$2,$3,0*%
G04 Aperture macros list end*
%ADD10RoundRect,0.218750X-0.256250X0.218750X-0.256250X-0.218750X0.256250X-0.218750X0.256250X0.218750X0*%
%ADD11RoundRect,0.218750X0.256250X-0.218750X0.256250X0.218750X-0.256250X0.218750X-0.256250X-0.218750X0*%
%ADD12R,1.100000X1.100000*%
%ADD13R,0.800000X0.500000*%
%ADD14R,0.800000X0.400000*%
%ADD15RoundRect,0.150000X-0.875000X-0.150000X0.875000X-0.150000X0.875000X0.150000X-0.875000X0.150000X0*%
G04 APERTURE END LIST*
D10*
X122145000Y-139449500D03*
X122145000Y-141024500D03*
X122145000Y-144449500D03*
X122145000Y-146024500D03*
D11*
X108145000Y-149812000D03*
X108145000Y-148237000D03*
D12*
X114145000Y-152337000D03*
X114145000Y-155137000D03*
X116645000Y-152337000D03*
X116645000Y-155137000D03*
X111045000Y-153037000D03*
X108245000Y-153037000D03*
D13*
X128945000Y-151137000D03*
D14*
X128945000Y-151937000D03*
X128945000Y-152737000D03*
D13*
X128945000Y-153537000D03*
X130745000Y-153537000D03*
D14*
X130745000Y-152737000D03*
X130745000Y-151937000D03*
D13*
X130745000Y-151137000D03*
X138845000Y-153537000D03*
D14*
X138845000Y-152737000D03*
X138845000Y-151937000D03*
D13*
X138845000Y-151137000D03*
X137045000Y-151137000D03*
D14*
X137045000Y-151937000D03*
X137045000Y-152737000D03*
D13*
X137045000Y-153537000D03*
D15*
X110495000Y-139022000D03*
X110495000Y-140292000D03*
X110495000Y-141562000D03*
X110495000Y-142832000D03*
X110495000Y-144102000D03*
X110495000Y-145372000D03*
X110495000Y-146642000D03*
X110495000Y-147912000D03*
X110495000Y-149182000D03*
X110495000Y-150452000D03*
X119795000Y-150452000D03*
X119795000Y-149182000D03*
X119795000Y-147912000D03*
X119795000Y-146642000D03*
X119795000Y-145372000D03*
X119795000Y-144102000D03*
X119795000Y-142832000D03*
X119795000Y-141562000D03*
X119795000Y-140292000D03*
X119795000Y-139022000D03*
M02*
