G04 #@! TF.GenerationSoftware,KiCad,Pcbnew,6.0.1-79c1e3a40b~116~ubuntu21.04.1*
G04 #@! TF.CreationDate,2022-02-15T19:11:40-05:00*
G04 #@! TF.ProjectId,ESC_driver,4553435f-6472-4697-9665-722e6b696361,rev?*
G04 #@! TF.SameCoordinates,Original*
G04 #@! TF.FileFunction,Paste,Bot*
G04 #@! TF.FilePolarity,Positive*
%FSLAX46Y46*%
G04 Gerber Fmt 4.6, Leading zero omitted, Abs format (unit mm)*
G04 Created by KiCad (PCBNEW 6.0.1-79c1e3a40b~116~ubuntu21.04.1) date 2022-02-15 19:11:40*
%MOMM*%
%LPD*%
G01*
G04 APERTURE LIST*
G04 Aperture macros list*
%AMRoundRect*
0 Rectangle with rounded corners*
0 $1 Rounding radius*
0 $2 $3 $4 $5 $6 $7 $8 $9 X,Y pos of 4 corners*
0 Add a 4 corners polygon primitive as box body*
4,1,4,$2,$3,$4,$5,$6,$7,$8,$9,$2,$3,0*
0 Add four circle primitives for the rounded corners*
1,1,$1+$1,$2,$3*
1,1,$1+$1,$4,$5*
1,1,$1+$1,$6,$7*
1,1,$1+$1,$8,$9*
0 Add four rect primitives between the rounded corners*
20,1,$1+$1,$2,$3,$4,$5,0*
20,1,$1+$1,$4,$5,$6,$7,0*
20,1,$1+$1,$6,$7,$8,$9,0*
20,1,$1+$1,$8,$9,$2,$3,0*%
G04 Aperture macros list end*
%ADD10R,0.400000X0.400000*%
%ADD11R,2.650000X2.200000*%
%ADD12RoundRect,0.150000X0.875000X0.150000X-0.875000X0.150000X-0.875000X-0.150000X0.875000X-0.150000X0*%
G04 APERTURE END LIST*
D10*
X128720000Y-147412000D03*
X127420000Y-147412000D03*
X128070000Y-147412000D03*
X129370000Y-147412000D03*
D11*
X128395000Y-149312000D03*
D10*
X129370000Y-150562000D03*
X128720000Y-150562000D03*
X128070000Y-150562000D03*
X127420000Y-150562000D03*
X135220000Y-147412000D03*
X134570000Y-147412000D03*
X133920000Y-147412000D03*
X135870000Y-147412000D03*
D11*
X134895000Y-149312000D03*
D10*
X135220000Y-150562000D03*
X134570000Y-150562000D03*
X133920000Y-150562000D03*
X135870000Y-150562000D03*
X141720000Y-147412000D03*
X141070000Y-147412000D03*
X140420000Y-147412000D03*
X142370000Y-147412000D03*
X142370000Y-150562000D03*
X141070000Y-150562000D03*
D11*
X141395000Y-149312000D03*
D10*
X141720000Y-150562000D03*
X140420000Y-150562000D03*
X128720000Y-137087000D03*
X127420000Y-137087000D03*
X128070000Y-137087000D03*
X129370000Y-137087000D03*
D11*
X128395000Y-138987000D03*
D10*
X127420000Y-140237000D03*
X128720000Y-140237000D03*
X129370000Y-140237000D03*
X128070000Y-140237000D03*
X135220000Y-137072000D03*
X134570000Y-137072000D03*
X133920000Y-137072000D03*
X135870000Y-137072000D03*
X135870000Y-140222000D03*
X135220000Y-140222000D03*
X133920000Y-140222000D03*
X134570000Y-140222000D03*
D11*
X134895000Y-138972000D03*
D10*
X140420000Y-137072000D03*
X141720000Y-137072000D03*
X141070000Y-137072000D03*
X142370000Y-137072000D03*
D11*
X141395000Y-138972000D03*
D10*
X140420000Y-140222000D03*
X141720000Y-140222000D03*
X141070000Y-140222000D03*
X142370000Y-140222000D03*
D12*
X115033000Y-135636000D03*
X115033000Y-136906000D03*
X115033000Y-138176000D03*
X115033000Y-139446000D03*
X115033000Y-140716000D03*
X115033000Y-141986000D03*
X115033000Y-143256000D03*
X115033000Y-144526000D03*
X115033000Y-145796000D03*
X115033000Y-147066000D03*
X105733000Y-147066000D03*
X105733000Y-145796000D03*
X105733000Y-144526000D03*
X105733000Y-143256000D03*
X105733000Y-141986000D03*
X105733000Y-140716000D03*
X105733000Y-139446000D03*
X105733000Y-138176000D03*
X105733000Y-136906000D03*
X105733000Y-135636000D03*
M02*
