G04 #@! TF.GenerationSoftware,KiCad,Pcbnew,6.0.1-79c1e3a40b~116~ubuntu21.04.1*
G04 #@! TF.CreationDate,2022-02-15T17:28:43-05:00*
G04 #@! TF.ProjectId,ESC_V5,4553435f-5635-42e6-9b69-6361645f7063,rev?*
G04 #@! TF.SameCoordinates,Original*
G04 #@! TF.FileFunction,Paste,Bot*
G04 #@! TF.FilePolarity,Positive*
%FSLAX46Y46*%
G04 Gerber Fmt 4.6, Leading zero omitted, Abs format (unit mm)*
G04 Created by KiCad (PCBNEW 6.0.1-79c1e3a40b~116~ubuntu21.04.1) date 2022-02-15 17:28:43*
%MOMM*%
%LPD*%
G01*
G04 APERTURE LIST*
G04 Aperture macros list*
%AMRoundRect*
0 Rectangle with rounded corners*
0 $1 Rounding radius*
0 $2 $3 $4 $5 $6 $7 $8 $9 X,Y pos of 4 corners*
0 Add a 4 corners polygon primitive as box body*
4,1,4,$2,$3,$4,$5,$6,$7,$8,$9,$2,$3,0*
0 Add four circle primitives for the rounded corners*
1,1,$1+$1,$2,$3*
1,1,$1+$1,$4,$5*
1,1,$1+$1,$6,$7*
1,1,$1+$1,$8,$9*
0 Add four rect primitives between the rounded corners*
20,1,$1+$1,$2,$3,$4,$5,0*
20,1,$1+$1,$4,$5,$6,$7,0*
20,1,$1+$1,$6,$7,$8,$9,0*
20,1,$1+$1,$8,$9,$2,$3,0*%
G04 Aperture macros list end*
%ADD10RoundRect,0.147500X-0.172500X0.147500X-0.172500X-0.147500X0.172500X-0.147500X0.172500X0.147500X0*%
%ADD11RoundRect,0.147500X-0.147500X-0.172500X0.147500X-0.172500X0.147500X0.172500X-0.147500X0.172500X0*%
%ADD12RoundRect,0.147500X0.172500X-0.147500X0.172500X0.147500X-0.172500X0.147500X-0.172500X-0.147500X0*%
%ADD13R,1.100000X1.100000*%
%ADD14RoundRect,0.250000X-0.275000X-0.275000X0.275000X-0.275000X0.275000X0.275000X-0.275000X0.275000X0*%
%ADD15RoundRect,0.062500X-0.350000X-0.062500X0.350000X-0.062500X0.350000X0.062500X-0.350000X0.062500X0*%
%ADD16RoundRect,0.062500X-0.062500X-0.350000X0.062500X-0.350000X0.062500X0.350000X-0.062500X0.350000X0*%
%ADD17R,0.400000X0.400000*%
%ADD18R,2.650000X2.200000*%
%ADD19RoundRect,0.218750X0.218750X0.256250X-0.218750X0.256250X-0.218750X-0.256250X0.218750X-0.256250X0*%
%ADD20RoundRect,0.200000X-0.275000X0.200000X-0.275000X-0.200000X0.275000X-0.200000X0.275000X0.200000X0*%
%ADD21RoundRect,0.243750X-0.456250X0.243750X-0.456250X-0.243750X0.456250X-0.243750X0.456250X0.243750X0*%
G04 APERTURE END LIST*
D10*
X126948000Y-147732000D03*
X126948000Y-148702000D03*
D11*
X127448000Y-151702000D03*
X128418000Y-151702000D03*
D12*
X137000000Y-142485000D03*
X137000000Y-141515000D03*
D13*
X141400000Y-142000000D03*
X138600000Y-142000000D03*
D14*
X129458000Y-148852000D03*
X130758000Y-148852000D03*
X129458000Y-147552000D03*
X130758000Y-147552000D03*
D15*
X128170500Y-149452000D03*
X128170500Y-148952000D03*
X128170500Y-148452000D03*
X128170500Y-147952000D03*
X128170500Y-147452000D03*
X128170500Y-146952000D03*
D16*
X128858000Y-146264500D03*
X129358000Y-146264500D03*
X129858000Y-146264500D03*
X130358000Y-146264500D03*
X130858000Y-146264500D03*
X131358000Y-146264500D03*
D15*
X132045500Y-146952000D03*
X132045500Y-147452000D03*
X132045500Y-147952000D03*
X132045500Y-148452000D03*
X132045500Y-148952000D03*
X132045500Y-149452000D03*
D16*
X131358000Y-150139500D03*
X130858000Y-150139500D03*
X130358000Y-150139500D03*
X129858000Y-150139500D03*
X129358000Y-150139500D03*
X128858000Y-150139500D03*
D17*
X144575000Y-156175000D03*
X143275000Y-156175000D03*
X143925000Y-156175000D03*
X145225000Y-156175000D03*
D18*
X144250000Y-158075000D03*
D17*
X145225000Y-159325000D03*
X144575000Y-159325000D03*
X143925000Y-159325000D03*
X143275000Y-159325000D03*
X151075000Y-156175000D03*
X150425000Y-156175000D03*
X149775000Y-156175000D03*
X151725000Y-156175000D03*
D18*
X150750000Y-158075000D03*
D17*
X151075000Y-159325000D03*
X150425000Y-159325000D03*
X149775000Y-159325000D03*
X151725000Y-159325000D03*
X157575000Y-156175000D03*
X156925000Y-156175000D03*
X156275000Y-156175000D03*
X158225000Y-156175000D03*
X158225000Y-159325000D03*
X156925000Y-159325000D03*
D18*
X157250000Y-158075000D03*
D17*
X157575000Y-159325000D03*
X156275000Y-159325000D03*
X144575000Y-145850000D03*
X143275000Y-145850000D03*
X143925000Y-145850000D03*
X145225000Y-145850000D03*
D18*
X144250000Y-147750000D03*
D17*
X143275000Y-149000000D03*
X144575000Y-149000000D03*
X145225000Y-149000000D03*
X143925000Y-149000000D03*
X151075000Y-145835000D03*
X150425000Y-145835000D03*
X149775000Y-145835000D03*
X151725000Y-145835000D03*
X151725000Y-148985000D03*
X151075000Y-148985000D03*
X149775000Y-148985000D03*
X150425000Y-148985000D03*
D18*
X150750000Y-147735000D03*
D17*
X156275000Y-145835000D03*
X157575000Y-145835000D03*
X156925000Y-145835000D03*
X158225000Y-145835000D03*
D18*
X157250000Y-147735000D03*
D17*
X156275000Y-148985000D03*
X157575000Y-148985000D03*
X156925000Y-148985000D03*
X158225000Y-148985000D03*
D19*
X140500000Y-144000000D03*
X138925000Y-144000000D03*
D20*
X124100000Y-154162500D03*
X124100000Y-155812500D03*
D21*
X126250000Y-154562500D03*
X126250000Y-156437500D03*
M02*
