%FSLAX45Y45*%
G04 Gerber Fmt 4.5, Leading zero omitted, Abs format (unit mm)*
G04 Created by KiCad (PCBNEW 6.0.1-79c1e3a40b~116~ubuntu21.04.1) date 2022-02-15 17:28:52*
%MOMM*%
%LPD*%
G01*
G04 APERTURE LIST*
%TA.AperFunction,Profile*%
%ADD10C,0.050000*%
%TD*%
%ADD11C,0.200000*%
G04 APERTURE END LIST*
D10*
X16000000Y-14000000D02*
X12000000Y-14000000D01*
X16000000Y-16500000D02*
X16000000Y-14000000D01*
X12000000Y-14000000D02*
X12000000Y-16500000D01*
X12000000Y-16500000D02*
X16000000Y-16500000D01*
D11*
X12255119Y-16812976D02*
X12255119Y-16612976D01*
X12302738Y-16612976D01*
X12331309Y-16622500D01*
X12350357Y-16641548D01*
X12359881Y-16660595D01*
X12369405Y-16698690D01*
X12369405Y-16727262D01*
X12359881Y-16765357D01*
X12350357Y-16784405D01*
X12331309Y-16803452D01*
X12302738Y-16812976D01*
X12255119Y-16812976D01*
X12455119Y-16812976D02*
X12455119Y-16679643D01*
X12455119Y-16717738D02*
X12464643Y-16698690D01*
X12474167Y-16689167D01*
X12493214Y-16679643D01*
X12512262Y-16679643D01*
X12578928Y-16812976D02*
X12578928Y-16679643D01*
X12578928Y-16612976D02*
X12569405Y-16622500D01*
X12578928Y-16632024D01*
X12588452Y-16622500D01*
X12578928Y-16612976D01*
X12578928Y-16632024D01*
X12702738Y-16812976D02*
X12683690Y-16803452D01*
X12674167Y-16784405D01*
X12674167Y-16612976D01*
X12807500Y-16812976D02*
X12788452Y-16803452D01*
X12778928Y-16784405D01*
X12778928Y-16612976D01*
X13036071Y-16812976D02*
X13036071Y-16612976D01*
X13102738Y-16755833D01*
X13169405Y-16612976D01*
X13169405Y-16812976D01*
X13350357Y-16812976D02*
X13350357Y-16708214D01*
X13340833Y-16689167D01*
X13321786Y-16679643D01*
X13283690Y-16679643D01*
X13264643Y-16689167D01*
X13350357Y-16803452D02*
X13331309Y-16812976D01*
X13283690Y-16812976D01*
X13264643Y-16803452D01*
X13255119Y-16784405D01*
X13255119Y-16765357D01*
X13264643Y-16746309D01*
X13283690Y-16736786D01*
X13331309Y-16736786D01*
X13350357Y-16727262D01*
X13445595Y-16679643D02*
X13445595Y-16879643D01*
X13445595Y-16689167D02*
X13464643Y-16679643D01*
X13502738Y-16679643D01*
X13521786Y-16689167D01*
X13531309Y-16698690D01*
X13540833Y-16717738D01*
X13540833Y-16774881D01*
X13531309Y-16793929D01*
X13521786Y-16803452D01*
X13502738Y-16812976D01*
X13464643Y-16812976D01*
X13445595Y-16803452D01*
X13626548Y-16793929D02*
X13636071Y-16803452D01*
X13626548Y-16812976D01*
X13617024Y-16803452D01*
X13626548Y-16793929D01*
X13626548Y-16812976D01*
X13626548Y-16689167D02*
X13636071Y-16698690D01*
X13626548Y-16708214D01*
X13617024Y-16698690D01*
X13626548Y-16689167D01*
X13626548Y-16708214D01*
M02*
