G04 #@! TF.GenerationSoftware,KiCad,Pcbnew,6.0.1-79c1e3a40b~116~ubuntu21.04.1*
G04 #@! TF.CreationDate,2022-02-15T17:28:44-05:00*
G04 #@! TF.ProjectId,ESC_V5,4553435f-5635-42e6-9b69-6361645f7063,rev?*
G04 #@! TF.SameCoordinates,Original*
G04 #@! TF.FileFunction,Legend,Bot*
G04 #@! TF.FilePolarity,Positive*
%FSLAX46Y46*%
G04 Gerber Fmt 4.6, Leading zero omitted, Abs format (unit mm)*
G04 Created by KiCad (PCBNEW 6.0.1-79c1e3a40b~116~ubuntu21.04.1) date 2022-02-15 17:28:44*
%MOMM*%
%LPD*%
G01*
G04 APERTURE LIST*
G04 Aperture macros list*
%AMRoundRect*
0 Rectangle with rounded corners*
0 $1 Rounding radius*
0 $2 $3 $4 $5 $6 $7 $8 $9 X,Y pos of 4 corners*
0 Add a 4 corners polygon primitive as box body*
4,1,4,$2,$3,$4,$5,$6,$7,$8,$9,$2,$3,0*
0 Add four circle primitives for the rounded corners*
1,1,$1+$1,$2,$3*
1,1,$1+$1,$4,$5*
1,1,$1+$1,$6,$7*
1,1,$1+$1,$8,$9*
0 Add four rect primitives between the rounded corners*
20,1,$1+$1,$2,$3,$4,$5,0*
20,1,$1+$1,$4,$5,$6,$7,0*
20,1,$1+$1,$6,$7,$8,$9,0*
20,1,$1+$1,$8,$9,$2,$3,0*%
%AMFreePoly0*
4,1,16,0.535355,0.785355,0.541603,0.777735,1.041603,0.027735,1.049029,-0.009806,1.041603,-0.027735,0.541603,-0.777735,0.509806,-0.799029,0.500000,-0.800000,-0.500000,-0.800000,-0.535355,-0.785355,-0.550000,-0.750000,-0.550000,0.750000,-0.535355,0.785355,-0.500000,0.800000,0.500000,0.800000,0.535355,0.785355,0.535355,0.785355,$1*%
%AMFreePoly1*
4,1,16,0.535355,0.785355,0.550000,0.750000,0.550000,-0.750000,0.535355,-0.785355,0.500000,-0.800000,-0.650000,-0.800000,-0.685355,-0.785355,-0.700000,-0.750000,-0.691603,-0.722265,-0.210093,0.000000,-0.691603,0.722265,-0.699029,0.759806,-0.677735,0.791603,-0.650000,0.800000,0.500000,0.800000,0.535355,0.785355,0.535355,0.785355,$1*%
%AMFreePoly2*
4,1,37,0.535355,0.785355,0.550000,0.750000,0.550000,-0.750000,0.535355,-0.785355,0.500000,-0.800000,0.000000,-0.800000,-0.012524,-0.794812,-0.080857,-0.793560,-0.094851,-0.791293,-0.230166,-0.749018,-0.242962,-0.742915,-0.360972,-0.664360,-0.371540,-0.654911,-0.462760,-0.546392,-0.470252,-0.534356,-0.527347,-0.404597,-0.531159,-0.390943,-0.548742,-0.256483,-0.547388,-0.256306,-0.550000,-0.250000,
-0.550000,0.250000,-0.549522,0.251153,-0.549368,0.263802,-0.527557,0.403879,-0.523412,0.417435,-0.463164,0.545760,-0.455381,0.557609,-0.361537,0.663867,-0.350741,0.673055,-0.230846,0.748703,-0.217905,0.754492,-0.081598,0.793449,-0.067552,0.795373,-0.011991,0.795033,0.000000,0.800000,0.500000,0.800000,0.535355,0.785355,0.535355,0.785355,$1*%
%AMFreePoly3*
4,1,37,0.012350,0.794884,0.074210,0.794507,0.088231,0.792412,0.224052,0.751793,0.236921,0.745846,0.355883,0.668739,0.366566,0.659420,0.459104,0.552023,0.466742,0.540080,0.525419,0.411028,0.529398,0.397421,0.549495,0.257088,0.550000,0.250000,0.550000,-0.250000,0.549996,-0.250610,0.549847,-0.262826,0.549158,-0.270511,0.525638,-0.410312,0.521328,-0.423818,0.459516,-0.551397,
0.451589,-0.563150,0.356454,-0.668254,0.345546,-0.677309,0.224736,-0.751486,0.211726,-0.757116,0.074953,-0.794405,0.060885,-0.796158,0.011462,-0.795252,0.000000,-0.800000,-0.500000,-0.800000,-0.535355,-0.785355,-0.550000,-0.750000,-0.550000,0.750000,-0.535355,0.785355,-0.500000,0.800000,0.000000,0.800000,0.012350,0.794884,0.012350,0.794884,$1*%
G04 Aperture macros list end*
%ADD10C,0.300000*%
%ADD11C,0.250000*%
%ADD12C,0.150000*%
%ADD13C,0.120000*%
%ADD14C,0.100000*%
%ADD15RoundRect,0.197500X-0.172500X0.147500X-0.172500X-0.147500X0.172500X-0.147500X0.172500X0.147500X0*%
%ADD16RoundRect,0.197500X-0.147500X-0.172500X0.147500X-0.172500X0.147500X0.172500X-0.147500X0.172500X0*%
%ADD17RoundRect,0.197500X0.172500X-0.147500X0.172500X0.147500X-0.172500X0.147500X-0.172500X-0.147500X0*%
%ADD18RoundRect,0.050000X0.550000X0.550000X-0.550000X0.550000X-0.550000X-0.550000X0.550000X-0.550000X0*%
%ADD19RoundRect,0.050000X0.850000X0.850000X-0.850000X0.850000X-0.850000X-0.850000X0.850000X-0.850000X0*%
%ADD20O,1.800000X1.800000*%
%ADD21RoundRect,0.050000X-0.850000X0.850000X-0.850000X-0.850000X0.850000X-0.850000X0.850000X0.850000X0*%
%ADD22FreePoly0,0.000000*%
%ADD23FreePoly1,0.000000*%
%ADD24FreePoly0,90.000000*%
%ADD25FreePoly1,90.000000*%
%ADD26FreePoly2,180.000000*%
%ADD27FreePoly3,180.000000*%
%ADD28RoundRect,0.112500X-0.350000X-0.062500X0.350000X-0.062500X0.350000X0.062500X-0.350000X0.062500X0*%
%ADD29RoundRect,0.112500X-0.062500X-0.350000X0.062500X-0.350000X0.062500X0.350000X-0.062500X0.350000X0*%
%ADD30RoundRect,0.050000X-1.300000X-1.300000X1.300000X-1.300000X1.300000X1.300000X-1.300000X1.300000X0*%
%ADD31RoundRect,0.050000X-0.200000X-0.200000X0.200000X-0.200000X0.200000X0.200000X-0.200000X0.200000X0*%
%ADD32RoundRect,0.050000X-1.325000X1.100000X-1.325000X-1.100000X1.325000X-1.100000X1.325000X1.100000X0*%
%ADD33RoundRect,0.268750X0.218750X0.256250X-0.218750X0.256250X-0.218750X-0.256250X0.218750X-0.256250X0*%
%ADD34RoundRect,0.250000X-0.275000X0.200000X-0.275000X-0.200000X0.275000X-0.200000X0.275000X0.200000X0*%
%ADD35RoundRect,0.293750X-0.456250X0.243750X-0.456250X-0.243750X0.456250X-0.243750X0.456250X0.243750X0*%
G04 APERTURE END LIST*
D10*
X142057142Y-152350000D02*
X141342857Y-152350000D01*
X142200000Y-152778571D02*
X141700000Y-151278571D01*
X141200000Y-152778571D01*
D11*
X124457738Y-156552380D02*
X124933928Y-156552380D01*
X124981547Y-157028571D01*
X124933928Y-156980952D01*
X124838690Y-156933333D01*
X124600595Y-156933333D01*
X124505357Y-156980952D01*
X124457738Y-157028571D01*
X124410119Y-157123809D01*
X124410119Y-157361904D01*
X124457738Y-157457142D01*
X124505357Y-157504761D01*
X124600595Y-157552380D01*
X124838690Y-157552380D01*
X124933928Y-157504761D01*
X124981547Y-157457142D01*
X124124404Y-156552380D02*
X123791071Y-157552380D01*
X123457738Y-156552380D01*
D10*
X148092857Y-151992857D02*
X147878571Y-152064285D01*
X147807142Y-152135714D01*
X147735714Y-152278571D01*
X147735714Y-152492857D01*
X147807142Y-152635714D01*
X147878571Y-152707142D01*
X148021428Y-152778571D01*
X148592857Y-152778571D01*
X148592857Y-151278571D01*
X148092857Y-151278571D01*
X147950000Y-151350000D01*
X147878571Y-151421428D01*
X147807142Y-151564285D01*
X147807142Y-151707142D01*
X147878571Y-151850000D01*
X147950000Y-151921428D01*
X148092857Y-151992857D01*
X148592857Y-151992857D01*
D11*
X123400595Y-145100000D02*
X123495833Y-145052380D01*
X123638690Y-145052380D01*
X123781547Y-145100000D01*
X123876785Y-145195238D01*
X123924404Y-145290476D01*
X123972023Y-145480952D01*
X123972023Y-145623809D01*
X123924404Y-145814285D01*
X123876785Y-145909523D01*
X123781547Y-146004761D01*
X123638690Y-146052380D01*
X123543452Y-146052380D01*
X123400595Y-146004761D01*
X123352976Y-145957142D01*
X123352976Y-145623809D01*
X123543452Y-145623809D01*
D10*
X134481602Y-158266874D02*
X134128049Y-158620427D01*
X134601558Y-159258086D02*
X135106634Y-158753010D01*
X133913391Y-157824932D01*
X133408315Y-158330008D01*
X134140676Y-159617953D02*
X134045974Y-159813670D01*
X133793436Y-160066208D01*
X133635599Y-160123029D01*
X133528271Y-160129343D01*
X133364121Y-160091462D01*
X133250479Y-160003074D01*
X133187344Y-159864178D01*
X133181031Y-159769476D01*
X133225225Y-159624266D01*
X133370434Y-159378042D01*
X133414629Y-159232832D01*
X133408315Y-159138131D01*
X133345181Y-158999235D01*
X133231538Y-158910846D01*
X133067389Y-158872965D01*
X132960060Y-158879279D01*
X132802224Y-158936100D01*
X132549685Y-159188638D01*
X132454984Y-159384355D01*
X132417103Y-161240511D02*
X132524432Y-161234197D01*
X132732776Y-161126868D01*
X132833791Y-161025853D01*
X132928493Y-160830136D01*
X132915866Y-160640732D01*
X132852731Y-160501836D01*
X132675954Y-160274552D01*
X132505491Y-160141970D01*
X132227699Y-160015701D01*
X132063550Y-159977820D01*
X131848892Y-159990447D01*
X131640548Y-160097775D01*
X131539533Y-160198791D01*
X131444831Y-160394508D01*
X131451145Y-160489210D01*
X130226335Y-161511989D02*
X131066024Y-162793620D01*
X129519228Y-162219096D01*
X128660598Y-163077725D02*
X129165674Y-162572649D01*
X129784393Y-162964083D01*
X129677064Y-162970397D01*
X129519228Y-163027218D01*
X129266690Y-163279756D01*
X129222495Y-163424965D01*
X129228809Y-163519667D01*
X129291943Y-163658563D01*
X129576049Y-163879534D01*
X129740199Y-163917415D01*
X129847527Y-163911101D01*
X130005364Y-163854280D01*
X130257902Y-163601742D01*
X130302096Y-163456533D01*
X130295783Y-163361831D01*
D11*
X132314285Y-153466666D02*
X131838095Y-153466666D01*
X132409523Y-153752380D02*
X132076190Y-152752380D01*
X131742857Y-153752380D01*
X131457142Y-152847619D02*
X131409523Y-152800000D01*
X131314285Y-152752380D01*
X131076190Y-152752380D01*
X130980952Y-152800000D01*
X130933333Y-152847619D01*
X130885714Y-152942857D01*
X130885714Y-153038095D01*
X130933333Y-153180952D01*
X131504761Y-153752380D01*
X130885714Y-153752380D01*
X134914285Y-153466666D02*
X134438095Y-153466666D01*
X135009523Y-153752380D02*
X134676190Y-152752380D01*
X134342857Y-153752380D01*
X134104761Y-152752380D02*
X133485714Y-152752380D01*
X133819047Y-153133333D01*
X133676190Y-153133333D01*
X133580952Y-153180952D01*
X133533333Y-153228571D01*
X133485714Y-153323809D01*
X133485714Y-153561904D01*
X133533333Y-153657142D01*
X133580952Y-153704761D01*
X133676190Y-153752380D01*
X133961904Y-153752380D01*
X134057142Y-153704761D01*
X134104761Y-153657142D01*
X136399404Y-146452380D02*
X136399404Y-145452380D01*
X136161309Y-145452380D01*
X136018452Y-145500000D01*
X135923214Y-145595238D01*
X135875595Y-145690476D01*
X135827976Y-145880952D01*
X135827976Y-146023809D01*
X135875595Y-146214285D01*
X135923214Y-146309523D01*
X136018452Y-146404761D01*
X136161309Y-146452380D01*
X136399404Y-146452380D01*
X135542261Y-145452380D02*
X134970833Y-145452380D01*
X135256547Y-146452380D02*
X135256547Y-145452380D01*
X134066071Y-146452380D02*
X134399404Y-145976190D01*
X134637500Y-146452380D02*
X134637500Y-145452380D01*
X134256547Y-145452380D01*
X134161309Y-145500000D01*
X134113690Y-145547619D01*
X134066071Y-145642857D01*
X134066071Y-145785714D01*
X134113690Y-145880952D01*
X134161309Y-145928571D01*
X134256547Y-145976190D01*
X134637500Y-145976190D01*
X129714285Y-153466666D02*
X129238095Y-153466666D01*
X129809523Y-153752380D02*
X129476190Y-152752380D01*
X129142857Y-153752380D01*
X128285714Y-153752380D02*
X128857142Y-153752380D01*
X128571428Y-153752380D02*
X128571428Y-152752380D01*
X128666666Y-152895238D01*
X128761904Y-152990476D01*
X128857142Y-153038095D01*
X126648214Y-161452380D02*
X126648214Y-162261904D01*
X126600595Y-162357142D01*
X126552976Y-162404761D01*
X126457738Y-162452380D01*
X126267261Y-162452380D01*
X126172023Y-162404761D01*
X126124404Y-162357142D01*
X126076785Y-162261904D01*
X126076785Y-161452380D01*
X125600595Y-162452380D02*
X125600595Y-161452380D01*
X125219642Y-161452380D01*
X125124404Y-161500000D01*
X125076785Y-161547619D01*
X125029166Y-161642857D01*
X125029166Y-161785714D01*
X125076785Y-161880952D01*
X125124404Y-161928571D01*
X125219642Y-161976190D01*
X125600595Y-161976190D01*
X124600595Y-162452380D02*
X124600595Y-161452380D01*
X124362500Y-161452380D01*
X124219642Y-161500000D01*
X124124404Y-161595238D01*
X124076785Y-161690476D01*
X124029166Y-161880952D01*
X124029166Y-162023809D01*
X124076785Y-162214285D01*
X124124404Y-162309523D01*
X124219642Y-162404761D01*
X124362500Y-162452380D01*
X124600595Y-162452380D01*
X123600595Y-162452380D02*
X123600595Y-161452380D01*
X125933928Y-148504761D02*
X125791071Y-148552380D01*
X125552976Y-148552380D01*
X125457738Y-148504761D01*
X125410119Y-148457142D01*
X125362500Y-148361904D01*
X125362500Y-148266666D01*
X125410119Y-148171428D01*
X125457738Y-148123809D01*
X125552976Y-148076190D01*
X125743452Y-148028571D01*
X125838690Y-147980952D01*
X125886309Y-147933333D01*
X125933928Y-147838095D01*
X125933928Y-147742857D01*
X125886309Y-147647619D01*
X125838690Y-147600000D01*
X125743452Y-147552380D01*
X125505357Y-147552380D01*
X125362500Y-147600000D01*
X124362500Y-148457142D02*
X124410119Y-148504761D01*
X124552976Y-148552380D01*
X124648214Y-148552380D01*
X124791071Y-148504761D01*
X124886309Y-148409523D01*
X124933928Y-148314285D01*
X124981547Y-148123809D01*
X124981547Y-147980952D01*
X124933928Y-147790476D01*
X124886309Y-147695238D01*
X124791071Y-147600000D01*
X124648214Y-147552380D01*
X124552976Y-147552380D01*
X124410119Y-147600000D01*
X124362500Y-147647619D01*
X123457738Y-148552380D02*
X123933928Y-148552380D01*
X123933928Y-147552380D01*
X124357738Y-152452380D02*
X124833928Y-152452380D01*
X124881547Y-152928571D01*
X124833928Y-152880952D01*
X124738690Y-152833333D01*
X124500595Y-152833333D01*
X124405357Y-152880952D01*
X124357738Y-152928571D01*
X124310119Y-153023809D01*
X124310119Y-153261904D01*
X124357738Y-153357142D01*
X124405357Y-153404761D01*
X124500595Y-153452380D01*
X124738690Y-153452380D01*
X124833928Y-153404761D01*
X124881547Y-153357142D01*
X124024404Y-152452380D02*
X123691071Y-153452380D01*
X123357738Y-152452380D01*
X126471428Y-144352380D02*
X126804761Y-143876190D01*
X127042857Y-144352380D02*
X127042857Y-143352380D01*
X126661904Y-143352380D01*
X126566666Y-143400000D01*
X126519047Y-143447619D01*
X126471428Y-143542857D01*
X126471428Y-143685714D01*
X126519047Y-143780952D01*
X126566666Y-143828571D01*
X126661904Y-143876190D01*
X127042857Y-143876190D01*
X126042857Y-143828571D02*
X125709523Y-143828571D01*
X125566666Y-144352380D02*
X126042857Y-144352380D01*
X126042857Y-143352380D01*
X125566666Y-143352380D01*
X125280952Y-143352380D02*
X124947619Y-144352380D01*
X124614285Y-143352380D01*
X125981547Y-151004761D02*
X125838690Y-151052380D01*
X125600595Y-151052380D01*
X125505357Y-151004761D01*
X125457738Y-150957142D01*
X125410119Y-150861904D01*
X125410119Y-150766666D01*
X125457738Y-150671428D01*
X125505357Y-150623809D01*
X125600595Y-150576190D01*
X125791071Y-150528571D01*
X125886309Y-150480952D01*
X125933928Y-150433333D01*
X125981547Y-150338095D01*
X125981547Y-150242857D01*
X125933928Y-150147619D01*
X125886309Y-150100000D01*
X125791071Y-150052380D01*
X125552976Y-150052380D01*
X125410119Y-150100000D01*
X124981547Y-151052380D02*
X124981547Y-150052380D01*
X124743452Y-150052380D01*
X124600595Y-150100000D01*
X124505357Y-150195238D01*
X124457738Y-150290476D01*
X124410119Y-150480952D01*
X124410119Y-150623809D01*
X124457738Y-150814285D01*
X124505357Y-150909523D01*
X124600595Y-151004761D01*
X124743452Y-151052380D01*
X124981547Y-151052380D01*
X124029166Y-150766666D02*
X123552976Y-150766666D01*
X124124404Y-151052380D02*
X123791071Y-150052380D01*
X123457738Y-151052380D01*
D10*
X138862142Y-149371071D02*
X139719285Y-149371071D01*
X139290714Y-149371071D02*
X139290714Y-147871071D01*
X139433571Y-148085357D01*
X139576428Y-148228214D01*
X139719285Y-148299642D01*
X137933571Y-147871071D02*
X137790714Y-147871071D01*
X137647857Y-147942500D01*
X137576428Y-148013928D01*
X137505000Y-148156785D01*
X137433571Y-148442500D01*
X137433571Y-148799642D01*
X137505000Y-149085357D01*
X137576428Y-149228214D01*
X137647857Y-149299642D01*
X137790714Y-149371071D01*
X137933571Y-149371071D01*
X138076428Y-149299642D01*
X138147857Y-149228214D01*
X138219285Y-149085357D01*
X138290714Y-148799642D01*
X138290714Y-148442500D01*
X138219285Y-148156785D01*
X138147857Y-148013928D01*
X138076428Y-147942500D01*
X137933571Y-147871071D01*
X136505000Y-147871071D02*
X136362142Y-147871071D01*
X136219285Y-147942500D01*
X136147857Y-148013928D01*
X136076428Y-148156785D01*
X136005000Y-148442500D01*
X136005000Y-148799642D01*
X136076428Y-149085357D01*
X136147857Y-149228214D01*
X136219285Y-149299642D01*
X136362142Y-149371071D01*
X136505000Y-149371071D01*
X136647857Y-149299642D01*
X136719285Y-149228214D01*
X136790714Y-149085357D01*
X136862142Y-148799642D01*
X136862142Y-148442500D01*
X136790714Y-148156785D01*
X136719285Y-148013928D01*
X136647857Y-147942500D01*
X136505000Y-147871071D01*
X135433571Y-148942500D02*
X134719285Y-148942500D01*
X135576428Y-149371071D02*
X135076428Y-147871071D01*
X134576428Y-149371071D01*
X139719285Y-150428928D02*
X139647857Y-150357500D01*
X139505000Y-150286071D01*
X139147857Y-150286071D01*
X139005000Y-150357500D01*
X138933571Y-150428928D01*
X138862142Y-150571785D01*
X138862142Y-150714642D01*
X138933571Y-150928928D01*
X139790714Y-151786071D01*
X138862142Y-151786071D01*
X137933571Y-150286071D02*
X137790714Y-150286071D01*
X137647857Y-150357500D01*
X137576428Y-150428928D01*
X137505000Y-150571785D01*
X137433571Y-150857500D01*
X137433571Y-151214642D01*
X137505000Y-151500357D01*
X137576428Y-151643214D01*
X137647857Y-151714642D01*
X137790714Y-151786071D01*
X137933571Y-151786071D01*
X138076428Y-151714642D01*
X138147857Y-151643214D01*
X138219285Y-151500357D01*
X138290714Y-151214642D01*
X138290714Y-150857500D01*
X138219285Y-150571785D01*
X138147857Y-150428928D01*
X138076428Y-150357500D01*
X137933571Y-150286071D01*
X137005000Y-150286071D02*
X136505000Y-151786071D01*
X136005000Y-150286071D01*
X141567072Y-155791556D02*
X141472370Y-155987273D01*
X141219832Y-156239812D01*
X141061996Y-156296633D01*
X140954667Y-156302946D01*
X140790518Y-156265065D01*
X140676875Y-156176677D01*
X140613741Y-156037781D01*
X140607427Y-155943079D01*
X140651622Y-155797870D01*
X140796831Y-155551645D01*
X140841025Y-155406436D01*
X140834712Y-155311734D01*
X140771577Y-155172838D01*
X140657935Y-155084450D01*
X140493785Y-155046569D01*
X140386457Y-155052882D01*
X140228620Y-155109703D01*
X139976082Y-155362242D01*
X139881380Y-155557959D01*
X140272814Y-156580738D02*
X139767738Y-157085814D01*
X140714756Y-156744888D02*
X139167960Y-156170364D01*
X140007649Y-157451995D01*
X138612376Y-156725947D02*
X139452065Y-158007579D01*
X137905269Y-157433054D01*
X137349685Y-157988638D02*
X137147655Y-158190669D01*
X137103461Y-158335878D01*
X137116088Y-158525282D01*
X137292864Y-158752566D01*
X137690612Y-159061925D01*
X137968404Y-159188194D01*
X138183061Y-159175567D01*
X138340898Y-159118746D01*
X138542928Y-158916716D01*
X138587122Y-158771506D01*
X138574495Y-158582103D01*
X138397719Y-158354818D01*
X137999971Y-158045459D01*
X137722179Y-157919190D01*
X137507522Y-157931817D01*
X137349685Y-157988638D01*
X135847084Y-160501393D02*
X135752382Y-160697110D01*
X135758695Y-160791811D01*
X135821830Y-160930707D01*
X135992293Y-161063290D01*
X136156443Y-161101171D01*
X136263771Y-161094857D01*
X136421608Y-161038036D01*
X136825669Y-160633975D01*
X135632426Y-159705897D01*
X135278873Y-160059451D01*
X135234679Y-160204660D01*
X135240992Y-160299362D01*
X135304127Y-160438258D01*
X135417769Y-160526646D01*
X135581918Y-160564527D01*
X135689247Y-160558214D01*
X135847084Y-160501393D01*
X136200637Y-160147839D01*
X135474590Y-161378963D02*
X134969513Y-161884039D01*
X135916531Y-161543112D02*
X134369735Y-160968588D01*
X135209425Y-162250219D01*
X133359583Y-161978741D02*
X134211899Y-162641653D01*
X134432870Y-162723728D01*
X134647527Y-162711101D01*
X134855871Y-162603773D01*
X134956887Y-162502757D01*
X134047749Y-163411895D02*
X132854507Y-162483817D01*
X132822939Y-164434674D02*
X132930268Y-164428361D01*
X133138612Y-164321032D01*
X133239627Y-164220017D01*
X133334329Y-164024300D01*
X133321702Y-163834896D01*
X133258568Y-163696000D01*
X133081791Y-163468716D01*
X132911328Y-163336133D01*
X132633536Y-163209864D01*
X132469386Y-163171983D01*
X132254729Y-163184610D01*
X132046385Y-163291939D01*
X131945369Y-163392954D01*
X131850668Y-163588671D01*
X131856981Y-163683373D01*
D11*
X125648214Y-159000000D02*
X125743452Y-158952380D01*
X125886309Y-158952380D01*
X126029166Y-159000000D01*
X126124404Y-159095238D01*
X126172023Y-159190476D01*
X126219642Y-159380952D01*
X126219642Y-159523809D01*
X126172023Y-159714285D01*
X126124404Y-159809523D01*
X126029166Y-159904761D01*
X125886309Y-159952380D01*
X125791071Y-159952380D01*
X125648214Y-159904761D01*
X125600595Y-159857142D01*
X125600595Y-159523809D01*
X125791071Y-159523809D01*
X125172023Y-159952380D02*
X125172023Y-158952380D01*
X124600595Y-159952380D01*
X124600595Y-158952380D01*
X124124404Y-159952380D02*
X124124404Y-158952380D01*
X123886309Y-158952380D01*
X123743452Y-159000000D01*
X123648214Y-159095238D01*
X123600595Y-159190476D01*
X123552976Y-159380952D01*
X123552976Y-159523809D01*
X123600595Y-159714285D01*
X123648214Y-159809523D01*
X123743452Y-159904761D01*
X123886309Y-159952380D01*
X124124404Y-159952380D01*
D10*
X154235714Y-152535714D02*
X154307142Y-152607142D01*
X154521428Y-152678571D01*
X154664285Y-152678571D01*
X154878571Y-152607142D01*
X155021428Y-152464285D01*
X155092857Y-152321428D01*
X155164285Y-152035714D01*
X155164285Y-151821428D01*
X155092857Y-151535714D01*
X155021428Y-151392857D01*
X154878571Y-151250000D01*
X154664285Y-151178571D01*
X154521428Y-151178571D01*
X154307142Y-151250000D01*
X154235714Y-151321428D01*
D12*
X127257142Y-149933333D02*
X127304761Y-149885714D01*
X127352380Y-149742857D01*
X127352380Y-149647619D01*
X127304761Y-149504761D01*
X127209523Y-149409523D01*
X127114285Y-149361904D01*
X126923809Y-149314285D01*
X126780952Y-149314285D01*
X126590476Y-149361904D01*
X126495238Y-149409523D01*
X126400000Y-149504761D01*
X126352380Y-149647619D01*
X126352380Y-149742857D01*
X126400000Y-149885714D01*
X126447619Y-149933333D01*
X127352380Y-150885714D02*
X127352380Y-150314285D01*
X127352380Y-150600000D02*
X126352380Y-150600000D01*
X126495238Y-150504761D01*
X126590476Y-150409523D01*
X126638095Y-150314285D01*
X126166666Y-152357142D02*
X126214285Y-152404761D01*
X126357142Y-152452380D01*
X126452380Y-152452380D01*
X126595238Y-152404761D01*
X126690476Y-152309523D01*
X126738095Y-152214285D01*
X126785714Y-152023809D01*
X126785714Y-151880952D01*
X126738095Y-151690476D01*
X126690476Y-151595238D01*
X126595238Y-151500000D01*
X126452380Y-151452380D01*
X126357142Y-151452380D01*
X126214285Y-151500000D01*
X126166666Y-151547619D01*
X125785714Y-151547619D02*
X125738095Y-151500000D01*
X125642857Y-151452380D01*
X125404761Y-151452380D01*
X125309523Y-151500000D01*
X125261904Y-151547619D01*
X125214285Y-151642857D01*
X125214285Y-151738095D01*
X125261904Y-151880952D01*
X125833333Y-152452380D01*
X125214285Y-152452380D01*
X137357142Y-143833333D02*
X137404761Y-143785714D01*
X137452380Y-143642857D01*
X137452380Y-143547619D01*
X137404761Y-143404761D01*
X137309523Y-143309523D01*
X137214285Y-143261904D01*
X137023809Y-143214285D01*
X136880952Y-143214285D01*
X136690476Y-143261904D01*
X136595238Y-143309523D01*
X136500000Y-143404761D01*
X136452380Y-143547619D01*
X136452380Y-143642857D01*
X136500000Y-143785714D01*
X136547619Y-143833333D01*
X137452380Y-144309523D02*
X137452380Y-144500000D01*
X137404761Y-144595238D01*
X137357142Y-144642857D01*
X137214285Y-144738095D01*
X137023809Y-144785714D01*
X136642857Y-144785714D01*
X136547619Y-144738095D01*
X136500000Y-144690476D01*
X136452380Y-144595238D01*
X136452380Y-144404761D01*
X136500000Y-144309523D01*
X136547619Y-144261904D01*
X136642857Y-144214285D01*
X136880952Y-144214285D01*
X136976190Y-144261904D01*
X137023809Y-144309523D01*
X137071428Y-144404761D01*
X137071428Y-144595238D01*
X137023809Y-144690476D01*
X136976190Y-144738095D01*
X136880952Y-144785714D01*
X142452380Y-143261904D02*
X141452380Y-143261904D01*
X141452380Y-143500000D01*
X141500000Y-143642857D01*
X141595238Y-143738095D01*
X141690476Y-143785714D01*
X141880952Y-143833333D01*
X142023809Y-143833333D01*
X142214285Y-143785714D01*
X142309523Y-143738095D01*
X142404761Y-143642857D01*
X142452380Y-143500000D01*
X142452380Y-143261904D01*
X141785714Y-144690476D02*
X142452380Y-144690476D01*
X141404761Y-144452380D02*
X142119047Y-144214285D01*
X142119047Y-144833333D01*
X122933333Y-143252380D02*
X122933333Y-143966666D01*
X122980952Y-144109523D01*
X123076190Y-144204761D01*
X123219047Y-144252380D01*
X123314285Y-144252380D01*
X121933333Y-144252380D02*
X122504761Y-144252380D01*
X122219047Y-144252380D02*
X122219047Y-143252380D01*
X122314285Y-143395238D01*
X122409523Y-143490476D01*
X122504761Y-143538095D01*
X122033333Y-163652380D02*
X122033333Y-164366666D01*
X122080952Y-164509523D01*
X122176190Y-164604761D01*
X122319047Y-164652380D01*
X122414285Y-164652380D01*
X121604761Y-163747619D02*
X121557142Y-163700000D01*
X121461904Y-163652380D01*
X121223809Y-163652380D01*
X121128571Y-163700000D01*
X121080952Y-163747619D01*
X121033333Y-163842857D01*
X121033333Y-163938095D01*
X121080952Y-164080952D01*
X121652380Y-164652380D01*
X121033333Y-164652380D01*
X134433333Y-143252380D02*
X134433333Y-143966666D01*
X134480952Y-144109523D01*
X134576190Y-144204761D01*
X134719047Y-144252380D01*
X134814285Y-144252380D01*
X134052380Y-143252380D02*
X133433333Y-143252380D01*
X133766666Y-143633333D01*
X133623809Y-143633333D01*
X133528571Y-143680952D01*
X133480952Y-143728571D01*
X133433333Y-143823809D01*
X133433333Y-144061904D01*
X133480952Y-144157142D01*
X133528571Y-144204761D01*
X133623809Y-144252380D01*
X133909523Y-144252380D01*
X134004761Y-144204761D01*
X134052380Y-144157142D01*
X129346095Y-152049619D02*
X129346095Y-151240095D01*
X129393714Y-151144857D01*
X129441333Y-151097238D01*
X129536571Y-151049619D01*
X129727047Y-151049619D01*
X129822285Y-151097238D01*
X129869904Y-151144857D01*
X129917523Y-151240095D01*
X129917523Y-152049619D01*
X130346095Y-151954380D02*
X130393714Y-152002000D01*
X130488952Y-152049619D01*
X130727047Y-152049619D01*
X130822285Y-152002000D01*
X130869904Y-151954380D01*
X130917523Y-151859142D01*
X130917523Y-151763904D01*
X130869904Y-151621047D01*
X130298476Y-151049619D01*
X130917523Y-151049619D01*
X142547619Y-157904761D02*
X142500000Y-157809523D01*
X142404761Y-157714285D01*
X142261904Y-157571428D01*
X142214285Y-157476190D01*
X142214285Y-157380952D01*
X142452380Y-157428571D02*
X142404761Y-157333333D01*
X142309523Y-157238095D01*
X142119047Y-157190476D01*
X141785714Y-157190476D01*
X141595238Y-157238095D01*
X141500000Y-157333333D01*
X141452380Y-157428571D01*
X141452380Y-157619047D01*
X141500000Y-157714285D01*
X141595238Y-157809523D01*
X141785714Y-157857142D01*
X142119047Y-157857142D01*
X142309523Y-157809523D01*
X142404761Y-157714285D01*
X142452380Y-157619047D01*
X142452380Y-157428571D01*
X142452380Y-158809523D02*
X142452380Y-158238095D01*
X142452380Y-158523809D02*
X141452380Y-158523809D01*
X141595238Y-158428571D01*
X141690476Y-158333333D01*
X141738095Y-158238095D01*
X149047619Y-157904761D02*
X149000000Y-157809523D01*
X148904761Y-157714285D01*
X148761904Y-157571428D01*
X148714285Y-157476190D01*
X148714285Y-157380952D01*
X148952380Y-157428571D02*
X148904761Y-157333333D01*
X148809523Y-157238095D01*
X148619047Y-157190476D01*
X148285714Y-157190476D01*
X148095238Y-157238095D01*
X148000000Y-157333333D01*
X147952380Y-157428571D01*
X147952380Y-157619047D01*
X148000000Y-157714285D01*
X148095238Y-157809523D01*
X148285714Y-157857142D01*
X148619047Y-157857142D01*
X148809523Y-157809523D01*
X148904761Y-157714285D01*
X148952380Y-157619047D01*
X148952380Y-157428571D01*
X148047619Y-158238095D02*
X148000000Y-158285714D01*
X147952380Y-158380952D01*
X147952380Y-158619047D01*
X148000000Y-158714285D01*
X148047619Y-158761904D01*
X148142857Y-158809523D01*
X148238095Y-158809523D01*
X148380952Y-158761904D01*
X148952380Y-158190476D01*
X148952380Y-158809523D01*
X155547619Y-157904761D02*
X155500000Y-157809523D01*
X155404761Y-157714285D01*
X155261904Y-157571428D01*
X155214285Y-157476190D01*
X155214285Y-157380952D01*
X155452380Y-157428571D02*
X155404761Y-157333333D01*
X155309523Y-157238095D01*
X155119047Y-157190476D01*
X154785714Y-157190476D01*
X154595238Y-157238095D01*
X154500000Y-157333333D01*
X154452380Y-157428571D01*
X154452380Y-157619047D01*
X154500000Y-157714285D01*
X154595238Y-157809523D01*
X154785714Y-157857142D01*
X155119047Y-157857142D01*
X155309523Y-157809523D01*
X155404761Y-157714285D01*
X155452380Y-157619047D01*
X155452380Y-157428571D01*
X154452380Y-158190476D02*
X154452380Y-158809523D01*
X154833333Y-158476190D01*
X154833333Y-158619047D01*
X154880952Y-158714285D01*
X154928571Y-158761904D01*
X155023809Y-158809523D01*
X155261904Y-158809523D01*
X155357142Y-158761904D01*
X155404761Y-158714285D01*
X155452380Y-158619047D01*
X155452380Y-158333333D01*
X155404761Y-158238095D01*
X155357142Y-158190476D01*
X142547619Y-147404761D02*
X142500000Y-147309523D01*
X142404761Y-147214285D01*
X142261904Y-147071428D01*
X142214285Y-146976190D01*
X142214285Y-146880952D01*
X142452380Y-146928571D02*
X142404761Y-146833333D01*
X142309523Y-146738095D01*
X142119047Y-146690476D01*
X141785714Y-146690476D01*
X141595238Y-146738095D01*
X141500000Y-146833333D01*
X141452380Y-146928571D01*
X141452380Y-147119047D01*
X141500000Y-147214285D01*
X141595238Y-147309523D01*
X141785714Y-147357142D01*
X142119047Y-147357142D01*
X142309523Y-147309523D01*
X142404761Y-147214285D01*
X142452380Y-147119047D01*
X142452380Y-146928571D01*
X141785714Y-148214285D02*
X142452380Y-148214285D01*
X141404761Y-147976190D02*
X142119047Y-147738095D01*
X142119047Y-148357142D01*
X149047619Y-147404761D02*
X149000000Y-147309523D01*
X148904761Y-147214285D01*
X148761904Y-147071428D01*
X148714285Y-146976190D01*
X148714285Y-146880952D01*
X148952380Y-146928571D02*
X148904761Y-146833333D01*
X148809523Y-146738095D01*
X148619047Y-146690476D01*
X148285714Y-146690476D01*
X148095238Y-146738095D01*
X148000000Y-146833333D01*
X147952380Y-146928571D01*
X147952380Y-147119047D01*
X148000000Y-147214285D01*
X148095238Y-147309523D01*
X148285714Y-147357142D01*
X148619047Y-147357142D01*
X148809523Y-147309523D01*
X148904761Y-147214285D01*
X148952380Y-147119047D01*
X148952380Y-146928571D01*
X147952380Y-148261904D02*
X147952380Y-147785714D01*
X148428571Y-147738095D01*
X148380952Y-147785714D01*
X148333333Y-147880952D01*
X148333333Y-148119047D01*
X148380952Y-148214285D01*
X148428571Y-148261904D01*
X148523809Y-148309523D01*
X148761904Y-148309523D01*
X148857142Y-148261904D01*
X148904761Y-148214285D01*
X148952380Y-148119047D01*
X148952380Y-147880952D01*
X148904761Y-147785714D01*
X148857142Y-147738095D01*
X155547619Y-147404761D02*
X155500000Y-147309523D01*
X155404761Y-147214285D01*
X155261904Y-147071428D01*
X155214285Y-146976190D01*
X155214285Y-146880952D01*
X155452380Y-146928571D02*
X155404761Y-146833333D01*
X155309523Y-146738095D01*
X155119047Y-146690476D01*
X154785714Y-146690476D01*
X154595238Y-146738095D01*
X154500000Y-146833333D01*
X154452380Y-146928571D01*
X154452380Y-147119047D01*
X154500000Y-147214285D01*
X154595238Y-147309523D01*
X154785714Y-147357142D01*
X155119047Y-147357142D01*
X155309523Y-147309523D01*
X155404761Y-147214285D01*
X155452380Y-147119047D01*
X155452380Y-146928571D01*
X154452380Y-148214285D02*
X154452380Y-148023809D01*
X154500000Y-147928571D01*
X154547619Y-147880952D01*
X154690476Y-147785714D01*
X154880952Y-147738095D01*
X155261904Y-147738095D01*
X155357142Y-147785714D01*
X155404761Y-147833333D01*
X155452380Y-147928571D01*
X155452380Y-148119047D01*
X155404761Y-148214285D01*
X155357142Y-148261904D01*
X155261904Y-148309523D01*
X155023809Y-148309523D01*
X154928571Y-148261904D01*
X154880952Y-148214285D01*
X154833333Y-148119047D01*
X154833333Y-147928571D01*
X154880952Y-147833333D01*
X154928571Y-147785714D01*
X155023809Y-147738095D01*
X141202380Y-145583333D02*
X140726190Y-145250000D01*
X141202380Y-145011904D02*
X140202380Y-145011904D01*
X140202380Y-145392857D01*
X140250000Y-145488095D01*
X140297619Y-145535714D01*
X140392857Y-145583333D01*
X140535714Y-145583333D01*
X140630952Y-145535714D01*
X140678571Y-145488095D01*
X140726190Y-145392857D01*
X140726190Y-145011904D01*
X141202380Y-146535714D02*
X141202380Y-145964285D01*
X141202380Y-146250000D02*
X140202380Y-146250000D01*
X140345238Y-146154761D01*
X140440476Y-146059523D01*
X140488095Y-145964285D01*
X122666666Y-155452380D02*
X123000000Y-154976190D01*
X123238095Y-155452380D02*
X123238095Y-154452380D01*
X122857142Y-154452380D01*
X122761904Y-154500000D01*
X122714285Y-154547619D01*
X122666666Y-154642857D01*
X122666666Y-154785714D01*
X122714285Y-154880952D01*
X122761904Y-154928571D01*
X122857142Y-154976190D01*
X123238095Y-154976190D01*
X122285714Y-154547619D02*
X122238095Y-154500000D01*
X122142857Y-154452380D01*
X121904761Y-154452380D01*
X121809523Y-154500000D01*
X121761904Y-154547619D01*
X121714285Y-154642857D01*
X121714285Y-154738095D01*
X121761904Y-154880952D01*
X122333333Y-155452380D01*
X121714285Y-155452380D01*
X126988095Y-153702380D02*
X126988095Y-152702380D01*
X126750000Y-152702380D01*
X126607142Y-152750000D01*
X126511904Y-152845238D01*
X126464285Y-152940476D01*
X126416666Y-153130952D01*
X126416666Y-153273809D01*
X126464285Y-153464285D01*
X126511904Y-153559523D01*
X126607142Y-153654761D01*
X126750000Y-153702380D01*
X126988095Y-153702380D01*
X125511904Y-152702380D02*
X125988095Y-152702380D01*
X126035714Y-153178571D01*
X125988095Y-153130952D01*
X125892857Y-153083333D01*
X125654761Y-153083333D01*
X125559523Y-153130952D01*
X125511904Y-153178571D01*
X125464285Y-153273809D01*
X125464285Y-153511904D01*
X125511904Y-153607142D01*
X125559523Y-153654761D01*
X125654761Y-153702380D01*
X125892857Y-153702380D01*
X125988095Y-153654761D01*
X126035714Y-153607142D01*
D13*
X142200000Y-143000000D02*
X138350000Y-143000000D01*
X142200000Y-141000000D02*
X142200000Y-143000000D01*
X142200000Y-141000000D02*
X138350000Y-141000000D01*
X122980000Y-154490000D02*
X120320000Y-154490000D01*
X120320000Y-146810000D02*
X120320000Y-154490000D01*
X120320000Y-144210000D02*
X120320000Y-145540000D01*
X122980000Y-146810000D02*
X120320000Y-146810000D01*
X121650000Y-144210000D02*
X120320000Y-144210000D01*
X122980000Y-146810000D02*
X122980000Y-154490000D01*
X120210000Y-158240000D02*
X117550000Y-158240000D01*
X111550000Y-161670000D02*
X111550000Y-162430000D01*
X120540000Y-156590000D02*
X120210000Y-156590000D01*
X120210000Y-155640000D02*
X120210000Y-163380000D01*
X117550000Y-161670000D02*
X111550000Y-161670000D01*
X120607071Y-159130000D02*
X120210000Y-159130000D01*
X111550000Y-159890000D02*
X117550000Y-159890000D01*
X117550000Y-156770000D02*
X111550000Y-156770000D01*
X117550000Y-157130000D02*
X111550000Y-157130000D01*
X117550000Y-155640000D02*
X120210000Y-155640000D01*
X117550000Y-157010000D02*
X111550000Y-157010000D01*
X120607071Y-161670000D02*
X120210000Y-161670000D01*
X117550000Y-163380000D02*
X117550000Y-155640000D01*
X111550000Y-159130000D02*
X111550000Y-159890000D01*
X117550000Y-156650000D02*
X111550000Y-156650000D01*
X122920000Y-156970000D02*
X122920000Y-155700000D01*
X111550000Y-162430000D02*
X117550000Y-162430000D01*
X120607071Y-159890000D02*
X120210000Y-159890000D01*
X120210000Y-163380000D02*
X117550000Y-163380000D01*
X117550000Y-159130000D02*
X111550000Y-159130000D01*
X117550000Y-156890000D02*
X111550000Y-156890000D01*
X111550000Y-157350000D02*
X117550000Y-157350000D01*
X111550000Y-156590000D02*
X111550000Y-157350000D01*
X122920000Y-155700000D02*
X121650000Y-155700000D01*
X120210000Y-160780000D02*
X117550000Y-160780000D01*
X117550000Y-157250000D02*
X111550000Y-157250000D01*
X120607071Y-162430000D02*
X120210000Y-162430000D01*
X120540000Y-157350000D02*
X120210000Y-157350000D01*
X117550000Y-156590000D02*
X111550000Y-156590000D01*
X120320000Y-143060000D02*
X121650000Y-143060000D01*
X122920000Y-143060000D02*
X135680000Y-143060000D01*
X122920000Y-140400000D02*
X122920000Y-143060000D01*
X120320000Y-141730000D02*
X120320000Y-143060000D01*
X122920000Y-140400000D02*
X135680000Y-140400000D01*
X135680000Y-140400000D02*
X135680000Y-143060000D01*
X127123000Y-146702000D02*
X127123000Y-144702000D01*
X124323000Y-144702000D02*
X124323000Y-146702000D01*
X124323000Y-146702000D02*
X127123000Y-146702000D01*
X127123000Y-144702000D02*
X124323000Y-144702000D01*
X135168000Y-154088000D02*
X133168000Y-154088000D01*
X133168000Y-154088000D02*
X133168000Y-156888000D01*
X135168000Y-156888000D02*
X135168000Y-154088000D01*
X133168000Y-156888000D02*
X135168000Y-156888000D01*
X128025000Y-154088000D02*
X128025000Y-156888000D01*
X128025000Y-156888000D02*
X130025000Y-156888000D01*
X130025000Y-154088000D02*
X128025000Y-154088000D01*
X130025000Y-156888000D02*
X130025000Y-154088000D01*
X136950000Y-145700000D02*
X136950000Y-146300000D01*
X137650000Y-147000000D02*
X139050000Y-147000000D01*
X139050000Y-145000000D02*
X137650000Y-145000000D01*
X139750000Y-146300000D02*
X139750000Y-145700000D01*
X137650000Y-145000000D02*
G75*
G03*
X136950000Y-145700000I-1J-699999D01*
G01*
X136950000Y-146300000D02*
G75*
G03*
X137650000Y-147000000I699999J-1D01*
G01*
X139750000Y-145700000D02*
G75*
G03*
X139050000Y-145000000I-699999J1D01*
G01*
X139050000Y-147000000D02*
G75*
G03*
X139750000Y-146300000I1J699999D01*
G01*
X127998000Y-146092000D02*
X127998000Y-146567000D01*
X128473000Y-150312000D02*
X127998000Y-150312000D01*
X128473000Y-146092000D02*
X127998000Y-146092000D01*
X132218000Y-146092000D02*
X132218000Y-146567000D01*
X131743000Y-146092000D02*
X132218000Y-146092000D01*
X131743000Y-150312000D02*
X132218000Y-150312000D01*
X132218000Y-150312000D02*
X132218000Y-149837000D01*
D14*
X145800000Y-159300000D02*
X145800000Y-156150000D01*
X142700000Y-159300000D02*
X142700000Y-156200000D01*
X143150000Y-155750000D02*
X143150000Y-155750000D01*
X143050000Y-155750000D02*
X143050000Y-155750000D01*
X143150000Y-155750000D02*
G75*
G03*
X143050000Y-155750000I-50000J0D01*
G01*
X143050000Y-155750000D02*
G75*
G03*
X143150000Y-155750000I50000J0D01*
G01*
X152300000Y-159300000D02*
X152300000Y-156150000D01*
X149200000Y-159300000D02*
X149200000Y-156200000D01*
X149550000Y-155750000D02*
X149550000Y-155750000D01*
X149650000Y-155750000D02*
X149650000Y-155750000D01*
X149650000Y-155750000D02*
G75*
G03*
X149550000Y-155750000I-50000J0D01*
G01*
X149550000Y-155750000D02*
G75*
G03*
X149650000Y-155750000I50000J0D01*
G01*
X156050000Y-155750000D02*
X156050000Y-155750000D01*
X155700000Y-159300000D02*
X155700000Y-156200000D01*
X156150000Y-155750000D02*
X156150000Y-155750000D01*
X158800000Y-159300000D02*
X158800000Y-156150000D01*
X156050000Y-155750000D02*
G75*
G03*
X156150000Y-155750000I50000J0D01*
G01*
X156150000Y-155750000D02*
G75*
G03*
X156050000Y-155750000I-50000J0D01*
G01*
X142700000Y-148975000D02*
X142700000Y-145875000D01*
X143050000Y-145425000D02*
X143050000Y-145425000D01*
X143150000Y-145425000D02*
X143150000Y-145425000D01*
X145800000Y-148975000D02*
X145800000Y-145825000D01*
X143150000Y-145425000D02*
G75*
G03*
X143050000Y-145425000I-50000J0D01*
G01*
X143050000Y-145425000D02*
G75*
G03*
X143150000Y-145425000I50000J0D01*
G01*
X149650000Y-145410000D02*
X149650000Y-145410000D01*
X152300000Y-148960000D02*
X152300000Y-145810000D01*
X149200000Y-148960000D02*
X149200000Y-145860000D01*
X149550000Y-145410000D02*
X149550000Y-145410000D01*
X149650000Y-145410000D02*
G75*
G03*
X149550000Y-145410000I-50000J0D01*
G01*
X149550000Y-145410000D02*
G75*
G03*
X149650000Y-145410000I50000J0D01*
G01*
X155700000Y-148960000D02*
X155700000Y-145860000D01*
X156150000Y-145410000D02*
X156150000Y-145410000D01*
X156050000Y-145410000D02*
X156050000Y-145410000D01*
X158800000Y-148960000D02*
X158800000Y-145810000D01*
X156050000Y-145410000D02*
G75*
G03*
X156150000Y-145410000I50000J0D01*
G01*
X156150000Y-145410000D02*
G75*
G03*
X156050000Y-145410000I-50000J0D01*
G01*
D13*
X139875279Y-143490000D02*
X139549721Y-143490000D01*
X139875279Y-144510000D02*
X139549721Y-144510000D01*
X132600000Y-154088000D02*
X130600000Y-154088000D01*
X130600000Y-156888000D02*
X132600000Y-156888000D01*
X132600000Y-156888000D02*
X132600000Y-154088000D01*
X130600000Y-154088000D02*
X130600000Y-156888000D01*
X124622500Y-154750242D02*
X124622500Y-155224758D01*
X123577500Y-154750242D02*
X123577500Y-155224758D01*
X127210000Y-153815000D02*
X127210000Y-156500000D01*
X125290000Y-153815000D02*
X127210000Y-153815000D01*
X125290000Y-156500000D02*
X125290000Y-153815000D01*
%LPC*%
D15*
X126948000Y-147732000D03*
X126948000Y-148702000D03*
D16*
X127448000Y-151702000D03*
X128418000Y-151702000D03*
D17*
X137000000Y-142485000D03*
X137000000Y-141515000D03*
D18*
X141400000Y-142000000D03*
X138600000Y-142000000D03*
D19*
X121650000Y-145540000D03*
D20*
X121650000Y-148080000D03*
X121650000Y-150620000D03*
X121650000Y-153160000D03*
D19*
X121650000Y-156970000D03*
D20*
X121650000Y-159510000D03*
X121650000Y-162050000D03*
D21*
X121650000Y-141730000D03*
D20*
X124190000Y-141730000D03*
X126730000Y-141730000D03*
X129270000Y-141730000D03*
X131810000Y-141730000D03*
X134350000Y-141730000D03*
D22*
X124998000Y-145702000D03*
D23*
X126448000Y-145702000D03*
D24*
X134168000Y-156213000D03*
D25*
X134168000Y-154763000D03*
D24*
X129025000Y-156213000D03*
D25*
X129025000Y-154763000D03*
D26*
X139000000Y-146000000D03*
D27*
X137700000Y-146000000D03*
D28*
X128170500Y-149452000D03*
X128170500Y-148952000D03*
X128170500Y-148452000D03*
X128170500Y-147952000D03*
X128170500Y-147452000D03*
X128170500Y-146952000D03*
D29*
X128858000Y-146264500D03*
X129358000Y-146264500D03*
X129858000Y-146264500D03*
X130358000Y-146264500D03*
X130858000Y-146264500D03*
X131358000Y-146264500D03*
D28*
X132045500Y-146952000D03*
X132045500Y-147452000D03*
X132045500Y-147952000D03*
X132045500Y-148452000D03*
X132045500Y-148952000D03*
X132045500Y-149452000D03*
D29*
X131358000Y-150139500D03*
X130858000Y-150139500D03*
X130358000Y-150139500D03*
X129858000Y-150139500D03*
X129358000Y-150139500D03*
X128858000Y-150139500D03*
D30*
X130108000Y-148202000D03*
D31*
X144575000Y-156175000D03*
X143275000Y-156175000D03*
X143925000Y-156175000D03*
X145225000Y-156175000D03*
D32*
X144250000Y-158075000D03*
D31*
X145225000Y-159325000D03*
X144575000Y-159325000D03*
X143925000Y-159325000D03*
X143275000Y-159325000D03*
X151075000Y-156175000D03*
X150425000Y-156175000D03*
X149775000Y-156175000D03*
X151725000Y-156175000D03*
D32*
X150750000Y-158075000D03*
D31*
X151075000Y-159325000D03*
X150425000Y-159325000D03*
X149775000Y-159325000D03*
X151725000Y-159325000D03*
X157575000Y-156175000D03*
X156925000Y-156175000D03*
X156275000Y-156175000D03*
X158225000Y-156175000D03*
X158225000Y-159325000D03*
X156925000Y-159325000D03*
D32*
X157250000Y-158075000D03*
D31*
X157575000Y-159325000D03*
X156275000Y-159325000D03*
X144575000Y-145850000D03*
X143275000Y-145850000D03*
X143925000Y-145850000D03*
X145225000Y-145850000D03*
D32*
X144250000Y-147750000D03*
D31*
X143275000Y-149000000D03*
X144575000Y-149000000D03*
X145225000Y-149000000D03*
X143925000Y-149000000D03*
X151075000Y-145835000D03*
X150425000Y-145835000D03*
X149775000Y-145835000D03*
X151725000Y-145835000D03*
X151725000Y-148985000D03*
X151075000Y-148985000D03*
X149775000Y-148985000D03*
X150425000Y-148985000D03*
D32*
X150750000Y-147735000D03*
D31*
X156275000Y-145835000D03*
X157575000Y-145835000D03*
X156925000Y-145835000D03*
X158225000Y-145835000D03*
D32*
X157250000Y-147735000D03*
D31*
X156275000Y-148985000D03*
X157575000Y-148985000D03*
X156925000Y-148985000D03*
X158225000Y-148985000D03*
D33*
X140500000Y-144000000D03*
X138925000Y-144000000D03*
D24*
X131600000Y-156213000D03*
D25*
X131600000Y-154763000D03*
D34*
X124100000Y-154162500D03*
X124100000Y-155812500D03*
D35*
X126250000Y-154562500D03*
X126250000Y-156437500D03*
G36*
X159735648Y-140264352D02*
G01*
X159750000Y-140299000D01*
X159750000Y-145951000D01*
X159735648Y-145985648D01*
X159701000Y-146000000D01*
X159220296Y-146000000D01*
X159185648Y-145985648D01*
X158606893Y-145406893D01*
X158590253Y-145400000D01*
X157909747Y-145400000D01*
X157902855Y-145402855D01*
X157900000Y-145409747D01*
X157900000Y-145951000D01*
X157885648Y-145985648D01*
X157851000Y-146000000D01*
X152820296Y-146000000D01*
X152785648Y-145985648D01*
X152206893Y-145406893D01*
X152190253Y-145400000D01*
X151409747Y-145400000D01*
X151402855Y-145402855D01*
X151400000Y-145409747D01*
X151400000Y-145951000D01*
X151385648Y-145985648D01*
X151351000Y-146000000D01*
X146320296Y-146000000D01*
X146285648Y-145985648D01*
X145806893Y-145506893D01*
X145790253Y-145500000D01*
X144909747Y-145500000D01*
X144902855Y-145502855D01*
X144900000Y-145509747D01*
X144900000Y-145951000D01*
X144885648Y-145985648D01*
X144851000Y-146000000D01*
X142799000Y-146000000D01*
X142764352Y-145985648D01*
X142750000Y-145951000D01*
X142750000Y-140299000D01*
X142764352Y-140264352D01*
X142799000Y-140250000D01*
X159701000Y-140250000D01*
X159735648Y-140264352D01*
G37*
G36*
X159735648Y-159014352D02*
G01*
X159750000Y-159049000D01*
X159750000Y-164701000D01*
X159735648Y-164735648D01*
X159701000Y-164750000D01*
X142799000Y-164750000D01*
X142764352Y-164735648D01*
X142750000Y-164701000D01*
X142750000Y-159049000D01*
X142764352Y-159014352D01*
X142799000Y-159000000D01*
X159701000Y-159000000D01*
X159735648Y-159014352D01*
G37*
G36*
X158735648Y-148764352D02*
G01*
X158750000Y-148799000D01*
X158750000Y-155701000D01*
X158735648Y-155735648D01*
X158701000Y-155750000D01*
X157759747Y-155750000D01*
X157752855Y-155752855D01*
X157750000Y-155759747D01*
X157750000Y-156451000D01*
X157735648Y-156485648D01*
X157701000Y-156500000D01*
X155799000Y-156500000D01*
X155764352Y-156485648D01*
X155750000Y-156451000D01*
X155750000Y-148799000D01*
X155764352Y-148764352D01*
X155799000Y-148750000D01*
X158701000Y-148750000D01*
X158735648Y-148764352D01*
G37*
G36*
X152235648Y-148764352D02*
G01*
X152250000Y-148799000D01*
X152250000Y-155701000D01*
X152235648Y-155735648D01*
X152201000Y-155750000D01*
X151259747Y-155750000D01*
X151252855Y-155752855D01*
X151250000Y-155759747D01*
X151250000Y-156451000D01*
X151235648Y-156485648D01*
X151201000Y-156500000D01*
X149299000Y-156500000D01*
X149264352Y-156485648D01*
X149250000Y-156451000D01*
X149250000Y-148799000D01*
X149264352Y-148764352D01*
X149299000Y-148750000D01*
X152201000Y-148750000D01*
X152235648Y-148764352D01*
G37*
G36*
X145735648Y-148764352D02*
G01*
X145750000Y-148799000D01*
X145750000Y-155701000D01*
X145735648Y-155735648D01*
X145701000Y-155750000D01*
X144759747Y-155750000D01*
X144752855Y-155752855D01*
X144750000Y-155759747D01*
X144750000Y-156451000D01*
X144735648Y-156485648D01*
X144701000Y-156500000D01*
X142799000Y-156500000D01*
X142764352Y-156485648D01*
X142750000Y-156451000D01*
X142750000Y-148799000D01*
X142764352Y-148764352D01*
X142799000Y-148750000D01*
X145701000Y-148750000D01*
X145735648Y-148764352D01*
G37*
M02*
