%FSLAX45Y45*%
G04 Gerber Fmt 4.5, Leading zero omitted, Abs format (unit mm)*
G04 Created by KiCad (PCBNEW 6.0.1-79c1e3a40b~116~ubuntu21.04.1) date 2022-02-15 17:28:52*
%MOMM*%
%LPD*%
G01*
G04 APERTURE LIST*
%TA.AperFunction,Profile*%
%ADD10C,0.050000*%
%TD*%
%ADD11C,0.200000*%
%ADD12C,0.040000*%
%ADD13C,0.100000*%
G04 APERTURE END LIST*
D10*
X16000000Y-14000000D02*
X12000000Y-14000000D01*
X16000000Y-16500000D02*
X16000000Y-14000000D01*
X12000000Y-14000000D02*
X12000000Y-16500000D01*
X12000000Y-16500000D02*
X16000000Y-16500000D01*
D11*
D12*
X12312500Y-14852500D02*
X12352500Y-14892500D01*
X12352500Y-14852500D02*
X12312500Y-14892500D01*
X12385000Y-14415000D02*
X12425000Y-14455000D01*
X12425000Y-14415000D02*
X12385000Y-14455000D01*
X12390000Y-15396250D02*
X12430000Y-15436250D01*
X12430000Y-15396250D02*
X12390000Y-15436250D01*
X12400000Y-15160000D02*
X12440000Y-15200000D01*
X12440000Y-15160000D02*
X12400000Y-15200000D01*
X12405000Y-16330000D02*
X12445000Y-16370000D01*
X12445000Y-16330000D02*
X12405000Y-16370000D01*
X12670000Y-16160000D02*
X12710000Y-16200000D01*
X12710000Y-16160000D02*
X12670000Y-16200000D01*
X12740008Y-14544992D02*
X12780008Y-14584992D01*
X12780008Y-14544992D02*
X12740008Y-14584992D01*
X12761931Y-14361994D02*
X12801931Y-14401994D01*
X12801931Y-14361994D02*
X12761931Y-14401994D01*
X12832918Y-14432426D02*
X12872918Y-14472426D01*
X12872918Y-14432426D02*
X12832918Y-14472426D01*
X12882500Y-15601300D02*
X12922500Y-15641300D01*
X12922500Y-15601300D02*
X12882500Y-15641300D01*
X12929043Y-14459995D02*
X12969043Y-14499995D01*
X12969043Y-14459995D02*
X12929043Y-14499995D01*
X12961474Y-15112986D02*
X13001474Y-15152986D01*
X13001474Y-15112986D02*
X12961474Y-15152986D01*
X12980000Y-16090000D02*
X13020000Y-16130000D01*
X13020000Y-16090000D02*
X12980000Y-16130000D01*
X13105000Y-15105000D02*
X13145000Y-15145000D01*
X13145000Y-15105000D02*
X13105000Y-15145000D01*
X13230000Y-14557550D02*
X13270000Y-14597550D01*
X13270000Y-14557550D02*
X13230000Y-14597550D01*
X13230000Y-16370000D02*
X13270000Y-16410000D01*
X13270000Y-16370000D02*
X13230000Y-16410000D01*
X13320092Y-15730000D02*
X13360092Y-15770000D01*
X13360092Y-15730000D02*
X13320092Y-15770000D01*
X13330000Y-14530000D02*
X13370000Y-14570000D01*
X13370000Y-14530000D02*
X13330000Y-14570000D01*
X13330000Y-14629950D02*
X13370000Y-14669950D01*
X13370000Y-14629950D02*
X13330000Y-14669950D01*
X13355000Y-14819803D02*
X13395000Y-14859803D01*
X13395000Y-14819803D02*
X13355000Y-14859803D01*
X13355000Y-15105000D02*
X13395000Y-15145000D01*
X13395000Y-15105000D02*
X13355000Y-15145000D01*
X13530000Y-14355000D02*
X13570000Y-14395000D01*
X13570000Y-14355000D02*
X13530000Y-14395000D01*
X13545000Y-14758500D02*
X13585000Y-14798500D01*
X13585000Y-14758500D02*
X13545000Y-14798500D01*
X13630000Y-16280000D02*
X13670000Y-16320000D01*
X13670000Y-16280000D02*
X13630000Y-16320000D01*
X13705000Y-16080000D02*
X13745000Y-16120000D01*
X13745000Y-16080000D02*
X13705000Y-16120000D01*
X13732500Y-15982500D02*
X13772500Y-16022500D01*
X13772500Y-15982500D02*
X13732500Y-16022500D01*
X13755000Y-16280000D02*
X13795000Y-16320000D01*
X13795000Y-16280000D02*
X13755000Y-16320000D01*
X13780000Y-14958750D02*
X13820000Y-14998750D01*
X13820000Y-14958750D02*
X13780000Y-14998750D01*
X13780000Y-15458750D02*
X13820000Y-15498750D01*
X13820000Y-15458750D02*
X13780000Y-15498750D01*
X14030000Y-16055000D02*
X14070000Y-16095000D01*
X14070000Y-16055000D02*
X14030000Y-16095000D01*
X14080000Y-16220000D02*
X14120000Y-16260000D01*
X14120000Y-16220000D02*
X14080000Y-16260000D01*
X14117500Y-15410000D02*
X14157500Y-15450000D01*
X14157500Y-15410000D02*
X14117500Y-15450000D01*
X14117500Y-15510000D02*
X14157500Y-15550000D01*
X14157500Y-15510000D02*
X14117500Y-15550000D01*
X14186265Y-16223735D02*
X14226265Y-16263735D01*
X14226265Y-16223735D02*
X14186265Y-16263735D01*
X14190000Y-15337500D02*
X14230000Y-15377500D01*
X14230000Y-15337500D02*
X14190000Y-15377500D01*
X14410000Y-15410000D02*
X14450000Y-15450000D01*
X14450000Y-15410000D02*
X14410000Y-15450000D01*
X14630000Y-15555000D02*
X14670000Y-15595000D01*
X14670000Y-15555000D02*
X14630000Y-15595000D01*
X14730000Y-15330000D02*
X14770000Y-15370000D01*
X14770000Y-15330000D02*
X14730000Y-15370000D01*
X14730000Y-15550000D02*
X14770000Y-15590000D01*
X14770000Y-15550000D02*
X14730000Y-15590000D01*
X15060000Y-15410000D02*
X15100000Y-15450000D01*
X15100000Y-15410000D02*
X15060000Y-15450000D01*
X15070000Y-14440000D02*
X15110000Y-14480000D01*
X15110000Y-14440000D02*
X15070000Y-14480000D01*
X15280000Y-15555000D02*
X15320000Y-15595000D01*
X15320000Y-15555000D02*
X15280000Y-15595000D01*
X15368500Y-14275000D02*
X15408500Y-14315000D01*
X15408500Y-14275000D02*
X15368500Y-14315000D01*
X15380000Y-15550000D02*
X15420000Y-15590000D01*
X15420000Y-15550000D02*
X15380000Y-15590000D01*
X15710000Y-15400000D02*
X15750000Y-15440000D01*
X15750000Y-15400000D02*
X15710000Y-15440000D01*
X15910000Y-14650000D02*
X15950000Y-14690000D01*
X15950000Y-14650000D02*
X15910000Y-14690000D01*
X15917500Y-15530000D02*
X15957500Y-15570000D01*
X15957500Y-15530000D02*
X15917500Y-15570000D01*
D13*
X12215000Y-14173000D02*
G75*
G03*
X12215000Y-14173000I-50000J0D01*
G01*
X12215000Y-14554000D02*
G75*
G03*
X12215000Y-14554000I-50000J0D01*
G01*
X12215000Y-14808000D02*
G75*
G03*
X12215000Y-14808000I-50000J0D01*
G01*
X12215000Y-15062000D02*
G75*
G03*
X12215000Y-15062000I-50000J0D01*
G01*
X12215000Y-15316000D02*
G75*
G03*
X12215000Y-15316000I-50000J0D01*
G01*
X12215000Y-15697000D02*
G75*
G03*
X12215000Y-15697000I-50000J0D01*
G01*
X12215000Y-15951000D02*
G75*
G03*
X12215000Y-15951000I-50000J0D01*
G01*
X12215000Y-16205000D02*
G75*
G03*
X12215000Y-16205000I-50000J0D01*
G01*
X12469000Y-14173000D02*
G75*
G03*
X12469000Y-14173000I-50000J0D01*
G01*
X12723000Y-14173000D02*
G75*
G03*
X12723000Y-14173000I-50000J0D01*
G01*
X12977000Y-14173000D02*
G75*
G03*
X12977000Y-14173000I-50000J0D01*
G01*
X13231000Y-14173000D02*
G75*
G03*
X13231000Y-14173000I-50000J0D01*
G01*
X13485000Y-14173000D02*
G75*
G03*
X13485000Y-14173000I-50000J0D01*
G01*
D11*
X12255119Y-16812976D02*
X12255119Y-16612976D01*
X12302738Y-16612976D01*
X12331309Y-16622500D01*
X12350357Y-16641548D01*
X12359881Y-16660595D01*
X12369405Y-16698690D01*
X12369405Y-16727262D01*
X12359881Y-16765357D01*
X12350357Y-16784405D01*
X12331309Y-16803452D01*
X12302738Y-16812976D01*
X12255119Y-16812976D01*
X12455119Y-16812976D02*
X12455119Y-16679643D01*
X12455119Y-16717738D02*
X12464643Y-16698690D01*
X12474167Y-16689167D01*
X12493214Y-16679643D01*
X12512262Y-16679643D01*
X12578928Y-16812976D02*
X12578928Y-16679643D01*
X12578928Y-16612976D02*
X12569405Y-16622500D01*
X12578928Y-16632024D01*
X12588452Y-16622500D01*
X12578928Y-16612976D01*
X12578928Y-16632024D01*
X12702738Y-16812976D02*
X12683690Y-16803452D01*
X12674167Y-16784405D01*
X12674167Y-16612976D01*
X12807500Y-16812976D02*
X12788452Y-16803452D01*
X12778928Y-16784405D01*
X12778928Y-16612976D01*
X13036071Y-16812976D02*
X13036071Y-16612976D01*
X13102738Y-16755833D01*
X13169405Y-16612976D01*
X13169405Y-16812976D01*
X13350357Y-16812976D02*
X13350357Y-16708214D01*
X13340833Y-16689167D01*
X13321786Y-16679643D01*
X13283690Y-16679643D01*
X13264643Y-16689167D01*
X13350357Y-16803452D02*
X13331309Y-16812976D01*
X13283690Y-16812976D01*
X13264643Y-16803452D01*
X13255119Y-16784405D01*
X13255119Y-16765357D01*
X13264643Y-16746309D01*
X13283690Y-16736786D01*
X13331309Y-16736786D01*
X13350357Y-16727262D01*
X13445595Y-16679643D02*
X13445595Y-16879643D01*
X13445595Y-16689167D02*
X13464643Y-16679643D01*
X13502738Y-16679643D01*
X13521786Y-16689167D01*
X13531309Y-16698690D01*
X13540833Y-16717738D01*
X13540833Y-16774881D01*
X13531309Y-16793929D01*
X13521786Y-16803452D01*
X13502738Y-16812976D01*
X13464643Y-16812976D01*
X13445595Y-16803452D01*
X13626548Y-16793929D02*
X13636071Y-16803452D01*
X13626548Y-16812976D01*
X13617024Y-16803452D01*
X13626548Y-16793929D01*
X13626548Y-16812976D01*
X13626548Y-16689167D02*
X13636071Y-16698690D01*
X13626548Y-16708214D01*
X13617024Y-16698690D01*
X13626548Y-16689167D01*
X13626548Y-16708214D01*
D12*
X11957500Y-17122500D02*
X11997500Y-17162500D01*
X11997500Y-17122500D02*
X11957500Y-17162500D01*
D11*
X12293214Y-17032976D02*
X12312262Y-17032976D01*
X12331309Y-17042500D01*
X12340833Y-17052024D01*
X12350357Y-17071071D01*
X12359881Y-17109167D01*
X12359881Y-17156786D01*
X12350357Y-17194881D01*
X12340833Y-17213929D01*
X12331309Y-17223452D01*
X12312262Y-17232976D01*
X12293214Y-17232976D01*
X12274167Y-17223452D01*
X12264643Y-17213929D01*
X12255119Y-17194881D01*
X12245595Y-17156786D01*
X12245595Y-17109167D01*
X12255119Y-17071071D01*
X12264643Y-17052024D01*
X12274167Y-17042500D01*
X12293214Y-17032976D01*
X12445595Y-17213929D02*
X12455119Y-17223452D01*
X12445595Y-17232976D01*
X12436071Y-17223452D01*
X12445595Y-17213929D01*
X12445595Y-17232976D01*
X12626548Y-17099643D02*
X12626548Y-17232976D01*
X12578928Y-17023452D02*
X12531309Y-17166310D01*
X12655119Y-17166310D01*
X12769405Y-17032976D02*
X12788452Y-17032976D01*
X12807500Y-17042500D01*
X12817024Y-17052024D01*
X12826548Y-17071071D01*
X12836071Y-17109167D01*
X12836071Y-17156786D01*
X12826548Y-17194881D01*
X12817024Y-17213929D01*
X12807500Y-17223452D01*
X12788452Y-17232976D01*
X12769405Y-17232976D01*
X12750357Y-17223452D01*
X12740833Y-17213929D01*
X12731309Y-17194881D01*
X12721786Y-17156786D01*
X12721786Y-17109167D01*
X12731309Y-17071071D01*
X12740833Y-17052024D01*
X12750357Y-17042500D01*
X12769405Y-17032976D01*
X12959881Y-17032976D02*
X12978928Y-17032976D01*
X12997976Y-17042500D01*
X13007500Y-17052024D01*
X13017024Y-17071071D01*
X13026548Y-17109167D01*
X13026548Y-17156786D01*
X13017024Y-17194881D01*
X13007500Y-17213929D01*
X12997976Y-17223452D01*
X12978928Y-17232976D01*
X12959881Y-17232976D01*
X12940833Y-17223452D01*
X12931309Y-17213929D01*
X12921786Y-17194881D01*
X12912262Y-17156786D01*
X12912262Y-17109167D01*
X12921786Y-17071071D01*
X12931309Y-17052024D01*
X12940833Y-17042500D01*
X12959881Y-17032976D01*
X13112262Y-17232976D02*
X13112262Y-17099643D01*
X13112262Y-17118690D02*
X13121786Y-17109167D01*
X13140833Y-17099643D01*
X13169405Y-17099643D01*
X13188452Y-17109167D01*
X13197976Y-17128214D01*
X13197976Y-17232976D01*
X13197976Y-17128214D02*
X13207500Y-17109167D01*
X13226548Y-17099643D01*
X13255119Y-17099643D01*
X13274167Y-17109167D01*
X13283690Y-17128214D01*
X13283690Y-17232976D01*
X13378928Y-17232976D02*
X13378928Y-17099643D01*
X13378928Y-17118690D02*
X13388452Y-17109167D01*
X13407500Y-17099643D01*
X13436071Y-17099643D01*
X13455119Y-17109167D01*
X13464643Y-17128214D01*
X13464643Y-17232976D01*
X13464643Y-17128214D02*
X13474167Y-17109167D01*
X13493214Y-17099643D01*
X13521786Y-17099643D01*
X13540833Y-17109167D01*
X13550357Y-17128214D01*
X13550357Y-17232976D01*
X13940833Y-17023452D02*
X13769405Y-17280595D01*
X14197976Y-17032976D02*
X14217024Y-17032976D01*
X14236071Y-17042500D01*
X14245595Y-17052024D01*
X14255119Y-17071071D01*
X14264643Y-17109167D01*
X14264643Y-17156786D01*
X14255119Y-17194881D01*
X14245595Y-17213929D01*
X14236071Y-17223452D01*
X14217024Y-17232976D01*
X14197976Y-17232976D01*
X14178928Y-17223452D01*
X14169405Y-17213929D01*
X14159881Y-17194881D01*
X14150357Y-17156786D01*
X14150357Y-17109167D01*
X14159881Y-17071071D01*
X14169405Y-17052024D01*
X14178928Y-17042500D01*
X14197976Y-17032976D01*
X14350357Y-17213929D02*
X14359881Y-17223452D01*
X14350357Y-17232976D01*
X14340833Y-17223452D01*
X14350357Y-17213929D01*
X14350357Y-17232976D01*
X14483690Y-17032976D02*
X14502738Y-17032976D01*
X14521786Y-17042500D01*
X14531309Y-17052024D01*
X14540833Y-17071071D01*
X14550357Y-17109167D01*
X14550357Y-17156786D01*
X14540833Y-17194881D01*
X14531309Y-17213929D01*
X14521786Y-17223452D01*
X14502738Y-17232976D01*
X14483690Y-17232976D01*
X14464643Y-17223452D01*
X14455119Y-17213929D01*
X14445595Y-17194881D01*
X14436071Y-17156786D01*
X14436071Y-17109167D01*
X14445595Y-17071071D01*
X14455119Y-17052024D01*
X14464643Y-17042500D01*
X14483690Y-17032976D01*
X14740833Y-17232976D02*
X14626548Y-17232976D01*
X14683690Y-17232976D02*
X14683690Y-17032976D01*
X14664643Y-17061548D01*
X14645595Y-17080595D01*
X14626548Y-17090119D01*
X14921786Y-17032976D02*
X14826548Y-17032976D01*
X14817024Y-17128214D01*
X14826548Y-17118690D01*
X14845595Y-17109167D01*
X14893214Y-17109167D01*
X14912262Y-17118690D01*
X14921786Y-17128214D01*
X14931309Y-17147262D01*
X14931309Y-17194881D01*
X14921786Y-17213929D01*
X14912262Y-17223452D01*
X14893214Y-17232976D01*
X14845595Y-17232976D01*
X14826548Y-17223452D01*
X14817024Y-17213929D01*
X14997976Y-17032976D02*
X15131309Y-17032976D01*
X15045595Y-17232976D01*
X15197976Y-17032976D02*
X15197976Y-17071071D01*
X15274167Y-17032976D02*
X15274167Y-17071071D01*
X15569405Y-17309167D02*
X15559881Y-17299643D01*
X15540833Y-17271071D01*
X15531309Y-17252024D01*
X15521786Y-17223452D01*
X15512262Y-17175833D01*
X15512262Y-17137738D01*
X15521786Y-17090119D01*
X15531309Y-17061548D01*
X15540833Y-17042500D01*
X15559881Y-17013929D01*
X15569405Y-17004405D01*
X15731309Y-17099643D02*
X15731309Y-17232976D01*
X15683690Y-17023452D02*
X15636071Y-17166310D01*
X15759881Y-17166310D01*
X15817024Y-17032976D02*
X15950357Y-17032976D01*
X15864643Y-17232976D01*
X16178928Y-17232976D02*
X16178928Y-17032976D01*
X16264643Y-17232976D02*
X16264643Y-17128214D01*
X16255119Y-17109167D01*
X16236071Y-17099643D01*
X16207500Y-17099643D01*
X16188452Y-17109167D01*
X16178928Y-17118690D01*
X16388452Y-17232976D02*
X16369405Y-17223452D01*
X16359881Y-17213929D01*
X16350357Y-17194881D01*
X16350357Y-17137738D01*
X16359881Y-17118690D01*
X16369405Y-17109167D01*
X16388452Y-17099643D01*
X16417024Y-17099643D01*
X16436071Y-17109167D01*
X16445595Y-17118690D01*
X16455119Y-17137738D01*
X16455119Y-17194881D01*
X16445595Y-17213929D01*
X16436071Y-17223452D01*
X16417024Y-17232976D01*
X16388452Y-17232976D01*
X16569405Y-17232976D02*
X16550357Y-17223452D01*
X16540833Y-17204405D01*
X16540833Y-17032976D01*
X16721786Y-17223452D02*
X16702738Y-17232976D01*
X16664643Y-17232976D01*
X16645595Y-17223452D01*
X16636071Y-17204405D01*
X16636071Y-17128214D01*
X16645595Y-17109167D01*
X16664643Y-17099643D01*
X16702738Y-17099643D01*
X16721786Y-17109167D01*
X16731309Y-17128214D01*
X16731309Y-17147262D01*
X16636071Y-17166310D01*
X16807500Y-17223452D02*
X16826548Y-17232976D01*
X16864643Y-17232976D01*
X16883690Y-17223452D01*
X16893214Y-17204405D01*
X16893214Y-17194881D01*
X16883690Y-17175833D01*
X16864643Y-17166310D01*
X16836071Y-17166310D01*
X16817024Y-17156786D01*
X16807500Y-17137738D01*
X16807500Y-17128214D01*
X16817024Y-17109167D01*
X16836071Y-17099643D01*
X16864643Y-17099643D01*
X16883690Y-17109167D01*
X16959881Y-17309167D02*
X16969405Y-17299643D01*
X16988452Y-17271071D01*
X16997976Y-17252024D01*
X17007500Y-17223452D01*
X17017024Y-17175833D01*
X17017024Y-17137738D01*
X17007500Y-17090119D01*
X16997976Y-17061548D01*
X16988452Y-17042500D01*
X16969405Y-17013929D01*
X16959881Y-17004405D01*
D13*
X11997500Y-17406500D02*
G75*
G03*
X11997500Y-17406500I-50000J0D01*
G01*
D11*
X12359881Y-17496976D02*
X12245595Y-17496976D01*
X12302738Y-17496976D02*
X12302738Y-17296976D01*
X12283690Y-17325548D01*
X12264643Y-17344595D01*
X12245595Y-17354119D01*
X12445595Y-17477929D02*
X12455119Y-17487452D01*
X12445595Y-17496976D01*
X12436071Y-17487452D01*
X12445595Y-17477929D01*
X12445595Y-17496976D01*
X12578928Y-17296976D02*
X12597976Y-17296976D01*
X12617024Y-17306500D01*
X12626548Y-17316024D01*
X12636071Y-17335071D01*
X12645595Y-17373167D01*
X12645595Y-17420786D01*
X12636071Y-17458881D01*
X12626548Y-17477929D01*
X12617024Y-17487452D01*
X12597976Y-17496976D01*
X12578928Y-17496976D01*
X12559881Y-17487452D01*
X12550357Y-17477929D01*
X12540833Y-17458881D01*
X12531309Y-17420786D01*
X12531309Y-17373167D01*
X12540833Y-17335071D01*
X12550357Y-17316024D01*
X12559881Y-17306500D01*
X12578928Y-17296976D01*
X12769405Y-17296976D02*
X12788452Y-17296976D01*
X12807500Y-17306500D01*
X12817024Y-17316024D01*
X12826548Y-17335071D01*
X12836071Y-17373167D01*
X12836071Y-17420786D01*
X12826548Y-17458881D01*
X12817024Y-17477929D01*
X12807500Y-17487452D01*
X12788452Y-17496976D01*
X12769405Y-17496976D01*
X12750357Y-17487452D01*
X12740833Y-17477929D01*
X12731309Y-17458881D01*
X12721786Y-17420786D01*
X12721786Y-17373167D01*
X12731309Y-17335071D01*
X12740833Y-17316024D01*
X12750357Y-17306500D01*
X12769405Y-17296976D01*
X12959881Y-17296976D02*
X12978928Y-17296976D01*
X12997976Y-17306500D01*
X13007500Y-17316024D01*
X13017024Y-17335071D01*
X13026548Y-17373167D01*
X13026548Y-17420786D01*
X13017024Y-17458881D01*
X13007500Y-17477929D01*
X12997976Y-17487452D01*
X12978928Y-17496976D01*
X12959881Y-17496976D01*
X12940833Y-17487452D01*
X12931309Y-17477929D01*
X12921786Y-17458881D01*
X12912262Y-17420786D01*
X12912262Y-17373167D01*
X12921786Y-17335071D01*
X12931309Y-17316024D01*
X12940833Y-17306500D01*
X12959881Y-17296976D01*
X13112262Y-17496976D02*
X13112262Y-17363643D01*
X13112262Y-17382690D02*
X13121786Y-17373167D01*
X13140833Y-17363643D01*
X13169405Y-17363643D01*
X13188452Y-17373167D01*
X13197976Y-17392214D01*
X13197976Y-17496976D01*
X13197976Y-17392214D02*
X13207500Y-17373167D01*
X13226548Y-17363643D01*
X13255119Y-17363643D01*
X13274167Y-17373167D01*
X13283690Y-17392214D01*
X13283690Y-17496976D01*
X13378928Y-17496976D02*
X13378928Y-17363643D01*
X13378928Y-17382690D02*
X13388452Y-17373167D01*
X13407500Y-17363643D01*
X13436071Y-17363643D01*
X13455119Y-17373167D01*
X13464643Y-17392214D01*
X13464643Y-17496976D01*
X13464643Y-17392214D02*
X13474167Y-17373167D01*
X13493214Y-17363643D01*
X13521786Y-17363643D01*
X13540833Y-17373167D01*
X13550357Y-17392214D01*
X13550357Y-17496976D01*
X13940833Y-17287452D02*
X13769405Y-17544595D01*
X14197976Y-17296976D02*
X14217024Y-17296976D01*
X14236071Y-17306500D01*
X14245595Y-17316024D01*
X14255119Y-17335071D01*
X14264643Y-17373167D01*
X14264643Y-17420786D01*
X14255119Y-17458881D01*
X14245595Y-17477929D01*
X14236071Y-17487452D01*
X14217024Y-17496976D01*
X14197976Y-17496976D01*
X14178928Y-17487452D01*
X14169405Y-17477929D01*
X14159881Y-17458881D01*
X14150357Y-17420786D01*
X14150357Y-17373167D01*
X14159881Y-17335071D01*
X14169405Y-17316024D01*
X14178928Y-17306500D01*
X14197976Y-17296976D01*
X14350357Y-17477929D02*
X14359881Y-17487452D01*
X14350357Y-17496976D01*
X14340833Y-17487452D01*
X14350357Y-17477929D01*
X14350357Y-17496976D01*
X14483690Y-17296976D02*
X14502738Y-17296976D01*
X14521786Y-17306500D01*
X14531309Y-17316024D01*
X14540833Y-17335071D01*
X14550357Y-17373167D01*
X14550357Y-17420786D01*
X14540833Y-17458881D01*
X14531309Y-17477929D01*
X14521786Y-17487452D01*
X14502738Y-17496976D01*
X14483690Y-17496976D01*
X14464643Y-17487452D01*
X14455119Y-17477929D01*
X14445595Y-17458881D01*
X14436071Y-17420786D01*
X14436071Y-17373167D01*
X14445595Y-17335071D01*
X14455119Y-17316024D01*
X14464643Y-17306500D01*
X14483690Y-17296976D01*
X14617024Y-17296976D02*
X14740833Y-17296976D01*
X14674167Y-17373167D01*
X14702738Y-17373167D01*
X14721786Y-17382690D01*
X14731309Y-17392214D01*
X14740833Y-17411262D01*
X14740833Y-17458881D01*
X14731309Y-17477929D01*
X14721786Y-17487452D01*
X14702738Y-17496976D01*
X14645595Y-17496976D01*
X14626548Y-17487452D01*
X14617024Y-17477929D01*
X14836071Y-17496976D02*
X14874167Y-17496976D01*
X14893214Y-17487452D01*
X14902738Y-17477929D01*
X14921786Y-17449357D01*
X14931309Y-17411262D01*
X14931309Y-17335071D01*
X14921786Y-17316024D01*
X14912262Y-17306500D01*
X14893214Y-17296976D01*
X14855119Y-17296976D01*
X14836071Y-17306500D01*
X14826548Y-17316024D01*
X14817024Y-17335071D01*
X14817024Y-17382690D01*
X14826548Y-17401738D01*
X14836071Y-17411262D01*
X14855119Y-17420786D01*
X14893214Y-17420786D01*
X14912262Y-17411262D01*
X14921786Y-17401738D01*
X14931309Y-17382690D01*
X15102738Y-17363643D02*
X15102738Y-17496976D01*
X15055119Y-17287452D02*
X15007500Y-17430310D01*
X15131309Y-17430310D01*
X15197976Y-17296976D02*
X15197976Y-17335071D01*
X15274167Y-17296976D02*
X15274167Y-17335071D01*
X15569405Y-17573167D02*
X15559881Y-17563643D01*
X15540833Y-17535071D01*
X15531309Y-17516024D01*
X15521786Y-17487452D01*
X15512262Y-17439833D01*
X15512262Y-17401738D01*
X15521786Y-17354119D01*
X15531309Y-17325548D01*
X15540833Y-17306500D01*
X15559881Y-17277929D01*
X15569405Y-17268405D01*
X15750357Y-17496976D02*
X15636071Y-17496976D01*
X15693214Y-17496976D02*
X15693214Y-17296976D01*
X15674167Y-17325548D01*
X15655119Y-17344595D01*
X15636071Y-17354119D01*
X15817024Y-17296976D02*
X15940833Y-17296976D01*
X15874167Y-17373167D01*
X15902738Y-17373167D01*
X15921786Y-17382690D01*
X15931309Y-17392214D01*
X15940833Y-17411262D01*
X15940833Y-17458881D01*
X15931309Y-17477929D01*
X15921786Y-17487452D01*
X15902738Y-17496976D01*
X15845595Y-17496976D01*
X15826548Y-17487452D01*
X15817024Y-17477929D01*
X16178928Y-17496976D02*
X16178928Y-17296976D01*
X16264643Y-17496976D02*
X16264643Y-17392214D01*
X16255119Y-17373167D01*
X16236071Y-17363643D01*
X16207500Y-17363643D01*
X16188452Y-17373167D01*
X16178928Y-17382690D01*
X16388452Y-17496976D02*
X16369405Y-17487452D01*
X16359881Y-17477929D01*
X16350357Y-17458881D01*
X16350357Y-17401738D01*
X16359881Y-17382690D01*
X16369405Y-17373167D01*
X16388452Y-17363643D01*
X16417024Y-17363643D01*
X16436071Y-17373167D01*
X16445595Y-17382690D01*
X16455119Y-17401738D01*
X16455119Y-17458881D01*
X16445595Y-17477929D01*
X16436071Y-17487452D01*
X16417024Y-17496976D01*
X16388452Y-17496976D01*
X16569405Y-17496976D02*
X16550357Y-17487452D01*
X16540833Y-17468405D01*
X16540833Y-17296976D01*
X16721786Y-17487452D02*
X16702738Y-17496976D01*
X16664643Y-17496976D01*
X16645595Y-17487452D01*
X16636071Y-17468405D01*
X16636071Y-17392214D01*
X16645595Y-17373167D01*
X16664643Y-17363643D01*
X16702738Y-17363643D01*
X16721786Y-17373167D01*
X16731309Y-17392214D01*
X16731309Y-17411262D01*
X16636071Y-17430310D01*
X16807500Y-17487452D02*
X16826548Y-17496976D01*
X16864643Y-17496976D01*
X16883690Y-17487452D01*
X16893214Y-17468405D01*
X16893214Y-17458881D01*
X16883690Y-17439833D01*
X16864643Y-17430310D01*
X16836071Y-17430310D01*
X16817024Y-17420786D01*
X16807500Y-17401738D01*
X16807500Y-17392214D01*
X16817024Y-17373167D01*
X16836071Y-17363643D01*
X16864643Y-17363643D01*
X16883690Y-17373167D01*
X16959881Y-17573167D02*
X16969405Y-17563643D01*
X16988452Y-17535071D01*
X16997976Y-17516024D01*
X17007500Y-17487452D01*
X17017024Y-17439833D01*
X17017024Y-17401738D01*
X17007500Y-17354119D01*
X16997976Y-17325548D01*
X16988452Y-17306500D01*
X16969405Y-17277929D01*
X16959881Y-17268405D01*
M02*
