G04 #@! TF.GenerationSoftware,KiCad,Pcbnew,6.0.1-79c1e3a40b~116~ubuntu21.04.1*
G04 #@! TF.CreationDate,2022-02-15T17:28:44-05:00*
G04 #@! TF.ProjectId,ESC_V5,4553435f-5635-42e6-9b69-6361645f7063,rev?*
G04 #@! TF.SameCoordinates,Original*
G04 #@! TF.FileFunction,Soldermask,Bot*
G04 #@! TF.FilePolarity,Negative*
%FSLAX46Y46*%
G04 Gerber Fmt 4.6, Leading zero omitted, Abs format (unit mm)*
G04 Created by KiCad (PCBNEW 6.0.1-79c1e3a40b~116~ubuntu21.04.1) date 2022-02-15 17:28:44*
%MOMM*%
%LPD*%
G01*
G04 APERTURE LIST*
G04 Aperture macros list*
%AMRoundRect*
0 Rectangle with rounded corners*
0 $1 Rounding radius*
0 $2 $3 $4 $5 $6 $7 $8 $9 X,Y pos of 4 corners*
0 Add a 4 corners polygon primitive as box body*
4,1,4,$2,$3,$4,$5,$6,$7,$8,$9,$2,$3,0*
0 Add four circle primitives for the rounded corners*
1,1,$1+$1,$2,$3*
1,1,$1+$1,$4,$5*
1,1,$1+$1,$6,$7*
1,1,$1+$1,$8,$9*
0 Add four rect primitives between the rounded corners*
20,1,$1+$1,$2,$3,$4,$5,0*
20,1,$1+$1,$4,$5,$6,$7,0*
20,1,$1+$1,$6,$7,$8,$9,0*
20,1,$1+$1,$8,$9,$2,$3,0*%
%AMFreePoly0*
4,1,16,0.535355,0.785355,0.541603,0.777735,1.041603,0.027735,1.049029,-0.009806,1.041603,-0.027735,0.541603,-0.777735,0.509806,-0.799029,0.500000,-0.800000,-0.500000,-0.800000,-0.535355,-0.785355,-0.550000,-0.750000,-0.550000,0.750000,-0.535355,0.785355,-0.500000,0.800000,0.500000,0.800000,0.535355,0.785355,0.535355,0.785355,$1*%
%AMFreePoly1*
4,1,16,0.535355,0.785355,0.550000,0.750000,0.550000,-0.750000,0.535355,-0.785355,0.500000,-0.800000,-0.650000,-0.800000,-0.685355,-0.785355,-0.700000,-0.750000,-0.691603,-0.722265,-0.210093,0.000000,-0.691603,0.722265,-0.699029,0.759806,-0.677735,0.791603,-0.650000,0.800000,0.500000,0.800000,0.535355,0.785355,0.535355,0.785355,$1*%
%AMFreePoly2*
4,1,37,0.535355,0.785355,0.550000,0.750000,0.550000,-0.750000,0.535355,-0.785355,0.500000,-0.800000,0.000000,-0.800000,-0.012524,-0.794812,-0.080857,-0.793560,-0.094851,-0.791293,-0.230166,-0.749018,-0.242962,-0.742915,-0.360972,-0.664360,-0.371540,-0.654911,-0.462760,-0.546392,-0.470252,-0.534356,-0.527347,-0.404597,-0.531159,-0.390943,-0.548742,-0.256483,-0.547388,-0.256306,-0.550000,-0.250000,
-0.550000,0.250000,-0.549522,0.251153,-0.549368,0.263802,-0.527557,0.403879,-0.523412,0.417435,-0.463164,0.545760,-0.455381,0.557609,-0.361537,0.663867,-0.350741,0.673055,-0.230846,0.748703,-0.217905,0.754492,-0.081598,0.793449,-0.067552,0.795373,-0.011991,0.795033,0.000000,0.800000,0.500000,0.800000,0.535355,0.785355,0.535355,0.785355,$1*%
%AMFreePoly3*
4,1,37,0.012350,0.794884,0.074210,0.794507,0.088231,0.792412,0.224052,0.751793,0.236921,0.745846,0.355883,0.668739,0.366566,0.659420,0.459104,0.552023,0.466742,0.540080,0.525419,0.411028,0.529398,0.397421,0.549495,0.257088,0.550000,0.250000,0.550000,-0.250000,0.549996,-0.250610,0.549847,-0.262826,0.549158,-0.270511,0.525638,-0.410312,0.521328,-0.423818,0.459516,-0.551397,
0.451589,-0.563150,0.356454,-0.668254,0.345546,-0.677309,0.224736,-0.751486,0.211726,-0.757116,0.074953,-0.794405,0.060885,-0.796158,0.011462,-0.795252,0.000000,-0.800000,-0.500000,-0.800000,-0.535355,-0.785355,-0.550000,-0.750000,-0.550000,0.750000,-0.535355,0.785355,-0.500000,0.800000,0.000000,0.800000,0.012350,0.794884,0.012350,0.794884,$1*%
G04 Aperture macros list end*
%ADD10RoundRect,0.197500X-0.172500X0.147500X-0.172500X-0.147500X0.172500X-0.147500X0.172500X0.147500X0*%
%ADD11RoundRect,0.197500X-0.147500X-0.172500X0.147500X-0.172500X0.147500X0.172500X-0.147500X0.172500X0*%
%ADD12RoundRect,0.197500X0.172500X-0.147500X0.172500X0.147500X-0.172500X0.147500X-0.172500X-0.147500X0*%
%ADD13RoundRect,0.050000X0.550000X0.550000X-0.550000X0.550000X-0.550000X-0.550000X0.550000X-0.550000X0*%
%ADD14RoundRect,0.050000X0.850000X0.850000X-0.850000X0.850000X-0.850000X-0.850000X0.850000X-0.850000X0*%
%ADD15O,1.800000X1.800000*%
%ADD16RoundRect,0.050000X-0.850000X0.850000X-0.850000X-0.850000X0.850000X-0.850000X0.850000X0.850000X0*%
%ADD17FreePoly0,0.000000*%
%ADD18FreePoly1,0.000000*%
%ADD19FreePoly0,90.000000*%
%ADD20FreePoly1,90.000000*%
%ADD21FreePoly2,180.000000*%
%ADD22FreePoly3,180.000000*%
%ADD23RoundRect,0.112500X-0.350000X-0.062500X0.350000X-0.062500X0.350000X0.062500X-0.350000X0.062500X0*%
%ADD24RoundRect,0.112500X-0.062500X-0.350000X0.062500X-0.350000X0.062500X0.350000X-0.062500X0.350000X0*%
%ADD25RoundRect,0.050000X-1.300000X-1.300000X1.300000X-1.300000X1.300000X1.300000X-1.300000X1.300000X0*%
%ADD26RoundRect,0.050000X-0.200000X-0.200000X0.200000X-0.200000X0.200000X0.200000X-0.200000X0.200000X0*%
%ADD27RoundRect,0.050000X-1.325000X1.100000X-1.325000X-1.100000X1.325000X-1.100000X1.325000X1.100000X0*%
%ADD28RoundRect,0.268750X0.218750X0.256250X-0.218750X0.256250X-0.218750X-0.256250X0.218750X-0.256250X0*%
%ADD29RoundRect,0.250000X-0.275000X0.200000X-0.275000X-0.200000X0.275000X-0.200000X0.275000X0.200000X0*%
%ADD30RoundRect,0.293750X-0.456250X0.243750X-0.456250X-0.243750X0.456250X-0.243750X0.456250X0.243750X0*%
G04 APERTURE END LIST*
D10*
X126948000Y-147732000D03*
X126948000Y-148702000D03*
D11*
X127448000Y-151702000D03*
X128418000Y-151702000D03*
D12*
X137000000Y-142485000D03*
X137000000Y-141515000D03*
D13*
X141400000Y-142000000D03*
X138600000Y-142000000D03*
D14*
X121650000Y-145540000D03*
D15*
X121650000Y-148080000D03*
X121650000Y-150620000D03*
X121650000Y-153160000D03*
D14*
X121650000Y-156970000D03*
D15*
X121650000Y-159510000D03*
X121650000Y-162050000D03*
D16*
X121650000Y-141730000D03*
D15*
X124190000Y-141730000D03*
X126730000Y-141730000D03*
X129270000Y-141730000D03*
X131810000Y-141730000D03*
X134350000Y-141730000D03*
D17*
X124998000Y-145702000D03*
D18*
X126448000Y-145702000D03*
D19*
X134168000Y-156213000D03*
D20*
X134168000Y-154763000D03*
D19*
X129025000Y-156213000D03*
D20*
X129025000Y-154763000D03*
D21*
X139000000Y-146000000D03*
D22*
X137700000Y-146000000D03*
D23*
X128170500Y-149452000D03*
X128170500Y-148952000D03*
X128170500Y-148452000D03*
X128170500Y-147952000D03*
X128170500Y-147452000D03*
X128170500Y-146952000D03*
D24*
X128858000Y-146264500D03*
X129358000Y-146264500D03*
X129858000Y-146264500D03*
X130358000Y-146264500D03*
X130858000Y-146264500D03*
X131358000Y-146264500D03*
D23*
X132045500Y-146952000D03*
X132045500Y-147452000D03*
X132045500Y-147952000D03*
X132045500Y-148452000D03*
X132045500Y-148952000D03*
X132045500Y-149452000D03*
D24*
X131358000Y-150139500D03*
X130858000Y-150139500D03*
X130358000Y-150139500D03*
X129858000Y-150139500D03*
X129358000Y-150139500D03*
X128858000Y-150139500D03*
D25*
X130108000Y-148202000D03*
D26*
X144575000Y-156175000D03*
X143275000Y-156175000D03*
X143925000Y-156175000D03*
X145225000Y-156175000D03*
D27*
X144250000Y-158075000D03*
D26*
X145225000Y-159325000D03*
X144575000Y-159325000D03*
X143925000Y-159325000D03*
X143275000Y-159325000D03*
X151075000Y-156175000D03*
X150425000Y-156175000D03*
X149775000Y-156175000D03*
X151725000Y-156175000D03*
D27*
X150750000Y-158075000D03*
D26*
X151075000Y-159325000D03*
X150425000Y-159325000D03*
X149775000Y-159325000D03*
X151725000Y-159325000D03*
X157575000Y-156175000D03*
X156925000Y-156175000D03*
X156275000Y-156175000D03*
X158225000Y-156175000D03*
X158225000Y-159325000D03*
X156925000Y-159325000D03*
D27*
X157250000Y-158075000D03*
D26*
X157575000Y-159325000D03*
X156275000Y-159325000D03*
X144575000Y-145850000D03*
X143275000Y-145850000D03*
X143925000Y-145850000D03*
X145225000Y-145850000D03*
D27*
X144250000Y-147750000D03*
D26*
X143275000Y-149000000D03*
X144575000Y-149000000D03*
X145225000Y-149000000D03*
X143925000Y-149000000D03*
X151075000Y-145835000D03*
X150425000Y-145835000D03*
X149775000Y-145835000D03*
X151725000Y-145835000D03*
X151725000Y-148985000D03*
X151075000Y-148985000D03*
X149775000Y-148985000D03*
X150425000Y-148985000D03*
D27*
X150750000Y-147735000D03*
D26*
X156275000Y-145835000D03*
X157575000Y-145835000D03*
X156925000Y-145835000D03*
X158225000Y-145835000D03*
D27*
X157250000Y-147735000D03*
D26*
X156275000Y-148985000D03*
X157575000Y-148985000D03*
X156925000Y-148985000D03*
X158225000Y-148985000D03*
D28*
X140500000Y-144000000D03*
X138925000Y-144000000D03*
D19*
X131600000Y-156213000D03*
D20*
X131600000Y-154763000D03*
D29*
X124100000Y-154162500D03*
X124100000Y-155812500D03*
D30*
X126250000Y-154562500D03*
X126250000Y-156437500D03*
G36*
X159735648Y-140264352D02*
G01*
X159750000Y-140299000D01*
X159750000Y-145951000D01*
X159735648Y-145985648D01*
X159701000Y-146000000D01*
X159220296Y-146000000D01*
X159185648Y-145985648D01*
X158606893Y-145406893D01*
X158590253Y-145400000D01*
X157909747Y-145400000D01*
X157902855Y-145402855D01*
X157900000Y-145409747D01*
X157900000Y-145951000D01*
X157885648Y-145985648D01*
X157851000Y-146000000D01*
X152820296Y-146000000D01*
X152785648Y-145985648D01*
X152206893Y-145406893D01*
X152190253Y-145400000D01*
X151409747Y-145400000D01*
X151402855Y-145402855D01*
X151400000Y-145409747D01*
X151400000Y-145951000D01*
X151385648Y-145985648D01*
X151351000Y-146000000D01*
X146320296Y-146000000D01*
X146285648Y-145985648D01*
X145806893Y-145506893D01*
X145790253Y-145500000D01*
X144909747Y-145500000D01*
X144902855Y-145502855D01*
X144900000Y-145509747D01*
X144900000Y-145951000D01*
X144885648Y-145985648D01*
X144851000Y-146000000D01*
X142799000Y-146000000D01*
X142764352Y-145985648D01*
X142750000Y-145951000D01*
X142750000Y-140299000D01*
X142764352Y-140264352D01*
X142799000Y-140250000D01*
X159701000Y-140250000D01*
X159735648Y-140264352D01*
G37*
G36*
X159735648Y-159014352D02*
G01*
X159750000Y-159049000D01*
X159750000Y-164701000D01*
X159735648Y-164735648D01*
X159701000Y-164750000D01*
X142799000Y-164750000D01*
X142764352Y-164735648D01*
X142750000Y-164701000D01*
X142750000Y-159049000D01*
X142764352Y-159014352D01*
X142799000Y-159000000D01*
X159701000Y-159000000D01*
X159735648Y-159014352D01*
G37*
G36*
X158735648Y-148764352D02*
G01*
X158750000Y-148799000D01*
X158750000Y-155701000D01*
X158735648Y-155735648D01*
X158701000Y-155750000D01*
X157759747Y-155750000D01*
X157752855Y-155752855D01*
X157750000Y-155759747D01*
X157750000Y-156451000D01*
X157735648Y-156485648D01*
X157701000Y-156500000D01*
X155799000Y-156500000D01*
X155764352Y-156485648D01*
X155750000Y-156451000D01*
X155750000Y-148799000D01*
X155764352Y-148764352D01*
X155799000Y-148750000D01*
X158701000Y-148750000D01*
X158735648Y-148764352D01*
G37*
G36*
X152235648Y-148764352D02*
G01*
X152250000Y-148799000D01*
X152250000Y-155701000D01*
X152235648Y-155735648D01*
X152201000Y-155750000D01*
X151259747Y-155750000D01*
X151252855Y-155752855D01*
X151250000Y-155759747D01*
X151250000Y-156451000D01*
X151235648Y-156485648D01*
X151201000Y-156500000D01*
X149299000Y-156500000D01*
X149264352Y-156485648D01*
X149250000Y-156451000D01*
X149250000Y-148799000D01*
X149264352Y-148764352D01*
X149299000Y-148750000D01*
X152201000Y-148750000D01*
X152235648Y-148764352D01*
G37*
G36*
X145735648Y-148764352D02*
G01*
X145750000Y-148799000D01*
X145750000Y-155701000D01*
X145735648Y-155735648D01*
X145701000Y-155750000D01*
X144759747Y-155750000D01*
X144752855Y-155752855D01*
X144750000Y-155759747D01*
X144750000Y-156451000D01*
X144735648Y-156485648D01*
X144701000Y-156500000D01*
X142799000Y-156500000D01*
X142764352Y-156485648D01*
X142750000Y-156451000D01*
X142750000Y-148799000D01*
X142764352Y-148764352D01*
X142799000Y-148750000D01*
X145701000Y-148750000D01*
X145735648Y-148764352D01*
G37*
M02*
