M48
; DRILL file {KiCad 6.0.1-79c1e3a40b~116~ubuntu21.04.1} date Tue 15 Feb 2022 05:28:51 PM
; FORMAT={-:-/ absolute / metric / decimal}
; #@! TF.CreationDate,2022-02-15T17:28:51-05:00
; #@! TF.GenerationSoftware,Kicad,Pcbnew,6.0.1-79c1e3a40b~116~ubuntu21.04.1
; #@! TF.FileFunction,Plated,1,2,PTH
FMAT,2
METRIC
; #@! TA.AperFunction,Plated,PTH,ViaDrill
T1C0.400
; #@! TA.AperFunction,Plated,PTH,ComponentDrill
T2C1.000
%
G90
G05
T1
X123.325Y-148.725
X124.05Y-144.35
X124.1Y-154.162
X124.2Y-151.8
X124.25Y-163.5
X126.9Y-161.8
X127.6Y-145.65
X127.819Y-143.82
X128.529Y-144.524
X129.025Y-156.213
X129.49Y-144.8
X129.815Y-151.33
X130.0Y-161.1
X131.25Y-151.25
X132.5Y-145.775
X132.5Y-163.9
X133.401Y-157.5
X133.5Y-145.5
X133.5Y-146.5
X133.75Y-148.398
X133.75Y-151.25
X135.5Y-143.75
X135.65Y-147.785
X136.5Y-163.0
X137.25Y-161.0
X137.525Y-160.025
X137.75Y-163.0
X138.0Y-149.787
X138.0Y-154.787
X140.5Y-160.75
X141.0Y-162.4
X141.375Y-154.3
X141.375Y-155.3
X142.063Y-162.437
X142.1Y-153.575
X144.3Y-154.3
X146.5Y-155.75
X147.5Y-153.5
X147.5Y-155.7
X150.8Y-154.3
X150.9Y-144.6
X153.0Y-155.75
X153.885Y-142.95
X154.0Y-155.7
X157.3Y-154.2
X159.3Y-146.7
X159.375Y-155.5
T2
X121.65Y-141.73
X121.65Y-145.54
X121.65Y-148.08
X121.65Y-150.62
X121.65Y-153.16
X121.65Y-156.97
X121.65Y-159.51
X121.65Y-162.05
X124.19Y-141.73
X126.73Y-141.73
X129.27Y-141.73
X131.81Y-141.73
X134.35Y-141.73
T0
M30
