G04 #@! TF.GenerationSoftware,KiCad,Pcbnew,6.0.1-79c1e3a40b~116~ubuntu21.04.1*
G04 #@! TF.CreationDate,2022-02-15T17:28:43-05:00*
G04 #@! TF.ProjectId,ESC_V5,4553435f-5635-42e6-9b69-6361645f7063,rev?*
G04 #@! TF.SameCoordinates,Original*
G04 #@! TF.FileFunction,Copper,L1,Top*
G04 #@! TF.FilePolarity,Positive*
%FSLAX46Y46*%
G04 Gerber Fmt 4.6, Leading zero omitted, Abs format (unit mm)*
G04 Created by KiCad (PCBNEW 6.0.1-79c1e3a40b~116~ubuntu21.04.1) date 2022-02-15 17:28:43*
%MOMM*%
%LPD*%
G01*
G04 APERTURE LIST*
G04 Aperture macros list*
%AMRoundRect*
0 Rectangle with rounded corners*
0 $1 Rounding radius*
0 $2 $3 $4 $5 $6 $7 $8 $9 X,Y pos of 4 corners*
0 Add a 4 corners polygon primitive as box body*
4,1,4,$2,$3,$4,$5,$6,$7,$8,$9,$2,$3,0*
0 Add four circle primitives for the rounded corners*
1,1,$1+$1,$2,$3*
1,1,$1+$1,$4,$5*
1,1,$1+$1,$6,$7*
1,1,$1+$1,$8,$9*
0 Add four rect primitives between the rounded corners*
20,1,$1+$1,$2,$3,$4,$5,0*
20,1,$1+$1,$4,$5,$6,$7,0*
20,1,$1+$1,$6,$7,$8,$9,0*
20,1,$1+$1,$8,$9,$2,$3,0*%
G04 Aperture macros list end*
G04 #@! TA.AperFunction,SMDPad,CuDef*
%ADD10RoundRect,0.218750X-0.256250X0.218750X-0.256250X-0.218750X0.256250X-0.218750X0.256250X0.218750X0*%
G04 #@! TD*
G04 #@! TA.AperFunction,SMDPad,CuDef*
%ADD11RoundRect,0.218750X0.256250X-0.218750X0.256250X0.218750X-0.256250X0.218750X-0.256250X-0.218750X0*%
G04 #@! TD*
G04 #@! TA.AperFunction,SMDPad,CuDef*
%ADD12RoundRect,0.147500X-0.147500X-0.172500X0.147500X-0.172500X0.147500X0.172500X-0.147500X0.172500X0*%
G04 #@! TD*
G04 #@! TA.AperFunction,SMDPad,CuDef*
%ADD13R,1.100000X1.100000*%
G04 #@! TD*
G04 #@! TA.AperFunction,SMDPad,CuDef*
%ADD14R,0.500000X0.800000*%
G04 #@! TD*
G04 #@! TA.AperFunction,SMDPad,CuDef*
%ADD15R,0.400000X0.800000*%
G04 #@! TD*
G04 #@! TA.AperFunction,SMDPad,CuDef*
%ADD16R,0.760000X0.430000*%
G04 #@! TD*
G04 #@! TA.AperFunction,SMDPad,CuDef*
%ADD17R,0.800000X0.500000*%
G04 #@! TD*
G04 #@! TA.AperFunction,SMDPad,CuDef*
%ADD18R,0.800000X0.400000*%
G04 #@! TD*
G04 #@! TA.AperFunction,SMDPad,CuDef*
%ADD19RoundRect,0.150000X-0.875000X-0.150000X0.875000X-0.150000X0.875000X0.150000X-0.875000X0.150000X0*%
G04 #@! TD*
G04 #@! TA.AperFunction,ComponentPad*
%ADD20R,1.700000X1.700000*%
G04 #@! TD*
G04 #@! TA.AperFunction,ComponentPad*
%ADD21O,1.700000X1.700000*%
G04 #@! TD*
G04 #@! TA.AperFunction,ViaPad*
%ADD22C,0.800000*%
G04 #@! TD*
G04 #@! TA.AperFunction,Conductor*
%ADD23C,0.250000*%
G04 #@! TD*
G04 #@! TA.AperFunction,Conductor*
%ADD24C,0.150000*%
G04 #@! TD*
G04 APERTURE END LIST*
D10*
X138000000Y-148212500D03*
X138000000Y-149787500D03*
X138000000Y-153212500D03*
X138000000Y-154787500D03*
D11*
X124000000Y-158575000D03*
X124000000Y-157000000D03*
D12*
X152915000Y-142950000D03*
X153885000Y-142950000D03*
X152915000Y-144200000D03*
X153885000Y-144200000D03*
X152915000Y-141700000D03*
X153885000Y-141700000D03*
D13*
X130000000Y-161100000D03*
X130000000Y-163900000D03*
X132500000Y-161100000D03*
X132500000Y-163900000D03*
X126900000Y-161800000D03*
X124100000Y-161800000D03*
D14*
X147300000Y-150500000D03*
D15*
X146500000Y-150500000D03*
X145700000Y-150500000D03*
D14*
X144900000Y-150500000D03*
X144900000Y-152300000D03*
D15*
X145700000Y-152300000D03*
X146500000Y-152300000D03*
D14*
X147300000Y-152300000D03*
D16*
X149000000Y-146000000D03*
X149000000Y-146800000D03*
X149000000Y-147600000D03*
X149000000Y-148400000D03*
X150520000Y-148400000D03*
X150520000Y-147600000D03*
X150520000Y-146800000D03*
X150520000Y-146000000D03*
D17*
X144800000Y-159900000D03*
D18*
X144800000Y-160700000D03*
X144800000Y-161500000D03*
D17*
X144800000Y-162300000D03*
X146600000Y-162300000D03*
D18*
X146600000Y-161500000D03*
X146600000Y-160700000D03*
D17*
X146600000Y-159900000D03*
X154700000Y-162300000D03*
D18*
X154700000Y-161500000D03*
X154700000Y-160700000D03*
D17*
X154700000Y-159900000D03*
X152900000Y-159900000D03*
D18*
X152900000Y-160700000D03*
X152900000Y-161500000D03*
D17*
X152900000Y-162300000D03*
D14*
X147300000Y-141500000D03*
D15*
X146500000Y-141500000D03*
X145700000Y-141500000D03*
D14*
X144900000Y-141500000D03*
X144900000Y-143300000D03*
D15*
X145700000Y-143300000D03*
X146500000Y-143300000D03*
D14*
X147300000Y-143300000D03*
D19*
X126350000Y-147785000D03*
X126350000Y-149055000D03*
X126350000Y-150325000D03*
X126350000Y-151595000D03*
X126350000Y-152865000D03*
X126350000Y-154135000D03*
X126350000Y-155405000D03*
X126350000Y-156675000D03*
X126350000Y-157945000D03*
X126350000Y-159215000D03*
X135650000Y-159215000D03*
X135650000Y-157945000D03*
X135650000Y-156675000D03*
X135650000Y-155405000D03*
X135650000Y-154135000D03*
X135650000Y-152865000D03*
X135650000Y-151595000D03*
X135650000Y-150325000D03*
X135650000Y-149055000D03*
X135650000Y-147785000D03*
D20*
X121650000Y-145540000D03*
D21*
X121650000Y-148080000D03*
X121650000Y-150620000D03*
X121650000Y-153160000D03*
D20*
X121650000Y-156970000D03*
D21*
X121650000Y-159510000D03*
X121650000Y-162050000D03*
D20*
X121650000Y-141730000D03*
D21*
X124190000Y-141730000D03*
X126730000Y-141730000D03*
X129270000Y-141730000D03*
X131810000Y-141730000D03*
X134350000Y-141730000D03*
D22*
X153885000Y-142950000D03*
X129025000Y-156213000D03*
X150900000Y-144600000D03*
X124050000Y-144350000D03*
X147500000Y-153500000D03*
X144300000Y-154300000D03*
X141375000Y-154300000D03*
X138000000Y-149787500D03*
X135500000Y-143750000D03*
X124200000Y-151800000D03*
X141375000Y-155300000D03*
X150800000Y-154300000D03*
X138000000Y-154787500D03*
X142100000Y-153575000D03*
X137524999Y-160024999D03*
X124250000Y-163500000D03*
X141000000Y-162400000D03*
X157300000Y-154200000D03*
X126900000Y-161800000D03*
X133400921Y-157500000D03*
X132500000Y-163900000D03*
X137250000Y-161000000D03*
X123325000Y-148725000D03*
X136500000Y-163000000D03*
X140500000Y-160750000D03*
X142062653Y-162437347D03*
X137750000Y-163000000D03*
X146500000Y-155750000D03*
X153000000Y-155750000D03*
X159375000Y-155500000D03*
X147500000Y-155700000D03*
X154000000Y-155700000D03*
X159300000Y-146700000D03*
X130000000Y-161100000D03*
X135650000Y-147785000D03*
X129490433Y-144799946D03*
X133500000Y-146499503D03*
X128529184Y-144524264D03*
X124100000Y-154162500D03*
X133500000Y-145500000D03*
X127819306Y-143819937D03*
X133750000Y-151250000D03*
X133750000Y-148398034D03*
X132500000Y-145775500D03*
X129814742Y-151329857D03*
X131250000Y-151250000D03*
X127600079Y-145649922D03*
D23*
X150520000Y-147600000D02*
X150520000Y-146800000D01*
X126350000Y-155405000D02*
X128217000Y-155405000D01*
X150520000Y-144980000D02*
X150900000Y-144600000D01*
X150520000Y-146000000D02*
X150520000Y-144980000D01*
X150520000Y-146800000D02*
X150520000Y-146000000D01*
X153885000Y-144200000D02*
X153885000Y-142950000D01*
X128217000Y-155405000D02*
X129025000Y-156213000D01*
X153885000Y-142950000D02*
X153885000Y-141700000D01*
X120539999Y-140554999D02*
X120474999Y-140619999D01*
X124110000Y-144350000D02*
X124050000Y-144350000D01*
X121650000Y-153160000D02*
X121650000Y-156970000D01*
X126730000Y-141730000D02*
X125554999Y-140554999D01*
X126730000Y-141730000D02*
X124110000Y-144350000D01*
X120474999Y-151984999D02*
X121650000Y-153160000D01*
X120474999Y-140619999D02*
X120474999Y-151984999D01*
X125554999Y-140554999D02*
X120539999Y-140554999D01*
X135650000Y-150325000D02*
X137462500Y-150325000D01*
X141375000Y-154300000D02*
X144300000Y-154300000D01*
X147500000Y-152500000D02*
X147300000Y-152300000D01*
X137462500Y-150325000D02*
X138000000Y-149787500D01*
X147500000Y-153500000D02*
X147500000Y-152500000D01*
X134750000Y-143000000D02*
X135500000Y-143750000D01*
X124200000Y-151800000D02*
X124200000Y-146050000D01*
X127250000Y-143000000D02*
X134750000Y-143000000D01*
X124200000Y-146050000D02*
X127250000Y-143000000D01*
X146500000Y-152300000D02*
X146500000Y-153923002D01*
X146500000Y-153923002D02*
X146876998Y-154300000D01*
X145876995Y-155300003D02*
X146876998Y-154300000D01*
X145876995Y-155300003D02*
X141375003Y-155300003D01*
X141375003Y-155300003D02*
X141375000Y-155300000D01*
X135650000Y-154135000D02*
X135989999Y-154474999D01*
X135989999Y-154474999D02*
X137687499Y-154474999D01*
X146876998Y-154300000D02*
X150800000Y-154300000D01*
X137687499Y-154474999D02*
X138000000Y-154787500D01*
X137652500Y-152865000D02*
X138000000Y-153212500D01*
X134625000Y-151595000D02*
X132675921Y-153544079D01*
X132675921Y-153544079D02*
X132675921Y-160924079D01*
X135650000Y-151595000D02*
X137791450Y-151595000D01*
X138000000Y-151803550D02*
X138000000Y-153212500D01*
X137791450Y-151595000D02*
X138000000Y-151803550D01*
X135650000Y-151595000D02*
X134625000Y-151595000D01*
X132675921Y-160924079D02*
X132500000Y-161100000D01*
X145075000Y-153575000D02*
X142100000Y-153575000D01*
X141000000Y-162400000D02*
X141900000Y-163300000D01*
X145700000Y-152300000D02*
X145700000Y-152950000D01*
X141900000Y-163300000D02*
X148127180Y-163300000D01*
X124114998Y-163500000D02*
X124250000Y-163500000D01*
X124000000Y-157000000D02*
X123199990Y-157800010D01*
X123199990Y-157800010D02*
X123199990Y-162584992D01*
X137524999Y-158794999D02*
X137524999Y-160024999D01*
X157227180Y-154200000D02*
X157300000Y-154200000D01*
X136675000Y-157945000D02*
X137524999Y-158794999D01*
X148127180Y-163300000D02*
X157227180Y-154200000D01*
X135650000Y-157945000D02*
X136675000Y-157945000D01*
X123199990Y-162584992D02*
X124114998Y-163500000D01*
X145700000Y-152950000D02*
X145075000Y-153575000D01*
X124325000Y-156675000D02*
X124000000Y-157000000D01*
X124000000Y-158575000D02*
X124000000Y-158900000D01*
X134930236Y-155405000D02*
X135650000Y-155405000D01*
X133400921Y-156934315D02*
X134930236Y-155405000D01*
X133400921Y-157500000D02*
X133400921Y-156934315D01*
X124000000Y-158900000D02*
X126900000Y-161800000D01*
X124100000Y-161800000D02*
X126200000Y-163900000D01*
X126200000Y-163900000D02*
X130000000Y-163900000D01*
X135650000Y-159215000D02*
X135650000Y-159400000D01*
X132500000Y-163900000D02*
X130000000Y-163900000D01*
X135650000Y-159400000D02*
X137250000Y-161000000D01*
X123325000Y-148725000D02*
X123325000Y-142595000D01*
X123325000Y-142595000D02*
X124190000Y-141730000D01*
X138750000Y-149000000D02*
X139700030Y-149950030D01*
X135650000Y-149055000D02*
X135705000Y-149000000D01*
X139700030Y-149950030D02*
X139700030Y-157700030D01*
X141900000Y-159900000D02*
X144800000Y-159900000D01*
X135705000Y-149000000D02*
X138750000Y-149000000D01*
X139700030Y-157700030D02*
X141900000Y-159900000D01*
X140500000Y-160750000D02*
X144750000Y-160750000D01*
X134500000Y-163000000D02*
X136500000Y-163000000D01*
X126350000Y-159215000D02*
X127775001Y-160640001D01*
X127775001Y-162275001D02*
X128500000Y-163000000D01*
X127775001Y-160640001D02*
X127775001Y-162275001D01*
X128500000Y-163000000D02*
X134500000Y-163000000D01*
X144750000Y-160750000D02*
X144800000Y-160700000D01*
X140000000Y-161500000D02*
X139250021Y-160750021D01*
X139250020Y-154793526D02*
X138481484Y-154024990D01*
X136408506Y-152865000D02*
X135650000Y-152865000D01*
X139250021Y-160750021D02*
X139250020Y-154793526D01*
X137568496Y-154024990D02*
X136408506Y-152865000D01*
X138481484Y-154024990D02*
X137568496Y-154024990D01*
X144800000Y-161500000D02*
X140000000Y-161500000D01*
X135926998Y-162500000D02*
X136151999Y-162274999D01*
X127375000Y-157945000D02*
X128250000Y-158820000D01*
X144800000Y-162300000D02*
X142200000Y-162300000D01*
X136151999Y-162274999D02*
X137024999Y-162274999D01*
X135250000Y-162500000D02*
X135926998Y-162500000D01*
X137024999Y-162274999D02*
X137750000Y-163000000D01*
X126350000Y-157945000D02*
X127375000Y-157945000D01*
X128250000Y-162113590D02*
X128636410Y-162500000D01*
X128250000Y-158820000D02*
X128250000Y-162113590D01*
X142200000Y-162300000D02*
X142062653Y-162437347D01*
X128636410Y-162500000D02*
X135250000Y-162500000D01*
X138500000Y-159098232D02*
X136076768Y-156675000D01*
X152250000Y-159900000D02*
X148399990Y-163750010D01*
X141277008Y-163750010D02*
X138500000Y-160973002D01*
X138500000Y-160973002D02*
X138500000Y-159098232D01*
X148399990Y-163750010D02*
X141277008Y-163750010D01*
X152900000Y-159900000D02*
X152250000Y-159900000D01*
X136076768Y-156675000D02*
X135650000Y-156675000D01*
X140023022Y-164200020D02*
X137647991Y-161824989D01*
X152900000Y-160700000D02*
X152250000Y-160700000D01*
X148749980Y-164200020D02*
X140023022Y-164200020D01*
X129124999Y-161874999D02*
X129124999Y-158424999D01*
X135790588Y-162000000D02*
X129250000Y-162000000D01*
X135965599Y-161824989D02*
X135790588Y-162000000D01*
X152250000Y-160700000D02*
X148749980Y-164200020D01*
X137647991Y-161824989D02*
X135965599Y-161824989D01*
X129124999Y-158424999D02*
X127375000Y-156675000D01*
X129250000Y-162000000D02*
X129124999Y-161874999D01*
X127375000Y-156675000D02*
X126350000Y-156675000D01*
X146600000Y-155850000D02*
X146500000Y-155750000D01*
X146600000Y-159900000D02*
X146600000Y-155850000D01*
X147250000Y-161500000D02*
X146600000Y-161500000D01*
X153000000Y-155750000D02*
X147250000Y-161500000D01*
X159375000Y-158025000D02*
X159375000Y-155500000D01*
X154700000Y-159900000D02*
X157500000Y-159900000D01*
X157500000Y-159900000D02*
X159375000Y-158025000D01*
X146600000Y-160700000D02*
X147250000Y-160700000D01*
X147250000Y-160700000D02*
X147500000Y-160450000D01*
X147500000Y-160450000D02*
X147500000Y-155700000D01*
X154000000Y-155823002D02*
X154000000Y-155700000D01*
X146600000Y-162300000D02*
X147523002Y-162300000D01*
X147523002Y-162300000D02*
X154000000Y-155823002D01*
X154700000Y-160700000D02*
X154050000Y-160700000D01*
X154050000Y-160700000D02*
X153974999Y-160624999D01*
X153974999Y-159025001D02*
X159300000Y-153700000D01*
X153974999Y-160624999D02*
X153974999Y-159025001D01*
X159300000Y-153700000D02*
X159300000Y-146700000D01*
X135650000Y-147785000D02*
X137572500Y-147785000D01*
X137572500Y-147785000D02*
X138000000Y-148212500D01*
D24*
X148344999Y-150600003D02*
X148344999Y-146925001D01*
X144075001Y-142624999D02*
X146374999Y-142624999D01*
D23*
X149630000Y-146800000D02*
X149814999Y-146615001D01*
X129490433Y-144799946D02*
X129765423Y-144524956D01*
D24*
X146500000Y-151050000D02*
X146625001Y-151175001D01*
D23*
X130453079Y-144524956D02*
X130875044Y-144524956D01*
X149000000Y-146800000D02*
X149630000Y-146800000D01*
X130875044Y-144524956D02*
X133638546Y-144524956D01*
X150950000Y-142950000D02*
X152915000Y-142950000D01*
D24*
X143400000Y-143300000D02*
X144075001Y-142624999D01*
X146500000Y-142750000D02*
X146500000Y-143300000D01*
X146374999Y-142624999D02*
X146500000Y-142750000D01*
X148470000Y-146800000D02*
X149000000Y-146800000D01*
D23*
X146500000Y-150500000D02*
X146500000Y-143300000D01*
X133638546Y-144524956D02*
X134613590Y-145500000D01*
D24*
X148344999Y-146925001D02*
X148470000Y-146800000D01*
X146625001Y-151175001D02*
X147770001Y-151175001D01*
X146500000Y-150500000D02*
X146500000Y-151050000D01*
D23*
X141200000Y-145500000D02*
X143400000Y-143300000D01*
X149814999Y-146615001D02*
X149814999Y-144085001D01*
X129765423Y-144524956D02*
X130875044Y-144524956D01*
X134613590Y-145500000D02*
X141200000Y-145500000D01*
X149814999Y-144085001D02*
X150950000Y-142950000D01*
D24*
X147770001Y-151175001D02*
X148344999Y-150600003D01*
D23*
X149000000Y-147600000D02*
X149630000Y-147600000D01*
X150315013Y-149784989D02*
X152915000Y-147185002D01*
D24*
X145700000Y-150500000D02*
X145700000Y-151050000D01*
D23*
X145700000Y-143300000D02*
X145700000Y-145900000D01*
X145700000Y-145900000D02*
X145700000Y-150500000D01*
X149705001Y-149734989D02*
X149655001Y-149784989D01*
X149630000Y-147600000D02*
X149705001Y-147675001D01*
X149655001Y-149784989D02*
X150315013Y-149784989D01*
X145100497Y-146499503D02*
X145700000Y-145900000D01*
X133500000Y-146499503D02*
X145100497Y-146499503D01*
D24*
X146175011Y-151525011D02*
X147914979Y-151525011D01*
X145700000Y-151050000D02*
X146175011Y-151525011D01*
D23*
X149705001Y-147675001D02*
X149705001Y-149734989D01*
X152915000Y-147185002D02*
X152915000Y-144200000D01*
D24*
X147914979Y-151525011D02*
X149655001Y-149784989D01*
X146824989Y-142274989D02*
X143025011Y-142274989D01*
D23*
X147300000Y-143300000D02*
X147300000Y-146000000D01*
X140300000Y-145000000D02*
X134750000Y-145000000D01*
X147300000Y-146000000D02*
X147300000Y-150500000D01*
X128978502Y-144074946D02*
X133824946Y-144074946D01*
X134750000Y-145000000D02*
X133824946Y-144074946D01*
D24*
X143025011Y-142274989D02*
X143000000Y-142300000D01*
D23*
X149000000Y-146000000D02*
X147300000Y-146000000D01*
D24*
X147300000Y-142750000D02*
X146824989Y-142274989D01*
D23*
X149000000Y-143300000D02*
X150600000Y-141700000D01*
X143000000Y-142300000D02*
X140300000Y-145000000D01*
X147300000Y-143300000D02*
X149000000Y-143300000D01*
X128529184Y-144524264D02*
X128978502Y-144074946D01*
X150600000Y-141700000D02*
X152915000Y-141700000D01*
D24*
X147300000Y-143300000D02*
X147300000Y-142750000D01*
D23*
X125000480Y-153262020D02*
X124100000Y-154162500D01*
X128499212Y-145524457D02*
X127237377Y-144262622D01*
X127237377Y-144262622D02*
X126623096Y-144262622D01*
X129790536Y-145524457D02*
X128499212Y-145524457D01*
X125000480Y-145885238D02*
X125000480Y-153262020D01*
X133050989Y-145050989D02*
X130264004Y-145050989D01*
X133500000Y-145500000D02*
X133050989Y-145050989D01*
X130264004Y-145050989D02*
X129790536Y-145524457D01*
X126623096Y-144262622D02*
X125000480Y-145885238D01*
X134176998Y-143500000D02*
X128139243Y-143500000D01*
X135848001Y-144475001D02*
X139623002Y-140700000D01*
X146400000Y-141500000D02*
X145600000Y-141500000D01*
X147200000Y-141500000D02*
X146400000Y-141500000D01*
X134176998Y-143500000D02*
X135151999Y-144475001D01*
X128139243Y-143500000D02*
X127819306Y-143819937D01*
X145235002Y-140700000D02*
X145600000Y-141064998D01*
X135151999Y-144475001D02*
X135848001Y-144475001D01*
X145600000Y-141064998D02*
X145600000Y-141500000D01*
X139623002Y-140700000D02*
X145235002Y-140700000D01*
X133750000Y-151750000D02*
X133750000Y-151250000D01*
X131365000Y-154135000D02*
X133750000Y-151750000D01*
X126350000Y-154135000D02*
X131365000Y-154135000D01*
X131999282Y-152865000D02*
X126350000Y-152865000D01*
X133750000Y-148398034D02*
X133750000Y-150225386D01*
X133025489Y-151838793D02*
X131999282Y-152865000D01*
X133750000Y-150225386D02*
X133025489Y-150949897D01*
X133025489Y-150949897D02*
X133025489Y-151838793D01*
X126809368Y-152054368D02*
X131470246Y-152054368D01*
X132500000Y-151024614D02*
X132500000Y-145775500D01*
X131470246Y-152054368D02*
X132500000Y-151024614D01*
X126350000Y-151595000D02*
X126809368Y-152054368D01*
X128809885Y-150325000D02*
X126350000Y-150325000D01*
X129814742Y-151329857D02*
X128809885Y-150325000D01*
X129055000Y-149055000D02*
X126350000Y-149055000D01*
X131250000Y-151250000D02*
X129055000Y-149055000D01*
X126350000Y-146900001D02*
X127600079Y-145649922D01*
X126350000Y-147785000D02*
X126350000Y-146900001D01*
M02*
