G04 #@! TF.GenerationSoftware,KiCad,Pcbnew,6.0.1-79c1e3a40b~116~ubuntu21.04.1*
G04 #@! TF.CreationDate,2022-02-15T17:28:43-05:00*
G04 #@! TF.ProjectId,ESC_V5,4553435f-5635-42e6-9b69-6361645f7063,rev?*
G04 #@! TF.SameCoordinates,Original*
G04 #@! TF.FileFunction,Legend,Top*
G04 #@! TF.FilePolarity,Positive*
%FSLAX46Y46*%
G04 Gerber Fmt 4.6, Leading zero omitted, Abs format (unit mm)*
G04 Created by KiCad (PCBNEW 6.0.1-79c1e3a40b~116~ubuntu21.04.1) date 2022-02-15 17:28:43*
%MOMM*%
%LPD*%
G01*
G04 APERTURE LIST*
G04 Aperture macros list*
%AMRoundRect*
0 Rectangle with rounded corners*
0 $1 Rounding radius*
0 $2 $3 $4 $5 $6 $7 $8 $9 X,Y pos of 4 corners*
0 Add a 4 corners polygon primitive as box body*
4,1,4,$2,$3,$4,$5,$6,$7,$8,$9,$2,$3,0*
0 Add four circle primitives for the rounded corners*
1,1,$1+$1,$2,$3*
1,1,$1+$1,$4,$5*
1,1,$1+$1,$6,$7*
1,1,$1+$1,$8,$9*
0 Add four rect primitives between the rounded corners*
20,1,$1+$1,$2,$3,$4,$5,0*
20,1,$1+$1,$4,$5,$6,$7,0*
20,1,$1+$1,$6,$7,$8,$9,0*
20,1,$1+$1,$8,$9,$2,$3,0*%
G04 Aperture macros list end*
%ADD10C,0.120000*%
%ADD11C,0.150000*%
%ADD12RoundRect,0.268750X-0.256250X0.218750X-0.256250X-0.218750X0.256250X-0.218750X0.256250X0.218750X0*%
%ADD13RoundRect,0.268750X0.256250X-0.218750X0.256250X0.218750X-0.256250X0.218750X-0.256250X-0.218750X0*%
%ADD14RoundRect,0.197500X-0.147500X-0.172500X0.147500X-0.172500X0.147500X0.172500X-0.147500X0.172500X0*%
%ADD15RoundRect,0.050000X-0.550000X0.550000X-0.550000X-0.550000X0.550000X-0.550000X0.550000X0.550000X0*%
%ADD16RoundRect,0.050000X0.550000X0.550000X-0.550000X0.550000X-0.550000X-0.550000X0.550000X-0.550000X0*%
%ADD17RoundRect,0.050000X-0.250000X0.400000X-0.250000X-0.400000X0.250000X-0.400000X0.250000X0.400000X0*%
%ADD18RoundRect,0.050000X-0.200000X0.400000X-0.200000X-0.400000X0.200000X-0.400000X0.200000X0.400000X0*%
%ADD19RoundRect,0.050000X0.380000X0.215000X-0.380000X0.215000X-0.380000X-0.215000X0.380000X-0.215000X0*%
%ADD20RoundRect,0.050000X-0.400000X-0.250000X0.400000X-0.250000X0.400000X0.250000X-0.400000X0.250000X0*%
%ADD21RoundRect,0.050000X-0.400000X-0.200000X0.400000X-0.200000X0.400000X0.200000X-0.400000X0.200000X0*%
%ADD22RoundRect,0.050000X0.400000X0.250000X-0.400000X0.250000X-0.400000X-0.250000X0.400000X-0.250000X0*%
%ADD23RoundRect,0.050000X0.400000X0.200000X-0.400000X0.200000X-0.400000X-0.200000X0.400000X-0.200000X0*%
%ADD24RoundRect,0.200000X-0.875000X-0.150000X0.875000X-0.150000X0.875000X0.150000X-0.875000X0.150000X0*%
%ADD25RoundRect,0.050000X0.850000X0.850000X-0.850000X0.850000X-0.850000X-0.850000X0.850000X-0.850000X0*%
%ADD26O,1.800000X1.800000*%
%ADD27RoundRect,0.050000X-0.850000X0.850000X-0.850000X-0.850000X0.850000X-0.850000X0.850000X0.850000X0*%
G04 APERTURE END LIST*
D10*
X156600000Y-141900000D02*
X156600000Y-141700000D01*
X156600000Y-144100000D02*
X156800000Y-144100000D01*
X157000000Y-144500000D02*
X156600000Y-144100000D01*
X156800000Y-144100000D02*
X156600000Y-144300000D01*
X156600000Y-144300000D02*
X156600000Y-144100000D01*
X156800000Y-141700000D02*
X156600000Y-141900000D01*
X156800000Y-142900000D02*
X156600000Y-143100000D01*
X156600000Y-141700000D02*
X156800000Y-141700000D01*
X156600000Y-142900000D02*
X156800000Y-142900000D01*
X157000000Y-145000000D02*
X157000000Y-142100000D01*
X157000000Y-142100000D02*
X156600000Y-141700000D01*
X157000000Y-143300000D02*
X156600000Y-142900000D01*
X156600000Y-143100000D02*
X156600000Y-142900000D01*
D11*
X125252380Y-145704761D02*
X124252380Y-145704761D01*
X124252380Y-145323809D01*
X124300000Y-145228571D01*
X124347619Y-145180952D01*
X124442857Y-145133333D01*
X124585714Y-145133333D01*
X124680952Y-145180952D01*
X124728571Y-145228571D01*
X124776190Y-145323809D01*
X124776190Y-145704761D01*
X124252380Y-144800000D02*
X125252380Y-144561904D01*
X124538095Y-144371428D01*
X125252380Y-144180952D01*
X124252380Y-143942857D01*
X125252380Y-143561904D02*
X124252380Y-143561904D01*
X124966666Y-143228571D01*
X124252380Y-142895238D01*
X125252380Y-142895238D01*
X135576071Y-141481785D02*
X135576071Y-142088928D01*
X135611785Y-142160357D01*
X135647500Y-142196071D01*
X135718928Y-142231785D01*
X135861785Y-142231785D01*
X135933214Y-142196071D01*
X135968928Y-142160357D01*
X136004642Y-142088928D01*
X136004642Y-141481785D01*
X136326071Y-142017500D02*
X136683214Y-142017500D01*
X136254642Y-142231785D02*
X136504642Y-141481785D01*
X136754642Y-142231785D01*
X137433214Y-142231785D02*
X137183214Y-141874642D01*
X137004642Y-142231785D02*
X137004642Y-141481785D01*
X137290357Y-141481785D01*
X137361785Y-141517500D01*
X137397500Y-141553214D01*
X137433214Y-141624642D01*
X137433214Y-141731785D01*
X137397500Y-141803214D01*
X137361785Y-141838928D01*
X137290357Y-141874642D01*
X137004642Y-141874642D01*
X137647500Y-141481785D02*
X138076071Y-141481785D01*
X137861785Y-142231785D02*
X137861785Y-141481785D01*
X138897500Y-142231785D02*
X138897500Y-141481785D01*
X139183214Y-141481785D01*
X139254642Y-141517500D01*
X139290357Y-141553214D01*
X139326071Y-141624642D01*
X139326071Y-141731785D01*
X139290357Y-141803214D01*
X139254642Y-141838928D01*
X139183214Y-141874642D01*
X138897500Y-141874642D01*
X140076071Y-142231785D02*
X139826071Y-141874642D01*
X139647500Y-142231785D02*
X139647500Y-141481785D01*
X139933214Y-141481785D01*
X140004642Y-141517500D01*
X140040357Y-141553214D01*
X140076071Y-141624642D01*
X140076071Y-141731785D01*
X140040357Y-141803214D01*
X140004642Y-141838928D01*
X139933214Y-141874642D01*
X139647500Y-141874642D01*
X140540357Y-141481785D02*
X140683214Y-141481785D01*
X140754642Y-141517500D01*
X140826071Y-141588928D01*
X140861785Y-141731785D01*
X140861785Y-141981785D01*
X140826071Y-142124642D01*
X140754642Y-142196071D01*
X140683214Y-142231785D01*
X140540357Y-142231785D01*
X140468928Y-142196071D01*
X140397500Y-142124642D01*
X140361785Y-141981785D01*
X140361785Y-141731785D01*
X140397500Y-141588928D01*
X140468928Y-141517500D01*
X140540357Y-141481785D01*
X141576071Y-141517500D02*
X141504642Y-141481785D01*
X141397500Y-141481785D01*
X141290357Y-141517500D01*
X141218928Y-141588928D01*
X141183214Y-141660357D01*
X141147500Y-141803214D01*
X141147500Y-141910357D01*
X141183214Y-142053214D01*
X141218928Y-142124642D01*
X141290357Y-142196071D01*
X141397500Y-142231785D01*
X141468928Y-142231785D01*
X141576071Y-142196071D01*
X141611785Y-142160357D01*
X141611785Y-141910357D01*
X141468928Y-141910357D01*
X141933214Y-142160357D02*
X141968928Y-142196071D01*
X141933214Y-142231785D01*
X141897500Y-142196071D01*
X141933214Y-142160357D01*
X141933214Y-142231785D01*
X141933214Y-141767500D02*
X141968928Y-141803214D01*
X141933214Y-141838928D01*
X141897500Y-141803214D01*
X141933214Y-141767500D01*
X141933214Y-141838928D01*
X135826071Y-143046428D02*
X135933214Y-143082142D01*
X135968928Y-143117857D01*
X136004642Y-143189285D01*
X136004642Y-143296428D01*
X135968928Y-143367857D01*
X135933214Y-143403571D01*
X135861785Y-143439285D01*
X135576071Y-143439285D01*
X135576071Y-142689285D01*
X135826071Y-142689285D01*
X135897500Y-142725000D01*
X135933214Y-142760714D01*
X135968928Y-142832142D01*
X135968928Y-142903571D01*
X135933214Y-142975000D01*
X135897500Y-143010714D01*
X135826071Y-143046428D01*
X135576071Y-143046428D01*
X136326071Y-142689285D02*
X136326071Y-143296428D01*
X136361785Y-143367857D01*
X136397500Y-143403571D01*
X136468928Y-143439285D01*
X136611785Y-143439285D01*
X136683214Y-143403571D01*
X136718928Y-143367857D01*
X136754642Y-143296428D01*
X136754642Y-142689285D01*
X137540357Y-143439285D02*
X137290357Y-143082142D01*
X137111785Y-143439285D02*
X137111785Y-142689285D01*
X137397500Y-142689285D01*
X137468928Y-142725000D01*
X137504642Y-142760714D01*
X137540357Y-142832142D01*
X137540357Y-142939285D01*
X137504642Y-143010714D01*
X137468928Y-143046428D01*
X137397500Y-143082142D01*
X137111785Y-143082142D01*
X137861785Y-143439285D02*
X137861785Y-142689285D01*
X138290357Y-143439285D01*
X138290357Y-142689285D01*
X139468928Y-143046428D02*
X139576071Y-143082142D01*
X139611785Y-143117857D01*
X139647500Y-143189285D01*
X139647500Y-143296428D01*
X139611785Y-143367857D01*
X139576071Y-143403571D01*
X139504642Y-143439285D01*
X139218928Y-143439285D01*
X139218928Y-142689285D01*
X139468928Y-142689285D01*
X139540357Y-142725000D01*
X139576071Y-142760714D01*
X139611785Y-142832142D01*
X139611785Y-142903571D01*
X139576071Y-142975000D01*
X139540357Y-143010714D01*
X139468928Y-143046428D01*
X139218928Y-143046428D01*
X140111785Y-142689285D02*
X140254642Y-142689285D01*
X140326071Y-142725000D01*
X140397500Y-142796428D01*
X140433214Y-142939285D01*
X140433214Y-143189285D01*
X140397500Y-143332142D01*
X140326071Y-143403571D01*
X140254642Y-143439285D01*
X140111785Y-143439285D01*
X140040357Y-143403571D01*
X139968928Y-143332142D01*
X139933214Y-143189285D01*
X139933214Y-142939285D01*
X139968928Y-142796428D01*
X140040357Y-142725000D01*
X140111785Y-142689285D01*
X140897500Y-142689285D02*
X141040357Y-142689285D01*
X141111785Y-142725000D01*
X141183214Y-142796428D01*
X141218928Y-142939285D01*
X141218928Y-143189285D01*
X141183214Y-143332142D01*
X141111785Y-143403571D01*
X141040357Y-143439285D01*
X140897500Y-143439285D01*
X140826071Y-143403571D01*
X140754642Y-143332142D01*
X140718928Y-143189285D01*
X140718928Y-142939285D01*
X140754642Y-142796428D01*
X140826071Y-142725000D01*
X140897500Y-142689285D01*
X141433214Y-142689285D02*
X141861785Y-142689285D01*
X141647500Y-143439285D02*
X141647500Y-142689285D01*
X142468928Y-143439285D02*
X142111785Y-143439285D01*
X142111785Y-142689285D01*
X142718928Y-143439285D02*
X142718928Y-142689285D01*
X142897500Y-142689285D01*
X143004642Y-142725000D01*
X143076071Y-142796428D01*
X143111785Y-142867857D01*
X143147500Y-143010714D01*
X143147500Y-143117857D01*
X143111785Y-143260714D01*
X143076071Y-143332142D01*
X143004642Y-143403571D01*
X142897500Y-143439285D01*
X142718928Y-143439285D01*
X143897500Y-143439285D02*
X143647500Y-143082142D01*
X143468928Y-143439285D02*
X143468928Y-142689285D01*
X143754642Y-142689285D01*
X143826071Y-142725000D01*
X143861785Y-142760714D01*
X143897500Y-142832142D01*
X143897500Y-142939285D01*
X143861785Y-143010714D01*
X143826071Y-143046428D01*
X143754642Y-143082142D01*
X143468928Y-143082142D01*
X135540357Y-144432500D02*
X135897500Y-144432500D01*
X135468928Y-144646785D02*
X135718928Y-143896785D01*
X135968928Y-144646785D01*
X136218928Y-144646785D02*
X136218928Y-143896785D01*
X136647500Y-144646785D01*
X136647500Y-143896785D01*
X137004642Y-144646785D02*
X137004642Y-143896785D01*
X137183214Y-143896785D01*
X137290357Y-143932500D01*
X137361785Y-144003928D01*
X137397500Y-144075357D01*
X137433214Y-144218214D01*
X137433214Y-144325357D01*
X137397500Y-144468214D01*
X137361785Y-144539642D01*
X137290357Y-144611071D01*
X137183214Y-144646785D01*
X137004642Y-144646785D01*
X138576071Y-144253928D02*
X138683214Y-144289642D01*
X138718928Y-144325357D01*
X138754642Y-144396785D01*
X138754642Y-144503928D01*
X138718928Y-144575357D01*
X138683214Y-144611071D01*
X138611785Y-144646785D01*
X138326071Y-144646785D01*
X138326071Y-143896785D01*
X138576071Y-143896785D01*
X138647500Y-143932500D01*
X138683214Y-143968214D01*
X138718928Y-144039642D01*
X138718928Y-144111071D01*
X138683214Y-144182500D01*
X138647500Y-144218214D01*
X138576071Y-144253928D01*
X138326071Y-144253928D01*
X139504642Y-144646785D02*
X139254642Y-144289642D01*
X139076071Y-144646785D02*
X139076071Y-143896785D01*
X139361785Y-143896785D01*
X139433214Y-143932500D01*
X139468928Y-143968214D01*
X139504642Y-144039642D01*
X139504642Y-144146785D01*
X139468928Y-144218214D01*
X139433214Y-144253928D01*
X139361785Y-144289642D01*
X139076071Y-144289642D01*
X139826071Y-144646785D02*
X139826071Y-143896785D01*
X140183214Y-144646785D02*
X140183214Y-143896785D01*
X140361785Y-143896785D01*
X140468928Y-143932500D01*
X140540357Y-144003928D01*
X140576071Y-144075357D01*
X140611785Y-144218214D01*
X140611785Y-144325357D01*
X140576071Y-144468214D01*
X140540357Y-144539642D01*
X140468928Y-144611071D01*
X140361785Y-144646785D01*
X140183214Y-144646785D01*
X141326071Y-143932500D02*
X141254642Y-143896785D01*
X141147500Y-143896785D01*
X141040357Y-143932500D01*
X140968928Y-144003928D01*
X140933214Y-144075357D01*
X140897500Y-144218214D01*
X140897500Y-144325357D01*
X140933214Y-144468214D01*
X140968928Y-144539642D01*
X141040357Y-144611071D01*
X141147500Y-144646785D01*
X141218928Y-144646785D01*
X141326071Y-144611071D01*
X141361785Y-144575357D01*
X141361785Y-144325357D01*
X141218928Y-144325357D01*
X141683214Y-144253928D02*
X141933214Y-144253928D01*
X142040357Y-144646785D02*
X141683214Y-144646785D01*
X141683214Y-143896785D01*
X142040357Y-143896785D01*
X142933214Y-144646785D02*
X142933214Y-143896785D01*
X143111785Y-143896785D01*
X143218928Y-143932500D01*
X143290357Y-144003928D01*
X143326071Y-144075357D01*
X143361785Y-144218214D01*
X143361785Y-144325357D01*
X143326071Y-144468214D01*
X143290357Y-144539642D01*
X143218928Y-144611071D01*
X143111785Y-144646785D01*
X142933214Y-144646785D01*
X143576071Y-143896785D02*
X144004642Y-143896785D01*
X143790357Y-144646785D02*
X143790357Y-143896785D01*
X144683214Y-144646785D02*
X144433214Y-144289642D01*
X144254642Y-144646785D02*
X144254642Y-143896785D01*
X144540357Y-143896785D01*
X144611785Y-143932500D01*
X144647500Y-143968214D01*
X144683214Y-144039642D01*
X144683214Y-144146785D01*
X144647500Y-144218214D01*
X144611785Y-144253928D01*
X144540357Y-144289642D01*
X144254642Y-144289642D01*
X129033333Y-143952380D02*
X128700000Y-143476190D01*
X128461904Y-143952380D02*
X128461904Y-142952380D01*
X128842857Y-142952380D01*
X128938095Y-143000000D01*
X128985714Y-143047619D01*
X129033333Y-143142857D01*
X129033333Y-143285714D01*
X128985714Y-143380952D01*
X128938095Y-143428571D01*
X128842857Y-143476190D01*
X128461904Y-143476190D01*
X129366666Y-142952380D02*
X130033333Y-143952380D01*
X130033333Y-142952380D02*
X129366666Y-143952380D01*
X126509523Y-143052380D02*
X126033333Y-143052380D01*
X125985714Y-143528571D01*
X126033333Y-143480952D01*
X126128571Y-143433333D01*
X126366666Y-143433333D01*
X126461904Y-143480952D01*
X126509523Y-143528571D01*
X126557142Y-143623809D01*
X126557142Y-143861904D01*
X126509523Y-143957142D01*
X126461904Y-144004761D01*
X126366666Y-144052380D01*
X126128571Y-144052380D01*
X126033333Y-144004761D01*
X125985714Y-143957142D01*
X126842857Y-143052380D02*
X127176190Y-144052380D01*
X127509523Y-143052380D01*
X120838095Y-143200000D02*
X120742857Y-143152380D01*
X120600000Y-143152380D01*
X120457142Y-143200000D01*
X120361904Y-143295238D01*
X120314285Y-143390476D01*
X120266666Y-143580952D01*
X120266666Y-143723809D01*
X120314285Y-143914285D01*
X120361904Y-144009523D01*
X120457142Y-144104761D01*
X120600000Y-144152380D01*
X120695238Y-144152380D01*
X120838095Y-144104761D01*
X120885714Y-144057142D01*
X120885714Y-143723809D01*
X120695238Y-143723809D01*
X121314285Y-144152380D02*
X121314285Y-143152380D01*
X121885714Y-144152380D01*
X121885714Y-143152380D01*
X122361904Y-144152380D02*
X122361904Y-143152380D01*
X122600000Y-143152380D01*
X122742857Y-143200000D01*
X122838095Y-143295238D01*
X122885714Y-143390476D01*
X122933333Y-143580952D01*
X122933333Y-143723809D01*
X122885714Y-143914285D01*
X122838095Y-144009523D01*
X122742857Y-144104761D01*
X122600000Y-144152380D01*
X122361904Y-144152380D01*
X134852380Y-145342857D02*
X133852380Y-145342857D01*
X133852380Y-145104761D01*
X133900000Y-144961904D01*
X133995238Y-144866666D01*
X134090476Y-144819047D01*
X134280952Y-144771428D01*
X134423809Y-144771428D01*
X134614285Y-144819047D01*
X134709523Y-144866666D01*
X134804761Y-144961904D01*
X134852380Y-145104761D01*
X134852380Y-145342857D01*
X133852380Y-144485714D02*
X133852380Y-143914285D01*
X134852380Y-144200000D02*
X133852380Y-144200000D01*
X134852380Y-143009523D02*
X134376190Y-143342857D01*
X134852380Y-143580952D02*
X133852380Y-143580952D01*
X133852380Y-143200000D01*
X133900000Y-143104761D01*
X133947619Y-143057142D01*
X134042857Y-143009523D01*
X134185714Y-143009523D01*
X134280952Y-143057142D01*
X134328571Y-143104761D01*
X134376190Y-143200000D01*
X134376190Y-143580952D01*
X151773928Y-145347380D02*
X151964404Y-145347380D01*
X152059642Y-145395000D01*
X152154880Y-145490238D01*
X152202500Y-145680714D01*
X152202500Y-146014047D01*
X152154880Y-146204523D01*
X152059642Y-146299761D01*
X151964404Y-146347380D01*
X151773928Y-146347380D01*
X151678690Y-146299761D01*
X151583452Y-146204523D01*
X151535833Y-146014047D01*
X151535833Y-145680714D01*
X151583452Y-145490238D01*
X151678690Y-145395000D01*
X151773928Y-145347380D01*
X152631071Y-146347380D02*
X152631071Y-145347380D01*
X153012023Y-145347380D01*
X153107261Y-145395000D01*
X153154880Y-145442619D01*
X153202500Y-145537857D01*
X153202500Y-145680714D01*
X153154880Y-145775952D01*
X153107261Y-145823571D01*
X153012023Y-145871190D01*
X152631071Y-145871190D01*
X153488214Y-145347380D02*
X154059642Y-145347380D01*
X153773928Y-146347380D02*
X153773928Y-145347380D01*
X154392976Y-146252142D02*
X154440595Y-146299761D01*
X154392976Y-146347380D01*
X154345357Y-146299761D01*
X154392976Y-146252142D01*
X154392976Y-146347380D01*
X156202500Y-146252142D02*
X156154880Y-146299761D01*
X156012023Y-146347380D01*
X155916785Y-146347380D01*
X155773928Y-146299761D01*
X155678690Y-146204523D01*
X155631071Y-146109285D01*
X155583452Y-145918809D01*
X155583452Y-145775952D01*
X155631071Y-145585476D01*
X155678690Y-145490238D01*
X155773928Y-145395000D01*
X155916785Y-145347380D01*
X156012023Y-145347380D01*
X156154880Y-145395000D01*
X156202500Y-145442619D01*
X156583452Y-146061666D02*
X157059642Y-146061666D01*
X156488214Y-146347380D02*
X156821547Y-145347380D01*
X157154880Y-146347380D01*
X157488214Y-146347380D02*
X157488214Y-145347380D01*
X157869166Y-145347380D01*
X157964404Y-145395000D01*
X158012023Y-145442619D01*
X158059642Y-145537857D01*
X158059642Y-145680714D01*
X158012023Y-145775952D01*
X157964404Y-145823571D01*
X157869166Y-145871190D01*
X157488214Y-145871190D01*
X158440595Y-146299761D02*
X158583452Y-146347380D01*
X158821547Y-146347380D01*
X158916785Y-146299761D01*
X158964404Y-146252142D01*
X159012023Y-146156904D01*
X159012023Y-146061666D01*
X158964404Y-145966428D01*
X158916785Y-145918809D01*
X158821547Y-145871190D01*
X158631071Y-145823571D01*
X158535833Y-145775952D01*
X158488214Y-145728333D01*
X158440595Y-145633095D01*
X158440595Y-145537857D01*
X158488214Y-145442619D01*
X158535833Y-145395000D01*
X158631071Y-145347380D01*
X158869166Y-145347380D01*
X159012023Y-145395000D01*
X152202500Y-147433571D02*
X151869166Y-147433571D01*
X151869166Y-147957380D02*
X151869166Y-146957380D01*
X152345357Y-146957380D01*
X152916785Y-146957380D02*
X153107261Y-146957380D01*
X153202500Y-147005000D01*
X153297738Y-147100238D01*
X153345357Y-147290714D01*
X153345357Y-147624047D01*
X153297738Y-147814523D01*
X153202500Y-147909761D01*
X153107261Y-147957380D01*
X152916785Y-147957380D01*
X152821547Y-147909761D01*
X152726309Y-147814523D01*
X152678690Y-147624047D01*
X152678690Y-147290714D01*
X152726309Y-147100238D01*
X152821547Y-147005000D01*
X152916785Y-146957380D01*
X154345357Y-147957380D02*
X154012023Y-147481190D01*
X153773928Y-147957380D02*
X153773928Y-146957380D01*
X154154880Y-146957380D01*
X154250119Y-147005000D01*
X154297738Y-147052619D01*
X154345357Y-147147857D01*
X154345357Y-147290714D01*
X154297738Y-147385952D01*
X154250119Y-147433571D01*
X154154880Y-147481190D01*
X153773928Y-147481190D01*
X155869166Y-147433571D02*
X156012023Y-147481190D01*
X156059642Y-147528809D01*
X156107261Y-147624047D01*
X156107261Y-147766904D01*
X156059642Y-147862142D01*
X156012023Y-147909761D01*
X155916785Y-147957380D01*
X155535833Y-147957380D01*
X155535833Y-146957380D01*
X155869166Y-146957380D01*
X155964404Y-147005000D01*
X156012023Y-147052619D01*
X156059642Y-147147857D01*
X156059642Y-147243095D01*
X156012023Y-147338333D01*
X155964404Y-147385952D01*
X155869166Y-147433571D01*
X155535833Y-147433571D01*
X156535833Y-147433571D02*
X156869166Y-147433571D01*
X157012023Y-147957380D02*
X156535833Y-147957380D01*
X156535833Y-146957380D01*
X157012023Y-146957380D01*
X157440595Y-147957380D02*
X157440595Y-146957380D01*
X157773928Y-147671666D01*
X158107261Y-146957380D01*
X158107261Y-147957380D01*
X158916785Y-147433571D02*
X158583452Y-147433571D01*
X158583452Y-147957380D02*
X158583452Y-146957380D01*
X159059642Y-146957380D01*
X131038095Y-142952380D02*
X131609523Y-142952380D01*
X131323809Y-143952380D02*
X131323809Y-142952380D01*
X131847619Y-142952380D02*
X132514285Y-143952380D01*
X132514285Y-142952380D02*
X131847619Y-143952380D01*
X139787142Y-149166666D02*
X139834761Y-149214285D01*
X139882380Y-149357142D01*
X139882380Y-149452380D01*
X139834761Y-149595238D01*
X139739523Y-149690476D01*
X139644285Y-149738095D01*
X139453809Y-149785714D01*
X139310952Y-149785714D01*
X139120476Y-149738095D01*
X139025238Y-149690476D01*
X138930000Y-149595238D01*
X138882380Y-149452380D01*
X138882380Y-149357142D01*
X138930000Y-149214285D01*
X138977619Y-149166666D01*
X138882380Y-148833333D02*
X138882380Y-148214285D01*
X139263333Y-148547619D01*
X139263333Y-148404761D01*
X139310952Y-148309523D01*
X139358571Y-148261904D01*
X139453809Y-148214285D01*
X139691904Y-148214285D01*
X139787142Y-148261904D01*
X139834761Y-148309523D01*
X139882380Y-148404761D01*
X139882380Y-148690476D01*
X139834761Y-148785714D01*
X139787142Y-148833333D01*
X139787142Y-154166666D02*
X139834761Y-154214285D01*
X139882380Y-154357142D01*
X139882380Y-154452380D01*
X139834761Y-154595238D01*
X139739523Y-154690476D01*
X139644285Y-154738095D01*
X139453809Y-154785714D01*
X139310952Y-154785714D01*
X139120476Y-154738095D01*
X139025238Y-154690476D01*
X138930000Y-154595238D01*
X138882380Y-154452380D01*
X138882380Y-154357142D01*
X138930000Y-154214285D01*
X138977619Y-154166666D01*
X139215714Y-153309523D02*
X139882380Y-153309523D01*
X138834761Y-153547619D02*
X139549047Y-153785714D01*
X139549047Y-153166666D01*
X124357142Y-155466666D02*
X124404761Y-155514285D01*
X124452380Y-155657142D01*
X124452380Y-155752380D01*
X124404761Y-155895238D01*
X124309523Y-155990476D01*
X124214285Y-156038095D01*
X124023809Y-156085714D01*
X123880952Y-156085714D01*
X123690476Y-156038095D01*
X123595238Y-155990476D01*
X123500000Y-155895238D01*
X123452380Y-155752380D01*
X123452380Y-155657142D01*
X123500000Y-155514285D01*
X123547619Y-155466666D01*
X123452380Y-154561904D02*
X123452380Y-155038095D01*
X123928571Y-155085714D01*
X123880952Y-155038095D01*
X123833333Y-154942857D01*
X123833333Y-154704761D01*
X123880952Y-154609523D01*
X123928571Y-154561904D01*
X124023809Y-154514285D01*
X124261904Y-154514285D01*
X124357142Y-154561904D01*
X124404761Y-154609523D01*
X124452380Y-154704761D01*
X124452380Y-154942857D01*
X124404761Y-155038095D01*
X124357142Y-155085714D01*
X155218333Y-143307142D02*
X155170714Y-143354761D01*
X155027857Y-143402380D01*
X154932619Y-143402380D01*
X154789761Y-143354761D01*
X154694523Y-143259523D01*
X154646904Y-143164285D01*
X154599285Y-142973809D01*
X154599285Y-142830952D01*
X154646904Y-142640476D01*
X154694523Y-142545238D01*
X154789761Y-142450000D01*
X154932619Y-142402380D01*
X155027857Y-142402380D01*
X155170714Y-142450000D01*
X155218333Y-142497619D01*
X156075476Y-142402380D02*
X155885000Y-142402380D01*
X155789761Y-142450000D01*
X155742142Y-142497619D01*
X155646904Y-142640476D01*
X155599285Y-142830952D01*
X155599285Y-143211904D01*
X155646904Y-143307142D01*
X155694523Y-143354761D01*
X155789761Y-143402380D01*
X155980238Y-143402380D01*
X156075476Y-143354761D01*
X156123095Y-143307142D01*
X156170714Y-143211904D01*
X156170714Y-142973809D01*
X156123095Y-142878571D01*
X156075476Y-142830952D01*
X155980238Y-142783333D01*
X155789761Y-142783333D01*
X155694523Y-142830952D01*
X155646904Y-142878571D01*
X155599285Y-142973809D01*
X155233333Y-144557142D02*
X155185714Y-144604761D01*
X155042857Y-144652380D01*
X154947619Y-144652380D01*
X154804761Y-144604761D01*
X154709523Y-144509523D01*
X154661904Y-144414285D01*
X154614285Y-144223809D01*
X154614285Y-144080952D01*
X154661904Y-143890476D01*
X154709523Y-143795238D01*
X154804761Y-143700000D01*
X154947619Y-143652380D01*
X155042857Y-143652380D01*
X155185714Y-143700000D01*
X155233333Y-143747619D01*
X155566666Y-143652380D02*
X156233333Y-143652380D01*
X155804761Y-144652380D01*
X155233333Y-142057142D02*
X155185714Y-142104761D01*
X155042857Y-142152380D01*
X154947619Y-142152380D01*
X154804761Y-142104761D01*
X154709523Y-142009523D01*
X154661904Y-141914285D01*
X154614285Y-141723809D01*
X154614285Y-141580952D01*
X154661904Y-141390476D01*
X154709523Y-141295238D01*
X154804761Y-141200000D01*
X154947619Y-141152380D01*
X155042857Y-141152380D01*
X155185714Y-141200000D01*
X155233333Y-141247619D01*
X155804761Y-141580952D02*
X155709523Y-141533333D01*
X155661904Y-141485714D01*
X155614285Y-141390476D01*
X155614285Y-141342857D01*
X155661904Y-141247619D01*
X155709523Y-141200000D01*
X155804761Y-141152380D01*
X155995238Y-141152380D01*
X156090476Y-141200000D01*
X156138095Y-141247619D01*
X156185714Y-141342857D01*
X156185714Y-141390476D01*
X156138095Y-141485714D01*
X156090476Y-141533333D01*
X155995238Y-141580952D01*
X155804761Y-141580952D01*
X155709523Y-141628571D01*
X155661904Y-141676190D01*
X155614285Y-141771428D01*
X155614285Y-141961904D01*
X155661904Y-142057142D01*
X155709523Y-142104761D01*
X155804761Y-142152380D01*
X155995238Y-142152380D01*
X156090476Y-142104761D01*
X156138095Y-142057142D01*
X156185714Y-141961904D01*
X156185714Y-141771428D01*
X156138095Y-141676190D01*
X156090476Y-141628571D01*
X155995238Y-141580952D01*
X128452380Y-164738095D02*
X127452380Y-164738095D01*
X127452380Y-164500000D01*
X127500000Y-164357142D01*
X127595238Y-164261904D01*
X127690476Y-164214285D01*
X127880952Y-164166666D01*
X128023809Y-164166666D01*
X128214285Y-164214285D01*
X128309523Y-164261904D01*
X128404761Y-164357142D01*
X128452380Y-164500000D01*
X128452380Y-164738095D01*
X128452380Y-163214285D02*
X128452380Y-163785714D01*
X128452380Y-163500000D02*
X127452380Y-163500000D01*
X127595238Y-163595238D01*
X127690476Y-163690476D01*
X127738095Y-163785714D01*
X134952380Y-164738095D02*
X133952380Y-164738095D01*
X133952380Y-164500000D01*
X134000000Y-164357142D01*
X134095238Y-164261904D01*
X134190476Y-164214285D01*
X134380952Y-164166666D01*
X134523809Y-164166666D01*
X134714285Y-164214285D01*
X134809523Y-164261904D01*
X134904761Y-164357142D01*
X134952380Y-164500000D01*
X134952380Y-164738095D01*
X134047619Y-163785714D02*
X134000000Y-163738095D01*
X133952380Y-163642857D01*
X133952380Y-163404761D01*
X134000000Y-163309523D01*
X134047619Y-163261904D01*
X134142857Y-163214285D01*
X134238095Y-163214285D01*
X134380952Y-163261904D01*
X134952380Y-163833333D01*
X134952380Y-163214285D01*
X124861904Y-164152380D02*
X124861904Y-163152380D01*
X125100000Y-163152380D01*
X125242857Y-163200000D01*
X125338095Y-163295238D01*
X125385714Y-163390476D01*
X125433333Y-163580952D01*
X125433333Y-163723809D01*
X125385714Y-163914285D01*
X125338095Y-164009523D01*
X125242857Y-164104761D01*
X125100000Y-164152380D01*
X124861904Y-164152380D01*
X125766666Y-163152380D02*
X126385714Y-163152380D01*
X126052380Y-163533333D01*
X126195238Y-163533333D01*
X126290476Y-163580952D01*
X126338095Y-163628571D01*
X126385714Y-163723809D01*
X126385714Y-163961904D01*
X126338095Y-164057142D01*
X126290476Y-164104761D01*
X126195238Y-164152380D01*
X125909523Y-164152380D01*
X125814285Y-164104761D01*
X125766666Y-164057142D01*
X149352380Y-152090476D02*
X148876190Y-152423809D01*
X149352380Y-152661904D02*
X148352380Y-152661904D01*
X148352380Y-152280952D01*
X148400000Y-152185714D01*
X148447619Y-152138095D01*
X148542857Y-152090476D01*
X148685714Y-152090476D01*
X148780952Y-152138095D01*
X148828571Y-152185714D01*
X148876190Y-152280952D01*
X148876190Y-152661904D01*
X149352380Y-151661904D02*
X148352380Y-151661904D01*
X149352380Y-151090476D01*
X148352380Y-151090476D01*
X148685714Y-150185714D02*
X149352380Y-150185714D01*
X148304761Y-150423809D02*
X149019047Y-150661904D01*
X149019047Y-150042857D01*
X148052380Y-147890476D02*
X147576190Y-148223809D01*
X148052380Y-148461904D02*
X147052380Y-148461904D01*
X147052380Y-148080952D01*
X147100000Y-147985714D01*
X147147619Y-147938095D01*
X147242857Y-147890476D01*
X147385714Y-147890476D01*
X147480952Y-147938095D01*
X147528571Y-147985714D01*
X147576190Y-148080952D01*
X147576190Y-148461904D01*
X148052380Y-147461904D02*
X147052380Y-147461904D01*
X148052380Y-146890476D01*
X147052380Y-146890476D01*
X147052380Y-145938095D02*
X147052380Y-146414285D01*
X147528571Y-146461904D01*
X147480952Y-146414285D01*
X147433333Y-146319047D01*
X147433333Y-146080952D01*
X147480952Y-145985714D01*
X147528571Y-145938095D01*
X147623809Y-145890476D01*
X147861904Y-145890476D01*
X147957142Y-145938095D01*
X148004761Y-145985714D01*
X148052380Y-146080952D01*
X148052380Y-146319047D01*
X148004761Y-146414285D01*
X147957142Y-146461904D01*
X145009523Y-158752380D02*
X144676190Y-158276190D01*
X144438095Y-158752380D02*
X144438095Y-157752380D01*
X144819047Y-157752380D01*
X144914285Y-157800000D01*
X144961904Y-157847619D01*
X145009523Y-157942857D01*
X145009523Y-158085714D01*
X144961904Y-158180952D01*
X144914285Y-158228571D01*
X144819047Y-158276190D01*
X144438095Y-158276190D01*
X145438095Y-158752380D02*
X145438095Y-157752380D01*
X146009523Y-158752380D01*
X146009523Y-157752380D01*
X147009523Y-158752380D02*
X146438095Y-158752380D01*
X146723809Y-158752380D02*
X146723809Y-157752380D01*
X146628571Y-157895238D01*
X146533333Y-157990476D01*
X146438095Y-158038095D01*
X153109523Y-158652380D02*
X152776190Y-158176190D01*
X152538095Y-158652380D02*
X152538095Y-157652380D01*
X152919047Y-157652380D01*
X153014285Y-157700000D01*
X153061904Y-157747619D01*
X153109523Y-157842857D01*
X153109523Y-157985714D01*
X153061904Y-158080952D01*
X153014285Y-158128571D01*
X152919047Y-158176190D01*
X152538095Y-158176190D01*
X153538095Y-158652380D02*
X153538095Y-157652380D01*
X154109523Y-158652380D01*
X154109523Y-157652380D01*
X154538095Y-157747619D02*
X154585714Y-157700000D01*
X154680952Y-157652380D01*
X154919047Y-157652380D01*
X155014285Y-157700000D01*
X155061904Y-157747619D01*
X155109523Y-157842857D01*
X155109523Y-157938095D01*
X155061904Y-158080952D01*
X154490476Y-158652380D01*
X155109523Y-158652380D01*
X149352380Y-143090476D02*
X148876190Y-143423809D01*
X149352380Y-143661904D02*
X148352380Y-143661904D01*
X148352380Y-143280952D01*
X148400000Y-143185714D01*
X148447619Y-143138095D01*
X148542857Y-143090476D01*
X148685714Y-143090476D01*
X148780952Y-143138095D01*
X148828571Y-143185714D01*
X148876190Y-143280952D01*
X148876190Y-143661904D01*
X149352380Y-142661904D02*
X148352380Y-142661904D01*
X149352380Y-142090476D01*
X148352380Y-142090476D01*
X148352380Y-141709523D02*
X148352380Y-141090476D01*
X148733333Y-141423809D01*
X148733333Y-141280952D01*
X148780952Y-141185714D01*
X148828571Y-141138095D01*
X148923809Y-141090476D01*
X149161904Y-141090476D01*
X149257142Y-141138095D01*
X149304761Y-141185714D01*
X149352380Y-141280952D01*
X149352380Y-141566666D01*
X149304761Y-141661904D01*
X149257142Y-141709523D01*
X130238095Y-145602380D02*
X130238095Y-146411904D01*
X130285714Y-146507142D01*
X130333333Y-146554761D01*
X130428571Y-146602380D01*
X130619047Y-146602380D01*
X130714285Y-146554761D01*
X130761904Y-146507142D01*
X130809523Y-146411904D01*
X130809523Y-145602380D01*
X131809523Y-146602380D02*
X131238095Y-146602380D01*
X131523809Y-146602380D02*
X131523809Y-145602380D01*
X131428571Y-145745238D01*
X131333333Y-145840476D01*
X131238095Y-145888095D01*
D10*
X137490000Y-148837221D02*
X137490000Y-149162779D01*
X138510000Y-148837221D02*
X138510000Y-149162779D01*
X138510000Y-153837221D02*
X138510000Y-154162779D01*
X137490000Y-153837221D02*
X137490000Y-154162779D01*
X124510000Y-157950279D02*
X124510000Y-157624721D01*
X123490000Y-157950279D02*
X123490000Y-157624721D01*
X131000000Y-160300000D02*
X129000000Y-160300000D01*
X131000000Y-160300000D02*
X131000000Y-164150000D01*
X129000000Y-160300000D02*
X129000000Y-164150000D01*
X133500000Y-160300000D02*
X133500000Y-164150000D01*
X131500000Y-160300000D02*
X131500000Y-164150000D01*
X133500000Y-160300000D02*
X131500000Y-160300000D01*
X127700000Y-162800000D02*
X123850000Y-162800000D01*
X127700000Y-160800000D02*
X123850000Y-160800000D01*
X127700000Y-162800000D02*
X127700000Y-160800000D01*
X147780000Y-151900000D02*
X147780000Y-150900000D01*
X144420000Y-151900000D02*
X144420000Y-150900000D01*
X150860000Y-145500000D02*
X148660000Y-145500000D01*
X150860000Y-148900000D02*
X148660000Y-148900000D01*
X146200000Y-159420000D02*
X145200000Y-159420000D01*
X146200000Y-162780000D02*
X145200000Y-162780000D01*
X153300000Y-159420000D02*
X154300000Y-159420000D01*
X153300000Y-162780000D02*
X154300000Y-162780000D01*
X147780000Y-142900000D02*
X147780000Y-141900000D01*
X144420000Y-142900000D02*
X144420000Y-141900000D01*
X134860000Y-160010000D02*
X134860000Y-159775000D01*
X127140000Y-146990000D02*
X127140000Y-147225000D01*
X127140000Y-160010000D02*
X127140000Y-159775000D01*
X131000000Y-160010000D02*
X127140000Y-160010000D01*
X131000000Y-160010000D02*
X134860000Y-160010000D01*
X131000000Y-146990000D02*
X134860000Y-146990000D01*
X134860000Y-146990000D02*
X134860000Y-147225000D01*
X127140000Y-147225000D02*
X125325000Y-147225000D01*
X131000000Y-146990000D02*
X127140000Y-146990000D01*
%LPC*%
D12*
X138000000Y-148212500D03*
X138000000Y-149787500D03*
X138000000Y-153212500D03*
X138000000Y-154787500D03*
D13*
X124000000Y-158575000D03*
X124000000Y-157000000D03*
D14*
X152915000Y-142950000D03*
X153885000Y-142950000D03*
X152915000Y-144200000D03*
X153885000Y-144200000D03*
X152915000Y-141700000D03*
X153885000Y-141700000D03*
D15*
X130000000Y-161100000D03*
X130000000Y-163900000D03*
X132500000Y-161100000D03*
X132500000Y-163900000D03*
D16*
X126900000Y-161800000D03*
X124100000Y-161800000D03*
D17*
X147300000Y-150500000D03*
D18*
X146500000Y-150500000D03*
X145700000Y-150500000D03*
D17*
X144900000Y-150500000D03*
X144900000Y-152300000D03*
D18*
X145700000Y-152300000D03*
X146500000Y-152300000D03*
D17*
X147300000Y-152300000D03*
D19*
X149000000Y-146000000D03*
X149000000Y-146800000D03*
X149000000Y-147600000D03*
X149000000Y-148400000D03*
X150520000Y-148400000D03*
X150520000Y-147600000D03*
X150520000Y-146800000D03*
X150520000Y-146000000D03*
D20*
X144800000Y-159900000D03*
D21*
X144800000Y-160700000D03*
X144800000Y-161500000D03*
D20*
X144800000Y-162300000D03*
X146600000Y-162300000D03*
D21*
X146600000Y-161500000D03*
X146600000Y-160700000D03*
D20*
X146600000Y-159900000D03*
D22*
X154700000Y-162300000D03*
D23*
X154700000Y-161500000D03*
X154700000Y-160700000D03*
D22*
X154700000Y-159900000D03*
X152900000Y-159900000D03*
D23*
X152900000Y-160700000D03*
X152900000Y-161500000D03*
D22*
X152900000Y-162300000D03*
D17*
X147300000Y-141500000D03*
D18*
X146500000Y-141500000D03*
X145700000Y-141500000D03*
D17*
X144900000Y-141500000D03*
X144900000Y-143300000D03*
D18*
X145700000Y-143300000D03*
X146500000Y-143300000D03*
D17*
X147300000Y-143300000D03*
D24*
X126350000Y-147785000D03*
X126350000Y-149055000D03*
X126350000Y-150325000D03*
X126350000Y-151595000D03*
X126350000Y-152865000D03*
X126350000Y-154135000D03*
X126350000Y-155405000D03*
X126350000Y-156675000D03*
X126350000Y-157945000D03*
X126350000Y-159215000D03*
X135650000Y-159215000D03*
X135650000Y-157945000D03*
X135650000Y-156675000D03*
X135650000Y-155405000D03*
X135650000Y-154135000D03*
X135650000Y-152865000D03*
X135650000Y-151595000D03*
X135650000Y-150325000D03*
X135650000Y-149055000D03*
X135650000Y-147785000D03*
D25*
X121650000Y-145540000D03*
D26*
X121650000Y-148080000D03*
X121650000Y-150620000D03*
X121650000Y-153160000D03*
D25*
X121650000Y-156970000D03*
D26*
X121650000Y-159510000D03*
X121650000Y-162050000D03*
D27*
X121650000Y-141730000D03*
D26*
X124190000Y-141730000D03*
X126730000Y-141730000D03*
X129270000Y-141730000D03*
X131810000Y-141730000D03*
X134350000Y-141730000D03*
M02*
