G04 #@! TF.GenerationSoftware,KiCad,Pcbnew,6.0.1-79c1e3a40b~116~ubuntu21.04.1*
G04 #@! TF.CreationDate,2022-02-15T17:28:43-05:00*
G04 #@! TF.ProjectId,ESC_V5,4553435f-5635-42e6-9b69-6361645f7063,rev?*
G04 #@! TF.SameCoordinates,Original*
G04 #@! TF.FileFunction,Copper,L2,Bot*
G04 #@! TF.FilePolarity,Positive*
%FSLAX46Y46*%
G04 Gerber Fmt 4.6, Leading zero omitted, Abs format (unit mm)*
G04 Created by KiCad (PCBNEW 6.0.1-79c1e3a40b~116~ubuntu21.04.1) date 2022-02-15 17:28:43*
%MOMM*%
%LPD*%
G01*
G04 APERTURE LIST*
G04 Aperture macros list*
%AMRoundRect*
0 Rectangle with rounded corners*
0 $1 Rounding radius*
0 $2 $3 $4 $5 $6 $7 $8 $9 X,Y pos of 4 corners*
0 Add a 4 corners polygon primitive as box body*
4,1,4,$2,$3,$4,$5,$6,$7,$8,$9,$2,$3,0*
0 Add four circle primitives for the rounded corners*
1,1,$1+$1,$2,$3*
1,1,$1+$1,$4,$5*
1,1,$1+$1,$6,$7*
1,1,$1+$1,$8,$9*
0 Add four rect primitives between the rounded corners*
20,1,$1+$1,$2,$3,$4,$5,0*
20,1,$1+$1,$4,$5,$6,$7,0*
20,1,$1+$1,$6,$7,$8,$9,0*
20,1,$1+$1,$8,$9,$2,$3,0*%
%AMFreePoly0*
4,1,6,1.000000,0.000000,0.500000,-0.750000,-0.500000,-0.750000,-0.500000,0.750000,0.500000,0.750000,1.000000,0.000000,1.000000,0.000000,$1*%
%AMFreePoly1*
4,1,6,0.500000,-0.750000,-0.650000,-0.750000,-0.150000,0.000000,-0.650000,0.750000,0.500000,0.750000,0.500000,-0.750000,0.500000,-0.750000,$1*%
%AMFreePoly2*
4,1,22,0.500000,-0.750000,0.000000,-0.750000,0.000000,-0.745033,-0.079941,-0.743568,-0.215256,-0.701293,-0.333266,-0.622738,-0.424486,-0.514219,-0.481581,-0.384460,-0.499164,-0.250000,-0.500000,-0.250000,-0.500000,0.250000,-0.499164,0.250000,-0.499963,0.256109,-0.478152,0.396186,-0.417904,0.524511,-0.324060,0.630769,-0.204165,0.706417,-0.067858,0.745374,0.000000,0.744959,0.000000,0.750000,
0.500000,0.750000,0.500000,-0.750000,0.500000,-0.750000,$1*%
%AMFreePoly3*
4,1,20,0.000000,0.744959,0.073905,0.744508,0.209726,0.703889,0.328688,0.626782,0.421226,0.519385,0.479903,0.390333,0.500000,0.250000,0.500000,-0.250000,0.499851,-0.262216,0.476331,-0.402017,0.414519,-0.529596,0.319384,-0.634700,0.198574,-0.708877,0.061801,-0.746166,0.000000,-0.745033,0.000000,-0.750000,-0.500000,-0.750000,-0.500000,0.750000,0.000000,0.750000,0.000000,0.744959,
0.000000,0.744959,$1*%
G04 Aperture macros list end*
G04 #@! TA.AperFunction,SMDPad,CuDef*
%ADD10RoundRect,0.147500X-0.172500X0.147500X-0.172500X-0.147500X0.172500X-0.147500X0.172500X0.147500X0*%
G04 #@! TD*
G04 #@! TA.AperFunction,SMDPad,CuDef*
%ADD11RoundRect,0.147500X-0.147500X-0.172500X0.147500X-0.172500X0.147500X0.172500X-0.147500X0.172500X0*%
G04 #@! TD*
G04 #@! TA.AperFunction,SMDPad,CuDef*
%ADD12RoundRect,0.147500X0.172500X-0.147500X0.172500X0.147500X-0.172500X0.147500X-0.172500X-0.147500X0*%
G04 #@! TD*
G04 #@! TA.AperFunction,SMDPad,CuDef*
%ADD13R,1.100000X1.100000*%
G04 #@! TD*
G04 #@! TA.AperFunction,ComponentPad*
%ADD14R,1.700000X1.700000*%
G04 #@! TD*
G04 #@! TA.AperFunction,ComponentPad*
%ADD15O,1.700000X1.700000*%
G04 #@! TD*
G04 #@! TA.AperFunction,SMDPad,CuDef*
%ADD16FreePoly0,0.000000*%
G04 #@! TD*
G04 #@! TA.AperFunction,SMDPad,CuDef*
%ADD17FreePoly1,0.000000*%
G04 #@! TD*
G04 #@! TA.AperFunction,SMDPad,CuDef*
%ADD18FreePoly0,90.000000*%
G04 #@! TD*
G04 #@! TA.AperFunction,SMDPad,CuDef*
%ADD19FreePoly1,90.000000*%
G04 #@! TD*
G04 #@! TA.AperFunction,SMDPad,CuDef*
%ADD20FreePoly2,180.000000*%
G04 #@! TD*
G04 #@! TA.AperFunction,SMDPad,CuDef*
%ADD21FreePoly3,180.000000*%
G04 #@! TD*
G04 #@! TA.AperFunction,SMDPad,CuDef*
%ADD22RoundRect,0.062500X-0.350000X-0.062500X0.350000X-0.062500X0.350000X0.062500X-0.350000X0.062500X0*%
G04 #@! TD*
G04 #@! TA.AperFunction,SMDPad,CuDef*
%ADD23RoundRect,0.062500X-0.062500X-0.350000X0.062500X-0.350000X0.062500X0.350000X-0.062500X0.350000X0*%
G04 #@! TD*
G04 #@! TA.AperFunction,SMDPad,CuDef*
%ADD24R,2.600000X2.600000*%
G04 #@! TD*
G04 #@! TA.AperFunction,SMDPad,CuDef*
%ADD25R,0.400000X0.400000*%
G04 #@! TD*
G04 #@! TA.AperFunction,SMDPad,CuDef*
%ADD26R,2.650000X2.200000*%
G04 #@! TD*
G04 #@! TA.AperFunction,SMDPad,CuDef*
%ADD27RoundRect,0.218750X0.218750X0.256250X-0.218750X0.256250X-0.218750X-0.256250X0.218750X-0.256250X0*%
G04 #@! TD*
G04 #@! TA.AperFunction,SMDPad,CuDef*
%ADD28RoundRect,0.200000X-0.275000X0.200000X-0.275000X-0.200000X0.275000X-0.200000X0.275000X0.200000X0*%
G04 #@! TD*
G04 #@! TA.AperFunction,SMDPad,CuDef*
%ADD29RoundRect,0.243750X-0.456250X0.243750X-0.456250X-0.243750X0.456250X-0.243750X0.456250X0.243750X0*%
G04 #@! TD*
G04 #@! TA.AperFunction,ViaPad*
%ADD30C,0.800000*%
G04 #@! TD*
G04 #@! TA.AperFunction,Conductor*
%ADD31C,0.250000*%
G04 #@! TD*
G04 #@! TA.AperFunction,Conductor*
%ADD32C,0.200000*%
G04 #@! TD*
G04 APERTURE END LIST*
D10*
X126948000Y-147732000D03*
X126948000Y-148702000D03*
D11*
X127448000Y-151702000D03*
X128418000Y-151702000D03*
D12*
X137000000Y-142485000D03*
X137000000Y-141515000D03*
D13*
X141400000Y-142000000D03*
X138600000Y-142000000D03*
D14*
X121650000Y-145540000D03*
D15*
X121650000Y-148080000D03*
X121650000Y-150620000D03*
X121650000Y-153160000D03*
D14*
X121650000Y-156970000D03*
D15*
X121650000Y-159510000D03*
X121650000Y-162050000D03*
D14*
X121650000Y-141730000D03*
D15*
X124190000Y-141730000D03*
X126730000Y-141730000D03*
X129270000Y-141730000D03*
X131810000Y-141730000D03*
X134350000Y-141730000D03*
D16*
X124998000Y-145702000D03*
D17*
X126448000Y-145702000D03*
D18*
X134168000Y-156213000D03*
D19*
X134168000Y-154763000D03*
D18*
X129025000Y-156213000D03*
D19*
X129025000Y-154763000D03*
D20*
X139000000Y-146000000D03*
D21*
X137700000Y-146000000D03*
D22*
X128170500Y-149452000D03*
X128170500Y-148952000D03*
X128170500Y-148452000D03*
X128170500Y-147952000D03*
X128170500Y-147452000D03*
X128170500Y-146952000D03*
D23*
X128858000Y-146264500D03*
X129358000Y-146264500D03*
X129858000Y-146264500D03*
X130358000Y-146264500D03*
X130858000Y-146264500D03*
X131358000Y-146264500D03*
D22*
X132045500Y-146952000D03*
X132045500Y-147452000D03*
X132045500Y-147952000D03*
X132045500Y-148452000D03*
X132045500Y-148952000D03*
X132045500Y-149452000D03*
D23*
X131358000Y-150139500D03*
X130858000Y-150139500D03*
X130358000Y-150139500D03*
X129858000Y-150139500D03*
X129358000Y-150139500D03*
X128858000Y-150139500D03*
D24*
X130108000Y-148202000D03*
D25*
X144575000Y-156175000D03*
X143275000Y-156175000D03*
X143925000Y-156175000D03*
X145225000Y-156175000D03*
D26*
X144250000Y-158075000D03*
D25*
X145225000Y-159325000D03*
X144575000Y-159325000D03*
X143925000Y-159325000D03*
X143275000Y-159325000D03*
X151075000Y-156175000D03*
X150425000Y-156175000D03*
X149775000Y-156175000D03*
X151725000Y-156175000D03*
D26*
X150750000Y-158075000D03*
D25*
X151075000Y-159325000D03*
X150425000Y-159325000D03*
X149775000Y-159325000D03*
X151725000Y-159325000D03*
X157575000Y-156175000D03*
X156925000Y-156175000D03*
X156275000Y-156175000D03*
X158225000Y-156175000D03*
X158225000Y-159325000D03*
X156925000Y-159325000D03*
D26*
X157250000Y-158075000D03*
D25*
X157575000Y-159325000D03*
X156275000Y-159325000D03*
X144575000Y-145850000D03*
X143275000Y-145850000D03*
X143925000Y-145850000D03*
X145225000Y-145850000D03*
D26*
X144250000Y-147750000D03*
D25*
X143275000Y-149000000D03*
X144575000Y-149000000D03*
X145225000Y-149000000D03*
X143925000Y-149000000D03*
X151075000Y-145835000D03*
X150425000Y-145835000D03*
X149775000Y-145835000D03*
X151725000Y-145835000D03*
X151725000Y-148985000D03*
X151075000Y-148985000D03*
X149775000Y-148985000D03*
X150425000Y-148985000D03*
D26*
X150750000Y-147735000D03*
D25*
X156275000Y-145835000D03*
X157575000Y-145835000D03*
X156925000Y-145835000D03*
X158225000Y-145835000D03*
D26*
X157250000Y-147735000D03*
D25*
X156275000Y-148985000D03*
X157575000Y-148985000D03*
X156925000Y-148985000D03*
X158225000Y-148985000D03*
D27*
X140500000Y-144000000D03*
X138925000Y-144000000D03*
D18*
X131600000Y-156213000D03*
D19*
X131600000Y-154763000D03*
D28*
X124100000Y-154162500D03*
X124100000Y-155812500D03*
D29*
X126250000Y-154562500D03*
X126250000Y-156437500D03*
D30*
X153885000Y-142950000D03*
X129025000Y-156213000D03*
X150900000Y-144600000D03*
X124050000Y-144350000D03*
X147500000Y-153500000D03*
X144300000Y-154300000D03*
X141375000Y-154300000D03*
X138000000Y-149787500D03*
X135500000Y-143750000D03*
X124200000Y-151800000D03*
X141375000Y-155300000D03*
X150800000Y-154300000D03*
X138000000Y-154787500D03*
X142100000Y-153575000D03*
X137524999Y-160024999D03*
X124250000Y-163500000D03*
X141000000Y-162400000D03*
X157300000Y-154200000D03*
X126900000Y-161800000D03*
X133400921Y-157500000D03*
X132500000Y-163900000D03*
X137250000Y-161000000D03*
X123325000Y-148725000D03*
X136500000Y-163000000D03*
X140500000Y-160750000D03*
X142062653Y-162437347D03*
X137750000Y-163000000D03*
X146500000Y-155750000D03*
X153000000Y-155750000D03*
X159375000Y-155500000D03*
X147500000Y-155700000D03*
X154000000Y-155700000D03*
X159300000Y-146700000D03*
X130000000Y-161100000D03*
X135650000Y-147785000D03*
X129490433Y-144799946D03*
X133500000Y-146499503D03*
X128529184Y-144524264D03*
X124100000Y-154162500D03*
X133500000Y-145500000D03*
X127819306Y-143819937D03*
X133750000Y-151250000D03*
X133750000Y-148398034D03*
X132500000Y-145775500D03*
X129814742Y-151329857D03*
X131250000Y-151250000D03*
X127600079Y-145649922D03*
D31*
X150900000Y-145660000D02*
X151075000Y-145835000D01*
X150900000Y-144600000D02*
X150900000Y-145660000D01*
X141400000Y-142000000D02*
X141400000Y-143100000D01*
X127168000Y-147952000D02*
X126948000Y-147732000D01*
X124050000Y-144350000D02*
X124050000Y-146463636D01*
X126730000Y-141730000D02*
X127905001Y-140554999D01*
X125318364Y-147732000D02*
X126948000Y-147732000D01*
X128170500Y-147952000D02*
X127168000Y-147952000D01*
X124050000Y-146463636D02*
X125318364Y-147732000D01*
X139954999Y-140554999D02*
X127905001Y-140554999D01*
X141400000Y-142000000D02*
X139954999Y-140554999D01*
X141400000Y-143100000D02*
X140500000Y-144000000D01*
X140700000Y-154300000D02*
X141375000Y-154300000D01*
X138000000Y-151600000D02*
X140700000Y-154300000D01*
X146700000Y-154300000D02*
X147500000Y-153500000D01*
X143925000Y-148075000D02*
X144250000Y-147750000D01*
X138000000Y-149787500D02*
X138000000Y-151600000D01*
X144300000Y-154300000D02*
X146700000Y-154300000D01*
X143275000Y-155325000D02*
X144300000Y-154300000D01*
X143925000Y-149000000D02*
X143925000Y-148075000D01*
X143275000Y-156175000D02*
X143275000Y-155325000D01*
X124200000Y-151800000D02*
X124943010Y-151056990D01*
X128418000Y-151702000D02*
X129358000Y-150762000D01*
X127791222Y-151056990D02*
X128418000Y-151683768D01*
X124943010Y-151056990D02*
X127791222Y-151056990D01*
X123300480Y-160399520D02*
X123300480Y-152699520D01*
X121650000Y-162050000D02*
X123300480Y-160399520D01*
X128418000Y-151683768D02*
X128418000Y-151702000D01*
X129358000Y-150762000D02*
X129358000Y-150139500D01*
X137700000Y-146000000D02*
X135500000Y-143800000D01*
X135500000Y-143800000D02*
X135500000Y-143750000D01*
X123300480Y-152699520D02*
X124200000Y-151800000D01*
X149775000Y-155325000D02*
X150800000Y-154300000D01*
X149775000Y-155675000D02*
X149775000Y-155375000D01*
X138512503Y-155300003D02*
X140700000Y-155300003D01*
X150425000Y-148060000D02*
X150750000Y-147735000D01*
X149775000Y-155675000D02*
X149775000Y-155325000D01*
X140700003Y-155300000D02*
X140700000Y-155300003D01*
X150425000Y-148985000D02*
X150425000Y-148060000D01*
X149775000Y-156175000D02*
X149775000Y-155675000D01*
X141375000Y-155300000D02*
X140700003Y-155300000D01*
X138000000Y-154787500D02*
X138512503Y-155300003D01*
X134975001Y-160024999D02*
X137524999Y-160024999D01*
X157300000Y-155800000D02*
X156925000Y-156175000D01*
X140848001Y-160024999D02*
X141225001Y-160401999D01*
X134500000Y-160500000D02*
X134975001Y-160024999D01*
X137524999Y-160024999D02*
X140848001Y-160024999D01*
X124250000Y-163500000D02*
X131500000Y-163500000D01*
X156925000Y-148985000D02*
X156925000Y-148060000D01*
X141225001Y-160401999D02*
X141225001Y-162174999D01*
X141225001Y-160401999D02*
X142100000Y-159526998D01*
X131500000Y-163500000D02*
X134500000Y-160500000D01*
X141225001Y-162174999D02*
X141000000Y-162400000D01*
X156925000Y-148060000D02*
X157250000Y-147735000D01*
X157300000Y-154200000D02*
X157300000Y-155800000D01*
X142100000Y-159526998D02*
X142100000Y-153575000D01*
X131200000Y-157500000D02*
X133400921Y-157500000D01*
X126900000Y-161800000D02*
X131200000Y-157500000D01*
X137000000Y-141515000D02*
X136485000Y-141515000D01*
X136485000Y-141515000D02*
X134565000Y-141515000D01*
X136500000Y-141515000D02*
X136485000Y-141515000D01*
X134565000Y-141515000D02*
X134350000Y-141730000D01*
X138115000Y-142485000D02*
X138600000Y-142000000D01*
X138925000Y-145925000D02*
X139000000Y-146000000D01*
X138600000Y-142000000D02*
X138600000Y-143675000D01*
X137000000Y-142485000D02*
X138115000Y-142485000D01*
X138600000Y-143675000D02*
X138925000Y-144000000D01*
X138925000Y-144000000D02*
X138925000Y-145925000D01*
X156925000Y-158400000D02*
X157250000Y-158075000D01*
X150425000Y-158400000D02*
X150750000Y-158075000D01*
X156925000Y-159325000D02*
X156925000Y-158400000D01*
X144700000Y-163900000D02*
X144250000Y-163450000D01*
X134350000Y-163900000D02*
X144700000Y-163900000D01*
X150425000Y-159325000D02*
X150425000Y-158400000D01*
X134350000Y-163900000D02*
X135100000Y-163900000D01*
X137250000Y-161000000D02*
X134350000Y-163900000D01*
X134350000Y-163900000D02*
X132500000Y-163900000D01*
X144250000Y-163450000D02*
X144250000Y-158075000D01*
X122005500Y-150264500D02*
X121650000Y-150620000D01*
X128858000Y-150139500D02*
X128733000Y-150264500D01*
X128733000Y-150264500D02*
X122005500Y-150264500D01*
X127850480Y-149772020D02*
X123342020Y-149772020D01*
X123342020Y-149772020D02*
X121650000Y-148080000D01*
X128170500Y-149452000D02*
X127850480Y-149772020D01*
X133013699Y-147673534D02*
X134032820Y-147673534D01*
X132045500Y-147452000D02*
X132792165Y-147452000D01*
X131810000Y-141730000D02*
X134978177Y-144898177D01*
X134978177Y-146728177D02*
X134978177Y-146478177D01*
X132792165Y-147452000D02*
X133013699Y-147673534D01*
X134032820Y-147673534D02*
X134978177Y-146728177D01*
X134978177Y-144898177D02*
X134978177Y-146478177D01*
X131750000Y-144250000D02*
X131750000Y-144210000D01*
X133199897Y-147224014D02*
X133833300Y-147224014D01*
X133500000Y-144250000D02*
X131750000Y-144250000D01*
X134528657Y-146528657D02*
X134528657Y-145278657D01*
X133833300Y-147224014D02*
X134528657Y-146528657D01*
X132927883Y-146952000D02*
X133199897Y-147224014D01*
X132045500Y-146952000D02*
X132927883Y-146952000D01*
X131750000Y-144210000D02*
X129270000Y-141730000D01*
X134528657Y-145278657D02*
X133500000Y-144250000D01*
X132045500Y-146952000D02*
X132073818Y-146980318D01*
X127686232Y-148952000D02*
X127316222Y-149322010D01*
X127316222Y-149322010D02*
X123922010Y-149322010D01*
X128170500Y-148952000D02*
X128170500Y-148979500D01*
X128170500Y-148979500D02*
X128148010Y-149001990D01*
X123922010Y-149322010D02*
X123325000Y-148725000D01*
X128170500Y-148952000D02*
X127686232Y-148952000D01*
X127709978Y-147452000D02*
X126448000Y-146190022D01*
X126448000Y-146190022D02*
X126448000Y-145702000D01*
X128170500Y-147452000D02*
X127709978Y-147452000D01*
X136500000Y-163000000D02*
X138750000Y-160750000D01*
X138750000Y-160750000D02*
X140500000Y-160750000D01*
X138149999Y-163399999D02*
X137750000Y-163000000D01*
X142062653Y-162437347D02*
X141100001Y-163399999D01*
X141100001Y-163399999D02*
X138149999Y-163399999D01*
X145225000Y-156175000D02*
X146075000Y-156175000D01*
X146075000Y-156175000D02*
X146500000Y-155750000D01*
X151725000Y-156175000D02*
X152575000Y-156175000D01*
X152575000Y-156175000D02*
X153000000Y-155750000D01*
X158700000Y-156175000D02*
X159375000Y-155500000D01*
X158225000Y-156175000D02*
X158700000Y-156175000D01*
X147500000Y-155700000D02*
X148400000Y-154800000D01*
X148400000Y-154800000D02*
X148400000Y-148575000D01*
X148400000Y-148575000D02*
X145675000Y-145850000D01*
X145675000Y-145850000D02*
X145225000Y-145850000D01*
X154000000Y-155700000D02*
X154000000Y-147660000D01*
X152175000Y-145835000D02*
X151725000Y-145835000D01*
X154000000Y-147660000D02*
X152175000Y-145835000D01*
X158225000Y-145835000D02*
X158435000Y-145835000D01*
X158435000Y-145835000D02*
X159300000Y-146700000D01*
X136825011Y-148960011D02*
X136825010Y-156124990D01*
X135650000Y-147785000D02*
X136825011Y-148960011D01*
X136825010Y-156124990D02*
X131850000Y-161100000D01*
X131850000Y-161100000D02*
X130000000Y-161100000D01*
X129358000Y-146264500D02*
X129358000Y-144932379D01*
X129358000Y-144932379D02*
X129490433Y-144799946D01*
X133499503Y-146500000D02*
X133500000Y-146499503D01*
X131750000Y-146500000D02*
X133151655Y-146500000D01*
X131358000Y-146264500D02*
X131358000Y-146142000D01*
X133151655Y-146500000D02*
X133499503Y-146500000D01*
X131514500Y-146264500D02*
X131750000Y-146500000D01*
X131358000Y-146264500D02*
X131514500Y-146264500D01*
X128858000Y-145154424D02*
X128845576Y-145154424D01*
X128529184Y-144838032D02*
X128529184Y-144524264D01*
X128845576Y-145154424D02*
X128529184Y-144838032D01*
X128858000Y-146264500D02*
X128858000Y-145154424D01*
X125625000Y-155812500D02*
X126250000Y-156437500D01*
X124100000Y-155812500D02*
X125625000Y-155812500D01*
X130950710Y-145000000D02*
X133000000Y-145000000D01*
X130358000Y-145592710D02*
X130950710Y-145000000D01*
X130358000Y-146264500D02*
X130358000Y-145592710D01*
X133000000Y-145000000D02*
X133500000Y-145500000D01*
X134168000Y-154763000D02*
X133025020Y-153620020D01*
X133025020Y-153620020D02*
X133025020Y-149470998D01*
X133025020Y-149470998D02*
X132506022Y-148952000D01*
X132506022Y-148952000D02*
X132045500Y-148952000D01*
X132575010Y-149981510D02*
X132045500Y-149452000D01*
X131600000Y-154763000D02*
X132575010Y-153787990D01*
X132575010Y-153787990D02*
X132575010Y-149981510D01*
X129310002Y-154763000D02*
X129025000Y-154763000D01*
X132125001Y-151948001D02*
X129310002Y-154763000D01*
X132125001Y-150906501D02*
X132125001Y-151948001D01*
X131358000Y-150139500D02*
X132125001Y-150906501D01*
X129858000Y-145456993D02*
X130215434Y-145099559D01*
X129858000Y-146264500D02*
X129858000Y-145456993D01*
X127819306Y-143819937D02*
X128219305Y-143419938D01*
X129858000Y-145642000D02*
X129858000Y-146264500D01*
X128219305Y-143419938D02*
X129183427Y-143419938D01*
X130215434Y-145099559D02*
X130215434Y-144534566D01*
X129183427Y-143419938D02*
X130215434Y-144451945D01*
D32*
X133469869Y-149280131D02*
X133750000Y-149560262D01*
X133750000Y-149560262D02*
X133750000Y-151250000D01*
X132641739Y-148452000D02*
X132045500Y-148452000D01*
X133469869Y-149280131D02*
X133750000Y-149560261D01*
X132641739Y-148452000D02*
X133469869Y-149280131D01*
X133450019Y-148098053D02*
X133750000Y-148398034D01*
X132837856Y-148098053D02*
X133450019Y-148098053D01*
X132691803Y-147952000D02*
X132837856Y-148098053D01*
X132045500Y-147952000D02*
X132691803Y-147952000D01*
D31*
X132025500Y-145775500D02*
X132500000Y-145775500D01*
X131086428Y-145500000D02*
X131750000Y-145500000D01*
X131750000Y-145500000D02*
X132025500Y-145775500D01*
X130858000Y-145728428D02*
X131086428Y-145500000D01*
X130858000Y-146264500D02*
X130858000Y-145728428D01*
X130358000Y-150139500D02*
X130358000Y-150786599D01*
X130358000Y-150786599D02*
X129814742Y-151329857D01*
X130858000Y-150858000D02*
X131250000Y-151250000D01*
X130858000Y-150139500D02*
X130858000Y-150858000D01*
X127600079Y-145649922D02*
X127600079Y-146381579D01*
X127600079Y-146381579D02*
X128170500Y-146952000D01*
G04 #@! TA.AperFunction,Conductor*
G36*
X158735648Y-148764352D02*
G01*
X158750000Y-148799000D01*
X158750000Y-155286451D01*
X158746653Y-155304250D01*
X158734455Y-155335536D01*
X158713714Y-155493075D01*
X158714038Y-155496009D01*
X158723927Y-155585581D01*
X158713464Y-155621595D01*
X158709871Y-155625606D01*
X158599683Y-155735795D01*
X158565035Y-155750147D01*
X158537811Y-155741888D01*
X158529095Y-155736064D01*
X158529093Y-155736063D01*
X158525081Y-155733382D01*
X158476112Y-155723642D01*
X158452617Y-155718968D01*
X158452615Y-155718968D01*
X158450263Y-155718500D01*
X158447860Y-155718500D01*
X158225001Y-155718501D01*
X157999738Y-155718501D01*
X157997387Y-155718969D01*
X157997383Y-155718969D01*
X157949500Y-155728493D01*
X157924919Y-155733382D01*
X157920908Y-155736062D01*
X157920906Y-155736063D01*
X157878752Y-155764230D01*
X157840074Y-155790074D01*
X157783382Y-155874919D01*
X157768500Y-155949737D01*
X157768501Y-156400262D01*
X157768970Y-156402619D01*
X157776691Y-156441442D01*
X157769373Y-156478224D01*
X157738190Y-156499059D01*
X157728632Y-156500000D01*
X155799000Y-156500000D01*
X155764352Y-156485648D01*
X155750000Y-156451000D01*
X155750000Y-148799000D01*
X155764352Y-148764352D01*
X155799000Y-148750000D01*
X158701000Y-148750000D01*
X158735648Y-148764352D01*
G37*
G04 #@! TD.AperFunction*
G04 #@! TA.AperFunction,Conductor*
G36*
X152235648Y-148764352D02*
G01*
X152250000Y-148799000D01*
X152250000Y-155744500D01*
X152235648Y-155779148D01*
X152201000Y-155793500D01*
X152129917Y-155793500D01*
X152102694Y-155785242D01*
X152029094Y-155736063D01*
X152029092Y-155736062D01*
X152025081Y-155733382D01*
X151976112Y-155723642D01*
X151952617Y-155718968D01*
X151952615Y-155718968D01*
X151950263Y-155718500D01*
X151947860Y-155718500D01*
X151725001Y-155718501D01*
X151499738Y-155718501D01*
X151497387Y-155718969D01*
X151497383Y-155718969D01*
X151449500Y-155728493D01*
X151424919Y-155733382D01*
X151420908Y-155736062D01*
X151420906Y-155736063D01*
X151356741Y-155778938D01*
X151340074Y-155790074D01*
X151283382Y-155874919D01*
X151268500Y-155949737D01*
X151268501Y-156400262D01*
X151268970Y-156402619D01*
X151276691Y-156441442D01*
X151269373Y-156478224D01*
X151238190Y-156499059D01*
X151228632Y-156500000D01*
X149299000Y-156500000D01*
X149264352Y-156485648D01*
X149250000Y-156451000D01*
X149250000Y-148799000D01*
X149264352Y-148764352D01*
X149299000Y-148750000D01*
X152201000Y-148750000D01*
X152235648Y-148764352D01*
G37*
G04 #@! TD.AperFunction*
G04 #@! TA.AperFunction,Conductor*
G36*
X145735648Y-148764352D02*
G01*
X145750000Y-148799000D01*
X145750000Y-155744500D01*
X145735648Y-155779148D01*
X145701000Y-155793500D01*
X145629917Y-155793500D01*
X145602694Y-155785242D01*
X145529094Y-155736063D01*
X145529092Y-155736062D01*
X145525081Y-155733382D01*
X145476112Y-155723642D01*
X145452617Y-155718968D01*
X145452615Y-155718968D01*
X145450263Y-155718500D01*
X145447860Y-155718500D01*
X145225001Y-155718501D01*
X144999738Y-155718501D01*
X144997387Y-155718969D01*
X144997383Y-155718969D01*
X144949500Y-155728493D01*
X144924919Y-155733382D01*
X144920908Y-155736062D01*
X144920906Y-155736063D01*
X144856741Y-155778938D01*
X144840074Y-155790074D01*
X144783382Y-155874919D01*
X144768500Y-155949737D01*
X144768501Y-156400262D01*
X144768970Y-156402619D01*
X144776691Y-156441442D01*
X144769373Y-156478224D01*
X144738190Y-156499059D01*
X144728632Y-156500000D01*
X142799000Y-156500000D01*
X142764352Y-156485648D01*
X142750000Y-156451000D01*
X142750000Y-153670852D01*
X142750489Y-153663948D01*
X142760950Y-153590442D01*
X142761177Y-153588850D01*
X142761322Y-153575000D01*
X142750355Y-153484376D01*
X142750000Y-153478489D01*
X142750000Y-148799000D01*
X142764352Y-148764352D01*
X142799000Y-148750000D01*
X145701000Y-148750000D01*
X145735648Y-148764352D01*
G37*
G04 #@! TD.AperFunction*
G04 #@! TA.AperFunction,Conductor*
G36*
X159729648Y-159014352D02*
G01*
X159744000Y-159049000D01*
X159744000Y-164695000D01*
X159729648Y-164729648D01*
X159695000Y-164744000D01*
X142799000Y-164744000D01*
X142764352Y-164729648D01*
X142750000Y-164695000D01*
X142750000Y-159049000D01*
X142764352Y-159014352D01*
X142799000Y-159000000D01*
X159695000Y-159000000D01*
X159729648Y-159014352D01*
G37*
G04 #@! TD.AperFunction*
G04 #@! TA.AperFunction,Conductor*
G36*
X127580830Y-140270352D02*
G01*
X127595182Y-140305000D01*
X127580830Y-140339648D01*
X127218794Y-140701684D01*
X127184146Y-140716036D01*
X127165989Y-140712548D01*
X127047695Y-140665353D01*
X127047693Y-140665352D01*
X127045609Y-140664521D01*
X127043408Y-140664083D01*
X127043404Y-140664082D01*
X126848360Y-140625285D01*
X126848356Y-140625285D01*
X126846156Y-140624847D01*
X126752931Y-140623627D01*
X126645061Y-140622215D01*
X126645056Y-140622215D01*
X126642813Y-140622186D01*
X126640596Y-140622567D01*
X126640595Y-140622567D01*
X126578382Y-140633257D01*
X126442390Y-140656625D01*
X126440286Y-140657401D01*
X126440283Y-140657402D01*
X126253707Y-140726233D01*
X126253704Y-140726234D01*
X126251599Y-140727011D01*
X126249671Y-140728158D01*
X126249669Y-140728159D01*
X126078761Y-140829839D01*
X126076830Y-140830988D01*
X125923935Y-140965073D01*
X125922550Y-140966829D01*
X125922546Y-140966834D01*
X125799426Y-141123011D01*
X125799423Y-141123015D01*
X125798036Y-141124775D01*
X125703348Y-141304747D01*
X125702681Y-141306895D01*
X125690568Y-141345906D01*
X125643043Y-141498960D01*
X125619141Y-141700911D01*
X125632441Y-141903836D01*
X125665663Y-142034648D01*
X125680825Y-142094347D01*
X125682499Y-142100940D01*
X125683435Y-142102970D01*
X125683437Y-142102976D01*
X125733284Y-142211101D01*
X125767638Y-142285620D01*
X125885006Y-142451693D01*
X125886610Y-142453256D01*
X125886613Y-142453259D01*
X125949009Y-142514042D01*
X126030674Y-142593596D01*
X126032536Y-142594840D01*
X126032537Y-142594841D01*
X126136481Y-142664294D01*
X126199762Y-142706577D01*
X126386608Y-142786852D01*
X126388800Y-142787348D01*
X126582764Y-142831238D01*
X126582770Y-142831239D01*
X126584954Y-142831733D01*
X126670725Y-142835103D01*
X126785911Y-142839629D01*
X126785914Y-142839629D01*
X126788158Y-142839717D01*
X126790377Y-142839395D01*
X126790382Y-142839395D01*
X126888786Y-142825127D01*
X126989414Y-142810536D01*
X126991536Y-142809816D01*
X126991539Y-142809815D01*
X127091077Y-142776026D01*
X127181982Y-142745168D01*
X127207433Y-142730915D01*
X127357451Y-142646901D01*
X127357453Y-142646900D01*
X127359413Y-142645802D01*
X127515765Y-142515765D01*
X127645802Y-142359413D01*
X127674803Y-142307629D01*
X127744072Y-142183939D01*
X127745168Y-142181982D01*
X127810536Y-141989414D01*
X127827406Y-141873065D01*
X127839510Y-141789588D01*
X127839510Y-141789582D01*
X127839717Y-141788158D01*
X127841240Y-141730000D01*
X127837959Y-141694295D01*
X127822838Y-141529730D01*
X127822837Y-141529725D01*
X127822632Y-141527493D01*
X127773886Y-141354651D01*
X127768044Y-141333936D01*
X127768043Y-141333933D01*
X127767432Y-141331767D01*
X127766437Y-141329749D01*
X127766435Y-141329744D01*
X127750042Y-141296501D01*
X127747590Y-141259079D01*
X127759341Y-141240182D01*
X128048672Y-140950851D01*
X128083320Y-140936499D01*
X128385436Y-140936499D01*
X128420084Y-140950851D01*
X128434436Y-140985499D01*
X128423917Y-141015835D01*
X128339426Y-141123011D01*
X128339423Y-141123015D01*
X128338036Y-141124775D01*
X128243348Y-141304747D01*
X128242681Y-141306895D01*
X128230568Y-141345906D01*
X128183043Y-141498960D01*
X128159141Y-141700911D01*
X128172441Y-141903836D01*
X128205663Y-142034648D01*
X128220825Y-142094347D01*
X128222499Y-142100940D01*
X128223435Y-142102970D01*
X128223437Y-142102976D01*
X128273284Y-142211101D01*
X128307638Y-142285620D01*
X128425006Y-142451693D01*
X128426610Y-142453256D01*
X128426613Y-142453259D01*
X128489009Y-142514042D01*
X128570674Y-142593596D01*
X128572536Y-142594840D01*
X128572537Y-142594841D01*
X128676481Y-142664294D01*
X128739762Y-142706577D01*
X128926608Y-142786852D01*
X128928800Y-142787348D01*
X129122764Y-142831238D01*
X129122770Y-142831239D01*
X129124954Y-142831733D01*
X129210725Y-142835103D01*
X129325911Y-142839629D01*
X129325914Y-142839629D01*
X129328158Y-142839717D01*
X129330377Y-142839395D01*
X129330382Y-142839395D01*
X129428786Y-142825127D01*
X129529414Y-142810536D01*
X129531536Y-142809816D01*
X129531539Y-142809815D01*
X129710796Y-142748965D01*
X129748219Y-142751418D01*
X129761195Y-142760717D01*
X131382798Y-144382320D01*
X131393120Y-144397509D01*
X131394060Y-144399681D01*
X131395035Y-144403607D01*
X131397229Y-144407005D01*
X131420314Y-144442757D01*
X131422270Y-144446066D01*
X131444388Y-144487057D01*
X131447362Y-144489806D01*
X131451080Y-144493243D01*
X131458981Y-144502641D01*
X131463929Y-144510304D01*
X131477704Y-144521163D01*
X131490206Y-144531019D01*
X131508531Y-144563741D01*
X131498352Y-144599835D01*
X131465630Y-144618160D01*
X131459871Y-144618500D01*
X130996652Y-144618500D01*
X130986339Y-144617402D01*
X130972894Y-144614507D01*
X130972892Y-144614507D01*
X130968930Y-144613654D01*
X130930859Y-144618160D01*
X130925100Y-144618500D01*
X130919018Y-144618500D01*
X130917029Y-144618831D01*
X130917030Y-144618831D01*
X130898076Y-144621986D01*
X130895789Y-144622311D01*
X130853502Y-144627316D01*
X130842803Y-144628582D01*
X130839154Y-144630334D01*
X130835261Y-144631465D01*
X130835216Y-144631311D01*
X130833202Y-144631948D01*
X130833254Y-144632101D01*
X130829423Y-144633413D01*
X130825427Y-144634078D01*
X130778464Y-144659418D01*
X130776463Y-144660438D01*
X130728313Y-144683559D01*
X130724018Y-144687169D01*
X130724012Y-144687162D01*
X130720287Y-144689812D01*
X130720418Y-144689981D01*
X130717213Y-144692467D01*
X130713653Y-144694388D01*
X130710908Y-144697358D01*
X130710905Y-144697360D01*
X130681916Y-144728721D01*
X130647858Y-144744422D01*
X130612673Y-144731442D01*
X130596934Y-144695460D01*
X130596934Y-144502874D01*
X130596859Y-144502423D01*
X130597734Y-144488954D01*
X130600926Y-144474129D01*
X130600926Y-144474127D01*
X130601779Y-144470165D01*
X130589408Y-144365631D01*
X130587329Y-144348064D01*
X130587328Y-144348062D01*
X130586852Y-144344037D01*
X130584986Y-144340150D01*
X130566932Y-144302555D01*
X130531874Y-144229547D01*
X130528264Y-144225253D01*
X129485674Y-143182663D01*
X129479157Y-143174594D01*
X129471694Y-143163035D01*
X129469498Y-143159634D01*
X129439393Y-143135901D01*
X129435081Y-143132069D01*
X129430779Y-143127767D01*
X129429132Y-143126590D01*
X129413502Y-143115420D01*
X129411657Y-143114035D01*
X129387020Y-143094613D01*
X129369757Y-143081004D01*
X129365936Y-143079662D01*
X129362386Y-143077710D01*
X129362462Y-143077571D01*
X129360583Y-143076595D01*
X129360513Y-143076739D01*
X129356880Y-143074959D01*
X129353584Y-143072604D01*
X129302471Y-143057318D01*
X129300275Y-143056604D01*
X129285026Y-143051249D01*
X129249925Y-143038922D01*
X129244425Y-143038446D01*
X129244421Y-143038445D01*
X129244336Y-143038438D01*
X129244337Y-143038431D01*
X129239830Y-143037672D01*
X129239804Y-143037881D01*
X129235782Y-143037373D01*
X129231903Y-143036213D01*
X129227855Y-143036372D01*
X129176248Y-143038400D01*
X129174324Y-143038438D01*
X128265243Y-143038438D01*
X128254939Y-143037342D01*
X128237525Y-143033593D01*
X128199460Y-143038098D01*
X128193701Y-143038438D01*
X128187613Y-143038438D01*
X128166642Y-143041928D01*
X128164397Y-143042247D01*
X128111398Y-143048520D01*
X128107749Y-143050272D01*
X128103856Y-143051403D01*
X128103811Y-143051249D01*
X128101797Y-143051886D01*
X128101849Y-143052039D01*
X128098018Y-143053351D01*
X128094022Y-143054016D01*
X128061723Y-143071444D01*
X128047065Y-143079353D01*
X128045019Y-143080395D01*
X127996907Y-143103498D01*
X127992613Y-143107108D01*
X127992608Y-143107102D01*
X127988883Y-143109754D01*
X127989012Y-143109921D01*
X127985812Y-143112403D01*
X127982248Y-143114326D01*
X127979501Y-143117298D01*
X127979498Y-143117300D01*
X127949718Y-143149517D01*
X127915660Y-143165218D01*
X127907598Y-143164870D01*
X127905055Y-143164549D01*
X127902192Y-143163830D01*
X127822313Y-143163412D01*
X127746249Y-143163013D01*
X127746245Y-143163013D01*
X127743296Y-143162998D01*
X127740427Y-143163687D01*
X127740425Y-143163687D01*
X127661385Y-143182663D01*
X127588788Y-143200092D01*
X127583090Y-143203033D01*
X127455968Y-143268645D01*
X127447588Y-143272970D01*
X127327848Y-143377426D01*
X127326150Y-143379841D01*
X127326149Y-143379843D01*
X127307038Y-143407036D01*
X127236481Y-143507429D01*
X127178761Y-143655473D01*
X127172886Y-143700095D01*
X127159000Y-143805572D01*
X127158020Y-143813012D01*
X127175457Y-143970950D01*
X127230064Y-144120171D01*
X127231709Y-144122619D01*
X127300677Y-144225253D01*
X127318689Y-144252058D01*
X127436215Y-144358999D01*
X127438808Y-144360407D01*
X127438811Y-144360409D01*
X127521396Y-144405249D01*
X127575857Y-144434819D01*
X127729554Y-144475140D01*
X127820279Y-144476565D01*
X127854696Y-144491459D01*
X127868212Y-144520182D01*
X127885335Y-144675277D01*
X127939942Y-144824498D01*
X127941587Y-144826946D01*
X128024039Y-144949646D01*
X128028567Y-144956385D01*
X128146093Y-145063326D01*
X128148686Y-145064734D01*
X128148689Y-145064736D01*
X128249344Y-145119387D01*
X128285142Y-145138824D01*
X128285735Y-145139146D01*
X128285708Y-145139196D01*
X128300624Y-145148994D01*
X128462148Y-145310519D01*
X128476500Y-145345167D01*
X128476500Y-146521500D01*
X128462148Y-146556148D01*
X128427500Y-146570500D01*
X128348818Y-146570500D01*
X128314170Y-146556148D01*
X127999607Y-146241584D01*
X127985255Y-146206936D01*
X127999607Y-146172288D01*
X128002419Y-146169688D01*
X128086876Y-146097555D01*
X128179600Y-145968516D01*
X128238867Y-145821085D01*
X128261256Y-145663772D01*
X128261401Y-145649922D01*
X128242311Y-145492175D01*
X128240608Y-145487666D01*
X128187190Y-145346299D01*
X128187189Y-145346298D01*
X128186145Y-145343534D01*
X128096144Y-145212582D01*
X128093939Y-145210617D01*
X128093936Y-145210614D01*
X127979714Y-145108847D01*
X127977504Y-145106878D01*
X127837076Y-145032525D01*
X127682965Y-144993815D01*
X127602238Y-144993392D01*
X127527022Y-144992998D01*
X127527018Y-144992998D01*
X127524069Y-144992983D01*
X127521200Y-144993672D01*
X127521198Y-144993672D01*
X127396760Y-145023547D01*
X127369561Y-145030077D01*
X127288658Y-145071834D01*
X127280999Y-145075787D01*
X127243627Y-145078925D01*
X127214983Y-145054719D01*
X127209525Y-145032245D01*
X127209525Y-144952000D01*
X127207958Y-144944119D01*
X127196708Y-144887565D01*
X127189618Y-144851919D01*
X127184604Y-144844414D01*
X127135606Y-144771085D01*
X127132926Y-144767074D01*
X127086412Y-144735994D01*
X127052094Y-144713063D01*
X127052092Y-144713062D01*
X127048081Y-144710382D01*
X126973062Y-144695460D01*
X126950354Y-144690943D01*
X126950352Y-144690943D01*
X126948000Y-144690475D01*
X125798000Y-144690475D01*
X125796820Y-144690591D01*
X125796812Y-144690591D01*
X125750837Y-144695095D01*
X125750835Y-144695096D01*
X125747247Y-144695447D01*
X125696258Y-144716505D01*
X125659952Y-144731499D01*
X125652932Y-144734398D01*
X125580702Y-144806477D01*
X125578852Y-144810930D01*
X125554936Y-144868500D01*
X125541554Y-144900711D01*
X125541549Y-144905538D01*
X125541457Y-144993672D01*
X125541447Y-145002753D01*
X125554199Y-145033631D01*
X125569977Y-145071834D01*
X125580398Y-145097068D01*
X125965566Y-145674820D01*
X125972844Y-145711610D01*
X125965566Y-145729180D01*
X125580398Y-146306932D01*
X125556382Y-146351919D01*
X125555679Y-146355453D01*
X125543298Y-146417698D01*
X125536475Y-146452000D01*
X125556382Y-146552081D01*
X125559062Y-146556092D01*
X125559063Y-146556094D01*
X125588612Y-146600317D01*
X125613074Y-146636926D01*
X125617085Y-146639606D01*
X125693906Y-146690937D01*
X125693908Y-146690938D01*
X125697919Y-146693618D01*
X125763381Y-146706639D01*
X125795646Y-146713057D01*
X125795648Y-146713057D01*
X125798000Y-146713525D01*
X126411685Y-146713525D01*
X126446333Y-146727877D01*
X126815308Y-147096853D01*
X126829660Y-147131501D01*
X126815308Y-147166149D01*
X126780660Y-147180501D01*
X126743706Y-147180501D01*
X126649101Y-147195484D01*
X126645665Y-147197235D01*
X126645664Y-147197235D01*
X126538513Y-147251831D01*
X126538512Y-147251832D01*
X126535075Y-147253583D01*
X126452510Y-147336148D01*
X126417862Y-147350500D01*
X125496683Y-147350500D01*
X125462035Y-147336148D01*
X124445852Y-146319965D01*
X124431500Y-146285317D01*
X124431500Y-144910154D01*
X124445852Y-144875506D01*
X124448670Y-144872900D01*
X124536797Y-144797633D01*
X124588617Y-144725518D01*
X124627796Y-144670995D01*
X124627797Y-144670993D01*
X124629521Y-144668594D01*
X124688788Y-144521163D01*
X124711177Y-144363850D01*
X124711322Y-144350000D01*
X124692232Y-144192253D01*
X124690800Y-144188461D01*
X124637111Y-144046377D01*
X124637110Y-144046376D01*
X124636066Y-144043612D01*
X124546065Y-143912660D01*
X124543860Y-143910695D01*
X124543857Y-143910692D01*
X124429635Y-143808925D01*
X124427425Y-143806956D01*
X124286997Y-143732603D01*
X124132886Y-143693893D01*
X124052159Y-143693470D01*
X123976943Y-143693076D01*
X123976939Y-143693076D01*
X123973990Y-143693061D01*
X123971121Y-143693750D01*
X123971119Y-143693750D01*
X123908936Y-143708679D01*
X123819482Y-143730155D01*
X123816854Y-143731511D01*
X123816855Y-143731511D01*
X123707519Y-143787943D01*
X123678282Y-143803033D01*
X123558542Y-143907489D01*
X123556844Y-143909904D01*
X123556843Y-143909906D01*
X123553195Y-143915097D01*
X123467175Y-144037492D01*
X123466104Y-144040240D01*
X123466102Y-144040243D01*
X123436020Y-144117400D01*
X123409455Y-144185536D01*
X123403661Y-144229547D01*
X123395640Y-144290472D01*
X123388714Y-144343075D01*
X123406151Y-144501013D01*
X123460758Y-144650234D01*
X123462403Y-144652682D01*
X123543183Y-144772894D01*
X123549383Y-144782121D01*
X123551562Y-144784103D01*
X123551563Y-144784105D01*
X123652478Y-144875931D01*
X123668500Y-144912173D01*
X123668500Y-146417698D01*
X123667404Y-146428002D01*
X123663655Y-146445416D01*
X123665982Y-146465074D01*
X123668160Y-146483481D01*
X123668500Y-146489240D01*
X123668500Y-146495328D01*
X123671990Y-146516299D01*
X123672309Y-146518544D01*
X123678582Y-146571543D01*
X123680334Y-146575192D01*
X123681465Y-146579085D01*
X123681311Y-146579130D01*
X123681948Y-146581144D01*
X123682101Y-146581092D01*
X123683413Y-146584923D01*
X123684078Y-146588919D01*
X123686002Y-146592484D01*
X123709415Y-146635876D01*
X123710457Y-146637922D01*
X123733560Y-146686034D01*
X123737112Y-146690259D01*
X123737170Y-146690328D01*
X123737164Y-146690333D01*
X123739816Y-146694058D01*
X123739983Y-146693929D01*
X123742464Y-146697128D01*
X123744388Y-146700693D01*
X123747363Y-146703443D01*
X123785307Y-146738518D01*
X123786694Y-146739852D01*
X125016114Y-147969272D01*
X125022631Y-147977341D01*
X125030094Y-147988900D01*
X125030098Y-147988904D01*
X125032293Y-147992304D01*
X125035473Y-147994811D01*
X125035474Y-147994812D01*
X125062403Y-148016041D01*
X125066715Y-148019873D01*
X125071013Y-148024171D01*
X125072654Y-148025343D01*
X125072659Y-148025348D01*
X125088268Y-148036502D01*
X125090114Y-148037887D01*
X125132034Y-148070934D01*
X125135856Y-148072276D01*
X125139403Y-148074226D01*
X125139325Y-148074368D01*
X125141204Y-148075344D01*
X125141275Y-148075199D01*
X125144914Y-148076982D01*
X125148207Y-148079335D01*
X125152084Y-148080494D01*
X125152085Y-148080495D01*
X125199321Y-148094621D01*
X125201518Y-148095335D01*
X125251866Y-148113016D01*
X125257366Y-148113492D01*
X125257370Y-148113493D01*
X125257455Y-148113500D01*
X125257454Y-148113507D01*
X125261962Y-148114266D01*
X125261988Y-148114057D01*
X125266010Y-148114565D01*
X125269889Y-148115725D01*
X125273937Y-148115566D01*
X125325555Y-148113538D01*
X125327479Y-148113500D01*
X126417862Y-148113500D01*
X126452510Y-148127852D01*
X126535075Y-148210417D01*
X126538512Y-148212168D01*
X126538513Y-148212169D01*
X126624574Y-148256019D01*
X126649101Y-148268516D01*
X126743705Y-148283500D01*
X126769230Y-148283500D01*
X126956945Y-148283499D01*
X126979626Y-148289323D01*
X126981670Y-148290934D01*
X126985493Y-148292277D01*
X126989042Y-148294228D01*
X126988966Y-148294367D01*
X126990844Y-148295343D01*
X126990914Y-148295199D01*
X126994547Y-148296979D01*
X126997843Y-148299334D01*
X127001722Y-148300494D01*
X127048956Y-148314620D01*
X127051152Y-148315334D01*
X127101502Y-148333016D01*
X127107002Y-148333492D01*
X127107006Y-148333493D01*
X127107091Y-148333500D01*
X127107090Y-148333507D01*
X127111597Y-148334266D01*
X127111623Y-148334057D01*
X127115645Y-148334565D01*
X127119524Y-148335725D01*
X127123572Y-148335566D01*
X127175179Y-148333538D01*
X127177103Y-148333500D01*
X128557880Y-148333500D01*
X128604337Y-148327384D01*
X128607732Y-148325801D01*
X128607735Y-148325800D01*
X128692264Y-148286383D01*
X128706293Y-148279841D01*
X128785841Y-148200293D01*
X128797263Y-148175799D01*
X128831800Y-148101735D01*
X128831801Y-148101732D01*
X128833384Y-148098337D01*
X128839500Y-148051880D01*
X128839500Y-147852120D01*
X128833384Y-147805663D01*
X128831801Y-147802268D01*
X128831800Y-147802265D01*
X128794701Y-147722708D01*
X128793065Y-147685241D01*
X128794701Y-147681292D01*
X128807080Y-147654747D01*
X128813887Y-147640149D01*
X128831800Y-147601735D01*
X128831801Y-147601732D01*
X128833384Y-147598337D01*
X128839500Y-147551880D01*
X128839500Y-147352120D01*
X128833384Y-147305663D01*
X128831801Y-147302268D01*
X128831800Y-147302265D01*
X128802327Y-147239062D01*
X128794701Y-147222707D01*
X128793065Y-147185241D01*
X128794701Y-147181292D01*
X128794930Y-147180802D01*
X128809330Y-147149920D01*
X128831800Y-147101735D01*
X128831801Y-147101732D01*
X128833384Y-147098337D01*
X128839500Y-147051880D01*
X128839500Y-146982500D01*
X128853852Y-146947852D01*
X128888500Y-146933500D01*
X128957880Y-146933500D01*
X129004337Y-146927384D01*
X129007732Y-146925801D01*
X129007735Y-146925800D01*
X129074951Y-146894456D01*
X129087293Y-146888701D01*
X129124759Y-146887065D01*
X129128702Y-146888698D01*
X129141049Y-146894456D01*
X129208265Y-146925800D01*
X129208268Y-146925801D01*
X129211663Y-146927384D01*
X129258120Y-146933500D01*
X129457880Y-146933500D01*
X129504337Y-146927384D01*
X129507732Y-146925801D01*
X129507735Y-146925800D01*
X129574951Y-146894456D01*
X129587293Y-146888701D01*
X129624759Y-146887065D01*
X129628702Y-146888698D01*
X129641049Y-146894456D01*
X129708265Y-146925800D01*
X129708268Y-146925801D01*
X129711663Y-146927384D01*
X129758120Y-146933500D01*
X129957880Y-146933500D01*
X130004337Y-146927384D01*
X130007732Y-146925801D01*
X130007735Y-146925800D01*
X130074951Y-146894456D01*
X130087293Y-146888701D01*
X130124759Y-146887065D01*
X130128702Y-146888698D01*
X130141049Y-146894456D01*
X130208265Y-146925800D01*
X130208268Y-146925801D01*
X130211663Y-146927384D01*
X130258120Y-146933500D01*
X130457880Y-146933500D01*
X130504337Y-146927384D01*
X130507732Y-146925801D01*
X130507735Y-146925800D01*
X130574951Y-146894456D01*
X130587293Y-146888701D01*
X130624759Y-146887065D01*
X130628702Y-146888698D01*
X130641049Y-146894456D01*
X130708265Y-146925800D01*
X130708268Y-146925801D01*
X130711663Y-146927384D01*
X130758120Y-146933500D01*
X130957880Y-146933500D01*
X131004337Y-146927384D01*
X131007732Y-146925801D01*
X131007735Y-146925800D01*
X131074951Y-146894456D01*
X131087293Y-146888701D01*
X131124759Y-146887065D01*
X131128702Y-146888698D01*
X131141049Y-146894456D01*
X131208265Y-146925800D01*
X131208268Y-146925801D01*
X131211663Y-146927384D01*
X131258120Y-146933500D01*
X131327500Y-146933500D01*
X131362148Y-146947852D01*
X131376500Y-146982500D01*
X131376500Y-147051880D01*
X131382616Y-147098337D01*
X131384199Y-147101732D01*
X131384200Y-147101735D01*
X131406670Y-147149920D01*
X131421071Y-147180802D01*
X131421299Y-147181292D01*
X131422935Y-147218759D01*
X131421302Y-147222702D01*
X131413673Y-147239062D01*
X131384200Y-147302265D01*
X131384199Y-147302268D01*
X131382616Y-147305663D01*
X131376500Y-147352120D01*
X131376500Y-147551880D01*
X131382616Y-147598337D01*
X131384199Y-147601732D01*
X131384200Y-147601735D01*
X131402113Y-147640149D01*
X131408921Y-147654747D01*
X131421299Y-147681292D01*
X131422935Y-147718759D01*
X131421299Y-147722708D01*
X131384200Y-147802265D01*
X131384199Y-147802268D01*
X131382616Y-147805663D01*
X131376500Y-147852120D01*
X131376500Y-148051880D01*
X131382616Y-148098337D01*
X131384199Y-148101732D01*
X131384200Y-148101735D01*
X131421299Y-148181292D01*
X131422935Y-148218759D01*
X131421302Y-148222702D01*
X131407831Y-148251589D01*
X131384200Y-148302265D01*
X131384199Y-148302268D01*
X131382616Y-148305663D01*
X131376500Y-148352120D01*
X131376500Y-148551880D01*
X131382616Y-148598337D01*
X131384199Y-148601732D01*
X131384200Y-148601735D01*
X131403303Y-148642700D01*
X131414347Y-148666383D01*
X131421299Y-148681292D01*
X131422935Y-148718759D01*
X131421302Y-148722702D01*
X131413772Y-148738850D01*
X131384200Y-148802265D01*
X131384199Y-148802268D01*
X131382616Y-148805663D01*
X131376500Y-148852120D01*
X131376500Y-149051880D01*
X131382616Y-149098337D01*
X131384199Y-149101732D01*
X131384200Y-149101735D01*
X131397995Y-149131318D01*
X131421274Y-149181238D01*
X131421299Y-149181292D01*
X131422935Y-149218759D01*
X131421299Y-149222708D01*
X131384200Y-149302265D01*
X131384199Y-149302268D01*
X131382616Y-149305663D01*
X131376500Y-149352120D01*
X131376500Y-149421500D01*
X131362148Y-149456148D01*
X131327500Y-149470500D01*
X131258120Y-149470500D01*
X131211663Y-149476616D01*
X131208268Y-149478199D01*
X131208265Y-149478200D01*
X131160080Y-149500670D01*
X131128707Y-149515299D01*
X131091241Y-149516935D01*
X131087298Y-149515302D01*
X131055920Y-149500670D01*
X131007735Y-149478200D01*
X131007732Y-149478199D01*
X131004337Y-149476616D01*
X130957880Y-149470500D01*
X130758120Y-149470500D01*
X130711663Y-149476616D01*
X130708268Y-149478199D01*
X130708265Y-149478200D01*
X130660080Y-149500670D01*
X130628707Y-149515299D01*
X130591241Y-149516935D01*
X130587298Y-149515302D01*
X130555920Y-149500670D01*
X130507735Y-149478200D01*
X130507732Y-149478199D01*
X130504337Y-149476616D01*
X130457880Y-149470500D01*
X130258120Y-149470500D01*
X130211663Y-149476616D01*
X130208268Y-149478199D01*
X130208265Y-149478200D01*
X130160080Y-149500670D01*
X130128707Y-149515299D01*
X130091241Y-149516935D01*
X130087298Y-149515302D01*
X130055920Y-149500670D01*
X130007735Y-149478200D01*
X130007732Y-149478199D01*
X130004337Y-149476616D01*
X129957880Y-149470500D01*
X129758120Y-149470500D01*
X129711663Y-149476616D01*
X129708268Y-149478199D01*
X129708265Y-149478200D01*
X129660080Y-149500670D01*
X129628707Y-149515299D01*
X129591241Y-149516935D01*
X129587298Y-149515302D01*
X129555920Y-149500670D01*
X129507735Y-149478200D01*
X129507732Y-149478199D01*
X129504337Y-149476616D01*
X129457880Y-149470500D01*
X129258120Y-149470500D01*
X129211663Y-149476616D01*
X129208268Y-149478199D01*
X129208265Y-149478200D01*
X129160080Y-149500670D01*
X129128707Y-149515299D01*
X129091241Y-149516935D01*
X129087298Y-149515302D01*
X129055920Y-149500670D01*
X129007735Y-149478200D01*
X129007732Y-149478199D01*
X129004337Y-149476616D01*
X128957880Y-149470500D01*
X128888500Y-149470500D01*
X128853852Y-149456148D01*
X128839500Y-149421500D01*
X128839500Y-149352120D01*
X128833384Y-149305663D01*
X128831801Y-149302268D01*
X128831800Y-149302265D01*
X128794701Y-149222708D01*
X128793065Y-149185241D01*
X128794701Y-149181292D01*
X128794727Y-149181238D01*
X128818005Y-149131318D01*
X128831800Y-149101735D01*
X128831801Y-149101732D01*
X128833384Y-149098337D01*
X128839500Y-149051880D01*
X128839500Y-148852120D01*
X128833384Y-148805663D01*
X128831801Y-148802268D01*
X128831800Y-148802265D01*
X128787652Y-148707591D01*
X128785841Y-148703707D01*
X128706293Y-148624159D01*
X128680128Y-148611958D01*
X128607735Y-148578200D01*
X128607732Y-148578199D01*
X128604337Y-148576616D01*
X128557880Y-148570500D01*
X128189411Y-148570500D01*
X128185183Y-148570317D01*
X128183370Y-148570160D01*
X128140154Y-148566417D01*
X128136225Y-148567393D01*
X128136224Y-148567393D01*
X128129534Y-148569055D01*
X128117721Y-148570500D01*
X127732170Y-148570500D01*
X127721866Y-148569404D01*
X127704452Y-148565655D01*
X127666387Y-148570160D01*
X127660628Y-148570500D01*
X127654540Y-148570500D01*
X127633569Y-148573990D01*
X127631324Y-148574309D01*
X127578325Y-148580582D01*
X127574676Y-148582334D01*
X127570783Y-148583465D01*
X127570738Y-148583311D01*
X127568724Y-148583948D01*
X127568776Y-148584101D01*
X127564945Y-148585413D01*
X127560949Y-148586078D01*
X127547713Y-148593220D01*
X127513992Y-148611415D01*
X127511946Y-148612457D01*
X127463834Y-148635560D01*
X127459540Y-148639170D01*
X127459535Y-148639164D01*
X127455810Y-148641816D01*
X127455939Y-148641983D01*
X127452739Y-148644465D01*
X127449175Y-148646388D01*
X127446428Y-148649360D01*
X127446425Y-148649362D01*
X127411352Y-148687305D01*
X127410018Y-148688692D01*
X127172551Y-148926158D01*
X127137903Y-148940510D01*
X124100329Y-148940510D01*
X124065681Y-148926158D01*
X123990059Y-148850536D01*
X123975707Y-148815888D01*
X123976196Y-148808984D01*
X123985950Y-148740442D01*
X123986177Y-148738850D01*
X123986227Y-148734127D01*
X123986305Y-148726607D01*
X123986322Y-148725000D01*
X123967232Y-148567253D01*
X123961424Y-148551880D01*
X123912111Y-148421377D01*
X123912110Y-148421376D01*
X123911066Y-148418612D01*
X123853734Y-148335193D01*
X123822740Y-148290097D01*
X123821065Y-148287660D01*
X123818860Y-148285695D01*
X123818857Y-148285692D01*
X123704635Y-148183925D01*
X123702425Y-148181956D01*
X123561997Y-148107603D01*
X123407886Y-148068893D01*
X123327159Y-148068470D01*
X123251943Y-148068076D01*
X123251939Y-148068076D01*
X123248990Y-148068061D01*
X123246121Y-148068750D01*
X123246119Y-148068750D01*
X123135385Y-148095335D01*
X123094482Y-148105155D01*
X122953282Y-148178033D01*
X122833542Y-148282489D01*
X122831843Y-148284906D01*
X122829868Y-148287100D01*
X122829071Y-148286383D01*
X122800542Y-148304493D01*
X122763941Y-148296317D01*
X122743842Y-148264655D01*
X122743618Y-148249193D01*
X122759510Y-148139588D01*
X122759510Y-148139582D01*
X122759717Y-148138158D01*
X122760195Y-148119925D01*
X122761202Y-148081453D01*
X122761202Y-148081452D01*
X122761240Y-148080000D01*
X122760799Y-148075199D01*
X122742838Y-147879730D01*
X122742837Y-147879725D01*
X122742632Y-147877493D01*
X122713769Y-147775150D01*
X122688044Y-147683936D01*
X122688043Y-147683933D01*
X122687432Y-147681767D01*
X122683698Y-147674194D01*
X122598482Y-147501395D01*
X122597488Y-147499379D01*
X122491656Y-147357653D01*
X122477160Y-147338240D01*
X122477159Y-147338239D01*
X122475812Y-147336435D01*
X122371459Y-147239972D01*
X122328131Y-147199920D01*
X122328130Y-147199919D01*
X122326480Y-147198394D01*
X122154492Y-147089878D01*
X122120291Y-147076233D01*
X121967695Y-147015353D01*
X121967693Y-147015352D01*
X121965609Y-147014521D01*
X121963408Y-147014083D01*
X121963404Y-147014082D01*
X121768360Y-146975285D01*
X121768356Y-146975285D01*
X121766156Y-146974847D01*
X121672931Y-146973627D01*
X121565061Y-146972215D01*
X121565056Y-146972215D01*
X121562813Y-146972186D01*
X121560596Y-146972567D01*
X121560595Y-146972567D01*
X121535030Y-146976960D01*
X121362390Y-147006625D01*
X121360286Y-147007401D01*
X121360283Y-147007402D01*
X121173707Y-147076233D01*
X121173704Y-147076234D01*
X121171599Y-147077011D01*
X121169671Y-147078158D01*
X121169669Y-147078159D01*
X120998761Y-147179839D01*
X120996830Y-147180988D01*
X120995142Y-147182468D01*
X120995141Y-147182469D01*
X120991980Y-147185241D01*
X120843935Y-147315073D01*
X120842550Y-147316829D01*
X120842546Y-147316834D01*
X120719426Y-147473011D01*
X120719423Y-147473015D01*
X120718036Y-147474775D01*
X120711734Y-147486754D01*
X120639268Y-147624489D01*
X120623348Y-147654747D01*
X120622681Y-147656895D01*
X120616059Y-147678220D01*
X120563043Y-147848960D01*
X120562779Y-147851192D01*
X120562778Y-147851196D01*
X120540766Y-148037183D01*
X120539141Y-148050911D01*
X120552441Y-148253836D01*
X120578230Y-148355381D01*
X120599622Y-148439610D01*
X120602499Y-148450940D01*
X120603435Y-148452970D01*
X120603437Y-148452976D01*
X120676962Y-148612463D01*
X120687638Y-148635620D01*
X120689667Y-148638491D01*
X120801431Y-148796634D01*
X120805006Y-148801693D01*
X120806610Y-148803256D01*
X120806613Y-148803259D01*
X120855144Y-148850535D01*
X120950674Y-148943596D01*
X120952536Y-148944840D01*
X120952537Y-148944841D01*
X121116839Y-149054624D01*
X121119762Y-149056577D01*
X121306608Y-149136852D01*
X121308800Y-149137348D01*
X121502764Y-149181238D01*
X121502770Y-149181239D01*
X121504954Y-149181733D01*
X121590725Y-149185103D01*
X121705911Y-149189629D01*
X121705914Y-149189629D01*
X121708158Y-149189717D01*
X121710377Y-149189395D01*
X121710382Y-149189395D01*
X121808786Y-149175126D01*
X121909414Y-149160536D01*
X121911536Y-149159816D01*
X121911539Y-149159815D01*
X122056176Y-149110717D01*
X122090796Y-149098965D01*
X122128219Y-149101418D01*
X122141195Y-149110717D01*
X122829830Y-149799352D01*
X122844182Y-149834000D01*
X122829830Y-149868648D01*
X122795182Y-149883000D01*
X122502092Y-149883000D01*
X122468831Y-149869982D01*
X122451101Y-149853592D01*
X122326480Y-149738394D01*
X122154492Y-149629878D01*
X122120291Y-149616233D01*
X121967695Y-149555353D01*
X121967693Y-149555352D01*
X121965609Y-149554521D01*
X121963408Y-149554083D01*
X121963404Y-149554082D01*
X121768360Y-149515285D01*
X121768356Y-149515285D01*
X121766156Y-149514847D01*
X121672931Y-149513627D01*
X121565061Y-149512215D01*
X121565056Y-149512215D01*
X121562813Y-149512186D01*
X121560596Y-149512567D01*
X121560595Y-149512567D01*
X121544696Y-149515299D01*
X121362390Y-149546625D01*
X121360286Y-149547401D01*
X121360283Y-149547402D01*
X121173707Y-149616233D01*
X121173704Y-149616234D01*
X121171599Y-149617011D01*
X121169671Y-149618158D01*
X121169669Y-149618159D01*
X121145250Y-149632687D01*
X120996830Y-149720988D01*
X120843935Y-149855073D01*
X120842550Y-149856829D01*
X120842546Y-149856834D01*
X120719426Y-150013011D01*
X120719423Y-150013015D01*
X120718036Y-150014775D01*
X120716988Y-150016767D01*
X120652398Y-150139533D01*
X120623348Y-150194747D01*
X120563043Y-150388960D01*
X120539141Y-150590911D01*
X120552441Y-150793836D01*
X120602499Y-150990940D01*
X120603435Y-150992970D01*
X120603437Y-150992976D01*
X120676130Y-151150658D01*
X120687638Y-151175620D01*
X120716270Y-151216133D01*
X120795515Y-151328263D01*
X120805006Y-151341693D01*
X120806610Y-151343256D01*
X120806613Y-151343259D01*
X120869009Y-151404042D01*
X120950674Y-151483596D01*
X120952536Y-151484840D01*
X120952537Y-151484841D01*
X121117894Y-151595329D01*
X121119762Y-151596577D01*
X121306608Y-151676852D01*
X121308800Y-151677348D01*
X121502764Y-151721238D01*
X121502770Y-151721239D01*
X121504954Y-151721733D01*
X121590725Y-151725103D01*
X121705911Y-151729629D01*
X121705914Y-151729629D01*
X121708158Y-151729717D01*
X121710377Y-151729395D01*
X121710382Y-151729395D01*
X121809507Y-151715022D01*
X121909414Y-151700536D01*
X121911536Y-151699816D01*
X121911539Y-151699815D01*
X122011077Y-151666026D01*
X122101982Y-151635168D01*
X122129343Y-151619845D01*
X122277451Y-151536901D01*
X122277453Y-151536900D01*
X122279413Y-151535802D01*
X122290621Y-151526481D01*
X122434042Y-151407198D01*
X122435765Y-151405765D01*
X122487751Y-151343259D01*
X122564366Y-151251140D01*
X122564368Y-151251138D01*
X122565802Y-151249413D01*
X122567709Y-151246009D01*
X122664072Y-151073939D01*
X122665168Y-151071982D01*
X122730536Y-150879414D01*
X122758295Y-150687968D01*
X122777469Y-150655739D01*
X122806787Y-150646000D01*
X124702274Y-150646000D01*
X124736922Y-150660352D01*
X124751274Y-150695000D01*
X124736922Y-150729648D01*
X124725914Y-150737449D01*
X124725977Y-150737546D01*
X124723737Y-150738992D01*
X124723486Y-150739170D01*
X124720612Y-150740550D01*
X124718257Y-150742529D01*
X124718256Y-150742530D01*
X124717130Y-150743476D01*
X124717123Y-150743482D01*
X124716419Y-150744074D01*
X124716415Y-150744077D01*
X124716318Y-150744159D01*
X124716311Y-150744151D01*
X124712587Y-150746802D01*
X124712718Y-150746971D01*
X124709514Y-150749457D01*
X124705953Y-150751378D01*
X124668783Y-150791589D01*
X124668141Y-150792283D01*
X124666807Y-150793670D01*
X124329461Y-151131016D01*
X124294813Y-151145368D01*
X124288673Y-151144982D01*
X124285755Y-151144614D01*
X124282886Y-151143893D01*
X124201742Y-151143468D01*
X124126943Y-151143076D01*
X124126939Y-151143076D01*
X124123990Y-151143061D01*
X124121121Y-151143750D01*
X124121119Y-151143750D01*
X123996873Y-151173579D01*
X123969482Y-151180155D01*
X123966854Y-151181511D01*
X123966855Y-151181511D01*
X123831045Y-151251607D01*
X123828282Y-151253033D01*
X123708542Y-151357489D01*
X123706844Y-151359904D01*
X123706843Y-151359906D01*
X123677953Y-151401013D01*
X123617175Y-151487492D01*
X123616104Y-151490240D01*
X123616102Y-151490243D01*
X123581957Y-151577822D01*
X123559455Y-151635536D01*
X123538714Y-151793075D01*
X123541645Y-151819619D01*
X123548927Y-151885581D01*
X123538464Y-151921595D01*
X123534871Y-151925606D01*
X123063203Y-152397274D01*
X123055136Y-152403789D01*
X123040176Y-152413449D01*
X123016443Y-152443554D01*
X123012611Y-152447866D01*
X123008309Y-152452168D01*
X123007132Y-152453815D01*
X122995962Y-152469445D01*
X122994577Y-152471290D01*
X122961546Y-152513190D01*
X122960204Y-152517011D01*
X122958252Y-152520561D01*
X122958113Y-152520485D01*
X122957137Y-152522364D01*
X122957281Y-152522434D01*
X122955501Y-152526067D01*
X122953146Y-152529363D01*
X122951986Y-152533242D01*
X122937860Y-152580476D01*
X122937146Y-152582672D01*
X122919464Y-152633022D01*
X122918980Y-152638611D01*
X122918973Y-152638610D01*
X122918214Y-152643117D01*
X122918423Y-152643143D01*
X122917915Y-152647165D01*
X122916755Y-152651044D01*
X122916914Y-152655092D01*
X122918942Y-152706699D01*
X122918980Y-152708623D01*
X122918980Y-160221202D01*
X122904628Y-160255850D01*
X122138794Y-161021684D01*
X122104146Y-161036036D01*
X122085989Y-161032548D01*
X121967695Y-160985353D01*
X121967693Y-160985352D01*
X121965609Y-160984521D01*
X121963408Y-160984083D01*
X121963404Y-160984082D01*
X121768360Y-160945285D01*
X121768356Y-160945285D01*
X121766156Y-160944847D01*
X121672931Y-160943627D01*
X121565061Y-160942215D01*
X121565056Y-160942215D01*
X121562813Y-160942186D01*
X121560596Y-160942567D01*
X121560595Y-160942567D01*
X121498382Y-160953257D01*
X121362390Y-160976625D01*
X121360286Y-160977401D01*
X121360283Y-160977402D01*
X121173707Y-161046233D01*
X121173704Y-161046234D01*
X121171599Y-161047011D01*
X121169671Y-161048158D01*
X121169669Y-161048159D01*
X121006925Y-161144982D01*
X120996830Y-161150988D01*
X120995142Y-161152468D01*
X120995141Y-161152469D01*
X120959067Y-161184105D01*
X120843935Y-161285073D01*
X120842550Y-161286829D01*
X120842546Y-161286834D01*
X120719426Y-161443011D01*
X120719423Y-161443015D01*
X120718036Y-161444775D01*
X120623348Y-161624747D01*
X120622681Y-161626895D01*
X120619998Y-161635536D01*
X120563043Y-161818960D01*
X120562779Y-161821192D01*
X120562778Y-161821196D01*
X120547414Y-161951013D01*
X120539141Y-162020911D01*
X120552441Y-162223836D01*
X120602499Y-162420940D01*
X120603435Y-162422970D01*
X120603437Y-162422976D01*
X120686697Y-162603579D01*
X120687638Y-162605620D01*
X120805006Y-162771693D01*
X120806610Y-162773256D01*
X120806613Y-162773259D01*
X120864526Y-162829675D01*
X120950674Y-162913596D01*
X120952536Y-162914840D01*
X120952537Y-162914841D01*
X121102259Y-163014882D01*
X121119762Y-163026577D01*
X121306608Y-163106852D01*
X121308800Y-163107348D01*
X121502764Y-163151238D01*
X121502770Y-163151239D01*
X121504954Y-163151733D01*
X121590725Y-163155103D01*
X121705911Y-163159629D01*
X121705914Y-163159629D01*
X121708158Y-163159717D01*
X121710377Y-163159395D01*
X121710382Y-163159395D01*
X121808786Y-163145126D01*
X121909414Y-163130536D01*
X121911536Y-163129816D01*
X121911539Y-163129815D01*
X122023058Y-163091959D01*
X122101982Y-163065168D01*
X122123359Y-163053196D01*
X122277451Y-162966901D01*
X122277453Y-162966900D01*
X122279413Y-162965802D01*
X122290050Y-162956956D01*
X122434042Y-162837198D01*
X122435765Y-162835765D01*
X122490577Y-162769861D01*
X122564366Y-162681140D01*
X122564368Y-162681138D01*
X122565802Y-162679413D01*
X122665168Y-162501982D01*
X122705936Y-162381883D01*
X122729815Y-162311539D01*
X122729816Y-162311536D01*
X122730536Y-162309414D01*
X122759717Y-162108158D01*
X122759861Y-162102682D01*
X122761202Y-162051453D01*
X122761202Y-162051452D01*
X122761240Y-162050000D01*
X122758362Y-162018679D01*
X122742838Y-161849730D01*
X122742837Y-161849725D01*
X122742632Y-161847493D01*
X122727285Y-161793075D01*
X126238714Y-161793075D01*
X126256151Y-161951013D01*
X126310758Y-162100234D01*
X126312403Y-162102682D01*
X126395283Y-162226019D01*
X126399383Y-162232121D01*
X126401562Y-162234103D01*
X126401563Y-162234105D01*
X126413799Y-162245239D01*
X126516909Y-162339062D01*
X126519502Y-162340470D01*
X126519505Y-162340472D01*
X126629650Y-162400276D01*
X126656551Y-162414882D01*
X126810248Y-162455203D01*
X126898536Y-162456590D01*
X126966176Y-162457653D01*
X126966179Y-162457653D01*
X126969127Y-162457699D01*
X126972004Y-162457040D01*
X126972005Y-162457040D01*
X127121130Y-162422886D01*
X127121132Y-162422885D01*
X127124015Y-162422225D01*
X127126656Y-162420897D01*
X127126658Y-162420896D01*
X127204226Y-162381883D01*
X127265970Y-162350829D01*
X127386797Y-162247633D01*
X127479521Y-162118594D01*
X127538788Y-161971163D01*
X127561177Y-161813850D01*
X127561322Y-161800000D01*
X127551038Y-161715022D01*
X127561123Y-161678900D01*
X127565035Y-161674487D01*
X128146447Y-161093075D01*
X129338714Y-161093075D01*
X129356151Y-161251013D01*
X129410758Y-161400234D01*
X129412403Y-161402682D01*
X129468623Y-161486345D01*
X129499383Y-161532121D01*
X129616909Y-161639062D01*
X129619502Y-161640470D01*
X129619505Y-161640472D01*
X129682153Y-161674487D01*
X129756551Y-161714882D01*
X129910248Y-161755203D01*
X129998536Y-161756590D01*
X130066176Y-161757653D01*
X130066179Y-161757653D01*
X130069127Y-161757699D01*
X130072004Y-161757040D01*
X130072005Y-161757040D01*
X130221130Y-161722886D01*
X130221132Y-161722885D01*
X130224015Y-161722225D01*
X130226656Y-161720897D01*
X130226658Y-161720896D01*
X130326815Y-161670522D01*
X130365970Y-161650829D01*
X130443033Y-161585011D01*
X130484553Y-161549550D01*
X130484555Y-161549548D01*
X130486797Y-161547633D01*
X130519654Y-161501907D01*
X130551527Y-161482144D01*
X130559446Y-161481500D01*
X131804062Y-161481500D01*
X131814366Y-161482596D01*
X131831780Y-161486345D01*
X131869845Y-161481840D01*
X131875604Y-161481500D01*
X131881692Y-161481500D01*
X131902663Y-161478010D01*
X131904908Y-161477691D01*
X131957907Y-161471418D01*
X131961556Y-161469666D01*
X131965449Y-161468535D01*
X131965494Y-161468689D01*
X131967508Y-161468052D01*
X131967456Y-161467899D01*
X131971287Y-161466587D01*
X131975283Y-161465922D01*
X132010783Y-161446767D01*
X132022240Y-161440585D01*
X132024286Y-161439543D01*
X132072398Y-161416440D01*
X132076692Y-161412830D01*
X132076697Y-161412836D01*
X132080422Y-161410184D01*
X132080293Y-161410017D01*
X132083492Y-161407536D01*
X132087057Y-161405612D01*
X132124882Y-161364693D01*
X132126216Y-161363306D01*
X137062282Y-156427240D01*
X137070351Y-156420723D01*
X137081910Y-156413260D01*
X137081914Y-156413256D01*
X137085314Y-156411061D01*
X137087965Y-156407699D01*
X137109051Y-156380951D01*
X137112883Y-156376639D01*
X137117181Y-156372341D01*
X137118353Y-156370700D01*
X137118358Y-156370695D01*
X137129512Y-156355086D01*
X137130897Y-156353240D01*
X137161437Y-156314500D01*
X137163944Y-156311320D01*
X137165286Y-156307498D01*
X137167236Y-156303951D01*
X137167378Y-156304029D01*
X137168354Y-156302150D01*
X137168209Y-156302079D01*
X137169992Y-156298440D01*
X137172345Y-156295147D01*
X137185599Y-156250829D01*
X137187631Y-156244033D01*
X137188345Y-156241836D01*
X137205003Y-156194400D01*
X137206026Y-156191488D01*
X137206510Y-156185899D01*
X137206517Y-156185900D01*
X137207276Y-156181392D01*
X137207067Y-156181366D01*
X137207575Y-156177344D01*
X137208735Y-156173465D01*
X137206548Y-156117800D01*
X137206510Y-156115876D01*
X137206511Y-149005948D01*
X137207609Y-148995635D01*
X137210503Y-148982195D01*
X137210503Y-148982192D01*
X137211356Y-148978231D01*
X137206851Y-148940167D01*
X137206511Y-148934409D01*
X137206511Y-148928319D01*
X137203019Y-148907337D01*
X137202697Y-148905074D01*
X137196904Y-148856125D01*
X137196428Y-148852103D01*
X137194676Y-148848454D01*
X137193545Y-148844561D01*
X137193699Y-148844516D01*
X137193062Y-148842503D01*
X137192910Y-148842555D01*
X137191598Y-148838723D01*
X137190933Y-148834728D01*
X137165579Y-148787739D01*
X137164568Y-148785755D01*
X137141451Y-148737613D01*
X137137841Y-148733319D01*
X137137847Y-148733314D01*
X137135195Y-148729589D01*
X137135028Y-148729718D01*
X137132547Y-148726519D01*
X137130623Y-148722954D01*
X137089705Y-148685130D01*
X137088318Y-148683796D01*
X136315059Y-147910536D01*
X136300707Y-147875888D01*
X136301196Y-147868984D01*
X136308448Y-147818022D01*
X136311177Y-147798850D01*
X136311322Y-147785000D01*
X136292232Y-147627253D01*
X136290800Y-147623461D01*
X136237111Y-147481377D01*
X136237110Y-147481376D01*
X136236066Y-147478612D01*
X136146065Y-147347660D01*
X136143860Y-147345695D01*
X136143857Y-147345692D01*
X136029635Y-147243925D01*
X136027425Y-147241956D01*
X135886997Y-147167603D01*
X135732886Y-147128893D01*
X135652159Y-147128470D01*
X135576943Y-147128076D01*
X135576939Y-147128076D01*
X135573990Y-147128061D01*
X135571121Y-147128750D01*
X135571119Y-147128750D01*
X135435352Y-147161345D01*
X135419482Y-147165155D01*
X135416854Y-147166511D01*
X135416855Y-147166511D01*
X135282911Y-147235644D01*
X135278282Y-147238033D01*
X135158542Y-147342489D01*
X135156844Y-147344904D01*
X135156843Y-147344906D01*
X135147852Y-147357699D01*
X135067175Y-147472492D01*
X135066104Y-147475240D01*
X135066102Y-147475243D01*
X135062024Y-147485703D01*
X135009455Y-147620536D01*
X134988714Y-147778075D01*
X135006151Y-147936013D01*
X135060758Y-148085234D01*
X135062403Y-148087682D01*
X135125307Y-148181292D01*
X135149383Y-148217121D01*
X135266909Y-148324062D01*
X135269502Y-148325470D01*
X135269505Y-148325472D01*
X135324591Y-148355381D01*
X135406551Y-148399882D01*
X135409406Y-148400631D01*
X135413687Y-148401754D01*
X135560248Y-148440203D01*
X135648536Y-148441590D01*
X135716176Y-148442653D01*
X135716179Y-148442653D01*
X135719127Y-148442699D01*
X135722004Y-148442040D01*
X135722005Y-148442040D01*
X135732615Y-148439610D01*
X135769593Y-148445864D01*
X135778202Y-148452725D01*
X136429159Y-149103682D01*
X136443511Y-149138330D01*
X136443510Y-155946671D01*
X136429158Y-155981319D01*
X131706329Y-160704148D01*
X131671681Y-160718500D01*
X130560223Y-160718500D01*
X130525575Y-160704148D01*
X130519841Y-160697254D01*
X130497740Y-160665097D01*
X130496065Y-160662660D01*
X130493860Y-160660695D01*
X130493857Y-160660692D01*
X130379635Y-160558925D01*
X130377425Y-160556956D01*
X130249526Y-160489237D01*
X130239611Y-160483987D01*
X130236997Y-160482603D01*
X130082886Y-160443893D01*
X130002159Y-160443470D01*
X129926943Y-160443076D01*
X129926939Y-160443076D01*
X129923990Y-160443061D01*
X129921121Y-160443750D01*
X129921119Y-160443750D01*
X129792833Y-160474549D01*
X129769482Y-160480155D01*
X129766854Y-160481511D01*
X129766855Y-160481511D01*
X129642550Y-160545669D01*
X129628282Y-160553033D01*
X129508542Y-160657489D01*
X129506844Y-160659904D01*
X129506843Y-160659906D01*
X129481211Y-160696377D01*
X129417175Y-160787492D01*
X129416104Y-160790240D01*
X129416102Y-160790243D01*
X129378715Y-160886136D01*
X129359455Y-160935536D01*
X129354568Y-160972652D01*
X129339701Y-161085582D01*
X129338714Y-161093075D01*
X128146447Y-161093075D01*
X131343671Y-157895852D01*
X131378319Y-157881500D01*
X132840179Y-157881500D01*
X132874827Y-157895852D01*
X132880850Y-157903171D01*
X132898657Y-157929672D01*
X132898663Y-157929679D01*
X132900304Y-157932121D01*
X133017830Y-158039062D01*
X133020423Y-158040470D01*
X133020426Y-158040472D01*
X133130571Y-158100276D01*
X133157472Y-158114882D01*
X133311169Y-158155203D01*
X133399457Y-158156590D01*
X133467097Y-158157653D01*
X133467100Y-158157653D01*
X133470048Y-158157699D01*
X133472925Y-158157040D01*
X133472926Y-158157040D01*
X133622051Y-158122886D01*
X133622053Y-158122885D01*
X133624936Y-158122225D01*
X133627577Y-158120897D01*
X133627579Y-158120896D01*
X133716782Y-158076031D01*
X133766891Y-158050829D01*
X133887718Y-157947633D01*
X133959587Y-157847617D01*
X133978717Y-157820995D01*
X133978718Y-157820993D01*
X133980442Y-157818594D01*
X134039709Y-157671163D01*
X134062098Y-157513850D01*
X134062243Y-157500000D01*
X134043153Y-157342253D01*
X133988405Y-157197363D01*
X133988032Y-157196377D01*
X133988031Y-157196376D01*
X133986987Y-157193612D01*
X133896986Y-157062660D01*
X133894781Y-157060695D01*
X133894778Y-157060692D01*
X133780556Y-156958925D01*
X133778346Y-156956956D01*
X133637918Y-156882603D01*
X133483807Y-156843893D01*
X133403080Y-156843470D01*
X133327864Y-156843076D01*
X133327860Y-156843076D01*
X133324911Y-156843061D01*
X133322042Y-156843750D01*
X133322040Y-156843750D01*
X133173277Y-156879465D01*
X133170403Y-156880155D01*
X133167775Y-156881511D01*
X133167776Y-156881511D01*
X133040150Y-156947383D01*
X133029203Y-156953033D01*
X132909463Y-157057489D01*
X132907765Y-157059904D01*
X132907764Y-157059906D01*
X132881220Y-157097675D01*
X132849556Y-157117770D01*
X132841131Y-157118500D01*
X131245937Y-157118500D01*
X131235624Y-157117402D01*
X131222184Y-157114508D01*
X131222181Y-157114508D01*
X131218220Y-157113655D01*
X131180154Y-157118160D01*
X131174395Y-157118500D01*
X131168308Y-157118500D01*
X131147338Y-157121990D01*
X131145087Y-157122310D01*
X131092092Y-157128582D01*
X131088442Y-157130334D01*
X131084550Y-157131465D01*
X131084505Y-157131311D01*
X131082492Y-157131948D01*
X131082544Y-157132101D01*
X131078713Y-157133413D01*
X131074717Y-157134078D01*
X131071152Y-157136002D01*
X131071151Y-157136002D01*
X131027771Y-157159409D01*
X131025719Y-157160454D01*
X130977602Y-157183560D01*
X130973308Y-157187170D01*
X130973303Y-157187164D01*
X130969578Y-157189816D01*
X130969707Y-157189983D01*
X130966508Y-157192464D01*
X130962943Y-157194388D01*
X130960193Y-157197363D01*
X130925118Y-157235307D01*
X130923784Y-157236694D01*
X127029461Y-161131016D01*
X126994813Y-161145368D01*
X126988673Y-161144982D01*
X126985755Y-161144614D01*
X126982886Y-161143893D01*
X126901742Y-161143468D01*
X126826943Y-161143076D01*
X126826939Y-161143076D01*
X126823990Y-161143061D01*
X126821121Y-161143750D01*
X126821119Y-161143750D01*
X126672356Y-161179465D01*
X126669482Y-161180155D01*
X126666854Y-161181511D01*
X126666855Y-161181511D01*
X126532196Y-161251013D01*
X126528282Y-161253033D01*
X126408542Y-161357489D01*
X126406844Y-161359904D01*
X126406843Y-161359906D01*
X126376812Y-161402637D01*
X126317175Y-161487492D01*
X126316104Y-161490240D01*
X126316102Y-161490243D01*
X126288834Y-161560182D01*
X126259455Y-161635536D01*
X126259070Y-161638461D01*
X126242755Y-161762385D01*
X126238714Y-161793075D01*
X122727285Y-161793075D01*
X122707735Y-161723756D01*
X122688044Y-161653936D01*
X122688043Y-161653933D01*
X122687432Y-161651767D01*
X122681167Y-161639062D01*
X122670041Y-161616502D01*
X122667588Y-161579080D01*
X122679340Y-161560182D01*
X123108023Y-161131500D01*
X123537755Y-160701768D01*
X123545824Y-160695251D01*
X123557380Y-160687790D01*
X123557384Y-160687786D01*
X123560784Y-160685591D01*
X123578862Y-160662660D01*
X123584517Y-160655486D01*
X123588349Y-160651174D01*
X123591220Y-160648304D01*
X123591226Y-160648297D01*
X123592651Y-160646872D01*
X123605016Y-160629570D01*
X123606379Y-160627755D01*
X123636907Y-160589030D01*
X123639414Y-160585850D01*
X123640756Y-160582029D01*
X123642707Y-160578480D01*
X123642849Y-160578558D01*
X123643824Y-160576681D01*
X123643678Y-160576610D01*
X123645461Y-160572971D01*
X123647814Y-160569678D01*
X123650737Y-160559906D01*
X123663099Y-160518567D01*
X123663813Y-160516371D01*
X123674481Y-160485994D01*
X123681496Y-160466018D01*
X123681980Y-160460429D01*
X123681987Y-160460430D01*
X123682746Y-160455923D01*
X123682537Y-160455897D01*
X123683045Y-160451875D01*
X123684205Y-160447996D01*
X123682018Y-160392341D01*
X123681980Y-160390417D01*
X123681980Y-156514125D01*
X123696332Y-156479477D01*
X123730980Y-156465125D01*
X123738333Y-156465922D01*
X123738494Y-156465979D01*
X123741301Y-156466244D01*
X123741298Y-156466244D01*
X123769308Y-156468892D01*
X123769315Y-156468892D01*
X123770454Y-156469000D01*
X124429546Y-156469000D01*
X124430685Y-156468892D01*
X124430692Y-156468892D01*
X124458536Y-156466260D01*
X124458538Y-156466260D01*
X124461506Y-156465979D01*
X124591023Y-156420496D01*
X124658176Y-156370896D01*
X124698494Y-156341116D01*
X124701440Y-156338940D01*
X124714768Y-156320896D01*
X124780818Y-156231472D01*
X124780818Y-156231471D01*
X124782996Y-156228523D01*
X124784210Y-156225066D01*
X124785924Y-156221829D01*
X124787354Y-156222586D01*
X124808642Y-156198826D01*
X124829846Y-156194000D01*
X125244500Y-156194000D01*
X125279148Y-156208352D01*
X125293500Y-156243000D01*
X125293500Y-156728600D01*
X125300146Y-156789776D01*
X125350446Y-156923952D01*
X125352541Y-156926748D01*
X125352542Y-156926749D01*
X125373694Y-156954972D01*
X125436382Y-157038618D01*
X125439176Y-157040712D01*
X125547874Y-157122175D01*
X125551048Y-157124554D01*
X125554318Y-157125780D01*
X125554320Y-157125781D01*
X125605144Y-157144833D01*
X125685224Y-157174854D01*
X125688274Y-157175185D01*
X125688277Y-157175186D01*
X125714630Y-157178049D01*
X125746400Y-157181500D01*
X126753600Y-157181500D01*
X126785370Y-157178049D01*
X126811723Y-157175186D01*
X126811726Y-157175185D01*
X126814776Y-157174854D01*
X126894856Y-157144833D01*
X126945680Y-157125781D01*
X126945682Y-157125780D01*
X126948952Y-157124554D01*
X126952127Y-157122175D01*
X127060824Y-157040712D01*
X127063618Y-157038618D01*
X127126306Y-156954972D01*
X127147458Y-156926749D01*
X127147459Y-156926748D01*
X127149554Y-156923952D01*
X127199854Y-156789776D01*
X127206500Y-156728600D01*
X127206500Y-156146400D01*
X127200888Y-156094738D01*
X127200186Y-156088277D01*
X127200185Y-156088274D01*
X127199854Y-156085224D01*
X127155522Y-155966967D01*
X127150781Y-155954320D01*
X127150780Y-155954318D01*
X127149554Y-155951048D01*
X127142491Y-155941623D01*
X127065712Y-155839176D01*
X127063618Y-155836382D01*
X126948952Y-155750446D01*
X126945682Y-155749220D01*
X126945680Y-155749219D01*
X126855578Y-155715442D01*
X126814776Y-155700146D01*
X126811726Y-155699815D01*
X126811723Y-155699814D01*
X126785370Y-155696951D01*
X126753600Y-155693500D01*
X126065819Y-155693500D01*
X126031171Y-155679148D01*
X125927246Y-155575223D01*
X125920730Y-155567155D01*
X125913267Y-155555597D01*
X125911071Y-155552196D01*
X125880966Y-155528463D01*
X125876654Y-155524631D01*
X125872352Y-155520329D01*
X125867825Y-155517094D01*
X125855075Y-155507982D01*
X125853230Y-155506597D01*
X125814511Y-155476074D01*
X125811330Y-155473566D01*
X125807509Y-155472224D01*
X125803959Y-155470272D01*
X125804035Y-155470133D01*
X125802156Y-155469157D01*
X125802086Y-155469301D01*
X125798453Y-155467521D01*
X125795157Y-155465166D01*
X125744044Y-155449880D01*
X125741848Y-155449166D01*
X125721753Y-155442109D01*
X125691498Y-155431484D01*
X125685998Y-155431008D01*
X125685994Y-155431007D01*
X125685909Y-155431000D01*
X125685910Y-155430993D01*
X125681403Y-155430234D01*
X125681377Y-155430443D01*
X125677355Y-155429935D01*
X125673476Y-155428775D01*
X125669428Y-155428934D01*
X125617821Y-155430962D01*
X125615897Y-155431000D01*
X124829846Y-155431000D01*
X124795198Y-155416648D01*
X124786519Y-155402856D01*
X124785924Y-155403171D01*
X124784210Y-155399934D01*
X124782996Y-155396477D01*
X124701440Y-155286060D01*
X124591023Y-155204504D01*
X124461506Y-155159021D01*
X124458538Y-155158740D01*
X124458536Y-155158740D01*
X124430692Y-155156108D01*
X124430685Y-155156108D01*
X124429546Y-155156000D01*
X123770454Y-155156000D01*
X123769315Y-155156108D01*
X123769308Y-155156108D01*
X123738494Y-155159021D01*
X123738415Y-155158188D01*
X123704563Y-155152144D01*
X123683119Y-155121377D01*
X123681980Y-155110875D01*
X123681980Y-154864125D01*
X123696332Y-154829477D01*
X123730980Y-154815125D01*
X123738333Y-154815922D01*
X123738494Y-154815979D01*
X123741301Y-154816244D01*
X123741298Y-154816244D01*
X123769308Y-154818892D01*
X123769315Y-154818892D01*
X123770454Y-154819000D01*
X124092419Y-154819000D01*
X124093189Y-154819006D01*
X124166177Y-154820153D01*
X124166180Y-154820153D01*
X124169127Y-154820199D01*
X124172003Y-154819540D01*
X124174582Y-154819269D01*
X124179705Y-154819000D01*
X124429546Y-154819000D01*
X124430685Y-154818892D01*
X124430692Y-154818892D01*
X124458536Y-154816260D01*
X124458538Y-154816260D01*
X124461506Y-154815979D01*
X124591023Y-154770496D01*
X124600911Y-154763193D01*
X124698494Y-154691116D01*
X124701440Y-154688940D01*
X124706935Y-154681500D01*
X124780818Y-154581472D01*
X124780818Y-154581471D01*
X124782996Y-154578523D01*
X124828479Y-154449006D01*
X124831500Y-154417046D01*
X124831500Y-153907954D01*
X124831141Y-153904148D01*
X124828760Y-153878964D01*
X124828760Y-153878962D01*
X124828479Y-153875994D01*
X124782996Y-153746477D01*
X124760205Y-153715620D01*
X124703616Y-153639006D01*
X124701440Y-153636060D01*
X124668841Y-153611982D01*
X124593972Y-153556682D01*
X124593971Y-153556682D01*
X124591023Y-153554504D01*
X124461506Y-153509021D01*
X124458538Y-153508740D01*
X124458536Y-153508740D01*
X124430692Y-153506108D01*
X124430685Y-153506108D01*
X124429546Y-153506000D01*
X124107897Y-153506000D01*
X124107640Y-153505999D01*
X124026948Y-153505576D01*
X124026944Y-153505576D01*
X124023990Y-153505561D01*
X124022698Y-153505871D01*
X124020459Y-153506000D01*
X123770454Y-153506000D01*
X123769315Y-153506108D01*
X123769308Y-153506108D01*
X123738494Y-153509021D01*
X123738415Y-153508188D01*
X123704563Y-153502144D01*
X123683119Y-153471377D01*
X123681980Y-153460875D01*
X123681980Y-152877838D01*
X123696332Y-152843190D01*
X124070559Y-152468964D01*
X124105207Y-152454612D01*
X124108973Y-152454869D01*
X124110248Y-152455203D01*
X124194383Y-152456525D01*
X124266176Y-152457653D01*
X124266179Y-152457653D01*
X124269127Y-152457699D01*
X124272004Y-152457040D01*
X124272005Y-152457040D01*
X124421130Y-152422886D01*
X124421132Y-152422885D01*
X124424015Y-152422225D01*
X124426656Y-152420897D01*
X124426658Y-152420896D01*
X124497131Y-152385451D01*
X124565970Y-152350829D01*
X124686797Y-152247633D01*
X124779521Y-152118594D01*
X124838788Y-151971163D01*
X124861177Y-151813850D01*
X124861322Y-151800000D01*
X124851339Y-151717508D01*
X124851038Y-151715022D01*
X124861123Y-151678900D01*
X124865035Y-151674487D01*
X125086680Y-151452842D01*
X125121328Y-151438490D01*
X127612904Y-151438490D01*
X127647552Y-151452842D01*
X127852148Y-151657439D01*
X127866500Y-151692087D01*
X127866501Y-151798406D01*
X127866501Y-151906294D01*
X127881484Y-152000899D01*
X127883235Y-152004335D01*
X127883235Y-152004336D01*
X127929611Y-152095353D01*
X127939583Y-152114925D01*
X128030075Y-152205417D01*
X128033512Y-152207168D01*
X128033513Y-152207169D01*
X128140664Y-152261765D01*
X128144101Y-152263516D01*
X128238705Y-152278500D01*
X128418000Y-152278500D01*
X128597294Y-152278499D01*
X128691899Y-152263516D01*
X128695336Y-152261765D01*
X128802487Y-152207169D01*
X128802488Y-152207168D01*
X128805925Y-152205417D01*
X128896417Y-152114925D01*
X128906390Y-152095353D01*
X128952765Y-152004336D01*
X128952765Y-152004335D01*
X128954516Y-152000899D01*
X128969500Y-151906295D01*
X128969499Y-151710319D01*
X128983851Y-151675671D01*
X129118689Y-151540833D01*
X129153337Y-151526481D01*
X129187985Y-151540833D01*
X129199353Y-151558641D01*
X129211610Y-151592134D01*
X129225500Y-151630091D01*
X129227145Y-151632539D01*
X129286749Y-151721238D01*
X129314125Y-151761978D01*
X129316304Y-151763960D01*
X129316305Y-151763962D01*
X129326508Y-151773246D01*
X129431651Y-151868919D01*
X129434244Y-151870327D01*
X129434247Y-151870329D01*
X129528667Y-151921595D01*
X129571293Y-151944739D01*
X129724990Y-151985060D01*
X129813278Y-151986447D01*
X129880918Y-151987510D01*
X129880921Y-151987510D01*
X129883869Y-151987556D01*
X129886746Y-151986897D01*
X129886747Y-151986897D01*
X130035872Y-151952743D01*
X130035874Y-151952742D01*
X130038757Y-151952082D01*
X130041398Y-151950754D01*
X130041400Y-151950753D01*
X130111873Y-151915308D01*
X130180712Y-151880686D01*
X130286716Y-151790150D01*
X130299297Y-151779405D01*
X130299298Y-151779404D01*
X130301539Y-151777490D01*
X130349806Y-151710319D01*
X130392538Y-151650852D01*
X130392539Y-151650850D01*
X130394263Y-151648451D01*
X130453530Y-151501020D01*
X130475919Y-151343707D01*
X130476064Y-151329857D01*
X130470480Y-151283717D01*
X130465780Y-151244879D01*
X130475865Y-151208757D01*
X130479777Y-151204344D01*
X130509032Y-151175089D01*
X130543680Y-151160737D01*
X130578328Y-151175089D01*
X130592680Y-151209737D01*
X130592261Y-151216133D01*
X130588714Y-151243075D01*
X130606151Y-151401013D01*
X130660758Y-151550234D01*
X130662403Y-151552682D01*
X130747219Y-151678900D01*
X130749383Y-151682121D01*
X130751562Y-151684103D01*
X130751563Y-151684105D01*
X130773301Y-151703885D01*
X130866909Y-151789062D01*
X130869502Y-151790470D01*
X130869505Y-151790472D01*
X130942846Y-151830293D01*
X131006551Y-151864882D01*
X131160248Y-151905203D01*
X131248536Y-151906590D01*
X131316176Y-151907653D01*
X131316179Y-151907653D01*
X131319127Y-151907699D01*
X131322004Y-151907040D01*
X131322005Y-151907040D01*
X131471130Y-151872886D01*
X131471132Y-151872885D01*
X131474015Y-151872225D01*
X131476656Y-151870897D01*
X131476658Y-151870896D01*
X131557387Y-151830293D01*
X131578936Y-151819455D01*
X131616339Y-151816708D01*
X131644728Y-151841213D01*
X131647475Y-151878616D01*
X131635601Y-151897878D01*
X129546356Y-153987123D01*
X129511708Y-154001475D01*
X128275000Y-154001475D01*
X128272648Y-154001943D01*
X128272646Y-154001943D01*
X128240381Y-154008361D01*
X128174919Y-154021382D01*
X128170908Y-154024062D01*
X128170906Y-154024063D01*
X128128864Y-154052155D01*
X128090074Y-154078074D01*
X128084411Y-154086549D01*
X128036901Y-154157653D01*
X128033382Y-154162919D01*
X128031953Y-154170103D01*
X128017164Y-154244456D01*
X128013475Y-154263000D01*
X128013475Y-155413000D01*
X128013591Y-155414180D01*
X128013591Y-155414188D01*
X128018095Y-155460163D01*
X128018447Y-155463753D01*
X128057398Y-155558068D01*
X128129477Y-155630298D01*
X128133930Y-155632148D01*
X128207290Y-155662624D01*
X128223711Y-155669446D01*
X128274341Y-155669499D01*
X128320925Y-155669548D01*
X128325753Y-155669553D01*
X128399886Y-155638937D01*
X128417846Y-155631520D01*
X128417849Y-155631518D01*
X128420068Y-155630602D01*
X128997820Y-155245434D01*
X129034610Y-155238156D01*
X129052180Y-155245434D01*
X129629932Y-155630602D01*
X129630987Y-155631165D01*
X129630990Y-155631167D01*
X129632828Y-155632148D01*
X129674919Y-155654618D01*
X129678453Y-155655321D01*
X129770269Y-155673584D01*
X129775000Y-155674525D01*
X129875081Y-155654618D01*
X129879092Y-155651938D01*
X129879094Y-155651937D01*
X129955915Y-155600606D01*
X129959926Y-155597926D01*
X129984275Y-155561485D01*
X130013937Y-155517094D01*
X130013938Y-155517092D01*
X130016618Y-155513081D01*
X130030120Y-155445199D01*
X130036057Y-155415354D01*
X130036057Y-155415352D01*
X130036525Y-155413000D01*
X130036525Y-154596295D01*
X130050877Y-154561647D01*
X130576319Y-154036205D01*
X130610967Y-154021853D01*
X130611303Y-154021992D01*
X130609794Y-154014408D01*
X130623205Y-153989319D01*
X132109862Y-152502662D01*
X132144510Y-152488310D01*
X132179158Y-152502662D01*
X132193510Y-152537310D01*
X132193510Y-153609672D01*
X132179158Y-153644320D01*
X131836354Y-153987123D01*
X131801706Y-154001475D01*
X130850000Y-154001475D01*
X130847648Y-154001943D01*
X130847646Y-154001943D01*
X130815381Y-154008361D01*
X130749919Y-154021382D01*
X130745908Y-154024062D01*
X130745906Y-154024063D01*
X130685076Y-154064709D01*
X130659527Y-154069791D01*
X130659967Y-154070853D01*
X130651709Y-154098076D01*
X130611901Y-154157653D01*
X130608382Y-154162919D01*
X130606953Y-154170103D01*
X130592164Y-154244456D01*
X130588475Y-154263000D01*
X130588475Y-155413000D01*
X130588591Y-155414180D01*
X130588591Y-155414188D01*
X130593095Y-155460163D01*
X130593447Y-155463753D01*
X130632398Y-155558068D01*
X130704477Y-155630298D01*
X130708930Y-155632148D01*
X130782290Y-155662624D01*
X130798711Y-155669446D01*
X130849341Y-155669499D01*
X130895925Y-155669548D01*
X130900753Y-155669553D01*
X130974886Y-155638937D01*
X130992846Y-155631520D01*
X130992849Y-155631518D01*
X130995068Y-155630602D01*
X131572820Y-155245434D01*
X131609610Y-155238156D01*
X131627180Y-155245434D01*
X132204932Y-155630602D01*
X132205987Y-155631165D01*
X132205990Y-155631167D01*
X132207828Y-155632148D01*
X132249919Y-155654618D01*
X132253453Y-155655321D01*
X132345269Y-155673584D01*
X132350000Y-155674525D01*
X132450081Y-155654618D01*
X132454092Y-155651938D01*
X132454094Y-155651937D01*
X132530915Y-155600606D01*
X132534926Y-155597926D01*
X132559275Y-155561485D01*
X132588937Y-155517094D01*
X132588938Y-155517092D01*
X132591618Y-155513081D01*
X132605120Y-155445199D01*
X132611057Y-155415354D01*
X132611057Y-155415352D01*
X132611525Y-155413000D01*
X132611525Y-154311293D01*
X132625877Y-154276646D01*
X132812287Y-154090236D01*
X132820355Y-154083720D01*
X132831913Y-154076257D01*
X132835314Y-154074061D01*
X132847120Y-154059085D01*
X132879840Y-154040759D01*
X132915935Y-154050938D01*
X132920249Y-154054771D01*
X133142123Y-154276645D01*
X133156475Y-154311293D01*
X133156475Y-155413000D01*
X133156591Y-155414180D01*
X133156591Y-155414188D01*
X133161095Y-155460163D01*
X133161447Y-155463753D01*
X133200398Y-155558068D01*
X133272477Y-155630298D01*
X133276930Y-155632148D01*
X133350290Y-155662624D01*
X133366711Y-155669446D01*
X133417341Y-155669499D01*
X133463925Y-155669548D01*
X133468753Y-155669553D01*
X133542886Y-155638937D01*
X133560846Y-155631520D01*
X133560849Y-155631518D01*
X133563068Y-155630602D01*
X134140820Y-155245434D01*
X134177610Y-155238156D01*
X134195180Y-155245434D01*
X134772932Y-155630602D01*
X134773987Y-155631165D01*
X134773990Y-155631167D01*
X134775828Y-155632148D01*
X134817919Y-155654618D01*
X134821453Y-155655321D01*
X134913269Y-155673584D01*
X134918000Y-155674525D01*
X135018081Y-155654618D01*
X135022092Y-155651938D01*
X135022094Y-155651937D01*
X135098915Y-155600606D01*
X135102926Y-155597926D01*
X135127275Y-155561485D01*
X135156937Y-155517094D01*
X135156938Y-155517092D01*
X135159618Y-155513081D01*
X135173120Y-155445199D01*
X135179057Y-155415354D01*
X135179057Y-155415352D01*
X135179525Y-155413000D01*
X135179525Y-154263000D01*
X135175837Y-154244456D01*
X135161047Y-154170103D01*
X135159618Y-154162919D01*
X135156100Y-154157653D01*
X135108589Y-154086549D01*
X135102926Y-154078074D01*
X135064136Y-154052155D01*
X135022094Y-154024063D01*
X135022092Y-154024062D01*
X135018081Y-154021382D01*
X134952619Y-154008361D01*
X134920354Y-154001943D01*
X134920352Y-154001943D01*
X134918000Y-154001475D01*
X133966294Y-154001475D01*
X133931646Y-153987123D01*
X133420872Y-153476349D01*
X133406520Y-153441701D01*
X133406520Y-151892931D01*
X133420872Y-151858283D01*
X133455520Y-151843931D01*
X133478901Y-151849869D01*
X133506551Y-151864882D01*
X133660248Y-151905203D01*
X133748536Y-151906590D01*
X133816176Y-151907653D01*
X133816179Y-151907653D01*
X133819127Y-151907699D01*
X133822004Y-151907040D01*
X133822005Y-151907040D01*
X133971130Y-151872886D01*
X133971132Y-151872885D01*
X133974015Y-151872225D01*
X133976656Y-151870897D01*
X133976658Y-151870896D01*
X134057387Y-151830293D01*
X134115970Y-151800829D01*
X134204950Y-151724833D01*
X134234555Y-151699548D01*
X134234556Y-151699547D01*
X134236797Y-151697633D01*
X134329521Y-151568594D01*
X134388788Y-151421163D01*
X134411177Y-151263850D01*
X134411322Y-151250000D01*
X134392232Y-151092253D01*
X134384573Y-151071982D01*
X134337111Y-150946377D01*
X134337110Y-150946376D01*
X134336066Y-150943612D01*
X134246065Y-150812660D01*
X134243860Y-150810695D01*
X134243857Y-150810692D01*
X134129634Y-150708924D01*
X134129633Y-150708924D01*
X134127425Y-150706956D01*
X134127097Y-150706782D01*
X134107275Y-150675907D01*
X134106500Y-150667229D01*
X134106500Y-149603528D01*
X134107598Y-149593215D01*
X134110175Y-149581245D01*
X134111027Y-149577288D01*
X134110544Y-149573201D01*
X134106840Y-149541907D01*
X134106500Y-149536148D01*
X134106500Y-149530648D01*
X134103252Y-149511136D01*
X134102927Y-149508849D01*
X134097555Y-149463452D01*
X134097554Y-149463449D01*
X134097078Y-149459425D01*
X134095323Y-149455771D01*
X134094194Y-149451884D01*
X134094431Y-149451815D01*
X134094153Y-149450936D01*
X134093920Y-149451016D01*
X134092608Y-149447184D01*
X134091943Y-149443189D01*
X134068300Y-149399371D01*
X134067254Y-149397318D01*
X134047040Y-149355223D01*
X134045703Y-149352438D01*
X134045062Y-149351676D01*
X134042324Y-149348419D01*
X134042368Y-149348382D01*
X134040203Y-149345339D01*
X134039990Y-149345504D01*
X134037508Y-149342305D01*
X134035585Y-149338740D01*
X133997410Y-149303452D01*
X133996023Y-149302118D01*
X133825223Y-149131318D01*
X133810871Y-149096670D01*
X133825223Y-149062022D01*
X133848932Y-149048907D01*
X133971130Y-149020920D01*
X133971132Y-149020919D01*
X133974015Y-149020259D01*
X133976656Y-149018931D01*
X133976658Y-149018930D01*
X134065583Y-148974205D01*
X134115970Y-148948863D01*
X134229242Y-148852120D01*
X134234555Y-148847582D01*
X134234556Y-148847581D01*
X134236797Y-148845667D01*
X134314709Y-148737241D01*
X134327796Y-148719029D01*
X134327797Y-148719027D01*
X134329521Y-148716628D01*
X134388788Y-148569197D01*
X134411177Y-148411884D01*
X134411322Y-148398034D01*
X134392232Y-148240287D01*
X134384098Y-148218759D01*
X134337111Y-148094411D01*
X134337110Y-148094410D01*
X134336066Y-148091646D01*
X134307636Y-148050280D01*
X134285669Y-148018317D01*
X134277872Y-147981633D01*
X134290069Y-147957302D01*
X134307702Y-147938227D01*
X134309036Y-147936840D01*
X135215449Y-147030427D01*
X135223518Y-147023910D01*
X135235077Y-147016447D01*
X135235081Y-147016443D01*
X135238481Y-147014248D01*
X135262218Y-146984138D01*
X135266050Y-146979826D01*
X135270348Y-146975528D01*
X135271520Y-146973887D01*
X135271525Y-146973882D01*
X135282679Y-146958273D01*
X135284064Y-146956427D01*
X135303827Y-146931358D01*
X135317111Y-146914507D01*
X135318453Y-146910685D01*
X135320403Y-146907138D01*
X135320545Y-146907216D01*
X135321521Y-146905337D01*
X135321376Y-146905266D01*
X135323159Y-146901627D01*
X135325512Y-146898334D01*
X135331043Y-146879841D01*
X135340798Y-146847220D01*
X135341512Y-146845023D01*
X135354582Y-146807804D01*
X135359193Y-146794675D01*
X135359677Y-146789086D01*
X135359684Y-146789087D01*
X135360443Y-146784579D01*
X135360234Y-146784553D01*
X135360742Y-146780531D01*
X135361902Y-146776652D01*
X135359715Y-146720986D01*
X135359677Y-146719062D01*
X135359677Y-144944119D01*
X135360775Y-144933806D01*
X135363670Y-144920361D01*
X135363670Y-144920359D01*
X135364523Y-144916397D01*
X135360017Y-144878325D01*
X135359677Y-144872567D01*
X135359677Y-144866485D01*
X135356191Y-144845543D01*
X135355866Y-144843256D01*
X135350071Y-144794292D01*
X135349595Y-144790270D01*
X135347843Y-144786621D01*
X135346712Y-144782728D01*
X135346866Y-144782683D01*
X135346229Y-144780669D01*
X135346076Y-144780721D01*
X135344764Y-144776890D01*
X135344099Y-144772894D01*
X135318762Y-144725937D01*
X135317714Y-144723880D01*
X135312520Y-144713063D01*
X135294617Y-144675779D01*
X135291007Y-144671485D01*
X135291013Y-144671480D01*
X135288361Y-144667755D01*
X135288194Y-144667884D01*
X135285713Y-144664685D01*
X135283789Y-144661120D01*
X135242871Y-144623296D01*
X135241484Y-144621962D01*
X132840717Y-142221194D01*
X132826365Y-142186546D01*
X132828965Y-142170795D01*
X132889815Y-141991539D01*
X132889816Y-141991536D01*
X132890536Y-141989414D01*
X132907406Y-141873065D01*
X132919510Y-141789588D01*
X132919510Y-141789582D01*
X132919717Y-141788158D01*
X132921240Y-141730000D01*
X132917959Y-141694295D01*
X132902838Y-141529730D01*
X132902837Y-141529725D01*
X132902632Y-141527493D01*
X132853886Y-141354651D01*
X132848044Y-141333936D01*
X132848043Y-141333933D01*
X132847432Y-141331767D01*
X132846435Y-141329744D01*
X132758482Y-141151395D01*
X132757488Y-141149379D01*
X132673259Y-141036583D01*
X132657006Y-141014817D01*
X132647774Y-140978468D01*
X132666949Y-140946238D01*
X132696267Y-140936499D01*
X133465436Y-140936499D01*
X133500084Y-140950851D01*
X133514436Y-140985499D01*
X133503917Y-141015835D01*
X133419426Y-141123011D01*
X133419423Y-141123015D01*
X133418036Y-141124775D01*
X133323348Y-141304747D01*
X133322681Y-141306895D01*
X133310568Y-141345906D01*
X133263043Y-141498960D01*
X133239141Y-141700911D01*
X133252441Y-141903836D01*
X133285663Y-142034648D01*
X133300825Y-142094347D01*
X133302499Y-142100940D01*
X133303435Y-142102970D01*
X133303437Y-142102976D01*
X133353284Y-142211101D01*
X133387638Y-142285620D01*
X133505006Y-142451693D01*
X133506610Y-142453256D01*
X133506613Y-142453259D01*
X133569009Y-142514042D01*
X133650674Y-142593596D01*
X133652536Y-142594840D01*
X133652537Y-142594841D01*
X133756481Y-142664294D01*
X133819762Y-142706577D01*
X134006608Y-142786852D01*
X134008800Y-142787348D01*
X134202764Y-142831238D01*
X134202770Y-142831239D01*
X134204954Y-142831733D01*
X134290725Y-142835103D01*
X134405911Y-142839629D01*
X134405914Y-142839629D01*
X134408158Y-142839717D01*
X134410377Y-142839395D01*
X134410382Y-142839395D01*
X134508786Y-142825127D01*
X134609414Y-142810536D01*
X134611536Y-142809816D01*
X134611539Y-142809815D01*
X134711077Y-142776026D01*
X134801982Y-142745168D01*
X134827433Y-142730915D01*
X134977451Y-142646901D01*
X134977453Y-142646900D01*
X134979413Y-142645802D01*
X135135765Y-142515765D01*
X135265802Y-142359413D01*
X135294803Y-142307629D01*
X135364072Y-142183939D01*
X135365168Y-142181982D01*
X135430536Y-141989414D01*
X135437923Y-141938469D01*
X135457098Y-141906238D01*
X135486416Y-141896500D01*
X136469862Y-141896500D01*
X136504510Y-141910852D01*
X136559010Y-141965352D01*
X136573362Y-142000000D01*
X136559010Y-142034648D01*
X136496583Y-142097075D01*
X136494832Y-142100512D01*
X136494831Y-142100513D01*
X136450995Y-142186546D01*
X136438484Y-142211101D01*
X136423500Y-142305705D01*
X136423501Y-142664294D01*
X136438484Y-142758899D01*
X136440235Y-142762335D01*
X136440235Y-142762336D01*
X136493483Y-142866840D01*
X136496583Y-142872925D01*
X136587075Y-142963417D01*
X136590512Y-142965168D01*
X136590513Y-142965169D01*
X136697664Y-143019765D01*
X136701101Y-143021516D01*
X136795705Y-143036500D01*
X137000000Y-143036500D01*
X137204294Y-143036499D01*
X137298899Y-143021516D01*
X137302336Y-143019765D01*
X137409487Y-142965169D01*
X137409488Y-142965168D01*
X137412925Y-142963417D01*
X137495490Y-142880852D01*
X137530138Y-142866500D01*
X138069062Y-142866500D01*
X138079366Y-142867596D01*
X138096780Y-142871345D01*
X138134845Y-142866840D01*
X138140604Y-142866500D01*
X138146692Y-142866500D01*
X138148677Y-142866170D01*
X138148684Y-142866169D01*
X138161456Y-142864043D01*
X138197990Y-142872512D01*
X138217835Y-142904334D01*
X138218500Y-142912378D01*
X138218500Y-143629062D01*
X138217404Y-143639366D01*
X138213655Y-143656780D01*
X138214132Y-143660807D01*
X138218160Y-143694845D01*
X138218500Y-143700604D01*
X138218500Y-143706692D01*
X138221990Y-143727663D01*
X138222309Y-143729908D01*
X138228582Y-143782907D01*
X138229407Y-143784625D01*
X138231000Y-143795820D01*
X138231001Y-144050234D01*
X138231001Y-144301232D01*
X138237314Y-144359352D01*
X138239387Y-144364882D01*
X138281255Y-144476565D01*
X138285100Y-144486823D01*
X138287195Y-144489619D01*
X138287196Y-144489620D01*
X138310101Y-144520182D01*
X138366742Y-144595758D01*
X138369536Y-144597852D01*
X138468923Y-144672338D01*
X138475677Y-144677400D01*
X138478947Y-144678626D01*
X138478949Y-144678627D01*
X138508569Y-144689730D01*
X138510556Y-144690475D01*
X138511700Y-144690904D01*
X138539106Y-144716505D01*
X138543500Y-144736786D01*
X138543500Y-144940016D01*
X138529148Y-144974664D01*
X138499996Y-144988453D01*
X138500000Y-144988475D01*
X138499913Y-144988492D01*
X138499912Y-144988493D01*
X138399919Y-145008382D01*
X138395908Y-145011062D01*
X138395906Y-145011063D01*
X138377223Y-145023547D01*
X138340441Y-145030863D01*
X138322777Y-145023547D01*
X138304094Y-145011063D01*
X138304092Y-145011062D01*
X138300081Y-145008382D01*
X138230466Y-144994535D01*
X138202354Y-144988943D01*
X138202352Y-144988943D01*
X138200000Y-144988475D01*
X137709645Y-144988475D01*
X137708747Y-144988467D01*
X137644105Y-144987282D01*
X137644104Y-144987282D01*
X137642357Y-144987250D01*
X137600735Y-144992434D01*
X137570504Y-144996199D01*
X137570498Y-144996200D01*
X137568773Y-144996415D01*
X137567099Y-144996871D01*
X137567096Y-144996872D01*
X137545526Y-145002753D01*
X137430593Y-145034088D01*
X137428998Y-145034778D01*
X137428993Y-145034780D01*
X137364146Y-145062842D01*
X137364142Y-145062844D01*
X137362543Y-145063536D01*
X137358635Y-145065935D01*
X137321601Y-145071834D01*
X137298349Y-145058826D01*
X136158829Y-143919306D01*
X136144477Y-143884658D01*
X136144966Y-143877754D01*
X136153257Y-143819500D01*
X136161177Y-143763850D01*
X136161322Y-143750000D01*
X136142232Y-143592253D01*
X136140800Y-143588461D01*
X136087111Y-143446377D01*
X136087110Y-143446376D01*
X136086066Y-143443612D01*
X136018782Y-143345713D01*
X135997740Y-143315097D01*
X135996065Y-143312660D01*
X135993860Y-143310695D01*
X135993857Y-143310692D01*
X135879635Y-143208925D01*
X135877425Y-143206956D01*
X135736997Y-143132603D01*
X135582886Y-143093893D01*
X135502159Y-143093470D01*
X135426943Y-143093076D01*
X135426939Y-143093076D01*
X135423990Y-143093061D01*
X135421121Y-143093750D01*
X135421119Y-143093750D01*
X135323027Y-143117300D01*
X135269482Y-143130155D01*
X135258349Y-143135901D01*
X135131353Y-143201448D01*
X135128282Y-143203033D01*
X135008542Y-143307489D01*
X135006844Y-143309904D01*
X135006843Y-143309906D01*
X134976066Y-143353698D01*
X134917175Y-143437492D01*
X134916104Y-143440240D01*
X134916102Y-143440243D01*
X134890850Y-143505012D01*
X134859455Y-143585536D01*
X134859070Y-143588461D01*
X134844686Y-143697718D01*
X134838714Y-143743075D01*
X134856151Y-143901013D01*
X134910758Y-144050234D01*
X134912403Y-144052682D01*
X134937698Y-144090324D01*
X134999383Y-144182121D01*
X135001562Y-144184103D01*
X135001563Y-144184105D01*
X135038627Y-144217831D01*
X135116909Y-144289062D01*
X135119502Y-144290470D01*
X135119505Y-144290472D01*
X135225576Y-144348064D01*
X135256551Y-144364882D01*
X135410248Y-144405203D01*
X135548319Y-144407372D01*
X135582196Y-144421718D01*
X136922496Y-145762018D01*
X136936353Y-145789721D01*
X136937980Y-145801084D01*
X136938475Y-145808029D01*
X136938475Y-146182050D01*
X136937796Y-146190180D01*
X136937108Y-146194269D01*
X136937024Y-146195203D01*
X136937024Y-146195205D01*
X136933822Y-146230915D01*
X136933504Y-146234459D01*
X136933353Y-146246801D01*
X136935974Y-146287075D01*
X136956278Y-146428852D01*
X136956770Y-146430533D01*
X136956770Y-146430535D01*
X136975132Y-146493325D01*
X136977090Y-146500022D01*
X136977808Y-146501600D01*
X136977809Y-146501604D01*
X137033795Y-146624738D01*
X137036370Y-146630401D01*
X137076319Y-146692869D01*
X137169809Y-146801370D01*
X137175689Y-146806499D01*
X137224377Y-146848973D01*
X137224384Y-146848978D01*
X137225687Y-146850115D01*
X137345872Y-146928015D01*
X137413185Y-146959117D01*
X137550403Y-147000153D01*
X137552125Y-147000410D01*
X137552128Y-147000411D01*
X137598906Y-147007402D01*
X137623737Y-147011113D01*
X137625474Y-147011124D01*
X137625479Y-147011124D01*
X137699122Y-147011574D01*
X137766958Y-147011988D01*
X137768690Y-147011751D01*
X137770425Y-147011638D01*
X137770432Y-147011746D01*
X137773679Y-147011525D01*
X138200000Y-147011525D01*
X138202352Y-147011057D01*
X138202354Y-147011057D01*
X138234619Y-147004639D01*
X138300081Y-146991618D01*
X138304092Y-146988938D01*
X138304094Y-146988937D01*
X138322777Y-146976453D01*
X138359559Y-146969137D01*
X138377223Y-146976453D01*
X138395906Y-146988937D01*
X138395908Y-146988938D01*
X138399919Y-146991618D01*
X138465381Y-147004639D01*
X138497646Y-147011057D01*
X138497648Y-147011057D01*
X138500000Y-147011525D01*
X138991038Y-147011525D01*
X138991336Y-147011526D01*
X139066958Y-147011988D01*
X139140422Y-147001925D01*
X139145720Y-147000411D01*
X139232784Y-146975528D01*
X139278131Y-146962568D01*
X139311029Y-146947852D01*
X139344223Y-146933004D01*
X139344229Y-146933001D01*
X139345818Y-146932290D01*
X139466946Y-146855864D01*
X139472589Y-146851062D01*
X139490691Y-146835656D01*
X139523416Y-146807804D01*
X139529099Y-146801370D01*
X139606679Y-146713525D01*
X139618224Y-146700453D01*
X139658932Y-146638481D01*
X139719801Y-146508836D01*
X139727553Y-146483481D01*
X139740972Y-146439593D01*
X139740974Y-146439585D01*
X139741482Y-146437923D01*
X139742530Y-146431197D01*
X139763249Y-146298121D01*
X139763249Y-146298119D01*
X139763516Y-146296405D01*
X139764110Y-146247734D01*
X139764400Y-146224010D01*
X139764400Y-146224005D01*
X139764421Y-146222262D01*
X139761939Y-146203281D01*
X139761525Y-146196928D01*
X139761525Y-145812985D01*
X139762108Y-145805447D01*
X139763249Y-145798120D01*
X139763249Y-145798118D01*
X139763516Y-145796404D01*
X139764421Y-145722262D01*
X139745851Y-145580248D01*
X139745381Y-145578563D01*
X139726379Y-145510506D01*
X139726377Y-145510500D01*
X139725910Y-145508828D01*
X139668227Y-145377735D01*
X139667306Y-145376255D01*
X139629969Y-145316269D01*
X139629967Y-145316266D01*
X139629045Y-145314785D01*
X139545184Y-145215019D01*
X139538014Y-145206489D01*
X139538011Y-145206485D01*
X139536888Y-145205150D01*
X139481610Y-145155726D01*
X139456778Y-145139196D01*
X139396500Y-145099072D01*
X139362385Y-145076363D01*
X139340523Y-145065935D01*
X139334405Y-145063017D01*
X139309310Y-145035146D01*
X139306500Y-145018790D01*
X139306500Y-144736786D01*
X139320852Y-144702138D01*
X139338300Y-144690904D01*
X139339445Y-144690475D01*
X139341431Y-144689730D01*
X139371051Y-144678627D01*
X139371053Y-144678626D01*
X139374323Y-144677400D01*
X139381078Y-144672338D01*
X139480464Y-144597852D01*
X139483258Y-144595758D01*
X139539899Y-144520182D01*
X139562804Y-144489620D01*
X139562805Y-144489619D01*
X139564900Y-144486823D01*
X139568746Y-144476565D01*
X139596096Y-144403607D01*
X139612686Y-144359352D01*
X139613019Y-144356292D01*
X139618856Y-144302555D01*
X139619000Y-144301233D01*
X139618999Y-143698768D01*
X139612686Y-143640648D01*
X139564900Y-143513177D01*
X139483258Y-143404242D01*
X139461943Y-143388267D01*
X139377120Y-143324696D01*
X139377119Y-143324695D01*
X139374323Y-143322600D01*
X139371053Y-143321374D01*
X139371051Y-143321373D01*
X139322554Y-143303193D01*
X139246852Y-143274814D01*
X139243802Y-143274483D01*
X139243799Y-143274482D01*
X139217424Y-143271617D01*
X139188733Y-143268500D01*
X139030500Y-143268500D01*
X138995852Y-143254148D01*
X138981500Y-143219500D01*
X138981500Y-142855499D01*
X138995852Y-142820851D01*
X139030500Y-142806499D01*
X139175262Y-142806499D01*
X139177613Y-142806031D01*
X139177617Y-142806031D01*
X139225500Y-142796507D01*
X139250081Y-142791618D01*
X139254092Y-142788938D01*
X139254094Y-142788937D01*
X139330915Y-142737606D01*
X139334926Y-142734926D01*
X139354702Y-142705329D01*
X139388937Y-142654094D01*
X139388938Y-142654092D01*
X139391618Y-142650081D01*
X139406500Y-142575263D01*
X139406499Y-141424738D01*
X139391618Y-141349919D01*
X139380939Y-141333936D01*
X139337606Y-141269085D01*
X139334926Y-141265074D01*
X139297673Y-141240182D01*
X139254094Y-141211063D01*
X139254092Y-141211062D01*
X139250081Y-141208382D01*
X139201112Y-141198642D01*
X139177617Y-141193968D01*
X139177615Y-141193968D01*
X139175263Y-141193500D01*
X139172860Y-141193500D01*
X138600001Y-141193501D01*
X138024738Y-141193501D01*
X138022387Y-141193969D01*
X138022383Y-141193969D01*
X137974500Y-141203493D01*
X137949919Y-141208382D01*
X137945908Y-141211062D01*
X137945906Y-141211063D01*
X137902327Y-141240182D01*
X137865074Y-141265074D01*
X137862394Y-141269085D01*
X137819062Y-141333936D01*
X137808382Y-141349919D01*
X137793500Y-141424737D01*
X137793501Y-141753319D01*
X137793501Y-142054500D01*
X137779149Y-142089148D01*
X137744501Y-142103500D01*
X137530138Y-142103500D01*
X137495490Y-142089148D01*
X137440990Y-142034648D01*
X137426638Y-142000000D01*
X137440990Y-141965352D01*
X137503417Y-141902925D01*
X137561516Y-141788899D01*
X137576500Y-141694295D01*
X137576499Y-141335706D01*
X137561516Y-141241101D01*
X137544845Y-141208382D01*
X137505169Y-141130513D01*
X137505168Y-141130512D01*
X137503417Y-141127075D01*
X137412925Y-141036583D01*
X137398352Y-141029157D01*
X137373996Y-141000640D01*
X137376939Y-140963253D01*
X137405457Y-140938897D01*
X137420598Y-140936499D01*
X139776681Y-140936499D01*
X139811329Y-140950851D01*
X140579148Y-141718671D01*
X140593500Y-141753319D01*
X140593501Y-142575262D01*
X140593969Y-142577613D01*
X140593969Y-142577617D01*
X140597395Y-142594841D01*
X140608382Y-142650081D01*
X140611062Y-142654092D01*
X140611063Y-142654094D01*
X140645298Y-142705329D01*
X140665074Y-142734926D01*
X140669085Y-142737606D01*
X140745906Y-142788937D01*
X140745908Y-142788938D01*
X140749919Y-142791618D01*
X140798888Y-142801358D01*
X140822383Y-142806032D01*
X140822385Y-142806032D01*
X140824737Y-142806500D01*
X140969500Y-142806500D01*
X141004148Y-142820852D01*
X141018500Y-142855500D01*
X141018500Y-142921682D01*
X141004148Y-142956330D01*
X140706329Y-143254148D01*
X140671681Y-143268500D01*
X140264235Y-143268501D01*
X140236268Y-143268501D01*
X140178148Y-143274814D01*
X140147429Y-143286330D01*
X140053949Y-143321373D01*
X140053947Y-143321374D01*
X140050677Y-143322600D01*
X140047881Y-143324695D01*
X140047880Y-143324696D01*
X139963057Y-143388267D01*
X139941742Y-143404242D01*
X139860100Y-143513177D01*
X139812314Y-143640648D01*
X139811983Y-143643698D01*
X139811982Y-143643701D01*
X139811002Y-143652724D01*
X139806000Y-143698767D01*
X139806001Y-144301232D01*
X139812314Y-144359352D01*
X139814387Y-144364882D01*
X139856255Y-144476565D01*
X139860100Y-144486823D01*
X139862195Y-144489619D01*
X139862196Y-144489620D01*
X139885101Y-144520182D01*
X139941742Y-144595758D01*
X139944536Y-144597852D01*
X140043923Y-144672338D01*
X140050677Y-144677400D01*
X140053947Y-144678626D01*
X140053949Y-144678627D01*
X140097879Y-144695095D01*
X140178148Y-144725186D01*
X140181198Y-144725517D01*
X140181201Y-144725518D01*
X140205995Y-144728211D01*
X140236267Y-144731500D01*
X140499900Y-144731500D01*
X140763732Y-144731499D01*
X140821852Y-144725186D01*
X140897509Y-144696824D01*
X140946051Y-144678627D01*
X140946053Y-144678626D01*
X140949323Y-144677400D01*
X140956078Y-144672338D01*
X141055464Y-144597852D01*
X141058258Y-144595758D01*
X141114899Y-144520182D01*
X141137804Y-144489620D01*
X141137805Y-144489619D01*
X141139900Y-144486823D01*
X141143746Y-144476565D01*
X141171096Y-144403607D01*
X141187686Y-144359352D01*
X141188019Y-144356292D01*
X141193856Y-144302555D01*
X141194000Y-144301233D01*
X141193999Y-143865819D01*
X141208351Y-143831171D01*
X141637277Y-143402246D01*
X141645345Y-143395730D01*
X141656903Y-143388267D01*
X141660304Y-143386071D01*
X141684037Y-143355966D01*
X141687869Y-143351654D01*
X141692171Y-143347352D01*
X141704536Y-143330050D01*
X141705899Y-143328235D01*
X141736427Y-143289510D01*
X141738934Y-143286330D01*
X141740276Y-143282509D01*
X141742227Y-143278960D01*
X141742369Y-143279038D01*
X141743344Y-143277161D01*
X141743198Y-143277090D01*
X141744981Y-143273451D01*
X141747334Y-143270158D01*
X141762621Y-143219042D01*
X141763333Y-143216851D01*
X141775339Y-143182663D01*
X141781016Y-143166498D01*
X141781500Y-143160909D01*
X141781507Y-143160910D01*
X141782266Y-143156403D01*
X141782057Y-143156377D01*
X141782565Y-143152355D01*
X141783725Y-143148476D01*
X141781538Y-143092821D01*
X141781500Y-143090897D01*
X141781500Y-142855499D01*
X141795852Y-142820851D01*
X141830500Y-142806499D01*
X141975262Y-142806499D01*
X141977613Y-142806031D01*
X141977617Y-142806031D01*
X142025500Y-142796507D01*
X142050081Y-142791618D01*
X142054092Y-142788938D01*
X142054094Y-142788937D01*
X142130915Y-142737606D01*
X142134926Y-142734926D01*
X142154702Y-142705329D01*
X142188937Y-142654094D01*
X142188938Y-142654092D01*
X142191618Y-142650081D01*
X142206500Y-142575263D01*
X142206499Y-141424738D01*
X142191618Y-141349919D01*
X142180939Y-141333936D01*
X142137606Y-141269085D01*
X142134926Y-141265074D01*
X142097673Y-141240182D01*
X142054094Y-141211063D01*
X142054092Y-141211062D01*
X142050081Y-141208382D01*
X142001112Y-141198642D01*
X141977617Y-141193968D01*
X141977615Y-141193968D01*
X141975263Y-141193500D01*
X141886100Y-141193500D01*
X141153319Y-141193501D01*
X141118671Y-141179149D01*
X140279170Y-140339648D01*
X140264818Y-140305000D01*
X140279170Y-140270352D01*
X140313818Y-140256000D01*
X159695000Y-140256000D01*
X159729648Y-140270352D01*
X159744000Y-140305000D01*
X159744000Y-146110817D01*
X159729648Y-146145465D01*
X159695000Y-146159817D01*
X159672074Y-146154123D01*
X159536997Y-146082603D01*
X159382886Y-146043893D01*
X159302159Y-146043470D01*
X159226943Y-146043076D01*
X159226939Y-146043076D01*
X159223990Y-146043061D01*
X159221117Y-146043751D01*
X159221115Y-146043751D01*
X159217281Y-146044671D01*
X159180240Y-146038804D01*
X159171196Y-146031673D01*
X158737248Y-145597725D01*
X158730731Y-145589656D01*
X158723270Y-145578100D01*
X158723266Y-145578096D01*
X158721071Y-145574696D01*
X158709994Y-145565963D01*
X158690966Y-145550963D01*
X158686654Y-145547131D01*
X158682352Y-145542829D01*
X158669636Y-145533742D01*
X158657383Y-145521098D01*
X158649185Y-145508828D01*
X158609926Y-145450074D01*
X158593259Y-145438938D01*
X158529094Y-145396063D01*
X158529092Y-145396062D01*
X158525081Y-145393382D01*
X158476112Y-145383642D01*
X158452617Y-145378968D01*
X158452615Y-145378968D01*
X158450263Y-145378500D01*
X158447860Y-145378500D01*
X158225001Y-145378501D01*
X157999738Y-145378501D01*
X157997387Y-145378969D01*
X157997383Y-145378969D01*
X157949500Y-145388493D01*
X157924919Y-145393382D01*
X157920908Y-145396062D01*
X157920906Y-145396063D01*
X157856741Y-145438938D01*
X157840074Y-145450074D01*
X157837394Y-145454085D01*
X157786347Y-145530482D01*
X157783382Y-145534919D01*
X157780191Y-145550963D01*
X157769511Y-145604656D01*
X157768500Y-145609737D01*
X157768501Y-146060262D01*
X157768969Y-146062613D01*
X157768969Y-146062617D01*
X157771006Y-146072859D01*
X157783382Y-146135081D01*
X157786062Y-146139092D01*
X157786063Y-146139094D01*
X157799910Y-146159817D01*
X157840074Y-146219926D01*
X157844085Y-146222606D01*
X157920906Y-146273937D01*
X157920908Y-146273938D01*
X157924919Y-146276618D01*
X157949167Y-146281441D01*
X157980350Y-146302277D01*
X157987667Y-146339059D01*
X157966831Y-146370242D01*
X157939608Y-146378500D01*
X155911899Y-146378501D01*
X155899738Y-146378501D01*
X155897387Y-146378969D01*
X155897383Y-146378969D01*
X155865845Y-146385242D01*
X155824919Y-146393382D01*
X155820908Y-146396062D01*
X155820906Y-146396063D01*
X155781136Y-146422637D01*
X155740074Y-146450074D01*
X155737394Y-146454085D01*
X155695083Y-146517408D01*
X155683382Y-146534919D01*
X155668500Y-146609737D01*
X155668500Y-146612140D01*
X155668501Y-148500234D01*
X155654149Y-148534882D01*
X155646727Y-148540974D01*
X155583334Y-148583331D01*
X155527840Y-148666383D01*
X155513488Y-148701031D01*
X155513018Y-148703394D01*
X155513017Y-148703397D01*
X155506681Y-148735252D01*
X155494000Y-148799000D01*
X155494000Y-156451000D01*
X155502044Y-156491440D01*
X155512981Y-156546418D01*
X155513488Y-156548969D01*
X155527840Y-156583617D01*
X155583331Y-156666666D01*
X155666383Y-156722160D01*
X155700539Y-156736308D01*
X155701031Y-156736512D01*
X155700969Y-156736661D01*
X155729156Y-156759796D01*
X155732831Y-156797119D01*
X155726685Y-156810112D01*
X155683382Y-156874919D01*
X155674280Y-156920680D01*
X155673073Y-156926749D01*
X155668500Y-156949737D01*
X155668501Y-157845263D01*
X155668501Y-158695000D01*
X155654149Y-158729648D01*
X155619501Y-158744000D01*
X152380500Y-158744000D01*
X152345852Y-158729648D01*
X152331500Y-158695000D01*
X152331499Y-156952141D01*
X152331499Y-156949738D01*
X152326371Y-156923952D01*
X152321507Y-156899500D01*
X152316618Y-156874919D01*
X152295792Y-156843750D01*
X152262606Y-156794085D01*
X152259926Y-156790074D01*
X152207111Y-156754784D01*
X152179094Y-156736063D01*
X152179092Y-156736062D01*
X152175081Y-156733382D01*
X152123294Y-156723081D01*
X152102617Y-156718968D01*
X152102615Y-156718968D01*
X152100263Y-156718500D01*
X152010391Y-156718500D01*
X151975743Y-156704148D01*
X151961391Y-156669500D01*
X151975743Y-156634852D01*
X152000832Y-156621441D01*
X152004331Y-156620745D01*
X152025081Y-156616618D01*
X152029092Y-156613938D01*
X152029094Y-156613937D01*
X152074470Y-156583617D01*
X152102695Y-156564758D01*
X152129917Y-156556500D01*
X152529062Y-156556500D01*
X152539366Y-156557596D01*
X152556780Y-156561345D01*
X152594845Y-156556840D01*
X152600604Y-156556500D01*
X152606692Y-156556500D01*
X152627663Y-156553010D01*
X152629908Y-156552691D01*
X152682907Y-156546418D01*
X152686556Y-156544666D01*
X152690449Y-156543535D01*
X152690494Y-156543689D01*
X152692508Y-156543052D01*
X152692456Y-156542899D01*
X152696287Y-156541587D01*
X152700283Y-156540922D01*
X152747240Y-156515585D01*
X152749286Y-156514543D01*
X152797398Y-156491440D01*
X152801692Y-156487830D01*
X152801697Y-156487836D01*
X152805422Y-156485184D01*
X152805293Y-156485017D01*
X152808492Y-156482536D01*
X152812057Y-156480612D01*
X152849882Y-156439693D01*
X152851216Y-156438306D01*
X152870558Y-156418964D01*
X152905206Y-156404612D01*
X152908974Y-156404869D01*
X152910248Y-156405203D01*
X152991319Y-156406477D01*
X153066176Y-156407653D01*
X153066179Y-156407653D01*
X153069127Y-156407699D01*
X153072004Y-156407040D01*
X153072005Y-156407040D01*
X153221130Y-156372886D01*
X153221132Y-156372885D01*
X153224015Y-156372225D01*
X153226656Y-156370897D01*
X153226658Y-156370896D01*
X153297131Y-156335451D01*
X153365970Y-156300829D01*
X153486797Y-156197633D01*
X153488517Y-156195239D01*
X153490521Y-156193060D01*
X153491318Y-156193793D01*
X153520012Y-156175997D01*
X153556525Y-156184557D01*
X153560911Y-156188107D01*
X153616909Y-156239062D01*
X153619502Y-156240470D01*
X153619505Y-156240472D01*
X153720204Y-156295147D01*
X153756551Y-156314882D01*
X153910248Y-156355203D01*
X153998536Y-156356590D01*
X154066176Y-156357653D01*
X154066179Y-156357653D01*
X154069127Y-156357699D01*
X154072004Y-156357040D01*
X154072005Y-156357040D01*
X154221130Y-156322886D01*
X154221132Y-156322885D01*
X154224015Y-156322225D01*
X154226656Y-156320897D01*
X154226658Y-156320896D01*
X154297131Y-156285451D01*
X154365970Y-156250829D01*
X154486797Y-156147633D01*
X154556358Y-156050829D01*
X154577796Y-156020995D01*
X154577797Y-156020993D01*
X154579521Y-156018594D01*
X154638788Y-155871163D01*
X154661177Y-155713850D01*
X154661322Y-155700000D01*
X154642232Y-155542253D01*
X154637022Y-155528463D01*
X154587111Y-155396377D01*
X154587110Y-155396376D01*
X154586066Y-155393612D01*
X154496065Y-155262660D01*
X154493860Y-155260696D01*
X154493857Y-155260692D01*
X154397904Y-155175202D01*
X154381500Y-155138617D01*
X154381500Y-147705942D01*
X154382598Y-147695629D01*
X154385493Y-147682184D01*
X154385493Y-147682182D01*
X154386346Y-147678220D01*
X154381840Y-147640148D01*
X154381500Y-147634390D01*
X154381500Y-147628308D01*
X154378014Y-147607366D01*
X154377689Y-147605079D01*
X154371894Y-147556115D01*
X154371418Y-147552093D01*
X154369666Y-147548444D01*
X154368535Y-147544551D01*
X154368689Y-147544506D01*
X154368052Y-147542492D01*
X154367899Y-147542544D01*
X154366587Y-147538713D01*
X154365922Y-147534717D01*
X154340585Y-147487760D01*
X154339537Y-147485703D01*
X154334962Y-147476175D01*
X154316440Y-147437602D01*
X154314460Y-147435246D01*
X154313514Y-147434120D01*
X154313508Y-147434113D01*
X154312831Y-147433308D01*
X154312839Y-147433301D01*
X154310188Y-147429577D01*
X154310019Y-147429708D01*
X154307533Y-147426504D01*
X154305612Y-147422943D01*
X154264707Y-147385131D01*
X154263320Y-147383797D01*
X152477248Y-145597725D01*
X152470731Y-145589656D01*
X152463270Y-145578100D01*
X152463266Y-145578096D01*
X152461071Y-145574696D01*
X152449994Y-145565963D01*
X152430966Y-145550963D01*
X152426654Y-145547131D01*
X152422352Y-145542829D01*
X152417906Y-145539652D01*
X152405075Y-145530482D01*
X152403230Y-145529097D01*
X152374947Y-145506801D01*
X152361330Y-145496066D01*
X152357509Y-145494724D01*
X152353959Y-145492772D01*
X152354035Y-145492633D01*
X152352156Y-145491657D01*
X152352086Y-145491801D01*
X152348453Y-145490021D01*
X152345157Y-145487666D01*
X152294044Y-145472380D01*
X152291848Y-145471666D01*
X152283015Y-145468564D01*
X152241498Y-145453984D01*
X152235998Y-145453508D01*
X152235994Y-145453507D01*
X152235909Y-145453500D01*
X152235910Y-145453493D01*
X152231403Y-145452734D01*
X152231377Y-145452943D01*
X152227355Y-145452435D01*
X152223476Y-145451275D01*
X152219428Y-145451434D01*
X152167821Y-145453462D01*
X152165897Y-145453500D01*
X152129917Y-145453500D01*
X152102694Y-145445242D01*
X152029094Y-145396063D01*
X152029092Y-145396062D01*
X152025081Y-145393382D01*
X151976112Y-145383642D01*
X151952617Y-145378968D01*
X151952615Y-145378968D01*
X151950263Y-145378500D01*
X151947860Y-145378500D01*
X151725001Y-145378501D01*
X151499738Y-145378501D01*
X151497387Y-145378969D01*
X151497383Y-145378969D01*
X151449500Y-145388493D01*
X151424919Y-145393382D01*
X151420908Y-145396062D01*
X151420906Y-145396063D01*
X151356741Y-145438938D01*
X151340074Y-145450074D01*
X151337394Y-145454085D01*
X151286347Y-145530482D01*
X151283382Y-145534919D01*
X151280191Y-145550963D01*
X151269511Y-145604656D01*
X151268500Y-145609737D01*
X151268501Y-146060262D01*
X151268969Y-146062613D01*
X151268969Y-146062617D01*
X151271006Y-146072859D01*
X151283382Y-146135081D01*
X151286062Y-146139092D01*
X151286063Y-146139094D01*
X151299910Y-146159817D01*
X151340074Y-146219926D01*
X151344085Y-146222606D01*
X151420906Y-146273937D01*
X151420908Y-146273938D01*
X151424919Y-146276618D01*
X151449167Y-146281441D01*
X151480350Y-146302277D01*
X151487667Y-146339059D01*
X151466831Y-146370242D01*
X151439608Y-146378500D01*
X149409525Y-146378501D01*
X149399738Y-146378501D01*
X149397387Y-146378969D01*
X149397383Y-146378969D01*
X149365845Y-146385242D01*
X149324919Y-146393382D01*
X149320908Y-146396062D01*
X149320906Y-146396063D01*
X149281136Y-146422637D01*
X149240074Y-146450074D01*
X149237394Y-146454085D01*
X149195083Y-146517408D01*
X149183382Y-146534919D01*
X149168500Y-146609737D01*
X149168500Y-146612140D01*
X149168501Y-148500234D01*
X149154149Y-148534882D01*
X149146727Y-148540974D01*
X149083334Y-148583331D01*
X149027840Y-148666383D01*
X149013488Y-148701031D01*
X149013018Y-148703394D01*
X149013017Y-148703397D01*
X149006681Y-148735252D01*
X148994000Y-148799000D01*
X148994000Y-156451000D01*
X149002044Y-156491440D01*
X149012981Y-156546418D01*
X149013488Y-156548969D01*
X149027840Y-156583617D01*
X149083331Y-156666666D01*
X149166383Y-156722160D01*
X149200539Y-156736308D01*
X149201031Y-156736512D01*
X149200969Y-156736661D01*
X149229156Y-156759796D01*
X149232831Y-156797119D01*
X149226685Y-156810112D01*
X149183382Y-156874919D01*
X149174280Y-156920680D01*
X149173073Y-156926749D01*
X149168500Y-156949737D01*
X149168501Y-157845263D01*
X149168501Y-158695000D01*
X149154149Y-158729648D01*
X149119501Y-158744000D01*
X145880500Y-158744000D01*
X145845852Y-158729648D01*
X145831500Y-158695000D01*
X145831499Y-156952141D01*
X145831499Y-156949738D01*
X145826371Y-156923952D01*
X145821507Y-156899500D01*
X145816618Y-156874919D01*
X145795792Y-156843750D01*
X145762606Y-156794085D01*
X145759926Y-156790074D01*
X145707111Y-156754784D01*
X145679094Y-156736063D01*
X145679092Y-156736062D01*
X145675081Y-156733382D01*
X145623294Y-156723081D01*
X145602617Y-156718968D01*
X145602615Y-156718968D01*
X145600263Y-156718500D01*
X145510391Y-156718500D01*
X145475743Y-156704148D01*
X145461391Y-156669500D01*
X145475743Y-156634852D01*
X145500832Y-156621441D01*
X145504331Y-156620745D01*
X145525081Y-156616618D01*
X145529092Y-156613938D01*
X145529094Y-156613937D01*
X145574470Y-156583617D01*
X145602695Y-156564758D01*
X145629917Y-156556500D01*
X146029062Y-156556500D01*
X146039366Y-156557596D01*
X146056780Y-156561345D01*
X146094845Y-156556840D01*
X146100604Y-156556500D01*
X146106692Y-156556500D01*
X146127663Y-156553010D01*
X146129908Y-156552691D01*
X146182907Y-156546418D01*
X146186556Y-156544666D01*
X146190449Y-156543535D01*
X146190494Y-156543689D01*
X146192508Y-156543052D01*
X146192456Y-156542899D01*
X146196287Y-156541587D01*
X146200283Y-156540922D01*
X146247240Y-156515585D01*
X146249286Y-156514543D01*
X146297398Y-156491440D01*
X146301692Y-156487830D01*
X146301697Y-156487836D01*
X146305422Y-156485184D01*
X146305293Y-156485017D01*
X146308492Y-156482536D01*
X146312057Y-156480612D01*
X146349882Y-156439693D01*
X146351216Y-156438306D01*
X146370558Y-156418964D01*
X146405206Y-156404612D01*
X146408974Y-156404869D01*
X146410248Y-156405203D01*
X146491319Y-156406477D01*
X146566176Y-156407653D01*
X146566179Y-156407653D01*
X146569127Y-156407699D01*
X146572004Y-156407040D01*
X146572005Y-156407040D01*
X146721130Y-156372886D01*
X146721132Y-156372885D01*
X146724015Y-156372225D01*
X146726656Y-156370897D01*
X146726658Y-156370896D01*
X146797131Y-156335451D01*
X146865970Y-156300829D01*
X146986797Y-156197633D01*
X146988517Y-156195239D01*
X146990521Y-156193060D01*
X146991318Y-156193793D01*
X147020012Y-156175997D01*
X147056525Y-156184557D01*
X147060911Y-156188107D01*
X147116909Y-156239062D01*
X147119502Y-156240470D01*
X147119505Y-156240472D01*
X147220204Y-156295147D01*
X147256551Y-156314882D01*
X147410248Y-156355203D01*
X147498536Y-156356590D01*
X147566176Y-156357653D01*
X147566179Y-156357653D01*
X147569127Y-156357699D01*
X147572004Y-156357040D01*
X147572005Y-156357040D01*
X147721130Y-156322886D01*
X147721132Y-156322885D01*
X147724015Y-156322225D01*
X147726656Y-156320897D01*
X147726658Y-156320896D01*
X147797131Y-156285451D01*
X147865970Y-156250829D01*
X147986797Y-156147633D01*
X148056358Y-156050829D01*
X148077796Y-156020995D01*
X148077797Y-156020993D01*
X148079521Y-156018594D01*
X148138788Y-155871163D01*
X148161177Y-155713850D01*
X148161322Y-155700000D01*
X148151038Y-155615022D01*
X148161123Y-155578900D01*
X148165035Y-155574487D01*
X148637277Y-155102246D01*
X148645345Y-155095730D01*
X148648412Y-155093750D01*
X148660304Y-155086071D01*
X148684037Y-155055966D01*
X148687869Y-155051654D01*
X148692171Y-155047352D01*
X148704536Y-155030050D01*
X148705899Y-155028235D01*
X148736427Y-154989510D01*
X148738934Y-154986330D01*
X148740276Y-154982509D01*
X148742227Y-154978960D01*
X148742369Y-154979038D01*
X148743344Y-154977161D01*
X148743198Y-154977090D01*
X148744981Y-154973451D01*
X148747334Y-154970158D01*
X148762621Y-154919042D01*
X148763333Y-154916851D01*
X148775360Y-154882603D01*
X148781016Y-154866498D01*
X148781500Y-154860909D01*
X148781507Y-154860910D01*
X148782266Y-154856403D01*
X148782057Y-154856377D01*
X148782565Y-154852355D01*
X148783725Y-154848476D01*
X148782563Y-154818892D01*
X148781538Y-154792821D01*
X148781500Y-154790897D01*
X148781500Y-148620938D01*
X148782596Y-148610634D01*
X148786345Y-148593220D01*
X148781840Y-148555155D01*
X148781500Y-148549396D01*
X148781500Y-148543308D01*
X148778010Y-148522337D01*
X148777688Y-148520074D01*
X148776472Y-148509793D01*
X148771418Y-148467093D01*
X148769666Y-148463444D01*
X148768535Y-148459551D01*
X148768689Y-148459506D01*
X148768052Y-148457492D01*
X148767899Y-148457544D01*
X148766587Y-148453713D01*
X148765922Y-148449717D01*
X148740585Y-148402760D01*
X148739537Y-148400703D01*
X148716440Y-148352602D01*
X148712830Y-148348308D01*
X148712836Y-148348303D01*
X148710184Y-148344578D01*
X148710017Y-148344707D01*
X148707536Y-148341508D01*
X148705612Y-148337943D01*
X148664694Y-148300119D01*
X148663307Y-148298785D01*
X145977248Y-145612725D01*
X145970731Y-145604656D01*
X145963270Y-145593100D01*
X145963266Y-145593096D01*
X145961071Y-145589696D01*
X145949087Y-145580248D01*
X145930966Y-145565963D01*
X145926654Y-145562131D01*
X145922352Y-145557829D01*
X145912744Y-145550963D01*
X145905075Y-145545482D01*
X145903230Y-145544097D01*
X145864511Y-145513574D01*
X145861330Y-145511066D01*
X145857509Y-145509724D01*
X145853959Y-145507772D01*
X145854035Y-145507633D01*
X145852156Y-145506657D01*
X145852086Y-145506801D01*
X145848453Y-145505021D01*
X145845157Y-145502666D01*
X145794044Y-145487380D01*
X145791848Y-145486666D01*
X145785986Y-145484607D01*
X145741498Y-145468984D01*
X145735998Y-145468508D01*
X145735994Y-145468507D01*
X145735909Y-145468500D01*
X145735910Y-145468493D01*
X145731403Y-145467734D01*
X145731377Y-145467943D01*
X145727355Y-145467435D01*
X145723476Y-145466275D01*
X145719428Y-145466434D01*
X145667821Y-145468462D01*
X145665897Y-145468500D01*
X145629917Y-145468500D01*
X145602694Y-145460242D01*
X145594860Y-145455007D01*
X145571950Y-145439699D01*
X145529094Y-145411063D01*
X145529092Y-145411062D01*
X145525081Y-145408382D01*
X145476112Y-145398642D01*
X145452617Y-145393968D01*
X145452615Y-145393968D01*
X145450263Y-145393500D01*
X145447860Y-145393500D01*
X145225001Y-145393501D01*
X144999738Y-145393501D01*
X144997387Y-145393969D01*
X144997383Y-145393969D01*
X144949500Y-145403493D01*
X144924919Y-145408382D01*
X144920908Y-145411062D01*
X144920906Y-145411063D01*
X144860488Y-145451434D01*
X144840074Y-145465074D01*
X144837394Y-145469085D01*
X144786347Y-145545482D01*
X144783382Y-145549919D01*
X144768500Y-145624737D01*
X144768501Y-146075262D01*
X144783382Y-146150081D01*
X144786062Y-146154092D01*
X144786063Y-146154094D01*
X144827371Y-146215915D01*
X144840074Y-146234926D01*
X144844085Y-146237606D01*
X144920906Y-146288937D01*
X144920908Y-146288938D01*
X144924919Y-146291618D01*
X144949167Y-146296441D01*
X144980350Y-146317277D01*
X144987667Y-146354059D01*
X144966831Y-146385242D01*
X144939608Y-146393500D01*
X142909525Y-146393501D01*
X142899738Y-146393501D01*
X142897387Y-146393969D01*
X142897383Y-146393969D01*
X142849500Y-146403493D01*
X142824919Y-146408382D01*
X142820908Y-146411062D01*
X142820906Y-146411063D01*
X142769494Y-146445416D01*
X142740074Y-146465074D01*
X142737394Y-146469085D01*
X142693405Y-146534919D01*
X142683382Y-146549919D01*
X142677171Y-146581144D01*
X142670503Y-146614669D01*
X142668500Y-146624737D01*
X142668500Y-146627140D01*
X142668501Y-148500234D01*
X142654149Y-148534882D01*
X142646727Y-148540974D01*
X142583334Y-148583331D01*
X142527840Y-148666383D01*
X142513488Y-148701031D01*
X142513018Y-148703394D01*
X142513017Y-148703397D01*
X142506681Y-148735252D01*
X142494000Y-148799000D01*
X142494000Y-152959343D01*
X142479648Y-152993991D01*
X142445000Y-153008343D01*
X142422072Y-153002648D01*
X142405722Y-152993991D01*
X142336997Y-152957603D01*
X142182886Y-152918893D01*
X142102159Y-152918470D01*
X142026943Y-152918076D01*
X142026939Y-152918076D01*
X142023990Y-152918061D01*
X142021121Y-152918750D01*
X142021119Y-152918750D01*
X141883956Y-152951680D01*
X141869482Y-152955155D01*
X141861368Y-152959343D01*
X141739264Y-153022365D01*
X141728282Y-153028033D01*
X141608542Y-153132489D01*
X141606844Y-153134904D01*
X141606843Y-153134906D01*
X141567952Y-153190243D01*
X141517175Y-153262492D01*
X141459455Y-153410536D01*
X141459070Y-153413461D01*
X141440661Y-153553290D01*
X141438714Y-153568075D01*
X141439038Y-153571009D01*
X141441043Y-153589172D01*
X141430580Y-153625186D01*
X141397716Y-153643253D01*
X141392083Y-153643548D01*
X141301943Y-153643076D01*
X141301939Y-153643076D01*
X141298990Y-153643061D01*
X141296121Y-153643750D01*
X141296119Y-153643750D01*
X141147356Y-153679465D01*
X141144482Y-153680155D01*
X141141854Y-153681511D01*
X141141855Y-153681511D01*
X141021698Y-153743528D01*
X141003282Y-153753033D01*
X140883542Y-153857489D01*
X140881845Y-153859904D01*
X140881344Y-153860617D01*
X140881016Y-153860825D01*
X140879868Y-153862100D01*
X140879512Y-153861779D01*
X140849677Y-153880709D01*
X140813078Y-153872525D01*
X140806609Y-153867086D01*
X138395852Y-151456329D01*
X138381500Y-151421681D01*
X138381500Y-150347654D01*
X138395852Y-150313006D01*
X138398670Y-150310400D01*
X138486797Y-150235133D01*
X138530763Y-150173948D01*
X138577796Y-150108495D01*
X138577797Y-150108493D01*
X138579521Y-150106094D01*
X138638788Y-149958663D01*
X138661177Y-149801350D01*
X138661322Y-149787500D01*
X138642232Y-149629753D01*
X138640800Y-149625961D01*
X138587111Y-149483877D01*
X138587110Y-149483876D01*
X138586066Y-149481112D01*
X138496065Y-149350160D01*
X138493860Y-149348195D01*
X138493857Y-149348192D01*
X138379635Y-149246425D01*
X138377425Y-149244456D01*
X138236997Y-149170103D01*
X138082886Y-149131393D01*
X138002159Y-149130970D01*
X137926943Y-149130576D01*
X137926939Y-149130576D01*
X137923990Y-149130561D01*
X137921121Y-149131250D01*
X137921119Y-149131250D01*
X137772356Y-149166965D01*
X137769482Y-149167655D01*
X137766854Y-149169011D01*
X137766855Y-149169011D01*
X137662818Y-149222708D01*
X137628282Y-149240533D01*
X137508542Y-149344989D01*
X137506844Y-149347404D01*
X137506843Y-149347406D01*
X137504644Y-149350535D01*
X137417175Y-149474992D01*
X137416104Y-149477740D01*
X137416102Y-149477743D01*
X137378885Y-149573201D01*
X137359455Y-149623036D01*
X137338714Y-149780575D01*
X137356151Y-149938513D01*
X137410758Y-150087734D01*
X137412403Y-150090182D01*
X137484112Y-150196895D01*
X137499383Y-150219621D01*
X137501562Y-150221603D01*
X137501563Y-150221605D01*
X137602478Y-150313431D01*
X137618500Y-150349673D01*
X137618500Y-151554062D01*
X137617404Y-151564366D01*
X137613655Y-151581780D01*
X137615511Y-151597464D01*
X137618160Y-151619845D01*
X137618500Y-151625604D01*
X137618500Y-151631692D01*
X137621990Y-151652663D01*
X137622309Y-151654908D01*
X137628582Y-151707907D01*
X137630334Y-151711556D01*
X137631465Y-151715449D01*
X137631311Y-151715494D01*
X137631948Y-151717508D01*
X137632101Y-151717456D01*
X137633413Y-151721287D01*
X137634078Y-151725283D01*
X137636002Y-151728848D01*
X137659415Y-151772240D01*
X137660457Y-151774286D01*
X137683560Y-151822398D01*
X137687112Y-151826623D01*
X137687170Y-151826692D01*
X137687164Y-151826697D01*
X137689816Y-151830422D01*
X137689983Y-151830293D01*
X137692464Y-151833492D01*
X137694388Y-151837057D01*
X137697363Y-151839807D01*
X137735307Y-151874882D01*
X137736694Y-151876216D01*
X140397750Y-154537272D01*
X140404267Y-154545341D01*
X140411730Y-154556900D01*
X140411734Y-154556904D01*
X140413929Y-154560304D01*
X140417109Y-154562811D01*
X140417110Y-154562812D01*
X140444039Y-154584041D01*
X140448351Y-154587873D01*
X140452649Y-154592171D01*
X140454290Y-154593343D01*
X140454295Y-154593348D01*
X140469904Y-154604502D01*
X140471750Y-154605887D01*
X140513670Y-154638934D01*
X140517492Y-154640276D01*
X140521039Y-154642226D01*
X140520961Y-154642368D01*
X140522840Y-154643344D01*
X140522911Y-154643199D01*
X140526550Y-154644982D01*
X140529843Y-154647335D01*
X140533720Y-154648494D01*
X140533721Y-154648495D01*
X140580957Y-154662621D01*
X140583154Y-154663335D01*
X140633502Y-154681016D01*
X140639002Y-154681492D01*
X140639006Y-154681493D01*
X140639091Y-154681500D01*
X140639090Y-154681507D01*
X140643598Y-154682266D01*
X140643624Y-154682057D01*
X140647646Y-154682565D01*
X140651525Y-154683725D01*
X140655573Y-154683566D01*
X140707191Y-154681538D01*
X140709115Y-154681500D01*
X140814258Y-154681500D01*
X140848906Y-154695852D01*
X140854929Y-154703171D01*
X140872736Y-154729672D01*
X140872742Y-154729679D01*
X140874383Y-154732121D01*
X140894611Y-154750527D01*
X140908530Y-154763193D01*
X140924498Y-154797127D01*
X140911794Y-154832413D01*
X140907765Y-154836358D01*
X140883542Y-154857489D01*
X140881844Y-154859904D01*
X140881843Y-154859906D01*
X140855299Y-154897675D01*
X140823635Y-154917770D01*
X140815210Y-154918500D01*
X140745941Y-154918500D01*
X140735637Y-154917404D01*
X140718223Y-154913655D01*
X140682541Y-154917878D01*
X140680158Y-154918160D01*
X140674399Y-154918500D01*
X140668311Y-154918500D01*
X140668299Y-154918502D01*
X140668275Y-154918503D01*
X138700971Y-154918503D01*
X138666323Y-154904151D01*
X138651971Y-154869503D01*
X138652460Y-154862599D01*
X138652641Y-154861330D01*
X138661177Y-154801350D01*
X138661322Y-154787500D01*
X138642232Y-154629753D01*
X138640800Y-154625961D01*
X138587111Y-154483877D01*
X138587110Y-154483876D01*
X138586066Y-154481112D01*
X138496065Y-154350160D01*
X138493860Y-154348195D01*
X138493857Y-154348192D01*
X138379635Y-154246425D01*
X138377425Y-154244456D01*
X138236997Y-154170103D01*
X138082886Y-154131393D01*
X138002159Y-154130970D01*
X137926943Y-154130576D01*
X137926939Y-154130576D01*
X137923990Y-154130561D01*
X137921121Y-154131250D01*
X137921119Y-154131250D01*
X137805924Y-154158906D01*
X137769482Y-154167655D01*
X137766854Y-154169011D01*
X137766855Y-154169011D01*
X137673203Y-154217348D01*
X137628282Y-154240533D01*
X137508542Y-154344989D01*
X137506844Y-154347404D01*
X137506843Y-154347406D01*
X137503195Y-154352597D01*
X137417175Y-154474992D01*
X137416104Y-154477740D01*
X137416102Y-154477743D01*
X137392893Y-154537272D01*
X137359455Y-154623036D01*
X137338714Y-154780575D01*
X137356151Y-154938513D01*
X137410758Y-155087734D01*
X137412403Y-155090182D01*
X137492196Y-155208925D01*
X137499383Y-155219621D01*
X137501562Y-155221603D01*
X137501563Y-155221605D01*
X137520527Y-155238861D01*
X137616909Y-155326562D01*
X137619502Y-155327970D01*
X137619505Y-155327972D01*
X137729650Y-155387776D01*
X137756551Y-155402382D01*
X137759406Y-155403131D01*
X137772076Y-155406455D01*
X137910248Y-155442703D01*
X137998536Y-155444090D01*
X138066176Y-155445153D01*
X138066179Y-155445153D01*
X138069127Y-155445199D01*
X138082618Y-155442109D01*
X138119595Y-155448365D01*
X138128203Y-155455225D01*
X138210253Y-155537275D01*
X138216770Y-155545344D01*
X138224233Y-155556903D01*
X138224237Y-155556907D01*
X138226432Y-155560307D01*
X138229612Y-155562814D01*
X138229613Y-155562815D01*
X138256542Y-155584044D01*
X138260854Y-155587876D01*
X138265152Y-155592174D01*
X138266793Y-155593346D01*
X138266798Y-155593351D01*
X138282407Y-155604505D01*
X138284253Y-155605890D01*
X138326173Y-155638937D01*
X138329995Y-155640279D01*
X138333542Y-155642229D01*
X138333464Y-155642371D01*
X138335343Y-155643347D01*
X138335414Y-155643202D01*
X138339053Y-155644985D01*
X138342346Y-155647338D01*
X138346223Y-155648497D01*
X138346224Y-155648498D01*
X138393460Y-155662624D01*
X138395657Y-155663338D01*
X138446005Y-155681019D01*
X138451505Y-155681495D01*
X138451509Y-155681496D01*
X138451594Y-155681503D01*
X138451593Y-155681510D01*
X138456101Y-155682269D01*
X138456127Y-155682060D01*
X138460149Y-155682568D01*
X138464028Y-155683728D01*
X138468076Y-155683569D01*
X138519694Y-155681541D01*
X138521618Y-155681503D01*
X140654062Y-155681503D01*
X140664366Y-155682599D01*
X140681780Y-155686348D01*
X140719845Y-155681843D01*
X140725604Y-155681503D01*
X140731692Y-155681503D01*
X140731704Y-155681501D01*
X140731728Y-155681500D01*
X140814258Y-155681500D01*
X140848906Y-155695852D01*
X140854929Y-155703171D01*
X140872736Y-155729672D01*
X140872742Y-155729679D01*
X140874383Y-155732121D01*
X140991909Y-155839062D01*
X140994502Y-155840470D01*
X140994505Y-155840472D01*
X141104650Y-155900276D01*
X141131551Y-155914882D01*
X141285248Y-155955203D01*
X141373536Y-155956590D01*
X141441176Y-155957653D01*
X141441179Y-155957653D01*
X141444127Y-155957699D01*
X141447004Y-155957040D01*
X141447005Y-155957040D01*
X141596130Y-155922886D01*
X141596132Y-155922885D01*
X141599015Y-155922225D01*
X141601656Y-155920897D01*
X141601658Y-155920896D01*
X141647483Y-155897848D01*
X141684886Y-155895101D01*
X141713275Y-155919606D01*
X141718500Y-155941623D01*
X141718500Y-159348680D01*
X141704148Y-159383328D01*
X141259649Y-159827828D01*
X141225001Y-159842180D01*
X141190353Y-159827828D01*
X141150249Y-159787724D01*
X141143732Y-159779655D01*
X141136271Y-159768099D01*
X141136267Y-159768095D01*
X141134072Y-159764695D01*
X141130247Y-159761679D01*
X141103967Y-159740962D01*
X141099655Y-159737130D01*
X141095353Y-159732828D01*
X141093706Y-159731651D01*
X141078076Y-159720481D01*
X141076231Y-159719096D01*
X141053915Y-159701504D01*
X141034331Y-159686065D01*
X141030510Y-159684723D01*
X141026960Y-159682771D01*
X141027036Y-159682632D01*
X141025157Y-159681656D01*
X141025087Y-159681800D01*
X141021454Y-159680020D01*
X141018158Y-159677665D01*
X140967045Y-159662379D01*
X140964849Y-159661665D01*
X140949600Y-159656310D01*
X140914499Y-159643983D01*
X140908999Y-159643507D01*
X140908995Y-159643506D01*
X140908910Y-159643499D01*
X140908911Y-159643492D01*
X140904404Y-159642733D01*
X140904378Y-159642942D01*
X140900356Y-159642434D01*
X140896477Y-159641274D01*
X140892429Y-159641433D01*
X140840822Y-159643461D01*
X140838898Y-159643499D01*
X138085222Y-159643499D01*
X138050574Y-159629147D01*
X138044840Y-159622253D01*
X138022739Y-159590096D01*
X138021064Y-159587659D01*
X138018859Y-159585694D01*
X138018856Y-159585691D01*
X137904634Y-159483924D01*
X137902424Y-159481955D01*
X137761996Y-159407602D01*
X137607885Y-159368892D01*
X137527158Y-159368469D01*
X137451942Y-159368075D01*
X137451938Y-159368075D01*
X137448989Y-159368060D01*
X137446120Y-159368749D01*
X137446118Y-159368749D01*
X137297355Y-159404464D01*
X137294481Y-159405154D01*
X137153281Y-159478032D01*
X137033541Y-159582488D01*
X137031843Y-159584903D01*
X137031842Y-159584905D01*
X137005298Y-159622674D01*
X136973634Y-159642769D01*
X136965209Y-159643499D01*
X135020943Y-159643499D01*
X135010630Y-159642401D01*
X134997185Y-159639506D01*
X134997183Y-159639506D01*
X134993221Y-159638653D01*
X134955150Y-159643159D01*
X134949391Y-159643499D01*
X134943309Y-159643499D01*
X134934256Y-159645006D01*
X134922367Y-159646985D01*
X134920078Y-159647310D01*
X134867094Y-159653581D01*
X134863445Y-159655333D01*
X134859552Y-159656464D01*
X134859507Y-159656310D01*
X134857493Y-159656947D01*
X134857545Y-159657100D01*
X134853714Y-159658412D01*
X134849718Y-159659077D01*
X134817419Y-159676505D01*
X134802761Y-159684414D01*
X134800715Y-159685456D01*
X134752603Y-159708559D01*
X134750248Y-159710538D01*
X134750247Y-159710539D01*
X134749121Y-159711485D01*
X134749114Y-159711491D01*
X134748410Y-159712083D01*
X134748406Y-159712086D01*
X134748309Y-159712168D01*
X134748302Y-159712160D01*
X134744578Y-159714811D01*
X134744709Y-159714980D01*
X134741505Y-159717466D01*
X134737944Y-159719387D01*
X134713070Y-159746296D01*
X134700132Y-159760292D01*
X134698798Y-159761679D01*
X131356329Y-163104148D01*
X131321681Y-163118500D01*
X124810223Y-163118500D01*
X124775575Y-163104148D01*
X124769841Y-163097254D01*
X124747740Y-163065097D01*
X124746065Y-163062660D01*
X124743860Y-163060695D01*
X124743857Y-163060692D01*
X124629635Y-162958925D01*
X124627425Y-162956956D01*
X124486997Y-162882603D01*
X124332886Y-162843893D01*
X124252159Y-162843470D01*
X124176943Y-162843076D01*
X124176939Y-162843076D01*
X124173990Y-162843061D01*
X124171121Y-162843750D01*
X124171119Y-162843750D01*
X124022356Y-162879465D01*
X124019482Y-162880155D01*
X124016854Y-162881511D01*
X124016855Y-162881511D01*
X123905351Y-162939062D01*
X123878282Y-162953033D01*
X123758542Y-163057489D01*
X123756844Y-163059904D01*
X123756843Y-163059906D01*
X123723849Y-163106852D01*
X123667175Y-163187492D01*
X123666104Y-163190240D01*
X123666102Y-163190243D01*
X123644904Y-163244613D01*
X123609455Y-163335536D01*
X123588714Y-163493075D01*
X123606151Y-163651013D01*
X123660758Y-163800234D01*
X123662403Y-163802682D01*
X123725117Y-163896009D01*
X123749383Y-163932121D01*
X123866909Y-164039062D01*
X123869502Y-164040470D01*
X123869505Y-164040472D01*
X123979650Y-164100276D01*
X124006551Y-164114882D01*
X124160248Y-164155203D01*
X124248536Y-164156590D01*
X124316176Y-164157653D01*
X124316179Y-164157653D01*
X124319127Y-164157699D01*
X124322004Y-164157040D01*
X124322005Y-164157040D01*
X124471130Y-164122886D01*
X124471132Y-164122885D01*
X124474015Y-164122225D01*
X124476656Y-164120897D01*
X124476658Y-164120896D01*
X124547131Y-164085451D01*
X124615970Y-164050829D01*
X124676383Y-163999231D01*
X124734553Y-163949550D01*
X124734555Y-163949548D01*
X124736797Y-163947633D01*
X124769654Y-163901907D01*
X124801527Y-163882144D01*
X124809446Y-163881500D01*
X131454062Y-163881500D01*
X131464366Y-163882596D01*
X131481780Y-163886345D01*
X131519845Y-163881840D01*
X131525604Y-163881500D01*
X131531692Y-163881500D01*
X131552663Y-163878010D01*
X131554908Y-163877691D01*
X131607907Y-163871418D01*
X131611556Y-163869666D01*
X131615449Y-163868535D01*
X131615494Y-163868689D01*
X131617508Y-163868052D01*
X131617456Y-163867899D01*
X131621287Y-163866587D01*
X131625283Y-163865922D01*
X131672240Y-163840585D01*
X131674286Y-163839543D01*
X131722398Y-163816440D01*
X131726692Y-163812830D01*
X131726697Y-163812836D01*
X131730422Y-163810184D01*
X131730293Y-163810017D01*
X131733493Y-163807535D01*
X131737057Y-163805612D01*
X131739804Y-163802640D01*
X131739807Y-163802638D01*
X131764329Y-163776109D01*
X131798387Y-163760408D01*
X131833572Y-163773388D01*
X131849273Y-163807446D01*
X131848892Y-163815766D01*
X131840740Y-163877688D01*
X131838714Y-163893075D01*
X131856151Y-164051013D01*
X131910758Y-164200234D01*
X131912403Y-164202682D01*
X131968623Y-164286345D01*
X131999383Y-164332121D01*
X132116909Y-164439062D01*
X132119502Y-164440470D01*
X132119505Y-164440472D01*
X132229650Y-164500276D01*
X132256551Y-164514882D01*
X132410248Y-164555203D01*
X132498536Y-164556590D01*
X132566176Y-164557653D01*
X132566179Y-164557653D01*
X132569127Y-164557699D01*
X132572004Y-164557040D01*
X132572005Y-164557040D01*
X132721130Y-164522886D01*
X132721132Y-164522885D01*
X132724015Y-164522225D01*
X132726656Y-164520897D01*
X132726658Y-164520896D01*
X132797131Y-164485451D01*
X132865970Y-164450829D01*
X132926383Y-164399231D01*
X132984553Y-164349550D01*
X132984555Y-164349548D01*
X132986797Y-164347633D01*
X133019654Y-164301907D01*
X133051527Y-164282144D01*
X133059446Y-164281500D01*
X134304062Y-164281500D01*
X134314366Y-164282596D01*
X134331780Y-164286345D01*
X134369845Y-164281840D01*
X134375604Y-164281500D01*
X142445000Y-164281500D01*
X142479648Y-164295852D01*
X142494000Y-164330500D01*
X142494000Y-164695000D01*
X142479648Y-164729648D01*
X142445000Y-164744000D01*
X120305000Y-164744000D01*
X120270352Y-164729648D01*
X120256000Y-164695000D01*
X120256000Y-156094737D01*
X120543500Y-156094737D01*
X120543501Y-157845262D01*
X120558382Y-157920081D01*
X120561062Y-157924092D01*
X120561063Y-157924094D01*
X120575192Y-157945239D01*
X120615074Y-158004926D01*
X120619085Y-158007606D01*
X120695906Y-158058937D01*
X120695908Y-158058938D01*
X120699919Y-158061618D01*
X120748888Y-158071358D01*
X120772383Y-158076032D01*
X120772385Y-158076032D01*
X120774737Y-158076500D01*
X121650000Y-158076500D01*
X122525262Y-158076499D01*
X122527613Y-158076031D01*
X122527617Y-158076031D01*
X122575500Y-158066507D01*
X122600081Y-158061618D01*
X122604092Y-158058938D01*
X122604094Y-158058937D01*
X122680915Y-158007606D01*
X122684926Y-158004926D01*
X122724808Y-157945239D01*
X122738937Y-157924094D01*
X122738938Y-157924092D01*
X122741618Y-157920081D01*
X122756500Y-157845263D01*
X122756499Y-156094738D01*
X122754021Y-156082276D01*
X122742559Y-156024651D01*
X122741618Y-156019919D01*
X122738899Y-156015849D01*
X122687606Y-155939085D01*
X122684926Y-155935074D01*
X122668259Y-155923938D01*
X122604094Y-155881063D01*
X122604092Y-155881062D01*
X122600081Y-155878382D01*
X122549093Y-155868240D01*
X122527617Y-155863968D01*
X122527615Y-155863968D01*
X122525263Y-155863500D01*
X122522860Y-155863500D01*
X121650001Y-155863501D01*
X120774738Y-155863501D01*
X120772387Y-155863969D01*
X120772383Y-155863969D01*
X120724500Y-155873493D01*
X120699919Y-155878382D01*
X120695908Y-155881062D01*
X120695906Y-155881063D01*
X120631741Y-155923938D01*
X120615074Y-155935074D01*
X120612394Y-155939085D01*
X120561102Y-156015849D01*
X120558382Y-156019919D01*
X120552234Y-156050829D01*
X120545979Y-156082276D01*
X120543500Y-156094737D01*
X120256000Y-156094737D01*
X120256000Y-153130911D01*
X120539141Y-153130911D01*
X120552441Y-153333836D01*
X120602499Y-153530940D01*
X120603435Y-153532970D01*
X120603437Y-153532976D01*
X120654276Y-153643253D01*
X120687638Y-153715620D01*
X120711889Y-153749934D01*
X120798527Y-153872525D01*
X120805006Y-153881693D01*
X120806610Y-153883256D01*
X120806613Y-153883259D01*
X120883404Y-153958064D01*
X120950674Y-154023596D01*
X120952536Y-154024840D01*
X120952537Y-154024841D01*
X121113081Y-154132113D01*
X121119762Y-154136577D01*
X121306608Y-154216852D01*
X121308800Y-154217348D01*
X121502764Y-154261238D01*
X121502770Y-154261239D01*
X121504954Y-154261733D01*
X121590725Y-154265103D01*
X121705911Y-154269629D01*
X121705914Y-154269629D01*
X121708158Y-154269717D01*
X121710377Y-154269395D01*
X121710382Y-154269395D01*
X121808786Y-154255126D01*
X121909414Y-154240536D01*
X121911536Y-154239816D01*
X121911539Y-154239815D01*
X122011077Y-154206026D01*
X122101982Y-154175168D01*
X122147253Y-154149815D01*
X122277451Y-154076901D01*
X122277453Y-154076900D01*
X122279413Y-154075802D01*
X122281507Y-154074061D01*
X122434042Y-153947198D01*
X122435765Y-153945765D01*
X122565802Y-153789413D01*
X122586934Y-153751680D01*
X122664072Y-153613939D01*
X122665168Y-153611982D01*
X122704536Y-153496009D01*
X122729815Y-153421539D01*
X122729816Y-153421536D01*
X122730536Y-153419414D01*
X122759717Y-153218158D01*
X122761240Y-153160000D01*
X122752043Y-153059906D01*
X122742838Y-152959730D01*
X122742837Y-152959725D01*
X122742632Y-152957493D01*
X122710553Y-152843750D01*
X122688044Y-152763936D01*
X122688043Y-152763933D01*
X122687432Y-152761767D01*
X122675167Y-152736895D01*
X122626698Y-152638611D01*
X122597488Y-152579379D01*
X122475812Y-152416435D01*
X122326480Y-152278394D01*
X122303856Y-152264119D01*
X122273932Y-152245239D01*
X122154492Y-152169878D01*
X122120291Y-152156233D01*
X121967695Y-152095353D01*
X121967693Y-152095352D01*
X121965609Y-152094521D01*
X121963408Y-152094083D01*
X121963404Y-152094082D01*
X121768360Y-152055285D01*
X121768356Y-152055285D01*
X121766156Y-152054847D01*
X121672931Y-152053627D01*
X121565061Y-152052215D01*
X121565056Y-152052215D01*
X121562813Y-152052186D01*
X121560596Y-152052567D01*
X121560595Y-152052567D01*
X121498382Y-152063257D01*
X121362390Y-152086625D01*
X121360286Y-152087401D01*
X121360283Y-152087402D01*
X121173707Y-152156233D01*
X121173704Y-152156234D01*
X121171599Y-152157011D01*
X121169671Y-152158158D01*
X121169669Y-152158159D01*
X121016059Y-152249548D01*
X120996830Y-152260988D01*
X120995142Y-152262468D01*
X120995141Y-152262469D01*
X120976982Y-152278394D01*
X120843935Y-152395073D01*
X120842550Y-152396829D01*
X120842546Y-152396834D01*
X120719426Y-152553011D01*
X120719423Y-152553015D01*
X120718036Y-152554775D01*
X120716988Y-152556767D01*
X120637093Y-152708623D01*
X120623348Y-152734747D01*
X120563043Y-152928960D01*
X120562779Y-152931192D01*
X120562778Y-152931196D01*
X120547831Y-153057489D01*
X120539141Y-153130911D01*
X120256000Y-153130911D01*
X120256000Y-141700911D01*
X123079141Y-141700911D01*
X123092441Y-141903836D01*
X123125663Y-142034648D01*
X123140825Y-142094347D01*
X123142499Y-142100940D01*
X123143435Y-142102970D01*
X123143437Y-142102976D01*
X123193284Y-142211101D01*
X123227638Y-142285620D01*
X123345006Y-142451693D01*
X123346610Y-142453256D01*
X123346613Y-142453259D01*
X123409009Y-142514042D01*
X123490674Y-142593596D01*
X123492536Y-142594840D01*
X123492537Y-142594841D01*
X123596481Y-142664294D01*
X123659762Y-142706577D01*
X123846608Y-142786852D01*
X123848800Y-142787348D01*
X124042764Y-142831238D01*
X124042770Y-142831239D01*
X124044954Y-142831733D01*
X124130725Y-142835103D01*
X124245911Y-142839629D01*
X124245914Y-142839629D01*
X124248158Y-142839717D01*
X124250377Y-142839395D01*
X124250382Y-142839395D01*
X124348786Y-142825127D01*
X124449414Y-142810536D01*
X124451536Y-142809816D01*
X124451539Y-142809815D01*
X124551077Y-142776026D01*
X124641982Y-142745168D01*
X124667433Y-142730915D01*
X124817451Y-142646901D01*
X124817453Y-142646900D01*
X124819413Y-142645802D01*
X124975765Y-142515765D01*
X125105802Y-142359413D01*
X125134803Y-142307629D01*
X125204072Y-142183939D01*
X125205168Y-142181982D01*
X125270536Y-141989414D01*
X125287406Y-141873065D01*
X125299510Y-141789588D01*
X125299510Y-141789582D01*
X125299717Y-141788158D01*
X125301240Y-141730000D01*
X125297959Y-141694295D01*
X125282838Y-141529730D01*
X125282837Y-141529725D01*
X125282632Y-141527493D01*
X125233886Y-141354651D01*
X125228044Y-141333936D01*
X125228043Y-141333933D01*
X125227432Y-141331767D01*
X125226435Y-141329744D01*
X125138482Y-141151395D01*
X125137488Y-141149379D01*
X125015812Y-140986435D01*
X124990734Y-140963253D01*
X124868131Y-140849920D01*
X124868130Y-140849919D01*
X124866480Y-140848394D01*
X124694492Y-140739878D01*
X124660291Y-140726233D01*
X124507695Y-140665353D01*
X124507693Y-140665352D01*
X124505609Y-140664521D01*
X124503408Y-140664083D01*
X124503404Y-140664082D01*
X124308360Y-140625285D01*
X124308356Y-140625285D01*
X124306156Y-140624847D01*
X124212931Y-140623627D01*
X124105061Y-140622215D01*
X124105056Y-140622215D01*
X124102813Y-140622186D01*
X124100596Y-140622567D01*
X124100595Y-140622567D01*
X124038382Y-140633257D01*
X123902390Y-140656625D01*
X123900286Y-140657401D01*
X123900283Y-140657402D01*
X123713707Y-140726233D01*
X123713704Y-140726234D01*
X123711599Y-140727011D01*
X123709671Y-140728158D01*
X123709669Y-140728159D01*
X123538761Y-140829839D01*
X123536830Y-140830988D01*
X123383935Y-140965073D01*
X123382550Y-140966829D01*
X123382546Y-140966834D01*
X123259426Y-141123011D01*
X123259423Y-141123015D01*
X123258036Y-141124775D01*
X123163348Y-141304747D01*
X123162681Y-141306895D01*
X123150568Y-141345906D01*
X123103043Y-141498960D01*
X123079141Y-141700911D01*
X120256000Y-141700911D01*
X120256000Y-140305000D01*
X120270352Y-140270352D01*
X120305000Y-140256000D01*
X127546182Y-140256000D01*
X127580830Y-140270352D01*
G37*
G04 #@! TD.AperFunction*
M02*
