G04 #@! TF.GenerationSoftware,KiCad,Pcbnew,6.0.1-79c1e3a40b~116~ubuntu21.04.1*
G04 #@! TF.CreationDate,2022-02-15T17:28:44-05:00*
G04 #@! TF.ProjectId,ESC_V5,4553435f-5635-42e6-9b69-6361645f7063,rev?*
G04 #@! TF.SameCoordinates,Original*
G04 #@! TF.FileFunction,Soldermask,Top*
G04 #@! TF.FilePolarity,Negative*
%FSLAX46Y46*%
G04 Gerber Fmt 4.6, Leading zero omitted, Abs format (unit mm)*
G04 Created by KiCad (PCBNEW 6.0.1-79c1e3a40b~116~ubuntu21.04.1) date 2022-02-15 17:28:44*
%MOMM*%
%LPD*%
G01*
G04 APERTURE LIST*
G04 Aperture macros list*
%AMRoundRect*
0 Rectangle with rounded corners*
0 $1 Rounding radius*
0 $2 $3 $4 $5 $6 $7 $8 $9 X,Y pos of 4 corners*
0 Add a 4 corners polygon primitive as box body*
4,1,4,$2,$3,$4,$5,$6,$7,$8,$9,$2,$3,0*
0 Add four circle primitives for the rounded corners*
1,1,$1+$1,$2,$3*
1,1,$1+$1,$4,$5*
1,1,$1+$1,$6,$7*
1,1,$1+$1,$8,$9*
0 Add four rect primitives between the rounded corners*
20,1,$1+$1,$2,$3,$4,$5,0*
20,1,$1+$1,$4,$5,$6,$7,0*
20,1,$1+$1,$6,$7,$8,$9,0*
20,1,$1+$1,$8,$9,$2,$3,0*%
G04 Aperture macros list end*
%ADD10RoundRect,0.268750X-0.256250X0.218750X-0.256250X-0.218750X0.256250X-0.218750X0.256250X0.218750X0*%
%ADD11RoundRect,0.268750X0.256250X-0.218750X0.256250X0.218750X-0.256250X0.218750X-0.256250X-0.218750X0*%
%ADD12RoundRect,0.197500X-0.147500X-0.172500X0.147500X-0.172500X0.147500X0.172500X-0.147500X0.172500X0*%
%ADD13RoundRect,0.050000X-0.550000X0.550000X-0.550000X-0.550000X0.550000X-0.550000X0.550000X0.550000X0*%
%ADD14RoundRect,0.050000X0.550000X0.550000X-0.550000X0.550000X-0.550000X-0.550000X0.550000X-0.550000X0*%
%ADD15RoundRect,0.050000X-0.250000X0.400000X-0.250000X-0.400000X0.250000X-0.400000X0.250000X0.400000X0*%
%ADD16RoundRect,0.050000X-0.200000X0.400000X-0.200000X-0.400000X0.200000X-0.400000X0.200000X0.400000X0*%
%ADD17RoundRect,0.050000X0.380000X0.215000X-0.380000X0.215000X-0.380000X-0.215000X0.380000X-0.215000X0*%
%ADD18RoundRect,0.050000X-0.400000X-0.250000X0.400000X-0.250000X0.400000X0.250000X-0.400000X0.250000X0*%
%ADD19RoundRect,0.050000X-0.400000X-0.200000X0.400000X-0.200000X0.400000X0.200000X-0.400000X0.200000X0*%
%ADD20RoundRect,0.050000X0.400000X0.250000X-0.400000X0.250000X-0.400000X-0.250000X0.400000X-0.250000X0*%
%ADD21RoundRect,0.050000X0.400000X0.200000X-0.400000X0.200000X-0.400000X-0.200000X0.400000X-0.200000X0*%
%ADD22RoundRect,0.200000X-0.875000X-0.150000X0.875000X-0.150000X0.875000X0.150000X-0.875000X0.150000X0*%
%ADD23RoundRect,0.050000X0.850000X0.850000X-0.850000X0.850000X-0.850000X-0.850000X0.850000X-0.850000X0*%
%ADD24O,1.800000X1.800000*%
%ADD25RoundRect,0.050000X-0.850000X0.850000X-0.850000X-0.850000X0.850000X-0.850000X0.850000X0.850000X0*%
G04 APERTURE END LIST*
D10*
X138000000Y-148212500D03*
X138000000Y-149787500D03*
X138000000Y-153212500D03*
X138000000Y-154787500D03*
D11*
X124000000Y-158575000D03*
X124000000Y-157000000D03*
D12*
X152915000Y-142950000D03*
X153885000Y-142950000D03*
X152915000Y-144200000D03*
X153885000Y-144200000D03*
X152915000Y-141700000D03*
X153885000Y-141700000D03*
D13*
X130000000Y-161100000D03*
X130000000Y-163900000D03*
X132500000Y-161100000D03*
X132500000Y-163900000D03*
D14*
X126900000Y-161800000D03*
X124100000Y-161800000D03*
D15*
X147300000Y-150500000D03*
D16*
X146500000Y-150500000D03*
X145700000Y-150500000D03*
D15*
X144900000Y-150500000D03*
X144900000Y-152300000D03*
D16*
X145700000Y-152300000D03*
X146500000Y-152300000D03*
D15*
X147300000Y-152300000D03*
D17*
X149000000Y-146000000D03*
X149000000Y-146800000D03*
X149000000Y-147600000D03*
X149000000Y-148400000D03*
X150520000Y-148400000D03*
X150520000Y-147600000D03*
X150520000Y-146800000D03*
X150520000Y-146000000D03*
D18*
X144800000Y-159900000D03*
D19*
X144800000Y-160700000D03*
X144800000Y-161500000D03*
D18*
X144800000Y-162300000D03*
X146600000Y-162300000D03*
D19*
X146600000Y-161500000D03*
X146600000Y-160700000D03*
D18*
X146600000Y-159900000D03*
D20*
X154700000Y-162300000D03*
D21*
X154700000Y-161500000D03*
X154700000Y-160700000D03*
D20*
X154700000Y-159900000D03*
X152900000Y-159900000D03*
D21*
X152900000Y-160700000D03*
X152900000Y-161500000D03*
D20*
X152900000Y-162300000D03*
D15*
X147300000Y-141500000D03*
D16*
X146500000Y-141500000D03*
X145700000Y-141500000D03*
D15*
X144900000Y-141500000D03*
X144900000Y-143300000D03*
D16*
X145700000Y-143300000D03*
X146500000Y-143300000D03*
D15*
X147300000Y-143300000D03*
D22*
X126350000Y-147785000D03*
X126350000Y-149055000D03*
X126350000Y-150325000D03*
X126350000Y-151595000D03*
X126350000Y-152865000D03*
X126350000Y-154135000D03*
X126350000Y-155405000D03*
X126350000Y-156675000D03*
X126350000Y-157945000D03*
X126350000Y-159215000D03*
X135650000Y-159215000D03*
X135650000Y-157945000D03*
X135650000Y-156675000D03*
X135650000Y-155405000D03*
X135650000Y-154135000D03*
X135650000Y-152865000D03*
X135650000Y-151595000D03*
X135650000Y-150325000D03*
X135650000Y-149055000D03*
X135650000Y-147785000D03*
D23*
X121650000Y-145540000D03*
D24*
X121650000Y-148080000D03*
X121650000Y-150620000D03*
X121650000Y-153160000D03*
D23*
X121650000Y-156970000D03*
D24*
X121650000Y-159510000D03*
X121650000Y-162050000D03*
D25*
X121650000Y-141730000D03*
D24*
X124190000Y-141730000D03*
X126730000Y-141730000D03*
X129270000Y-141730000D03*
X131810000Y-141730000D03*
X134350000Y-141730000D03*
M02*
